<svg width="1195" height="450" viewBox="0 0 1195 450" fill="none" xmlns="http://www.w3.org/2000/svg">
<path d="M620.249 0.524414C612.638 0.524414 604.989 1.34836 597.511 2.97709C590.033 1.34836 582.384 0.524414 574.793 0.524414C515.275 0.524414 466.832 49.2906 466.832 109.228C466.832 169.165 515.256 217.931 574.793 217.931C582.403 217.931 590.052 217.108 597.53 215.479C605.008 217.108 612.657 217.931 620.268 217.931C679.785 217.931 728.209 169.165 728.209 109.228C728.209 49.2906 679.785 0.524414 620.249 0.524414ZM629.439 192.772V110.493L597.625 83.5898L597.378 83.379L565.45 110.378L565.317 110.493V192.581C537.461 173.898 520.85 142.799 520.85 109.228C520.85 86.5407 528.632 64.3133 542.751 46.6271C556.641 29.2284 576.086 16.8692 597.511 11.7914C618.936 16.8692 638.382 29.2284 652.271 46.6271C666.39 64.3133 674.172 86.5407 674.172 109.228C674.191 142.952 657.466 174.128 629.439 192.772ZM531.201 47.8726C518.833 65.9995 512.307 87.2113 512.307 109.228C512.307 131.245 518.833 152.456 531.201 170.583C542.941 187.79 559.133 201.146 578.084 209.27C577 209.309 575.896 209.328 574.773 209.328C519.956 209.328 475.375 164.413 475.375 109.228C475.375 54.0427 519.975 9.12795 574.773 9.12795C575.877 9.12795 576.981 9.14712 578.084 9.18544C559.114 17.3291 542.922 30.6656 531.201 47.8726ZM620.876 114.517V185.702L575.211 113.386L597.378 94.6268L620.876 114.517ZM663.84 170.583C676.189 152.456 682.734 131.245 682.734 109.228C682.734 87.2113 676.208 65.9995 663.84 47.8726C652.1 30.6656 635.908 17.3099 616.938 9.18544C618.022 9.14712 619.126 9.12795 620.249 9.12795C675.066 9.12795 719.647 54.0427 719.647 109.228C719.647 164.413 675.047 209.328 620.249 209.328C619.145 209.328 618.041 209.309 616.938 209.27C635.927 201.146 652.1 187.79 663.84 170.583ZM619.05 198.827C612.219 202.276 604.97 204.902 597.53 206.665C589.272 204.71 581.319 201.702 573.879 197.735V127.297L619.05 198.827Z" fill="#BB877A"/>
<path d="M67.1661 292.387C57.9379 292.387 50.308 293.729 44.3144 296.43C38.3208 299.132 33.8494 302.677 30.9383 307.084C28.0081 311.491 26.562 316.205 26.562 321.225C26.562 325.019 27.7607 328.603 30.1772 331.937C32.5746 335.29 35.8283 338.509 39.8811 341.632C43.9529 344.756 48.5385 347.783 53.6758 350.753C58.8132 353.723 64.1788 356.693 69.7729 359.644C75.8425 362.844 81.798 366.14 87.5823 369.57C93.3856 373 98.6372 376.545 103.337 380.224C108.037 383.903 111.804 387.869 114.639 392.085C117.474 396.3 118.901 400.842 118.901 405.709C118.901 413.622 116.447 420.827 111.557 427.38C106.667 433.915 99.246 439.126 89.2948 442.997C79.3435 446.868 66.8427 448.803 51.7541 448.803C44.8852 448.803 38.1686 447.768 31.6233 445.718C25.0779 443.668 19.0843 441.119 13.6806 438.073C8.27684 435.026 3.71031 431.96 0 428.837L5.44179 423.816C8.67642 426.557 12.8244 429.297 17.8666 432.018C22.9088 434.758 28.4077 437.076 34.3251 438.973C40.2426 440.87 46.0459 441.828 51.735 441.828C65.5488 441.828 75.7664 439.414 82.4069 434.585C89.0284 429.756 92.3582 422.322 92.3582 412.3C92.3582 409.043 91.2356 405.881 88.9903 402.835C86.7451 399.788 83.6818 396.856 79.8192 394.001C75.9567 391.146 71.5614 388.31 66.6714 385.512C61.7814 382.696 56.6441 379.86 51.2784 376.966C45.0375 373.709 38.9107 370.298 32.86 366.753C26.8284 363.228 21.3295 359.491 16.4015 355.582C11.4734 351.673 7.49673 347.477 4.50945 342.993C1.54121 338.528 0.0380545 333.7 0.0380545 328.526C0.0380545 320.612 2.49257 313.408 7.38256 306.854C12.2726 300.32 19.6932 295.108 29.6444 291.238C39.5957 287.367 52.0966 285.432 67.1851 285.432C74.6058 285.432 81.5507 286.447 88.02 288.517C94.4892 290.567 100.331 293.077 105.544 296.047C110.757 299.017 115.21 302.045 118.92 305.168L113.478 310.188C110.244 307.525 106.248 304.823 101.529 302.102C96.7915 299.362 91.5019 297.063 85.6606 295.204C79.8002 293.307 73.6354 292.387 67.1661 292.387Z" fill="#082C36"/>
<path d="M269.805 366.163V285.8H293.608V448.807H269.805V372.985H178.874V448.807H154.957V285.8H178.874V366.163H269.805Z" fill="#082C36"/>
<path d="M845.045 307.989C851.115 313.68 855.815 319.793 859.144 326.327C862.474 332.861 864.719 339.529 865.861 346.293C867.003 353.076 867.345 359.687 866.889 366.164C866.432 372.64 865.442 378.695 863.939 384.329C862.436 389.962 860.743 394.849 858.84 398.987C856.975 403.05 854.388 407.514 851.077 412.343C847.766 417.172 843.789 421.905 839.166 426.523C834.523 431.141 829.234 435.279 823.297 438.958C817.361 442.618 810.796 445.378 803.623 447.198C796.45 449.037 788.668 449.593 780.315 448.903C771.943 448.213 762.981 445.742 753.391 441.488C743.877 437.253 736.076 432.271 729.988 426.542C723.899 420.812 719.18 414.681 715.831 408.185C712.483 401.67 710.237 395.021 709.115 388.219C707.992 381.416 707.65 374.767 708.106 368.291C708.563 361.814 709.552 355.759 711.094 350.145C712.635 344.53 714.328 339.682 716.212 335.62C718.115 331.481 720.702 326.997 723.975 322.15C727.248 317.302 731.205 312.569 735.848 307.951C740.491 303.333 745.761 299.213 751.698 295.572C757.615 291.932 764.18 289.192 771.372 287.333C778.564 285.474 786.365 284.899 794.737 285.647C803.109 286.394 812.071 288.866 821.585 293.101C831.136 297.335 838.976 302.298 845.045 307.989ZM786.441 437.694C797.059 435.069 807.067 429.646 816.447 421.406C825.828 413.167 833.401 402.781 839.166 390.25C844.931 377.718 847.842 365.282 847.899 352.942C847.956 340.602 845.502 329.642 840.479 320.023C835.475 310.423 828.206 303.505 818.693 299.271C809.255 295.074 799.19 294.308 788.515 296.933C777.841 299.577 767.814 305 758.452 313.201C749.091 321.402 741.518 331.769 735.772 344.319C730.007 356.87 727.095 369.325 727.019 381.685C726.943 394.063 729.417 405.023 734.478 414.623C739.539 424.204 746.789 431.102 756.226 435.299C765.759 439.514 775.824 440.319 786.441 437.694Z" fill="#082C36"/>
<path d="M466.448 307.989C472.517 313.68 477.217 319.793 480.547 326.327C483.876 332.861 486.122 339.529 487.263 346.293C488.405 353.076 488.747 359.687 488.291 366.164C487.834 372.64 486.845 378.695 485.342 384.329C483.838 389.962 482.145 394.849 480.242 398.987C478.378 403.05 475.79 407.514 472.479 412.343C469.168 417.172 465.192 421.905 460.568 426.523C455.925 431.141 450.636 435.279 444.699 438.958C438.763 442.618 432.199 445.378 425.025 447.198C417.852 449.037 410.07 449.593 401.717 448.903C393.345 448.213 384.383 445.742 374.793 441.488C365.28 437.253 357.479 432.271 351.39 426.542C345.301 420.812 340.582 414.681 337.234 408.185C333.885 401.67 331.64 395.021 330.517 388.219C329.394 381.416 329.052 374.767 329.509 368.291C329.965 361.814 330.955 355.759 332.496 350.145C334.037 344.53 335.731 339.682 337.614 335.62C339.517 331.481 342.105 326.997 345.377 322.15C348.65 317.302 352.608 312.569 357.25 307.951C361.893 303.333 367.164 299.213 373.1 295.572C379.017 291.932 385.582 289.192 392.774 287.333C399.966 285.474 407.768 284.899 416.14 285.647C424.512 286.394 433.473 288.866 442.987 293.101C452.539 297.335 460.378 302.298 466.448 307.989ZM407.844 437.694C418.461 435.069 428.469 429.646 437.85 421.406C447.23 413.167 454.803 402.781 460.568 390.25C466.333 377.718 469.245 365.282 469.302 352.942C469.359 340.602 466.904 329.642 461.881 320.023C456.877 310.423 449.608 303.505 440.095 299.271C430.657 295.074 420.592 294.308 409.918 296.933C399.243 299.577 389.216 305 379.855 313.201C370.493 321.402 362.92 331.769 357.174 344.319C351.409 356.87 348.498 369.325 348.422 381.685C348.346 394.063 350.819 405.023 355.88 414.623C360.942 424.204 368.191 431.102 377.628 435.299C387.161 439.514 397.227 440.319 407.844 437.694Z" fill="#082C36"/>
<path d="M648.162 285.8H671.965V448.807H648.162V298.427L587.179 392.779L585.638 395.174L531.296 324.238V448.826H524.199V285.819H531.296V285.934L594.885 368.693L647.933 285.819" fill="#082C36"/>
<path d="M1115.68 285.8H1139.23H1195V292.621H1139.23V448.807H1115.68V292.621H1059.91V285.8H1115.68Z" fill="#082C36"/>
<path d="M1023.28 413.684V285.8H1030.38V448.807H1023.28L909.863 320.808V448.807H902.766V285.8H909.863L1023.28 413.684Z" fill="#082C36"/>
</svg>
