<svg width="1028" height="147" viewBox="0 0 1028 147" fill="none" xmlns="http://www.w3.org/2000/svg">
<path d="M111.433 57.0769C121.112 56.6088 130.42 64.8469 131.258 71.2127C131.537 72.5233 131.63 73.4594 130.42 74.2083C129.489 74.77 127.255 74.4892 127.162 74.5828C127.162 74.5828 96.913 74.3956 95.6099 74.4892H92.1662C90.9562 74.4892 91.3285 72.8041 91.4216 71.6808C91.7008 69.5276 96.1684 57.8258 111.433 57.0769ZM111.433 43.4092C91.3285 43.4092 75.2266 57.6386 75.2266 80.1997C75.2266 102.667 91.4216 117.365 111.433 117.365C123.346 117.365 134.515 113.62 141.217 103.697C141.496 103.322 141.868 102.667 142.427 101.544C142.985 100.327 142.613 98.7353 141.217 98.08C137.959 96.4886 134.794 94.6163 132.374 94.3355C131.537 94.2418 130.885 94.8035 130.327 95.3652C130.048 95.6461 129.582 96.1141 128.745 97.0503C124.742 102.012 118.972 103.791 112.177 103.791C101.381 103.791 93.0038 98.9226 90.9562 88.9058C90.677 87.0335 90.8631 86.4718 91.3285 86.191C92.3523 85.8165 93.0038 86.0974 93.2831 86.0038C93.2831 86.0038 142.054 86.191 144.102 85.9101C145.126 85.8165 146.336 84.8804 146.615 83.8506C146.708 83.2889 146.894 80.855 146.894 80.2933C146.801 57.6386 131.537 43.4092 111.433 43.4092Z" fill="#F5F1EE"/>
<path d="M661.288 56.9011C670.968 56.433 680.275 64.6711 681.113 71.0369C681.392 72.3475 681.485 73.2836 680.275 74.0326C679.345 74.5942 677.111 74.3134 677.018 74.407C677.018 74.407 646.768 74.2198 645.465 74.3134H642.022C640.812 74.3134 641.184 72.6283 641.277 71.505C641.556 69.4454 646.024 57.7436 661.288 56.9011ZM661.288 43.2334C641.184 43.2334 625.082 57.4628 625.082 80.0239C625.082 102.491 641.277 117.189 661.288 117.189C673.202 117.189 684.371 113.444 691.072 103.521C691.351 103.147 691.724 102.491 692.282 101.368C692.84 100.151 692.468 98.5596 691.072 97.9043C687.814 96.3128 684.65 94.4405 682.23 94.1597C681.392 94.0661 680.741 94.6277 680.182 95.1894C679.903 95.4703 679.438 95.9384 678.6 96.8745C674.598 101.836 668.827 103.615 662.033 103.615C651.236 103.615 642.859 98.7468 640.812 88.73C640.532 86.8577 640.719 86.2961 641.184 86.0152C642.208 85.6408 642.859 85.9216 643.139 85.828C643.139 85.828 691.91 86.0152 693.957 85.7344C694.981 85.6408 696.191 84.7046 696.47 83.6749C696.563 83.1132 696.75 80.6792 696.75 80.1175C696.656 57.5564 681.392 43.2334 661.288 43.2334Z" fill="#F5F1EE"/>
<path d="M895.073 56.9011C904.753 56.433 914.061 64.6711 914.898 71.0369C915.177 72.3475 915.27 73.2836 914.061 74.0326C913.13 74.5942 910.896 74.3134 910.803 74.407C910.803 74.407 880.554 74.2198 879.251 74.3134H875.807C874.597 74.3134 874.969 72.6283 875.062 71.505C875.341 69.4454 879.809 57.7436 895.073 56.9011ZM895.073 43.2334C874.969 43.2334 858.867 57.4628 858.867 80.0239C858.867 102.491 875.062 117.189 895.073 117.189C906.987 117.189 918.156 113.444 924.857 103.521C925.136 103.147 925.509 102.491 926.067 101.368C926.626 100.151 926.253 98.5596 924.857 97.9043C921.6 96.3128 918.435 94.4405 916.015 94.1597C915.177 94.0661 914.526 94.6277 913.967 95.1894C913.688 95.4703 913.223 95.9384 912.385 96.8745C908.383 101.836 902.612 103.615 895.818 103.615C885.021 103.615 876.644 98.7468 874.597 88.73C874.318 86.8577 874.504 86.2961 874.969 86.0152C875.993 85.6408 876.644 85.9216 876.924 85.828C876.924 85.828 925.695 86.0152 927.743 85.7344C928.766 85.6408 929.976 84.7046 930.256 83.6749C930.349 83.1132 930.535 80.6792 930.535 80.1175C930.442 57.5564 915.177 43.2334 895.073 43.2334Z" fill="#F5F1EE"/>
<path d="M301.023 57.0769C310.702 56.6088 320.01 64.8469 320.847 71.2127C321.127 72.5233 321.22 73.4594 320.01 74.2083C319.079 74.77 316.845 74.4892 316.752 74.5828C316.752 74.5828 286.503 74.3956 285.2 74.4892H281.756C280.546 74.4892 280.918 72.8041 281.011 71.6808C281.291 69.5276 285.665 57.8258 301.023 57.0769ZM301.023 43.4092C280.918 43.4092 264.816 57.6386 264.816 80.1997C264.816 102.667 281.011 117.365 301.023 117.365C312.936 117.365 324.105 113.62 330.806 103.697C331.086 103.322 331.458 102.667 332.016 101.544C332.575 100.327 332.203 98.7353 330.806 98.08C327.549 96.4886 324.384 94.6163 321.964 94.3355C321.127 94.2418 320.475 94.8035 319.917 95.3652C319.637 95.6461 319.172 96.1141 318.334 97.0503C314.332 102.012 308.562 103.791 301.767 103.791C290.97 103.791 282.594 98.9226 280.546 88.9058C280.267 87.0335 280.453 86.4718 280.918 86.191C281.942 85.8165 282.594 86.0974 282.873 86.0038C282.873 86.0038 331.644 86.191 333.692 85.9101C334.716 85.8165 335.926 84.8804 336.205 83.8506C336.298 83.2889 336.484 80.855 336.484 80.2933C336.298 57.6386 321.127 43.4092 301.023 43.4092Z" fill="#F5F1EE"/>
<path d="M192.356 102.115C180.535 102.115 171.228 93.1281 171.228 80.1156C171.228 67.0096 180.628 58.5843 192.356 58.5843C202.966 58.5843 213.949 66.1671 213.949 80.1156C213.949 93.9706 203.804 102.115 192.356 102.115ZM229.585 6.34739C229.585 5.50486 229.585 5.69209 229.585 5.1304C229.492 3.63257 228.375 2.79004 226.793 2.79004H217.02C215.438 2.79004 214.321 3.91341 214.228 5.22402C214.228 5.97293 214.228 5.87932 214.228 6.25378V55.1206C209.854 47.3506 200.36 43.4187 190.401 43.4187C171.414 43.4187 155.219 57.6482 155.219 80.4901C155.219 102.77 171.414 117.374 190.401 117.374C200.081 117.374 209.854 113.162 214.228 105.485C214.228 105.485 214.228 110.634 214.228 111.945C214.228 115.783 215.903 115.97 218.789 115.876C220.743 115.876 225.676 115.876 225.676 115.876C228.655 115.876 229.585 114.191 229.585 113.068C229.585 112.787 229.585 6.34739 229.585 6.34739Z" fill="#F5F1EE"/>
<path d="M256.87 5.7857V5.69209V5.59847C256.87 3.8198 255.567 2.79004 253.985 2.79004H244.677C244.305 2.79004 244.398 2.79004 243.467 2.88365C242.35 2.97727 241.327 4.00703 241.327 5.03679C241.233 6.06655 241.327 5.69209 241.327 6.441C241.327 6.441 241.327 110.447 241.327 112.974C241.327 115.315 243.374 115.97 244.491 115.97C245.701 115.97 253.426 115.97 254.078 115.97C255.474 115.97 256.963 114.753 256.963 113.349C256.87 111.57 256.87 5.7857 256.87 5.7857Z" fill="#F5F1EE"/>
<path d="M405.777 45.0999C401.216 44.8191 398.052 44.6318 395.632 44.6318C393.491 44.6318 392.467 45.3808 391.723 47.4403C391.63 47.6275 372.922 93.4986 372.922 93.4986C372.922 93.4986 356.261 49.4062 355.051 47.3467C353.562 44.7255 351.235 45.0063 350.863 45.0063C350.491 45.0063 350.398 45.0063 349.095 45.0063C349.095 45.0063 341.742 44.9127 340.252 45.0063C339.694 45.0063 339.229 45.3808 338.763 45.7552C338.112 46.4105 337.832 47.3467 338.112 48.47C338.484 49.8742 364.545 112.502 364.545 112.502C364.545 112.502 352.538 141.991 352.445 142.272C352.166 143.208 352.445 144.238 353.19 145.08C353.841 145.829 354.4 145.923 355.517 145.923C355.517 145.923 363.614 146.016 363.8 146.016C366.5 146.016 367.803 144.612 368.454 143.208C371.246 137.123 406.522 51.0912 407.266 49.2189C408.197 47.253 408.011 45.1935 405.777 45.0999Z" fill="#F5F1EE"/>
<path d="M963.603 44.7283C963.603 44.7283 963.603 21.98 963.603 20.5758C963.603 19.1715 962.672 17.8609 960.81 17.8609C958.949 17.8609 952.62 17.7673 950.851 17.8609C948.804 17.9546 947.966 19.2652 947.966 20.9502C947.966 22.3544 948.059 44.7283 948.059 44.7283C948.059 44.7283 939.124 44.6347 937.728 44.7283C935.959 44.8219 935.308 46.3198 935.308 47.4431C935.308 49.3154 935.215 53.1536 935.215 54.9323C935.215 56.8982 936.146 57.6471 938.007 57.6471C939.869 57.6471 948.059 57.6471 948.059 57.6471C948.059 57.6471 948.059 110.539 948.059 112.88C948.059 114.471 949.735 115.595 950.758 115.595C951.968 115.595 960.066 115.595 960.717 115.595C962.486 115.501 963.51 114.19 963.603 112.973C963.696 111.569 963.603 57.6471 963.603 57.6471L975.423 57.7407C977.843 57.8344 978.495 55.9621 978.495 54.4642C978.588 52.9664 978.401 47.5368 978.401 47.5368C978.401 45.6645 976.912 44.7283 975.144 44.7283" fill="#F5F1EE"/>
<path d="M1013.08 44.7264C1013.08 44.7264 1013.08 21.978 1013.08 20.5738C1013.08 19.1696 1012.15 17.859 1010.29 17.859C1008.43 17.859 1002.1 17.7654 1000.33 17.859C998.284 17.9526 997.447 19.2632 997.447 20.9483C997.447 22.3525 997.54 44.7264 997.54 44.7264C997.54 44.7264 988.604 44.6327 987.208 44.7264C985.44 44.82 984.788 46.3178 984.788 47.4412C984.788 49.3135 984.695 53.1517 984.695 54.9303C984.695 56.8963 985.626 57.6452 987.488 57.6452C989.349 57.6452 997.54 57.6452 997.54 57.6452C997.54 57.6452 997.54 110.537 997.54 112.878C997.54 114.469 999.215 115.593 1000.24 115.593C1001.45 115.593 1009.55 115.593 1010.2 115.593C1011.97 115.499 1012.99 114.188 1013.08 112.971C1013.18 111.567 1013.08 57.6452 1013.08 57.6452L1024.9 57.7388C1027.32 57.8324 1027.98 55.9601 1027.98 54.4623C1028.07 52.9644 1027.88 47.5348 1027.88 47.5348C1027.88 45.6625 1026.39 44.7264 1024.62 44.7264" fill="#F5F1EE"/>
<path d="M578.99 101.91C567.542 101.91 557.397 93.6718 557.397 79.9104C557.397 65.9619 568.38 58.3791 578.99 58.3791C590.811 58.3791 600.304 66.898 600.304 79.9104C600.304 93.0165 590.811 101.91 578.99 101.91ZM580.945 43.2135C572.568 43.2135 564.564 46.022 559.631 51.5452C557.304 54.1664 557.211 52.2941 557.211 51.0772C557.211 40.3115 557.211 6.04856 557.211 5.11242C557.211 3.80181 556.094 2.49121 554.232 2.49121C552.557 2.49121 544.646 2.49121 544.646 2.49121C542.412 2.49121 541.667 3.98904 541.667 5.11242C541.667 6.89109 541.574 111.271 541.574 113.05C541.667 114.735 542.784 115.952 544.739 115.952C544.46 115.952 551.999 115.952 554.232 115.858C555.908 115.765 557.211 114.267 557.211 112.863C557.211 111.178 557.211 110.335 557.211 109.025C557.211 107.995 557.49 106.497 558.793 107.808C560.561 109.586 568.101 117.263 580.759 117.263C599.746 117.263 616.127 102.659 616.127 80.3785C616.127 57.4429 600.118 43.2135 580.945 43.2135Z" fill="#F5F1EE"/>
<path d="M66.4554 75.4325C66.4554 55.2118 55.8448 43.4164 37.8814 43.4164C31.5523 43.4164 22.5241 46.1312 17.5911 52.3097C17.1257 52.8714 16.5673 53.8076 16.0089 53.6203C15.6366 53.5267 15.4504 53.2459 15.5435 52.6842C15.5435 52.6842 15.5435 6.62587 15.5435 5.40888C15.5435 3.91105 14.0543 2.78768 12.472 2.78768H3.07147C1.58227 2.69406 0.0930747 3.81744 0 5.31527C0 6.1578 0 109.883 0 112.878C0 114.751 1.20997 115.593 2.51302 115.874C2.69917 115.874 12.9374 115.874 13.1235 115.874C14.4266 115.593 15.5435 114.563 15.5435 113.253C15.5435 112.129 15.5435 77.7729 15.5435 77.7729C15.5435 63.8243 26.2471 58.7691 35.1822 58.7691C43.9313 58.7691 50.9119 65.3221 50.9119 76.3686C50.9119 76.3686 50.9119 111.193 50.9119 112.878C50.9119 114.751 52.4942 115.78 53.7041 115.874C54.821 115.874 61.9878 115.874 63.57 115.874C64.8731 115.874 66.4554 114.938 66.4554 112.878" fill="#F5F1EE"/>
<path d="M772.529 75.4254C772.529 55.2046 761.919 43.4092 743.955 43.4092C737.626 43.4092 728.598 46.124 723.665 52.3026C723.199 52.8642 722.641 53.8004 722.083 53.6132C721.71 53.5195 721.524 53.2387 721.617 52.677C721.617 52.677 721.71 49.0261 721.71 47.0601C721.617 45.0942 720.593 44.0645 718.546 44.0645H709.145C707.563 44.0645 706.167 45.1879 706.074 46.6857C705.981 49.775 705.981 111.748 706.074 113.339C706.167 115.024 707.284 115.867 708.494 115.867C710.821 115.96 717.708 115.96 719.104 115.867C720.407 115.773 721.524 114.65 721.524 113.246C721.617 112.122 721.524 77.7657 721.524 77.7657C721.524 63.8172 732.228 58.762 741.163 58.762C749.912 58.762 756.893 65.315 756.893 76.3615C756.893 76.3615 756.893 111.467 756.893 113.339C756.893 114.65 758.102 115.773 759.312 115.867C761.174 115.96 768.62 115.96 769.923 115.867C771.226 115.773 772.343 114.556 772.343 113.246" fill="#F5F1EE"/>
<path d="M849.963 75.4254C849.963 55.2046 839.352 43.4092 821.389 43.4092C815.06 43.4092 806.031 46.124 801.098 52.3026C800.633 52.8642 800.075 53.8004 799.516 53.6132C799.144 53.5195 798.958 53.2387 799.051 52.677C799.051 52.677 799.144 49.0261 799.144 47.0601C799.051 45.0942 798.027 44.0645 795.979 44.0645H786.579C784.996 44.0645 783.6 45.1879 783.507 46.6857C783.414 49.775 783.414 111.748 783.507 113.339C783.6 115.024 784.717 115.867 785.927 115.867C788.254 115.96 795.142 115.96 796.538 115.867C797.841 115.773 798.958 114.65 798.958 113.246C799.051 112.122 798.958 77.7657 798.958 77.7657C798.958 63.8172 809.661 58.762 818.596 58.762C827.346 58.762 834.326 65.315 834.326 76.3615C834.326 76.3615 834.326 111.467 834.326 113.339C834.326 114.65 835.536 115.773 836.746 115.867C838.608 115.96 846.054 115.96 847.357 115.867C848.66 115.773 849.777 114.556 849.777 113.246" fill="#F5F1EE"/>
<path d="M440.683 86.4714C440.683 78.1397 445.895 73.927 450.642 70.4633C450.642 70.4633 451.573 69.808 452.876 68.7782C454.831 67.2804 456.134 68.1229 456.785 68.7782C457.623 69.5271 475.4 88.4373 475.4 88.4373C476.424 89.5606 476.238 90.684 475.214 91.8074C470.188 97.1434 465.348 100.888 457.623 100.888C447.291 100.794 440.683 93.7733 440.683 86.4714ZM460.229 16.7285C465.255 16.7285 472.608 21.5029 472.608 27.775C472.608 32.9238 470.188 37.0429 464.696 41.2555C464.696 41.2555 461.16 43.8767 460.043 44.6257C459.112 45.1873 457.157 45.3746 456.04 44.3448C454.272 42.7534 446.547 36.1067 446.547 27.775C446.547 20.6603 452.504 16.7285 458.926 16.7285H460.229ZM520.541 112.122C519.145 110.718 500.903 91.2457 500.158 90.4032C498.948 89.0926 499.413 88.25 499.879 87.5947C500.437 86.8458 516.167 69.0591 518.308 66.6251C520.355 64.2847 519.89 62.4124 516.818 62.506C515.422 62.506 502.764 62.5996 502.764 62.5996C501.647 62.5996 501.182 62.6933 500.344 63.6294C500.344 63.6294 490.571 74.3015 489.175 75.7057C487.872 77.1099 486.848 77.0163 485.452 75.4249C484.335 74.2079 470.188 59.2295 470.188 59.2295C469.816 58.8551 468.419 57.4509 470.188 56.0466C471.305 55.2041 473.818 53.1446 473.818 53.1446C484.335 45.0937 489.454 36.9493 489.454 28.0559C489.454 11.8606 477.075 0.533203 459.298 0.533203C444.965 0.533203 429.793 10.4563 429.793 28.8048C429.793 39.0088 436.681 47.1533 442.079 52.7701C442.079 52.7701 442.172 52.7701 443.475 54.268C444.778 55.6722 442.452 56.9828 442.452 56.9828C429.98 66.3442 423.93 74.1142 423.93 87.9692C423.93 102.386 435.192 117.083 456.785 117.083C467.396 117.083 477.168 112.496 486.476 102.854C487.034 102.386 487.965 101.356 489.361 102.667C490.757 103.977 500.903 114.837 500.903 114.837C500.903 114.837 501.74 115.866 503.322 115.96H518.308C518.401 115.96 519.611 115.96 520.448 115.398C521.751 114.368 521.193 112.777 520.541 112.122Z" fill="#F5F1EE"/>
</svg>
