<svg width="359" height="359" viewBox="0 0 359 359" fill="none" xmlns="http://www.w3.org/2000/svg">
<path d="M172.159 95.3593L204.501 47.5037L217.098 103.873L217.426 105.343L218.811 104.749L271.891 81.9754L252.013 136.207L251.495 137.621L252.98 137.87L309.946 147.409L263.904 182.284L262.704 183.193L263.819 184.206L306.585 223.029L248.997 227.476L247.495 227.592L247.886 229.046L262.873 284.827L212.023 257.434L210.697 256.719L210.239 258.154L192.69 313.183L164.722 262.647L163.993 261.329L162.832 262.288L118.318 299.094L122.112 241.459L122.211 239.956L120.716 240.136L63.3693 247.032L97.7209 200.598L98.6167 199.387L97.2614 198.73L45.2902 173.528L99.2928 153.037L100.701 152.503L99.9162 151.217L69.8205 101.918L126.329 113.876L127.802 114.188L127.837 112.682L129.172 54.938L170.245 95.5483L171.316 96.6073L172.159 95.3593Z" fill="#E2FFA5" stroke="#265742" stroke-width="2.49992"/>
<path d="M101.607 187.456C100.442 187.251 99.4121 186.929 98.5157 186.491C97.6322 186.055 96.8956 185.505 96.3058 184.841C95.7289 184.179 95.3301 183.415 95.1093 182.549C94.8885 181.683 94.8705 180.726 95.0552 179.678C95.2423 178.618 95.5952 177.713 96.114 176.964C96.6481 176.205 97.3146 175.602 98.1135 175.156C98.9253 174.712 99.8415 174.434 100.862 174.32C101.897 174.196 103.01 174.239 104.2 174.449C105.61 174.697 106.791 175.112 107.742 175.693C108.696 176.262 109.401 176.953 109.858 177.767C110.327 178.583 110.514 179.49 110.418 180.487L107.935 180.049C107.858 179.502 107.658 179.006 107.336 178.563C107.03 178.109 106.584 177.723 106 177.407C105.417 177.077 104.687 176.835 103.807 176.68C102.681 176.482 101.686 176.493 100.82 176.713C99.967 176.937 99.2753 177.341 98.7451 177.928C98.2148 178.515 97.871 179.255 97.7136 180.147C97.5607 181.014 97.6096 181.796 97.86 182.494C98.1127 183.179 98.5846 183.755 99.2755 184.224C99.9795 184.695 100.92 185.034 102.097 185.242C103.003 185.401 103.819 185.425 104.545 185.313C105.287 185.191 105.926 184.97 106.463 184.651C107.002 184.319 107.412 183.918 107.695 183.448L108.769 183.257C108.307 184.896 107.444 186.084 106.18 186.822C104.929 187.562 103.405 187.773 101.607 187.456ZM107.22 188.186C107.291 187.785 107.398 187.33 107.541 186.822C107.686 186.301 107.844 185.782 108.015 185.265C108.189 184.735 108.348 184.25 108.492 183.808L102.749 182.796L103.039 181.146L110.529 182.467L109.452 188.579L107.22 188.186ZM119.595 190.628C117.927 190.334 116.543 189.823 115.444 189.096C114.36 188.358 113.587 187.448 113.124 186.366C112.674 185.286 112.569 184.067 112.809 182.709C113.051 181.338 113.567 180.222 114.359 179.361C115.164 178.503 116.201 177.918 117.469 177.609C118.753 177.288 120.229 177.275 121.898 177.569C123.58 177.866 124.962 178.383 126.046 179.121C127.132 179.846 127.9 180.748 128.35 181.828C128.813 182.91 128.923 184.136 128.681 185.508C128.442 186.866 127.92 187.974 127.115 188.833C126.323 189.693 125.291 190.285 124.021 190.608C122.752 190.918 121.277 190.924 119.595 190.628ZM119.989 188.396C121.024 188.579 121.957 188.583 122.788 188.41C123.631 188.238 124.329 187.875 124.881 187.318C125.445 186.764 125.813 186.002 125.984 185.032C126.155 184.062 126.07 183.22 125.729 182.506C125.401 181.795 124.87 181.214 124.136 180.765C123.416 180.304 122.539 179.983 121.505 179.801C120.483 179.62 119.542 179.621 118.683 179.803C117.826 179.972 117.116 180.334 116.551 180.888C115.987 181.442 115.619 182.204 115.448 183.174C115.277 184.144 115.362 184.986 115.703 185.7C116.044 186.414 116.588 186.996 117.335 187.448C118.082 187.9 118.967 188.216 119.989 188.396ZM134.89 180.12L133.056 190.52L141.4 191.992L141.02 194.146L130.095 192.219L132.309 179.665L134.89 180.12ZM152.81 183.28C154.22 183.528 155.367 183.904 156.252 184.407C157.137 184.91 157.807 185.501 158.26 186.182C158.729 186.851 159.014 187.582 159.114 188.373C159.228 189.166 159.212 189.977 159.066 190.805C158.92 191.633 158.643 192.405 158.237 193.12C157.844 193.838 157.304 194.443 156.617 194.935C155.945 195.417 155.106 195.749 154.1 195.932C153.109 196.104 151.941 196.071 150.596 195.834L143.417 194.568L145.63 182.014L152.81 183.28ZM146.387 192.811L150.928 193.612C151.859 193.776 152.648 193.802 153.295 193.689C153.957 193.566 154.503 193.342 154.934 193.018C155.365 192.694 155.701 192.299 155.943 191.835C156.185 191.371 156.352 190.874 156.446 190.343C156.54 189.813 156.551 189.295 156.48 188.789C156.409 188.283 156.226 187.81 155.93 187.371C155.634 186.932 155.195 186.548 154.612 186.219C154.043 185.891 153.293 185.646 152.361 185.482L147.821 184.681L146.387 192.811ZM169.343 199.14L166.259 185.651L169.111 186.154L171.633 198.063L170.795 197.935L177.028 187.55L179.997 188.074L182.302 199.964L181.471 199.798L187.914 189.47L190.708 189.962L183.255 201.593L180.092 201.035L177.821 189.41L178.635 189.554L172.505 199.697L169.343 199.14ZM192.955 190.358L195.536 190.813L193.322 203.368L190.741 202.913L192.955 190.358ZM209.844 203.64L208.971 203.826L210.792 193.503L213.372 193.959L211.159 206.513L208.578 206.058L200.178 194.353L201.051 194.167L199.245 204.412L196.664 203.957L198.877 191.403L201.458 191.858L209.844 203.64ZM227.335 206.724L226.461 206.91L228.282 196.587L230.862 197.043L228.649 209.597L226.068 209.142L217.668 197.437L218.541 197.251L216.735 207.496L214.154 207.041L216.368 194.487L218.948 194.942L227.335 206.724ZM235.149 205.341L234.605 208.426L244.287 210.134L243.907 212.287L231.644 210.125L233.858 197.571L246.102 199.73L245.722 201.883L236.059 200.18L235.508 203.304L243.425 204.7L243.065 206.737L235.149 205.341ZM246.557 212.755L248.771 200.2L257.289 201.702C258.259 201.873 259.076 202.157 259.74 202.555C260.419 202.941 260.908 203.454 261.209 204.094C261.512 204.721 261.586 205.474 261.431 206.354C261.326 206.949 261.133 207.435 260.853 207.813C260.573 208.19 260.223 208.475 259.802 208.668C259.394 208.863 258.939 208.989 258.435 209.047C257.933 209.092 257.408 209.086 256.857 209.029L256.613 208.826C257.516 208.998 258.247 209.207 258.804 209.452C259.363 209.684 259.753 210.006 259.974 210.419C260.21 210.82 260.266 211.371 260.143 212.069L259.616 215.057L257.035 214.602L257.531 211.789C257.616 211.31 257.597 210.926 257.474 210.638C257.354 210.337 257.083 210.096 256.661 209.915C256.253 209.736 255.641 209.575 254.826 209.431L249.955 208.572L249.138 213.21L246.557 212.755ZM250.311 206.554L256.249 207.601C256.973 207.729 257.554 207.651 257.991 207.368C258.44 207.087 258.718 206.649 258.823 206.054C258.923 205.485 258.805 205.017 258.47 204.651C258.147 204.288 257.623 204.042 256.899 203.914L250.961 202.867L250.311 206.554Z" fill="#265742"/>
<path d="M163.398 157.379L149.784 161.061L149.738 159.052L178.689 164.157L177.32 171.919L135.951 164.624L137.32 156.862C142.351 155.562 146.861 154.49 150.851 153.646C154.842 152.803 158.235 152.014 161.032 151.28C163.838 150.494 166.024 149.599 167.588 148.595C169.213 147.547 170.163 146.248 170.436 144.695C170.655 143.453 170.48 142.329 169.911 141.321C169.351 140.262 168.34 139.337 166.879 138.546C165.418 137.755 163.445 137.14 160.962 136.702C157.702 136.128 154.949 136.309 152.703 137.247C150.517 138.142 149.182 139.667 148.695 141.822L138.915 140.098C139.289 137.069 140.479 134.558 142.484 132.564C144.542 130.579 147.263 129.218 150.647 128.481C154.031 127.744 157.871 127.754 162.166 128.512C165.322 129.068 168.139 129.885 170.617 130.962C173.104 131.987 175.178 133.234 176.84 134.7C178.554 136.176 179.761 137.803 180.461 139.58C181.213 141.367 181.412 143.269 181.056 145.287C180.782 146.84 180.247 148.212 179.449 149.406C178.661 150.547 177.546 151.578 176.103 152.497C174.712 153.425 172.959 154.29 170.844 155.091C168.738 155.84 166.256 156.603 163.398 157.379ZM237.912 142.828L214.096 160.797L196.648 175.327L184.308 173.151L209.169 154.246L225.648 140.666L237.912 142.828ZM191.109 134.575L203.45 136.752L215.25 155.158L232.197 181.595L219.856 179.419L207.846 159.935L191.109 134.575Z" fill="#265742"/>
<path d="M113.772 209.392C113.831 208.602 113.708 208.17 113.295 207.727C112.899 207.307 112.232 207.009 111.349 206.854C109.641 206.553 108.475 207.097 108.261 208.31C108.151 208.931 108.384 209.542 108.855 209.875C109.15 210.077 109.65 210.305 110.25 210.531L111.446 210.952C112.245 211.243 112.548 211.567 112.465 212.042C112.343 212.731 111.569 213.035 110.463 212.84C109.706 212.706 109.173 212.442 108.874 212.039C108.645 211.749 108.596 211.46 108.672 210.973L107.633 210.79C107.534 211.523 107.586 211.912 107.837 212.357C108.212 213.013 109.034 213.458 110.276 213.677C111.091 213.821 111.685 213.796 112.252 213.585C112.925 213.344 113.402 212.798 113.52 212.128C113.61 211.614 113.468 211.119 113.137 210.78C112.858 210.491 112.502 210.298 111.826 210.049L110.538 209.582C109.955 209.369 109.771 209.277 109.57 209.111C109.332 208.929 109.228 208.671 109.274 208.409C109.382 207.797 110.142 207.511 111.19 207.696C111.792 207.802 112.225 208.009 112.509 208.329C112.735 208.579 112.804 208.811 112.763 209.214L113.772 209.392ZM120.708 212.716C120.522 213.203 120.381 213.438 120.095 213.698C119.585 214.148 118.874 214.323 118.088 214.184C116.614 213.924 115.788 212.708 116.055 211.195C116.327 209.652 117.496 208.808 118.98 209.07C120.193 209.284 120.896 210.008 120.932 211.104L121.941 211.282C121.93 210.55 121.788 210.055 121.454 209.566C120.976 208.871 120.177 208.41 119.139 208.227C117.004 207.851 115.423 208.933 115.055 211.019C114.688 213.104 115.795 214.65 117.92 215.025C119.764 215.35 121.084 214.613 121.717 212.893L120.708 212.716ZM124.193 213.15L126.589 213.573C127.488 213.751 127.721 214.132 127.598 215.231C127.512 216.056 127.498 216.134 127.535 216.55L128.767 216.768L128.805 216.554C128.52 216.524 128.476 216.376 128.566 215.642C128.767 214.157 128.701 213.855 128.089 213.407C128.819 213.125 129.143 212.762 129.268 212.054C129.48 210.851 128.851 210.11 127.424 209.858L123.854 209.229L122.713 215.7L123.712 215.876L124.193 213.15ZM124.342 212.306L124.705 210.249L127.188 210.687C127.586 210.757 127.82 210.848 127.995 210.989C128.23 211.191 128.329 211.538 128.259 211.936C128.188 212.334 127.977 212.627 127.687 212.736C127.475 212.808 127.223 212.814 126.826 212.744L124.342 212.306ZM134.779 210.985C132.606 210.602 130.911 211.704 130.552 213.741C130.191 215.788 131.407 217.403 133.59 217.788C134.696 217.983 135.687 217.808 136.437 217.3C137.153 216.816 137.669 215.986 137.83 215.074C138.199 212.979 137.011 211.379 134.779 210.985ZM134.64 211.831C136.251 212.115 137.111 213.307 136.832 214.888C136.567 216.392 135.32 217.223 133.739 216.944C132.148 216.663 131.279 215.46 131.551 213.917C131.822 212.384 133.049 211.55 134.64 211.831ZM143.926 219.44L144.085 218.538L140.039 217.825L141.021 212.256L140.022 212.08L138.881 218.551L143.926 219.44ZM150.29 220.563L150.449 219.66L146.404 218.947L147.386 213.378L146.386 213.202L145.245 219.673L150.29 220.563ZM154.809 221.359L157.691 221.868C158.942 222.088 159.54 222.044 160.164 221.683C160.912 221.245 161.397 220.42 161.606 219.237C161.839 217.917 161.599 216.895 160.921 216.255C160.457 215.823 159.87 215.579 158.841 215.398L155.95 214.888L154.809 221.359ZM155.968 220.633L156.79 215.967L158.76 216.314C159.585 216.459 159.993 216.641 160.287 217.013C160.655 217.479 160.766 218.158 160.61 219.041C160.453 219.934 160.117 220.535 159.612 220.846C159.208 221.095 158.762 221.126 157.937 220.981L155.968 220.633ZM167.198 216.701C165.024 216.318 163.33 217.42 162.97 219.457C162.609 221.504 163.825 223.119 166.008 223.504C167.114 223.699 168.106 223.524 168.855 223.016C169.571 222.532 170.087 221.703 170.248 220.791C170.618 218.695 169.429 217.095 167.198 216.701ZM167.059 217.547C168.669 217.831 169.529 219.023 169.25 220.605C168.985 222.108 167.738 222.939 166.157 222.66C164.566 222.38 163.698 221.176 163.97 219.633C164.24 218.101 165.467 217.267 167.059 217.547ZM178.568 225.549L181.892 219.463L180.874 219.283L178.225 224.318L177.342 218.66L176.217 218.462L173.461 223.478L172.743 217.849L171.618 217.651L172.65 224.505L173.805 224.709L176.567 219.654L177.472 225.356L178.568 225.549ZM188.494 227.299L189.635 220.828L188.636 220.652L187.715 225.871L184.376 219.901L183.125 219.68L181.984 226.151L182.983 226.327L183.912 221.059L187.291 227.087L188.494 227.299ZM196.321 228.679L197.303 223.11L199.797 223.55L199.956 222.648L193.989 221.595L193.83 222.498L196.304 222.934L195.322 228.503L196.321 228.679ZM204.325 223.248C202.152 222.865 200.457 223.966 200.098 226.004C199.737 228.051 200.952 229.666 203.135 230.051C204.241 230.246 205.233 230.07 205.982 229.562C206.698 229.078 207.214 228.249 207.375 227.337C207.745 225.241 206.556 223.641 204.325 223.248ZM204.186 224.094C205.796 224.378 206.656 225.57 206.378 227.151C206.112 228.655 204.866 229.486 203.284 229.207C201.693 228.926 200.825 227.723 201.097 226.18C201.367 224.647 202.595 223.813 204.186 224.094ZM214.867 231.949L218.976 226.001L217.832 225.8L214.566 230.706L213.272 224.996L212.04 224.778L213.77 231.756L214.867 231.949ZM220.06 232.865L221.201 226.394L220.202 226.218L219.061 232.689L220.06 232.865ZM227.323 234.146L227.482 233.243L223.097 232.47L223.441 230.52L227.487 231.233L227.646 230.331L223.6 229.618L223.92 227.803L228.218 228.561L228.377 227.659L223.08 226.725L221.939 233.196L227.323 234.146ZM236.434 235.752L239.758 229.666L238.739 229.486L236.091 234.521L235.208 228.863L234.082 228.665L231.327 233.681L230.609 228.053L229.484 227.854L230.516 234.709L231.67 234.912L234.432 229.857L235.338 235.559L236.434 235.752ZM132.125 226.499L133.107 220.93L135.601 221.369L135.76 220.467L129.793 219.415L129.634 220.317L132.108 220.753L131.126 226.322L132.125 226.499ZM141.815 228.207L142.956 221.736L141.956 221.56L141.501 224.14L137.543 223.442L137.998 220.862L136.999 220.685L135.858 227.157L136.857 227.333L137.394 224.286L141.353 224.984L140.815 228.031L141.815 228.207ZM149.085 229.489L149.244 228.587L144.858 227.813L145.202 225.863L149.248 226.577L149.407 225.674L145.361 224.961L145.681 223.147L149.979 223.905L150.138 223.002L144.841 222.068L143.7 228.539L149.085 229.489ZM158.565 229.24L159.081 231.251L160.284 231.464L158.398 224.459L157.272 224.26L153.124 230.201L154.259 230.401L155.431 228.687L158.565 229.24ZM158.336 228.329L155.949 227.908L157.6 225.468L158.336 228.329ZM168.404 232.895L171.728 226.809L170.709 226.629L168.061 231.664L167.178 226.007L166.052 225.808L163.297 230.824L162.579 225.196L161.453 224.997L162.486 231.852L163.64 232.055L166.402 227L167.307 232.702L168.404 232.895ZM176.059 232.325L176.575 234.336L177.778 234.548L175.892 227.543L174.767 227.345L170.618 233.286L171.753 233.486L172.926 231.772L176.059 232.325ZM175.83 231.414L173.443 230.993L175.094 228.553L175.83 231.414ZM180.403 232.2L182.799 232.623C183.698 232.801 183.931 233.182 183.807 234.281C183.722 235.106 183.708 235.184 183.745 235.6L184.977 235.818L185.014 235.604C184.73 235.574 184.686 235.426 184.775 234.692C184.977 233.207 184.91 232.905 184.299 232.457C185.029 232.175 185.353 231.812 185.478 231.104C185.69 229.901 185.06 229.16 183.634 228.908L180.064 228.279L178.923 234.75L179.922 234.926L180.403 232.2ZM180.552 231.356L180.914 229.299L183.398 229.737C183.796 229.807 184.03 229.899 184.205 230.04C184.44 230.241 184.538 230.588 184.468 230.986C184.398 231.384 184.186 231.677 183.897 231.786C183.684 231.858 183.433 231.864 183.035 231.794L180.552 231.356ZM186.576 236.1L189.457 236.608C190.709 236.828 191.307 236.784 191.93 236.424C192.678 235.985 193.163 235.16 193.372 233.977C193.605 232.657 193.365 231.635 192.688 230.995C192.223 230.563 191.636 230.319 190.608 230.138L187.717 229.628L186.576 236.1ZM187.734 235.373L188.557 230.707L190.526 231.054C191.351 231.2 191.759 231.382 192.054 231.754C192.422 232.219 192.532 232.898 192.376 233.781C192.219 234.674 191.883 235.275 191.378 235.586C190.974 235.835 190.528 235.866 189.703 235.721L187.734 235.373ZM200.641 233.848C200.7 233.058 200.576 232.626 200.164 232.183C199.768 231.763 199.1 231.465 198.217 231.31C196.509 231.009 195.343 231.553 195.129 232.766C195.02 233.387 195.252 233.998 195.724 234.331C196.018 234.533 196.518 234.762 197.118 234.987L198.315 235.408C199.114 235.699 199.417 236.023 199.333 236.498C199.211 237.187 198.438 237.491 197.332 237.296C196.575 237.162 196.041 236.898 195.742 236.495C195.513 236.205 195.464 235.916 195.54 235.429L194.502 235.246C194.403 235.979 194.454 236.368 194.706 236.813C195.08 237.469 195.902 237.914 197.144 238.133C197.959 238.277 198.554 238.252 199.121 238.042C199.794 237.8 200.27 237.254 200.388 236.584C200.479 236.07 200.336 235.575 200.006 235.236C199.726 234.947 199.37 234.754 198.694 234.505L197.406 234.038C196.823 233.825 196.639 233.733 196.438 233.567C196.2 233.385 196.096 233.127 196.142 232.865C196.25 232.253 197.011 231.967 198.058 232.152C198.66 232.258 199.094 232.465 199.377 232.785C199.603 233.035 199.673 233.267 199.632 233.67L200.641 233.848ZM204.493 238.479L209.058 237.153L209.21 236.289L205.376 233.472L205.207 234.483L208.049 236.525L204.673 237.46L204.493 238.479ZM209.635 239.385L214.2 238.059L214.353 237.196L210.518 234.379L210.349 235.39L213.191 237.431L209.815 238.367L209.635 239.385Z" fill="#265742"/>
</svg>
