<svg width="1296" height="396" viewBox="0 0 1296 396" fill="none" xmlns="http://www.w3.org/2000/svg">
<path d="M258.618 142.054H220.627V395.156H258.618V302.896C272.923 322.857 293.442 332.837 320.176 332.837C344.331 332.837 364.968 323.913 382.087 306.066C399.206 287.984 407.766 266.027 407.766 240.195C407.766 214.128 399.206 192.171 382.087 174.324C364.968 156.477 344.331 147.553 320.176 147.553C293.442 147.553 272.923 157.416 258.618 177.142V142.054ZM353.946 280.704C343.393 291.272 330.143 296.555 314.196 296.555C298.25 296.555 285 291.272 274.447 280.704C263.894 269.902 258.618 256.399 258.618 240.195C258.618 223.992 263.894 210.606 274.447 200.038C285 189.236 298.25 183.835 314.196 183.835C330.143 183.835 343.393 189.236 353.946 200.038C364.499 210.606 369.775 223.992 369.775 240.195C369.775 256.399 364.499 269.902 353.946 280.704Z" fill="#FF7953"/>
<path d="M669.382 256.338C672.196 269.723 678.645 280.056 688.729 287.336C698.813 294.381 711.125 297.903 725.664 297.903C745.832 297.903 760.958 290.624 771.042 276.064L802.349 294.381C784.995 319.978 759.316 332.776 725.313 332.776C696.702 332.776 673.603 324.087 656.015 306.71C638.427 289.097 629.633 266.905 629.633 240.134C629.633 213.833 638.31 191.876 655.663 174.263C673.017 156.416 695.295 147.492 722.498 147.492C748.294 147.492 769.4 156.533 785.816 174.616C802.466 192.698 810.791 214.655 810.791 240.487C810.791 244.479 810.322 249.762 809.384 256.338H669.382ZM669.03 225.34H772.449C769.869 211.015 763.889 200.212 754.509 192.933C745.363 185.653 734.576 182.013 722.147 182.013C708.076 182.013 696.351 185.888 686.97 193.637C677.59 201.387 671.61 211.954 669.03 225.34Z" fill="#FF7953"/>
<path fill-rule="evenodd" clip-rule="evenodd" d="M1013.78 153.476H979.256V171.9C964.135 158.191 944.023 150.018 920.913 150.018C871.213 150.018 830.246 189.634 830.246 241.314C830.246 292.993 871.213 332.61 920.913 332.61C944.023 332.61 964.135 324.436 979.256 310.727V329.152H1013.78V153.476ZM922.171 299.028C889.925 299.028 864.771 273.674 864.771 241.314C864.771 208.953 889.925 183.599 922.171 183.599C954.36 183.599 979.256 208.896 979.256 241.314C979.256 273.732 954.36 299.028 922.171 299.028Z" fill="#FF7953"/>
<path d="M1148.26 192.106H1104.64V276.646C1104.64 283.926 1106.28 289.21 1109.56 292.498C1112.85 295.55 1117.65 297.312 1123.98 297.781C1130.55 298.016 1138.64 297.899 1148.26 297.429V331.598C1119.18 335.12 1098.31 332.654 1085.64 324.2C1072.98 315.511 1066.65 299.66 1066.65 276.646V192.106H1034.29V155.472H1066.65V103.288L1104.64 92.0156V155.472H1148.26V192.106Z" fill="#FF7953"/>
<path fill-rule="evenodd" clip-rule="evenodd" d="M190.81 240.568V87.4463H150.614V240.568C150.614 256.854 145.586 269.588 136.907 278.235C128.247 286.863 114.701 292.667 95.2415 292.667C75.969 292.667 62.5053 286.877 53.8772 278.249C45.2261 269.598 40.1967 256.855 40.1967 240.568V87.4463H0V240.568C0 267.519 9.35239 290.695 26.5333 307.108C43.6637 323.473 67.619 332.208 95.2415 332.208C122.861 332.208 146.884 323.476 164.09 307.13C181.353 290.73 190.81 267.552 190.81 240.568ZM29.9838 294.202C18.0966 280.559 11.4217 262.233 11.4217 240.568V87.9902H28.775V87.9902H11.4219V240.569C11.4219 262.233 18.0967 280.559 29.9838 294.202ZM179.389 87.9902V87.9902H162.035V240.568C162.035 270.334 147.252 293.02 119.18 300.989C147.252 293.02 162.036 270.334 162.036 240.569V87.9902H179.389ZM103.168 303.785C100.606 303.986 97.9632 304.088 95.2415 304.088C95.2416 304.088 95.2416 304.088 95.2417 304.088C97.9633 304.088 100.606 303.986 103.168 303.785Z" fill="#FF7953"/>
<path d="M465.294 87.1201H427.303V327.713H465.294V302.351C479.599 322.312 500.118 332.292 526.852 332.292C551.007 332.292 571.643 323.369 588.763 305.521C605.882 287.439 614.441 265.482 614.441 239.65C614.441 213.584 605.882 191.627 588.763 173.779C571.643 155.932 551.007 147.008 526.852 147.008C500.118 147.008 479.599 156.871 465.294 176.597V87.1201ZM560.622 280.159C550.069 290.727 536.819 296.011 520.872 296.011C504.926 296.011 491.676 290.727 481.123 280.159C470.57 269.357 465.294 255.854 465.294 239.65C465.294 223.447 470.57 210.061 481.123 199.494C491.676 188.691 504.926 183.29 520.872 183.29C536.819 183.29 550.069 188.691 560.622 199.494C571.174 210.061 576.451 223.447 576.451 239.65C576.451 255.854 571.174 269.357 560.622 280.159Z" fill="#FF7953"/>
<path fill-rule="evenodd" clip-rule="evenodd" d="M1203.83 69.8111C1187.49 83.8298 1162.82 88.4992 1148.5 88.8498V53.7775C1191.31 50.5041 1202.4 16.5619 1202.59 0H1219.58V0.0283203H1240.14V72.1479C1256.49 58.3192 1280.82 53.6951 1295 53.3447V88.722C1252.2 92.0239 1241.11 126.261 1240.91 142.967H1223.92V142.961H1203.83V69.8111Z" fill="#FF7953"/>
</svg>
