<svg width="202" height="28" viewBox="0 0 202 28" fill="none" xmlns="http://www.w3.org/2000/svg">
                    <path d="M0.224 15.336C0.224 21.564 4.976 27.432 12.932 27.432C19.736 27.432 22.688 22.716 22.688 22.716L22.076 21.78C22.076 21.78 19.304 24.264 15.164 24.264C9.836 24.264 5.084 20.592 5.084 13.896C5.084 8.928 7.568 4.356 13.328 4.356C16.676 4.356 19.592 5.616 19.736 9.216H21.14L22.22 3.564C20.276 3.384 16.856 2.556 13.724 2.556C4.76 2.556 0.224 9.252 0.224 15.336ZM24.3277 23.4C24.3277 26.1 26.4157 27.432 28.5397 27.432C31.7077 27.432 33.5797 24.444 33.5797 24.444V25.02C33.5797 26.568 34.7677 27.432 36.6037 27.432C39.3037 27.432 41.0677 25.488 41.0677 25.488L40.4917 24.516C40.4917 24.516 39.6637 25.128 38.9077 25.128C38.2237 25.128 38.0437 24.516 38.0437 23.436V15.336C38.0437 11.628 37.1077 10.188 33.3277 10.188C28.6117 10.188 25.6957 12.492 25.6957 12.492L26.4877 15.66H28.1437C28.1437 15.66 29.5477 11.808 31.5997 11.808C32.5357 11.808 33.0757 12.492 33.2917 13.536C33.4717 14.4 33.4717 16.128 33.4717 17.316L32.2117 17.496C28.5397 18.036 24.3277 19.764 24.3277 23.4ZM30.7357 24.588C29.5117 24.588 29.0077 23.616 29.0077 22.5C29.0077 20.448 30.5917 19.44 32.4637 19.116L33.4357 18.936V23.436C32.7157 24.048 31.7077 24.588 30.7357 24.588ZM41.946 27.108L51.162 26.892L51.306 25.812L48.426 25.488C48.426 25.488 48.606 24.624 48.606 23.544V4.248C48.606 1.476 48.966 0.179998 48.966 0.179998L48.858 0.0719991C48.858 0.0719991 47.346 0.755999 41.586 1.908V3.06H42.918C43.962 3.06 43.998 3.96 43.998 5.436V23.544C43.998 24.84 43.422 25.704 41.946 25.884V27.108ZM52.5632 27.108L61.7792 26.892L61.9232 25.812L59.0432 25.488C59.0432 25.488 59.2232 24.624 59.2232 23.544V4.248C59.2232 1.476 59.5832 0.179998 59.5832 0.179998L59.4752 0.0719991C59.4752 0.0719991 57.9632 0.755999 52.2032 1.908V3.06H53.5352C54.5792 3.06 54.6152 3.96 54.6152 5.436V23.544C54.6152 24.84 54.0392 25.704 52.5632 25.884V27.108ZM64.8038 22.572C64.8038 26.028 66.7478 27.432 69.3398 27.432C72.9038 27.432 75.3158 23.76 75.3158 23.76V25.272C75.3158 26.172 75.0638 27.252 75.0638 27.252L75.1358 27.324C75.1358 27.324 77.5838 27 82.4078 26.604L82.5158 25.452H81.6878C80.4998 25.452 79.6718 25.452 79.6718 23.4V13.896C79.6718 11.124 79.9958 10.116 79.9958 10.116L79.8878 10.008C79.8878 10.008 78.9878 10.368 73.0838 11.412V12.636H73.9838C75.0278 12.636 75.0638 13.536 75.0638 15.084V22.788C75.0638 22.788 73.2638 24.444 71.4638 24.444C70.2758 24.444 69.4118 23.796 69.4118 21.204V13.896C69.4118 11.124 69.7358 10.116 69.7358 10.116L69.6278 10.008C69.6278 10.008 68.7998 10.368 62.6438 11.448V12.636H63.7238C64.7678 12.636 64.8038 13.536 64.8038 15.084V22.572ZM83.9637 27.108L92.5677 26.892L92.7117 25.812L90.4437 25.452C90.4437 25.452 90.6237 24.624 90.6237 23.544V14.688C91.7757 13.788 93.2517 13.356 94.4397 13.356C95.8437 13.356 96.4557 13.932 96.4557 16.452V23.544C96.4557 24.84 96.0597 25.704 94.8357 25.884V27.108L103.62 26.892L103.764 25.812L100.884 25.452C100.884 25.452 101.064 24.624 101.064 23.544V15.048C101.064 11.556 99.2637 10.188 96.7797 10.188C93.8277 10.188 91.6317 12.132 90.3717 13.788C90.5517 10.584 90.8757 9.792 90.8757 9.792L90.7677 9.684C90.7677 9.684 87.7437 10.8 83.4957 11.484V12.636H84.9357C85.9797 12.636 86.0157 13.536 86.0157 15.012V23.544C86.0157 24.84 85.4397 25.704 83.9637 25.884V27.108ZM104.66 23.4C104.66 26.1 106.748 27.432 108.872 27.432C112.04 27.432 113.912 24.444 113.912 24.444V25.02C113.912 26.568 115.1 27.432 116.936 27.432C119.636 27.432 121.4 25.488 121.4 25.488L120.824 24.516C120.824 24.516 119.996 25.128 119.24 25.128C118.556 25.128 118.376 24.516 118.376 23.436V15.336C118.376 11.628 117.44 10.188 113.66 10.188C108.944 10.188 106.028 12.492 106.028 12.492L106.82 15.66H108.476C108.476 15.66 109.88 11.808 111.932 11.808C112.868 11.808 113.408 12.492 113.624 13.536C113.804 14.4 113.804 16.128 113.804 17.316L112.544 17.496C108.872 18.036 104.66 19.764 104.66 23.4ZM111.068 24.588C109.844 24.588 109.34 23.616 109.34 22.5C109.34 20.448 110.924 19.44 112.796 19.116L113.768 18.936V23.436C113.048 24.048 112.04 24.588 111.068 24.588ZM130.947 27.108C130.947 27.108 134.691 27 137.103 27H140.415C146.823 27 150.495 24.012 150.495 20.232C150.495 16.128 146.283 14.724 144.051 14.256C145.203 13.716 148.983 11.664 148.983 8.244C148.983 5.4 146.427 2.988 139.839 2.988H130.587V4.068C133.179 4.608 133.359 4.968 133.359 6.696V23.544C133.359 24.84 132.459 25.596 130.947 25.776V27.108ZM138.003 25.128C138.003 25.128 138.183 24.228 138.183 23.148V16.02L138.615 15.588H139.191C143.187 15.588 145.203 18.108 145.203 20.772C145.203 23.148 143.403 25.128 139.983 25.128H138.003ZM138.183 13.716V5.292L138.615 4.86H139.659C142.827 4.86 143.799 6.84 143.799 9.108C143.799 12.096 141.999 13.644 141.099 13.716H138.183ZM152.691 19.152C152.691 23.976 156.039 27.432 161.259 27.432C167.379 27.432 170.403 22.716 170.403 18.18C170.403 13.5 167.127 10.188 161.727 10.188C155.319 10.188 152.691 14.904 152.691 19.152ZM157.659 18.216C157.659 14.868 158.775 11.772 161.331 11.772C164.211 11.772 165.363 15.624 165.399 18.864C165.471 21.42 164.859 25.848 161.835 25.848C158.883 25.848 157.659 21.708 157.659 18.216ZM172.094 27.108L181.31 26.892L181.454 25.812L178.574 25.488C178.574 25.488 178.754 24.624 178.754 23.544V4.248C178.754 1.476 179.114 0.179998 179.114 0.179998L179.006 0.0719991C179.006 0.0719991 177.494 0.755999 171.734 1.908V3.06H173.066C174.11 3.06 174.146 3.96 174.146 5.436V23.544C174.146 24.84 173.57 25.704 172.094 25.884V27.108ZM182.82 19.8C182.82 24.084 185.7 27.432 189.408 27.432C191.388 27.432 193.368 26.28 194.34 24.696V25.272C194.34 26.172 194.088 27.252 194.088 27.252L194.16 27.324C194.16 27.324 196.716 27 201.54 26.604L201.648 25.452H200.82C199.632 25.452 198.804 25.452 198.804 23.4V4.248C198.804 1.476 199.164 0.179998 199.164 0.179998L199.056 0.0719991C199.056 0.0719991 197.544 0.755999 191.784 1.908V3.06H193.116C194.16 3.06 194.196 3.96 194.196 5.436V10.332C194.196 10.332 193.332 10.188 192.324 10.188C186.312 10.188 182.82 15.048 182.82 19.8ZM191.568 24.48C188.76 24.48 187.608 21.168 187.608 18.432C187.608 15.156 189.228 12.024 192.432 12.024C193.152 12.024 194.196 12.168 194.196 13.86V23.76C193.404 24.192 192.432 24.48 191.568 24.48Z" fill="black"/>
                  </svg>