<svg width="104" height="12" viewBox="0 0 104 12" fill="none" xmlns="http://www.w3.org/2000/svg">
                    <path d="M0.6 5.052C0.6 7.452 2.364 9.144 4.764 9.144C6.516 9.144 7.644 8.232 7.644 8.232L7.236 7.488C7.236 7.488 6.216 8.292 4.848 8.292C2.976 8.292 1.656 6.804 1.656 4.98C1.656 3.348 2.712 1.704 4.824 1.704C6.216 1.704 7.152 2.424 7.152 2.424L7.548 1.536C7.548 1.536 6.492 0.852 4.896 0.852C2.268 0.852 0.6 2.724 0.6 5.052ZM8.50622 7.788C8.50622 8.58 9.09422 9.144 10.0182 9.144C11.1102 9.144 11.6982 8.376 11.8062 8.208C11.9262 8.652 12.2142 9 12.9702 9.084L13.2822 8.328C13.2822 8.328 12.6822 8.316 12.6822 7.608V5.172C12.6822 3.96 12.2982 3.456 11.1222 3.456C9.77822 3.456 8.87822 4.116 8.87822 4.116L9.16622 4.872C9.16622 4.872 9.95822 4.272 10.8582 4.272C11.7582 4.272 11.7462 4.872 11.7462 5.508V5.712C9.69422 5.976 8.50622 6.672 8.50622 7.788ZM10.2102 8.328C9.81422 8.328 9.50222 8.148 9.50222 7.728C9.50222 7.032 10.2222 6.648 11.7462 6.396V7.392C11.3622 7.836 10.8702 8.328 10.2102 8.328ZM14.6112 9H15.5472V0.431999L14.6112 0.599999V9ZM17.3768 9H18.3128V0.431999L17.3768 0.599999V9ZM20.0705 7.524C20.0705 8.688 20.6465 9.144 21.5345 9.144C22.5545 9.144 23.3465 8.448 23.6705 8.1C23.7185 8.484 23.8505 9.084 23.8505 9.084L24.7745 9C24.7745 9 24.5345 7.992 24.5345 7.332V3.6H23.5985V7.308C23.2385 7.668 22.4705 8.316 21.7745 8.316C21.3425 8.316 21.0065 8.088 21.0065 7.26V3.6H20.0705V7.524ZM26.3528 9H27.2888V5.436C27.6368 5.1 28.5608 4.284 29.2688 4.284C29.6768 4.284 30.0008 4.536 30.0008 5.34V9H30.9368V5.076C30.9368 3.912 30.3248 3.456 29.5208 3.456C28.4768 3.456 27.6368 4.212 27.2888 4.572V3.516L26.3528 3.684V9ZM32.225 7.788C32.225 8.58 32.813 9.144 33.737 9.144C34.829 9.144 35.417 8.376 35.525 8.208C35.645 8.652 35.933 9 36.689 9.084L37.001 8.328C37.001 8.328 36.401 8.316 36.401 7.608V5.172C36.401 3.96 36.017 3.456 34.841 3.456C33.497 3.456 32.597 4.116 32.597 4.116L32.885 4.872C32.885 4.872 33.677 4.272 34.577 4.272C35.477 4.272 35.465 4.872 35.465 5.508V5.712C33.413 5.976 32.225 6.672 32.225 7.788ZM33.929 8.328C33.533 8.328 33.221 8.148 33.221 7.728C33.221 7.032 33.941 6.648 35.465 6.396V7.392C35.081 7.836 34.589 8.328 33.929 8.328ZM40.8768 8.472C40.8768 8.472 41.8008 9.144 43.1928 9.144C44.6328 9.144 45.8208 8.424 45.8208 7.032C45.8208 4.488 42.0168 4.692 42.0168 2.832C42.0168 2.1 42.7008 1.728 43.5888 1.728C44.5248 1.728 45.4128 2.136 45.4128 2.136L45.6648 1.212C45.6648 1.212 44.6808 0.852 43.6248 0.852C41.9568 0.852 41.0208 1.776 41.0208 2.94C41.0208 5.388 44.8248 5.28 44.8248 7.104C44.8248 7.872 44.0928 8.268 43.2288 8.268C42.0648 8.268 41.1408 7.548 41.1408 7.548L40.8768 8.472ZM46.8383 7.788C46.8383 8.58 47.4263 9.144 48.3503 9.144C49.4423 9.144 50.0303 8.376 50.1383 8.208C50.2583 8.652 50.5463 9 51.3023 9.084L51.6143 8.328C51.6143 8.328 51.0143 8.316 51.0143 7.608V5.172C51.0143 3.96 50.6303 3.456 49.4543 3.456C48.1103 3.456 47.2103 4.116 47.2103 4.116L47.4983 4.872C47.4983 4.872 48.2903 4.272 49.1903 4.272C50.0903 4.272 50.0783 4.872 50.0783 5.508V5.712C48.0263 5.976 46.8383 6.672 46.8383 7.788ZM48.5423 8.328C48.1463 8.328 47.8343 8.148 47.8343 7.728C47.8343 7.032 48.5543 6.648 50.0783 6.396V7.392C49.6943 7.836 49.2023 8.328 48.5423 8.328ZM52.9193 9H53.8553V5.436C54.2033 5.1 55.1273 4.284 55.8353 4.284C56.2433 4.284 56.5673 4.536 56.5673 5.34V9H57.5033V5.076C57.5033 3.912 56.8913 3.456 56.0873 3.456C55.0433 3.456 54.2033 4.212 53.8553 4.572V3.516L52.9193 3.684V9ZM58.8634 8.664C58.8634 8.664 59.4994 9.144 60.5914 9.144C61.8154 9.144 62.5714 8.544 62.5714 7.584C62.5714 5.796 59.9194 5.976 59.9194 4.872C59.9194 4.5 60.2194 4.236 60.8674 4.236C61.5394 4.236 62.1874 4.548 62.1874 4.548L62.4394 3.756C62.4394 3.756 61.8514 3.456 60.9394 3.456C59.5594 3.456 58.9714 4.128 58.9714 4.944C58.9714 6.672 61.6234 6.504 61.6234 7.656C61.6234 8.076 61.2874 8.364 60.6154 8.364C59.7514 8.364 59.0674 7.836 59.0674 7.836L58.8634 8.664ZM67.1291 9H68.1131V5.628H69.3971L71.6891 9H72.8531L70.4291 5.424C71.2211 5.076 72.0851 4.344 72.0851 3.18C72.0851 2.052 71.2931 0.995999 69.2291 0.995999H67.1291V9ZM68.1131 4.8V1.824H69.0491C70.5131 1.824 71.0291 2.52 71.0291 3.276C71.0291 4.272 70.1411 4.8 69.3731 4.8H68.1131ZM73.4072 6.42C73.4072 7.836 74.2952 9.144 76.0832 9.144C77.3792 9.144 78.1592 8.364 78.1592 8.364L77.8832 7.644C77.8832 7.644 77.1152 8.328 76.1912 8.328C75.1352 8.328 74.4872 7.572 74.4032 6.456L77.5832 6.036L78.1592 5.868C78.1592 4.32 77.2472 3.456 75.9992 3.456C74.4632 3.456 73.4072 4.728 73.4072 6.42ZM75.9392 4.236C77.0192 4.236 77.1272 5.388 77.1272 5.388L74.4152 5.736C74.5472 4.896 75.0752 4.236 75.9392 4.236ZM79.5668 8.028C79.5668 8.388 79.9388 8.604 80.4668 8.76C79.8548 9.072 79.0628 9.576 79.0628 10.404C79.0628 11.364 80.2028 11.844 81.3668 11.844C82.9028 11.844 84.2468 10.956 84.2468 9.852C84.2468 8.868 83.1908 8.58 82.1588 8.352C81.1388 8.124 80.5748 8.004 80.5748 7.776C80.5748 7.62 80.8028 7.452 81.0548 7.272C81.1868 7.296 81.3308 7.308 81.4868 7.308C82.5668 7.308 83.7788 6.696 83.7788 5.436C83.7788 4.908 83.5148 4.536 83.3708 4.38C83.4908 4.392 83.6588 4.404 83.8148 4.404H84.4988L84.4148 3.564C84.4148 3.564 84.0548 3.684 83.7068 3.684H83.1308C82.5428 3.684 82.2068 3.456 81.5828 3.456C80.4068 3.456 79.3508 4.152 79.3508 5.34C79.3508 6.096 79.7468 6.732 80.3948 7.068C80.0108 7.296 79.5668 7.644 79.5668 8.028ZM79.9268 10.272C79.9268 9.672 80.6108 9.312 81.2468 8.964C81.4508 9 81.6428 9.036 81.8468 9.084C82.6628 9.264 83.2868 9.456 83.2868 9.984C83.2868 10.584 82.4588 11.124 81.4388 11.124C80.8028 11.124 79.9268 10.92 79.9268 10.272ZM81.5708 6.588C80.7068 6.588 80.3108 6 80.3108 5.4C80.3108 4.716 80.7788 4.176 81.5468 4.176C82.3988 4.176 82.8188 4.872 82.8188 5.484C82.8188 6.192 82.2788 6.588 81.5708 6.588ZM85.5666 7.524C85.5666 8.688 86.1426 9.144 87.0306 9.144C88.0506 9.144 88.8426 8.448 89.1666 8.1C89.2146 8.484 89.3466 9.084 89.3466 9.084L90.2706 9C90.2706 9 90.0306 7.992 90.0306 7.332V3.6H89.0946V7.308C88.7346 7.668 87.9666 8.316 87.2706 8.316C86.8386 8.316 86.5026 8.088 86.5026 7.26V3.6H85.5666V7.524ZM91.8729 9H92.8089V0.431999L91.8729 0.599999V9ZM94.1586 7.788C94.1586 8.58 94.7466 9.144 95.6706 9.144C96.7626 9.144 97.3506 8.376 97.4586 8.208C97.5786 8.652 97.8666 9 98.6226 9.084L98.9346 8.328C98.9346 8.328 98.3346 8.316 98.3346 7.608V5.172C98.3346 3.96 97.9506 3.456 96.7746 3.456C95.4306 3.456 94.5306 4.116 94.5306 4.116L94.8186 4.872C94.8186 4.872 95.6106 4.272 96.5106 4.272C97.4106 4.272 97.3986 4.872 97.3986 5.508V5.712C95.3466 5.976 94.1586 6.672 94.1586 7.788ZM95.8626 8.328C95.4666 8.328 95.1546 8.148 95.1546 7.728C95.1546 7.032 95.8746 6.648 97.3986 6.396V7.392C97.0146 7.836 96.5226 8.328 95.8626 8.328ZM100.24 9H101.176V5.58C101.392 5.208 101.896 4.476 102.52 4.476C102.736 4.476 102.976 4.572 102.976 4.572L103.216 3.564C103.216 3.564 103.048 3.456 102.748 3.456C101.932 3.456 101.38 4.224 101.176 4.584V3.516L100.24 3.684V9Z" fill="black"/>
                  </svg> 