<svg width="158" height="22" viewBox="0 0 158 22" fill="none" xmlns="http://www.w3.org/2000/svg">
                    <path d="M0.952 11.928C0.952 7.196 4.48 1.988 11.452 1.988C13.888 1.988 16.548 2.632 18.06 2.772L17.22 7.168H16.128C16.016 4.368 13.748 3.388 11.144 3.388C6.664 3.388 4.732 6.944 4.732 10.808C4.732 16.016 8.428 18.872 12.572 18.872C15.792 18.872 17.948 16.94 17.948 16.94L18.424 17.668C18.424 17.668 16.128 21.336 10.836 21.336C4.648 21.336 0.952 16.772 0.952 11.928ZM19.6993 18.2C19.6993 15.372 22.9753 14.028 25.8313 13.608L26.8113 13.468C26.8113 12.544 26.8113 11.2 26.6713 10.528C26.5033 9.716 26.0833 9.184 25.3553 9.184C23.7593 9.184 22.6673 12.18 22.6673 12.18H21.3793L20.7633 9.716C20.7633 9.716 23.0313 7.924 26.6993 7.924C29.6393 7.924 30.3673 9.044 30.3673 11.928V18.228C30.3673 19.068 30.5073 19.544 31.0393 19.544C31.6273 19.544 32.2713 19.068 32.2713 19.068L32.7193 19.824C32.7193 19.824 31.3473 21.336 29.2473 21.336C27.8193 21.336 26.8953 20.664 26.8953 19.46V19.012C26.8953 19.012 25.4393 21.336 22.9753 21.336C21.3233 21.336 19.6993 20.3 19.6993 18.2ZM24.6833 19.124C25.4393 19.124 26.2233 18.704 26.7833 18.228V14.728L26.0273 14.868C24.5713 15.12 23.3393 15.904 23.3393 17.5C23.3393 18.368 23.7313 19.124 24.6833 19.124ZM33.4025 21.084V20.132C34.5505 19.992 34.9985 19.32 34.9985 18.312V4.228C34.9985 3.08 34.9705 2.38 34.1585 2.38H33.1225V1.484C37.6025 0.587999 38.7785 0.0559993 38.7785 0.0559993L38.8625 0.139998C38.8625 0.139998 38.5825 1.148 38.5825 3.304V18.312C38.5825 19.152 38.4425 19.824 38.4425 19.824L40.6825 20.076L40.5705 20.916L33.4025 21.084ZM41.6603 21.084V20.132C42.8083 19.992 43.2563 19.32 43.2563 18.312V4.228C43.2563 3.08 43.2283 2.38 42.4163 2.38H41.3803V1.484C45.8603 0.587999 47.0363 0.0559993 47.0363 0.0559993L47.1203 0.139998C47.1203 0.139998 46.8403 1.148 46.8403 3.304V18.312C46.8403 19.152 46.7003 19.824 46.7003 19.824L48.9403 20.076L48.8283 20.916L41.6603 21.084ZM51.1807 17.556V11.732C51.1807 10.528 51.1527 9.828 50.3407 9.828H49.5007V8.904C54.2887 8.064 54.9327 7.784 54.9327 7.784L55.0167 7.868C55.0167 7.868 54.7647 8.652 54.7647 10.808V16.492C54.7647 18.508 55.4367 19.012 56.3607 19.012C57.7607 19.012 59.1607 17.724 59.1607 17.724V11.732C59.1607 10.528 59.1327 9.828 58.3207 9.828H57.6207V8.876C62.2127 8.064 62.9127 7.784 62.9127 7.784L62.9967 7.868C62.9967 7.868 62.7447 8.652 62.7447 10.808V18.2C62.7447 19.796 63.3887 19.796 64.3127 19.796H64.9567L64.8727 20.692C61.1207 21 59.2167 21.252 59.2167 21.252L59.1607 21.196C59.1607 21.196 59.3567 20.356 59.3567 19.656V18.48C59.3567 18.48 57.4807 21.336 54.7087 21.336C52.6927 21.336 51.1807 20.244 51.1807 17.556ZM66.0828 21.084V20.132C67.2308 19.992 67.6788 19.32 67.6788 18.312V11.676C67.6788 10.528 67.6508 9.828 66.8388 9.828H65.7188V8.932C69.0228 8.4 71.3748 7.532 71.3748 7.532L71.4588 7.616C71.4588 7.616 71.2068 8.232 71.0668 10.724C72.0468 9.436 73.7548 7.924 76.0508 7.924C77.9828 7.924 79.3828 8.988 79.3828 11.704V18.312C79.3828 19.152 79.2428 19.796 79.2428 19.796L81.4828 20.076L81.3708 20.916L74.5388 21.084V20.132C75.4908 19.992 75.7988 19.32 75.7988 18.312V12.796C75.7988 10.836 75.3228 10.388 74.2308 10.388C73.3068 10.388 72.1588 10.724 71.2628 11.424V18.312C71.2628 19.152 71.1228 19.796 71.1228 19.796L72.8868 20.076L72.7748 20.916L66.0828 21.084ZM82.1798 18.2C82.1798 15.372 85.4558 14.028 88.3118 13.608L89.2918 13.468C89.2918 12.544 89.2918 11.2 89.1518 10.528C88.9838 9.716 88.5638 9.184 87.8358 9.184C86.2398 9.184 85.1478 12.18 85.1478 12.18H83.8598L83.2438 9.716C83.2438 9.716 85.5118 7.924 89.1798 7.924C92.1198 7.924 92.8478 9.044 92.8478 11.928V18.228C92.8478 19.068 92.9878 19.544 93.5198 19.544C94.1078 19.544 94.7518 19.068 94.7518 19.068L95.1998 19.824C95.1998 19.824 93.8278 21.336 91.7278 21.336C90.2998 21.336 89.3758 20.664 89.3758 19.46V19.012C89.3758 19.012 87.9198 21.336 85.4558 21.336C83.8038 21.336 82.1798 20.3 82.1798 18.2ZM87.1638 19.124C87.9198 19.124 88.7038 18.704 89.2638 18.228V14.728L88.5078 14.868C87.0518 15.12 85.8198 15.904 85.8198 17.5C85.8198 18.368 86.2118 19.124 87.1638 19.124ZM102.625 21.084V20.048C103.801 19.908 104.501 19.32 104.501 18.312V5.208C104.501 3.864 104.361 3.584 102.345 3.164V2.324H109.541C114.665 2.324 116.653 4.2 116.653 6.412C116.653 9.072 113.713 10.668 112.817 11.088C114.553 11.452 117.829 12.544 117.829 15.736C117.829 18.676 114.973 21 109.989 21H107.413C105.537 21 102.625 21.084 102.625 21.084ZM108.113 19.544H109.653C112.313 19.544 113.713 18.004 113.713 16.156C113.713 14.084 112.145 12.124 109.037 12.124H108.589L108.253 12.46V18.004C108.253 18.844 108.113 19.544 108.113 19.544ZM108.253 10.668H110.521C111.221 10.612 112.621 9.408 112.621 7.084C112.621 5.32 111.865 3.78 109.401 3.78H108.589L108.253 4.116V10.668ZM119.537 14.896C119.537 11.592 121.581 7.924 126.565 7.924C130.765 7.924 133.313 10.5 133.313 14.14C133.313 17.668 130.961 21.336 126.201 21.336C122.141 21.336 119.537 18.648 119.537 14.896ZM123.401 14.168C123.401 16.884 124.353 20.104 126.649 20.104C129.001 20.104 129.477 16.66 129.421 14.672C129.393 12.152 128.497 9.156 126.257 9.156C124.269 9.156 123.401 11.564 123.401 14.168ZM134.629 21.084V20.132C135.777 19.992 136.225 19.32 136.225 18.312V4.228C136.225 3.08 136.197 2.38 135.385 2.38H134.349V1.484C138.829 0.587999 140.005 0.0559993 140.005 0.0559993L140.089 0.139998C140.089 0.139998 139.809 1.148 139.809 3.304V18.312C139.809 19.152 139.669 19.824 139.669 19.824L141.909 20.076L141.797 20.916L134.629 21.084ZM142.971 15.4C142.971 11.704 145.687 7.924 150.363 7.924C151.147 7.924 151.819 8.036 151.819 8.036V4.228C151.819 3.08 151.791 2.38 150.979 2.38H149.943V1.484C154.423 0.587999 155.599 0.0559993 155.599 0.0559993L155.683 0.139998C155.683 0.139998 155.403 1.148 155.403 3.304V18.2C155.403 19.796 156.047 19.796 156.971 19.796H157.615L157.531 20.692C153.779 21 151.791 21.252 151.791 21.252L151.735 21.196C151.735 21.196 151.931 20.356 151.931 19.656V19.208C151.175 20.44 149.635 21.336 148.095 21.336C145.211 21.336 142.971 18.732 142.971 15.4ZM149.775 19.04C150.447 19.04 151.203 18.816 151.819 18.48V10.78C151.819 9.464 151.007 9.352 150.447 9.352C147.955 9.352 146.695 11.788 146.695 14.336C146.695 16.464 147.591 19.04 149.775 19.04Z" fill="black"/>
                  </svg> 