<svg width="226" height="19" viewBox="0 0 226 19" fill="none" xmlns="http://www.w3.org/2000/svg">
                    <path d="M0.08 10.176C0.08 15.096 3.776 18.288 8.528 18.288C12.296 18.288 14.456 16.44 14.456 16.44L13.448 14.592C13.448 14.592 11.504 16.152 8.696 16.152C5.264 16.152 2.672 13.56 2.672 9.96C2.672 6.744 4.784 3.84 8.696 3.84C11.528 3.84 13.28 5.208 13.28 5.208L14.24 3.048C14.24 3.048 12.2 1.704 8.84 1.704C3.464 1.704 0.08 5.448 0.08 10.176ZM15.9399 15.504C15.9399 17.112 17.1639 18.288 19.0599 18.288C21.1719 18.288 22.2759 16.944 22.5639 16.488C22.8759 17.352 23.5719 18.048 25.2279 18.168L25.9479 16.296C25.9479 16.296 24.7479 16.272 24.7479 14.928V10.344C24.7479 7.92 23.9319 6.864 21.3639 6.864C18.5079 6.864 16.6599 8.232 16.6599 8.232L17.2839 10.008C17.2839 10.008 18.9399 8.76 20.7159 8.76C22.4679 8.76 22.3719 9.96 22.3719 11.328C18.3159 11.856 15.9399 13.224 15.9399 15.504ZM19.6599 16.416C18.9639 16.416 18.3879 16.104 18.3879 15.336C18.3879 14.064 19.6119 13.272 22.3719 12.864V14.736C21.6519 15.576 20.7639 16.416 19.6599 16.416ZM28.3363 18H30.7123V0.839999L28.3363 1.224V18ZM34.1019 18H36.4779V0.839999L34.1019 1.224V18ZM39.7475 15.024C39.7475 17.352 40.9475 18.288 42.6995 18.288C44.6915 18.288 46.2035 17.016 46.8995 16.272C47.0195 17.064 47.2595 18.192 47.2595 18.192L49.5635 17.976C49.5635 17.976 49.0835 15.984 49.0835 14.664V7.152H46.7075V14.448C46.0355 15.072 44.6915 16.224 43.4675 16.224C42.5795 16.224 42.1235 15.624 42.1235 14.112V7.152H39.7475V15.024ZM52.4758 18H54.8518V10.968C55.5958 10.248 57.1318 8.928 58.3318 8.928C59.1478 8.928 59.6278 9.504 59.6278 11.04V18H62.0038V10.176C62.0038 7.848 60.8278 6.864 59.1238 6.864C57.1318 6.864 55.5718 8.184 54.8038 9.024V6.96L52.4758 7.344V18ZM64.3383 15.504C64.3383 17.112 65.5623 18.288 67.4583 18.288C69.5703 18.288 70.6743 16.944 70.9623 16.488C71.2743 17.352 71.9703 18.048 73.6263 18.168L74.3463 16.296C74.3463 16.296 73.1463 16.272 73.1463 14.928V10.344C73.1463 7.92 72.3303 6.864 69.7623 6.864C66.9063 6.864 65.0583 8.232 65.0583 8.232L65.6823 10.008C65.6823 10.008 67.3383 8.76 69.1143 8.76C70.8663 8.76 70.7703 9.96 70.7703 11.328C66.7143 11.856 64.3383 13.224 64.3383 15.504ZM68.0583 16.416C67.3623 16.416 66.7863 16.104 66.7863 15.336C66.7863 14.064 68.0103 13.272 70.7703 12.864V14.736C70.0503 15.576 69.1623 16.416 68.0583 16.416ZM81.8763 16.944C81.8763 16.944 83.7963 18.288 86.6283 18.288C89.5803 18.288 92.0283 16.728 92.0283 13.872C92.0283 8.808 84.6363 9.144 84.6363 5.808C84.6363 4.536 85.8843 3.864 87.4683 3.864C89.3643 3.864 91.1883 4.68 91.1883 4.68L91.6923 2.424C91.6923 2.424 89.6523 1.704 87.4923 1.704C84.0843 1.704 82.1403 3.672 82.1403 6.072C82.1403 10.92 89.5323 10.776 89.5323 14.064C89.5323 15.408 88.1883 16.128 86.6523 16.128C84.3483 16.128 82.5723 14.688 82.5723 14.688L81.8763 16.944ZM93.8696 15.504C93.8696 17.112 95.0936 18.288 96.9896 18.288C99.1016 18.288 100.206 16.944 100.494 16.488C100.806 17.352 101.502 18.048 103.158 18.168L103.878 16.296C103.878 16.296 102.678 16.272 102.678 14.928V10.344C102.678 7.92 101.862 6.864 99.2936 6.864C96.4376 6.864 94.5896 8.232 94.5896 8.232L95.2136 10.008C95.2136 10.008 96.8696 8.76 98.6456 8.76C100.398 8.76 100.302 9.96 100.302 11.328C96.2456 11.856 93.8696 13.224 93.8696 15.504ZM97.5896 16.416C96.8936 16.416 96.3176 16.104 96.3176 15.336C96.3176 14.064 97.5416 13.272 100.302 12.864V14.736C99.5816 15.576 98.6936 16.416 97.5896 16.416ZM106.218 18H108.594V10.968C109.338 10.248 110.874 8.928 112.074 8.928C112.89 8.928 113.37 9.504 113.37 11.04V18H115.746V10.176C115.746 7.848 114.57 6.864 112.866 6.864C110.874 6.864 109.314 8.184 108.546 9.024V6.96L106.218 7.344V18ZM118.225 17.328C118.225 17.328 119.569 18.288 121.825 18.288C124.489 18.288 126.049 16.968 126.049 15C126.049 11.544 120.84 11.712 120.84 9.816C120.84 9.192 121.369 8.736 122.569 8.736C123.961 8.736 125.209 9.408 125.209 9.408L125.761 7.464C125.761 7.464 124.561 6.864 122.665 6.864C119.665 6.864 118.465 8.328 118.465 10.008C118.465 13.416 123.673 13.272 123.673 15.216C123.673 15.912 123.073 16.416 121.801 16.416C120.049 16.416 118.729 15.312 118.729 15.312L118.225 17.328ZM133.79 16.944C133.79 16.944 135.71 18.288 138.542 18.288C141.494 18.288 143.942 16.728 143.942 13.872C143.942 8.808 136.55 9.144 136.55 5.808C136.55 4.536 137.798 3.864 139.382 3.864C141.278 3.864 143.102 4.68 143.102 4.68L143.606 2.424C143.606 2.424 141.566 1.704 139.406 1.704C135.998 1.704 134.054 3.672 134.054 6.072C134.054 10.92 141.446 10.776 141.446 14.064C141.446 15.408 140.102 16.128 138.566 16.128C136.262 16.128 134.486 14.688 134.486 14.688L133.79 16.944ZM145.976 12.744C145.976 15.648 147.824 18.288 151.448 18.288C154.16 18.288 155.816 16.728 155.816 16.728L155.144 15C155.144 15 153.632 16.344 151.808 16.344C149.912 16.344 148.712 15.072 148.448 13.104L154.376 12.312L155.744 11.928C155.744 8.64 153.872 6.864 151.28 6.864C148.112 6.864 145.976 9.432 145.976 12.744ZM151.112 8.712C153.008 8.712 153.152 10.92 153.152 10.92L148.448 11.52C148.664 9.936 149.576 8.712 151.112 8.712ZM158.413 18H160.789V10.944C161.485 10.248 162.973 8.928 164.149 8.928C164.941 8.928 165.373 9.504 165.373 11.04V18H167.749V10.896C168.565 10.104 169.909 8.928 171.013 8.928C171.805 8.928 172.261 9.504 172.261 11.04V18H174.613V10.176C174.613 7.848 173.485 6.864 171.805 6.864C169.909 6.864 168.421 8.136 167.629 9C167.293 7.512 166.309 6.864 164.941 6.864C163.021 6.864 161.485 8.184 160.741 9V6.96L158.413 7.344V18ZM179.068 4.56C179.932 4.56 180.58 3.936 180.58 3.096C180.58 2.256 179.932 1.632 179.068 1.632C178.228 1.632 177.58 2.256 177.58 3.096C177.58 3.936 178.228 4.56 179.068 4.56ZM177.868 18H180.244V7.152H177.868V18ZM183.585 17.76C184.401 17.952 186.249 18.288 187.545 18.288C191.649 18.288 193.617 15.36 193.617 12.192C193.617 9.216 191.889 6.864 188.889 6.864C187.401 6.864 186.513 7.464 185.961 8.088V0.839999L183.585 1.224V17.76ZM188.505 8.784C190.089 8.784 191.169 10.104 191.169 12.36C191.169 15.048 189.657 16.488 187.593 16.488C186.705 16.488 185.961 16.248 185.961 16.248V9.912C186.465 9.456 187.377 8.784 188.505 8.784ZM195.545 12.624C195.545 15.504 197.489 18.288 201.089 18.288C205.001 18.288 206.729 15 206.729 12.36C206.729 9.576 204.785 6.864 201.185 6.864C197.297 6.864 195.545 9.912 195.545 12.624ZM198.017 12.408C198.017 10.248 199.289 8.76 201.137 8.76C203.345 8.76 204.257 10.752 204.257 12.672C204.257 14.856 202.985 16.392 201.161 16.392C199.001 16.392 198.017 14.424 198.017 12.408ZM209.344 18H211.72V0.839999L209.344 1.224V18ZM214.39 12.912C214.39 15.888 216.214 18.288 219.046 18.288C220.774 18.288 221.878 17.448 222.454 16.512C222.574 17.28 222.79 18.168 222.79 18.168L225.07 18C225.07 18 224.59 15.984 224.59 14.664V0.839999L222.214 1.224V7.224C221.902 7.104 221.182 6.864 220.198 6.864C216.358 6.864 214.39 9.816 214.39 12.912ZM219.454 16.392C217.918 16.392 216.886 15.024 216.886 12.768C216.886 10.176 218.254 8.736 220.318 8.736C221.302 8.736 222.166 9.096 222.214 10.176V14.64C221.878 15.144 220.918 16.392 219.454 16.392Z" fill="black"/>
                  </svg>