<svg width="151" height="13" viewBox="0 0 151 13" fill="none" xmlns="http://www.w3.org/2000/svg">
                    <path d="M0.72 6.784C0.72 10.064 3.184 12.192 6.352 12.192C8.864 12.192 10.304 10.96 10.304 10.96L9.632 9.728C9.632 9.728 8.336 10.768 6.464 10.768C4.176 10.768 2.448 9.04 2.448 6.64C2.448 4.496 3.856 2.56 6.464 2.56C8.352 2.56 9.52 3.472 9.52 3.472L10.16 2.032C10.16 2.032 8.8 1.136 6.56 1.136C2.976 1.136 0.72 3.632 0.72 6.784ZM11.2933 10.336C11.2933 11.408 12.1093 12.192 13.3733 12.192C14.7812 12.192 15.5173 11.296 15.7093 10.992C15.9173 11.568 16.3813 12.032 17.4853 12.112L17.9653 10.864C17.9653 10.864 17.1653 10.848 17.1653 9.952V6.896C17.1653 5.28 16.6213 4.576 14.9093 4.576C13.0053 4.576 11.7733 5.488 11.7733 5.488L12.1893 6.672C12.1893 6.672 13.2933 5.84 14.4773 5.84C15.6453 5.84 15.5813 6.64 15.5813 7.552C12.8773 7.904 11.2933 8.816 11.2933 10.336ZM13.7733 10.944C13.3093 10.944 12.9253 10.736 12.9253 10.224C12.9253 9.376 13.7413 8.848 15.5813 8.576V9.824C15.1013 10.384 14.5093 10.944 13.7733 10.944ZM19.5575 12H21.1415V0.559999L19.5575 0.815999V12ZM23.4013 12H24.9853V0.559999L23.4013 0.815999V12ZM27.165 10.016C27.165 11.568 27.965 12.192 29.133 12.192C30.461 12.192 31.469 11.344 31.933 10.848C32.013 11.376 32.173 12.128 32.173 12.128L33.709 11.984C33.709 11.984 33.389 10.656 33.389 9.776V4.768H31.805V9.632C31.357 10.048 30.461 10.816 29.645 10.816C29.053 10.816 28.749 10.416 28.749 9.408V4.768H27.165V10.016ZM35.6505 12H37.2345V7.312C37.7305 6.832 38.7545 5.952 39.5545 5.952C40.0985 5.952 40.4185 6.336 40.4185 7.36V12H42.0025V6.784C42.0025 5.232 41.2185 4.576 40.0825 4.576C38.7545 4.576 37.7145 5.456 37.2025 6.016V4.64L35.6505 4.896V12ZM43.5589 10.336C43.5589 11.408 44.3749 12.192 45.6389 12.192C47.0469 12.192 47.7829 11.296 47.9749 10.992C48.1829 11.568 48.6469 12.032 49.7509 12.112L50.2309 10.864C50.2309 10.864 49.4309 10.848 49.4309 9.952V6.896C49.4309 5.28 48.8869 4.576 47.1749 4.576C45.2709 4.576 44.0389 5.488 44.0389 5.488L44.4549 6.672C44.4549 6.672 45.5589 5.84 46.7429 5.84C47.9109 5.84 47.8469 6.64 47.8469 7.552C45.1429 7.904 43.5589 8.816 43.5589 10.336ZM46.0389 10.944C45.5749 10.944 45.1909 10.736 45.1909 10.224C45.1909 9.376 46.0069 8.848 47.8469 8.576V9.824C47.3669 10.384 46.7749 10.944 46.0389 10.944ZM55.2509 11.296C55.2509 11.296 56.5309 12.192 58.4189 12.192C60.3869 12.192 62.0189 11.152 62.0189 9.248C62.0189 5.872 57.0909 6.096 57.0909 3.872C57.0909 3.024 57.9229 2.576 58.9789 2.576C60.2429 2.576 61.4589 3.12 61.4589 3.12L61.7949 1.616C61.7949 1.616 60.4349 1.136 58.9949 1.136C56.7229 1.136 55.4269 2.448 55.4269 4.048C55.4269 7.28 60.3549 7.184 60.3549 9.376C60.3549 10.272 59.4589 10.752 58.4349 10.752C56.8989 10.752 55.7149 9.792 55.7149 9.792L55.2509 11.296ZM63.2464 10.336C63.2464 11.408 64.0624 12.192 65.3264 12.192C66.7344 12.192 67.4704 11.296 67.6624 10.992C67.8704 11.568 68.3344 12.032 69.4384 12.112L69.9184 10.864C69.9184 10.864 69.1184 10.848 69.1184 9.952V6.896C69.1184 5.28 68.5744 4.576 66.8624 4.576C64.9584 4.576 63.7264 5.488 63.7264 5.488L64.1424 6.672C64.1424 6.672 65.2464 5.84 66.4304 5.84C67.5984 5.84 67.5344 6.64 67.5344 7.552C64.8304 7.904 63.2464 8.816 63.2464 10.336ZM65.7264 10.944C65.2624 10.944 64.8784 10.736 64.8784 10.224C64.8784 9.376 65.6944 8.848 67.5344 8.576V9.824C67.0544 10.384 66.4624 10.944 65.7264 10.944ZM71.4786 12H73.0626V7.312C73.5586 6.832 74.5826 5.952 75.3826 5.952C75.9266 5.952 76.2466 6.336 76.2466 7.36V12H77.8306V6.784C77.8306 5.232 77.0466 4.576 75.9106 4.576C74.5826 4.576 73.5426 5.456 73.0306 6.016V4.64L71.4786 4.896V12ZM79.483 11.552C79.483 11.552 80.379 12.192 81.883 12.192C83.659 12.192 84.699 11.312 84.699 10C84.699 7.696 81.227 7.808 81.227 6.544C81.227 6.128 81.579 5.824 82.379 5.824C83.307 5.824 84.139 6.272 84.139 6.272L84.507 4.976C84.507 4.976 83.707 4.576 82.443 4.576C80.443 4.576 79.643 5.552 79.643 6.672C79.643 8.944 83.115 8.848 83.115 10.144C83.115 10.608 82.715 10.944 81.867 10.944C80.699 10.944 79.819 10.208 79.819 10.208L79.483 11.552ZM89.8603 11.296C89.8603 11.296 91.1403 12.192 93.0283 12.192C94.9963 12.192 96.6283 11.152 96.6283 9.248C96.6283 5.872 91.7003 6.096 91.7003 3.872C91.7003 3.024 92.5323 2.576 93.5883 2.576C94.8523 2.576 96.0683 3.12 96.0683 3.12L96.4043 1.616C96.4043 1.616 95.0443 1.136 93.6043 1.136C91.3323 1.136 90.0363 2.448 90.0363 4.048C90.0363 7.28 94.9643 7.184 94.9643 9.376C94.9643 10.272 94.0683 10.752 93.0443 10.752C91.5082 10.752 90.3243 9.792 90.3243 9.792L89.8603 11.296ZM97.9838 8.496C97.9838 10.432 99.2158 12.192 101.632 12.192C103.44 12.192 104.544 11.152 104.544 11.152L104.096 10C104.096 10 103.088 10.896 101.872 10.896C100.608 10.896 99.8078 10.048 99.6318 8.736L103.584 8.208L104.496 7.952C104.496 5.76 103.248 4.576 101.52 4.576C99.4078 4.576 97.9838 6.288 97.9838 8.496ZM101.408 5.808C102.672 5.808 102.768 7.28 102.768 7.28L99.6318 7.68C99.7758 6.624 100.384 5.808 101.408 5.808ZM106.276 12H107.86V7.296C108.324 6.832 109.316 5.952 110.1 5.952C110.628 5.952 110.916 6.336 110.916 7.36V12H112.5V7.264C113.044 6.736 113.94 5.952 114.676 5.952C115.204 5.952 115.508 6.336 115.508 7.36V12H117.076V6.784C117.076 5.232 116.324 4.576 115.204 4.576C113.94 4.576 112.948 5.424 112.42 6C112.196 5.008 111.54 4.576 110.628 4.576C109.348 4.576 108.324 5.456 107.828 6V4.64L106.276 4.896V12ZM120.045 3.04C120.621 3.04 121.053 2.624 121.053 2.064C121.053 1.504 120.621 1.088 120.045 1.088C119.485 1.088 119.053 1.504 119.053 2.064C119.053 2.624 119.485 3.04 120.045 3.04ZM119.245 12H120.829V4.768H119.245V12ZM123.057 11.84C123.601 11.968 124.833 12.192 125.697 12.192C128.433 12.192 129.745 10.24 129.745 8.128C129.745 6.144 128.593 4.576 126.593 4.576C125.601 4.576 125.009 4.976 124.641 5.392V0.559999L123.057 0.815999V11.84ZM126.337 5.856C127.393 5.856 128.113 6.736 128.113 8.24C128.113 10.032 127.105 10.992 125.729 10.992C125.137 10.992 124.641 10.832 124.641 10.832V6.608C124.977 6.304 125.585 5.856 126.337 5.856ZM131.03 8.416C131.03 10.336 132.326 12.192 134.726 12.192C137.334 12.192 138.486 10 138.486 8.24C138.486 6.384 137.19 4.576 134.79 4.576C132.198 4.576 131.03 6.608 131.03 8.416ZM132.678 8.272C132.678 6.832 133.526 5.84 134.758 5.84C136.23 5.84 136.838 7.168 136.838 8.448C136.838 9.904 135.99 10.928 134.774 10.928C133.334 10.928 132.678 9.616 132.678 8.272ZM140.229 12H141.813V0.559999L140.229 0.815999V12ZM143.593 8.608C143.593 10.592 144.809 12.192 146.697 12.192C147.849 12.192 148.585 11.632 148.969 11.008C149.049 11.52 149.193 12.112 149.193 12.112L150.713 12C150.713 12 150.393 10.656 150.393 9.776V0.559999L148.809 0.815999V4.816C148.601 4.736 148.121 4.576 147.465 4.576C144.905 4.576 143.593 6.544 143.593 8.608ZM146.969 10.928C145.945 10.928 145.257 10.016 145.257 8.512C145.257 6.784 146.169 5.824 147.545 5.824C148.201 5.824 148.777 6.064 148.809 6.784V9.76C148.585 10.096 147.945 10.928 146.969 10.928Z" fill="black"/>
                  </svg> 