<svg width="138" height="16" viewBox="0 0 138 16" fill="none" xmlns="http://www.w3.org/2000/svg">
                    <path d="M0.8 6.736C0.8 9.936 3.152 12.192 6.352 12.192C8.688 12.192 10.192 10.976 10.192 10.976L9.648 9.984C9.648 9.984 8.288 11.056 6.464 11.056C3.968 11.056 2.208 9.072 2.208 6.64C2.208 4.464 3.616 2.272 6.432 2.272C8.288 2.272 9.536 3.232 9.536 3.232L10.064 2.048C10.064 2.048 8.656 1.136 6.528 1.136C3.024 1.136 0.8 3.632 0.8 6.736ZM11.3416 10.384C11.3416 11.44 12.1256 12.192 13.3576 12.192C14.8136 12.192 15.5976 11.168 15.7416 10.944C15.9016 11.536 16.2856 12 17.2936 12.112L17.7096 11.104C17.7096 11.104 16.9096 11.088 16.9096 10.144V6.896C16.9096 5.28 16.3976 4.608 14.8296 4.608C13.0376 4.608 11.8376 5.488 11.8376 5.488L12.2216 6.496C12.2216 6.496 13.2776 5.696 14.4776 5.696C15.6776 5.696 15.6616 6.496 15.6616 7.344V7.616C12.9256 7.968 11.3416 8.896 11.3416 10.384ZM13.6136 11.104C13.0856 11.104 12.6696 10.864 12.6696 10.304C12.6696 9.376 13.6296 8.864 15.6616 8.528V9.856C15.1496 10.448 14.4936 11.104 13.6136 11.104ZM19.4816 12H20.7296V0.575999L19.4816 0.799999V12ZM23.1691 12H24.4171V0.575999L23.1691 0.799999V12ZM26.7606 10.032C26.7606 11.584 27.5286 12.192 28.7126 12.192C30.0726 12.192 31.1286 11.264 31.5606 10.8C31.6246 11.312 31.8006 12.112 31.8006 12.112L33.0326 12C33.0326 12 32.7126 10.656 32.7126 9.776V4.8H31.4646V9.744C30.9846 10.224 29.9606 11.088 29.0326 11.088C28.4566 11.088 28.0086 10.784 28.0086 9.68V4.8H26.7606V10.032ZM35.1371 12H36.3851V7.248C36.8491 6.8 38.0811 5.712 39.0251 5.712C39.5691 5.712 40.0011 6.048 40.0011 7.12V12H41.2491V6.768C41.2491 5.216 40.4331 4.608 39.3611 4.608C37.9691 4.608 36.8491 5.616 36.3851 6.096V4.688L35.1371 4.912V12ZM42.9666 10.384C42.9666 11.44 43.7506 12.192 44.9826 12.192C46.4386 12.192 47.2226 11.168 47.3666 10.944C47.5266 11.536 47.9106 12 48.9186 12.112L49.3346 11.104C49.3346 11.104 48.5346 11.088 48.5346 10.144V6.896C48.5346 5.28 48.0226 4.608 46.4546 4.608C44.6626 4.608 43.4626 5.488 43.4626 5.488L43.8466 6.496C43.8466 6.496 44.9026 5.696 46.1026 5.696C47.3026 5.696 47.2866 6.496 47.2866 7.344V7.616C44.5506 7.968 42.9666 8.896 42.9666 10.384ZM45.2386 11.104C44.7106 11.104 44.2946 10.864 44.2946 10.304C44.2946 9.376 45.2546 8.864 47.2866 8.528V9.856C46.7746 10.448 46.1186 11.104 45.2386 11.104ZM54.5024 11.296C54.5024 11.296 55.7344 12.192 57.5904 12.192C59.5104 12.192 61.0944 11.232 61.0944 9.376C61.0944 5.984 56.0224 6.256 56.0224 3.776C56.0224 2.8 56.9344 2.304 58.1184 2.304C59.3664 2.304 60.5504 2.848 60.5504 2.848L60.8864 1.616C60.8864 1.616 59.5744 1.136 58.1664 1.136C55.9424 1.136 54.6944 2.368 54.6944 3.92C54.6944 7.184 59.7664 7.04 59.7664 9.472C59.7664 10.496 58.7904 11.024 57.6384 11.024C56.0864 11.024 54.8544 10.064 54.8544 10.064L54.5024 11.296ZM62.451 10.384C62.451 11.44 63.235 12.192 64.467 12.192C65.923 12.192 66.707 11.168 66.851 10.944C67.011 11.536 67.395 12 68.403 12.112L68.819 11.104C68.819 11.104 68.019 11.088 68.019 10.144V6.896C68.019 5.28 67.507 4.608 65.939 4.608C64.147 4.608 62.947 5.488 62.947 5.488L63.331 6.496C63.331 6.496 64.387 5.696 65.587 5.696C66.787 5.696 66.771 6.496 66.771 7.344V7.616C64.035 7.968 62.451 8.896 62.451 10.384ZM64.723 11.104C64.195 11.104 63.779 10.864 63.779 10.304C63.779 9.376 64.739 8.864 66.771 8.528V9.856C66.259 10.448 65.603 11.104 64.723 11.104ZM70.559 12H71.807V7.248C72.271 6.8 73.503 5.712 74.447 5.712C74.991 5.712 75.423 6.048 75.423 7.12V12H76.671V6.768C76.671 5.216 75.855 4.608 74.783 4.608C73.391 4.608 72.271 5.616 71.807 6.096V4.688L70.559 4.912V12ZM78.4845 11.552C78.4845 11.552 79.3325 12.192 80.7885 12.192C82.4205 12.192 83.4285 11.392 83.4285 10.112C83.4285 7.728 79.8925 7.968 79.8925 6.496C79.8925 6 80.2925 5.648 81.1565 5.648C82.0525 5.648 82.9165 6.064 82.9165 6.064L83.2525 5.008C83.2525 5.008 82.4685 4.608 81.2525 4.608C79.4125 4.608 78.6285 5.504 78.6285 6.592C78.6285 8.896 82.1645 8.672 82.1645 10.208C82.1645 10.768 81.7165 11.152 80.8205 11.152C79.6685 11.152 78.7565 10.448 78.7565 10.448L78.4845 11.552ZM89.5055 12H90.8175V7.504H92.5295L95.5855 12H97.1375L93.9055 7.232C94.9615 6.768 96.1135 5.792 96.1135 4.24C96.1135 2.736 95.0575 1.328 92.3055 1.328H89.5055V12ZM90.8175 6.4V2.432H92.0655C94.0175 2.432 94.7055 3.36 94.7055 4.368C94.7055 5.696 93.5215 6.4 92.4975 6.4H90.8175ZM97.8763 8.56C97.8763 10.448 99.0603 12.192 101.444 12.192C103.172 12.192 104.212 11.152 104.212 11.152L103.844 10.192C103.844 10.192 102.82 11.104 101.588 11.104C100.18 11.104 99.3163 10.096 99.2043 8.608L103.444 8.048L104.212 7.824C104.212 5.76 102.996 4.608 101.332 4.608C99.2843 4.608 97.8763 6.304 97.8763 8.56ZM101.252 5.648C102.692 5.648 102.836 7.184 102.836 7.184L99.2203 7.648C99.3963 6.528 100.1 5.648 101.252 5.648ZM106.089 10.704C106.089 11.184 106.585 11.472 107.289 11.68C106.473 12.096 105.417 12.768 105.417 13.872C105.417 15.152 106.937 15.792 108.489 15.792C110.537 15.792 112.329 14.608 112.329 13.136C112.329 11.824 110.921 11.44 109.545 11.136C108.185 10.832 107.433 10.672 107.433 10.368C107.433 10.16 107.737 9.936 108.073 9.696C108.249 9.728 108.441 9.744 108.649 9.744C110.089 9.744 111.705 8.928 111.705 7.248C111.705 6.544 111.353 6.048 111.161 5.84C111.321 5.856 111.545 5.872 111.753 5.872H112.665L112.553 4.752C112.553 4.752 112.073 4.912 111.609 4.912H110.841C110.057 4.912 109.609 4.608 108.777 4.608C107.209 4.608 105.801 5.536 105.801 7.12C105.801 8.128 106.329 8.976 107.193 9.424C106.681 9.728 106.089 10.192 106.089 10.704ZM106.569 13.696C106.569 12.896 107.481 12.416 108.329 11.952C108.601 12 108.857 12.048 109.129 12.112C110.217 12.352 111.049 12.608 111.049 13.312C111.049 14.112 109.945 14.832 108.585 14.832C107.737 14.832 106.569 14.56 106.569 13.696ZM108.761 8.784C107.609 8.784 107.081 8 107.081 7.2C107.081 6.288 107.705 5.568 108.729 5.568C109.865 5.568 110.425 6.496 110.425 7.312C110.425 8.256 109.705 8.784 108.761 8.784ZM114.089 10.032C114.089 11.584 114.857 12.192 116.041 12.192C117.401 12.192 118.457 11.264 118.889 10.8C118.953 11.312 119.129 12.112 119.129 12.112L120.361 12C120.361 12 120.041 10.656 120.041 9.776V4.8H118.793V9.744C118.313 10.224 117.289 11.088 116.361 11.088C115.785 11.088 115.337 10.784 115.337 9.68V4.8H114.089V10.032ZM122.497 12H123.745V0.575999L122.497 0.799999V12ZM125.545 10.384C125.545 11.44 126.329 12.192 127.561 12.192C129.017 12.192 129.801 11.168 129.945 10.944C130.105 11.536 130.489 12 131.497 12.112L131.913 11.104C131.913 11.104 131.113 11.088 131.113 10.144V6.896C131.113 5.28 130.601 4.608 129.033 4.608C127.241 4.608 126.041 5.488 126.041 5.488L126.425 6.496C126.425 6.496 127.481 5.696 128.681 5.696C129.881 5.696 129.865 6.496 129.865 7.344V7.616C127.129 7.968 125.545 8.896 125.545 10.384ZM127.817 11.104C127.289 11.104 126.873 10.864 126.873 10.304C126.873 9.376 127.833 8.864 129.865 8.528V9.856C129.353 10.448 128.697 11.104 127.817 11.104ZM133.653 12H134.901V7.44C135.189 6.944 135.861 5.968 136.693 5.968C136.981 5.968 137.301 6.096 137.301 6.096L137.621 4.752C137.621 4.752 137.397 4.608 136.997 4.608C135.909 4.608 135.173 5.632 134.901 6.112V4.688L133.653 4.912V12Z" fill="black"/>
                  </svg>