<svg width="121" height="16" viewBox="0 0 121 16" fill="none" xmlns="http://www.w3.org/2000/svg">
                    <path d="M0.184 12V0.799999H3.624C5.59733 0.799999 7.048 1.30133 7.976 2.304C8.91467 3.30667 9.384 4.68267 9.384 6.432C9.384 8.14933 8.91467 9.50933 7.976 10.512C7.048 11.504 5.59733 12 3.624 12H0.184ZM1.528 10.88H3.592C4.68 10.88 5.544 10.704 6.184 10.352C6.83467 9.98933 7.29867 9.47733 7.576 8.816C7.85333 8.144 7.992 7.34933 7.992 6.432C7.992 5.49333 7.85333 4.688 7.576 4.016C7.29867 3.344 6.83467 2.82667 6.184 2.464C5.544 2.10133 4.68 1.92 3.592 1.92H1.528V10.88ZM11.3246 12V0.799999H12.8926L16.9246 8.608L20.9246 0.799999H22.5086V12H21.1646V3.2L17.4206 10.4H16.4126L12.6686 3.216V12H11.3246ZM32.6739 12.192C31.8525 12.192 31.1379 12.0427 30.5299 11.744C29.9219 11.4453 29.4525 11.0293 29.1219 10.496C28.7912 9.96267 28.6259 9.344 28.6259 8.64H30.0339C30.0339 9.07733 30.1352 9.48267 30.3379 9.856C30.5405 10.2187 30.8339 10.512 31.2179 10.736C31.6125 10.9493 32.0979 11.056 32.6739 11.056C33.4312 11.056 34.0179 10.8747 34.4339 10.512C34.8499 10.1493 35.0579 9.696 35.0579 9.152C35.0579 8.704 34.9619 8.34667 34.7699 8.08C34.5779 7.80267 34.3165 7.57867 33.9859 7.408C33.6659 7.23733 33.2925 7.088 32.8659 6.96C32.4499 6.832 32.0125 6.688 31.5539 6.528C30.6899 6.22933 30.0499 5.86133 29.6339 5.424C29.2179 4.976 29.0099 4.39467 29.0099 3.68C28.9992 3.08267 29.1379 2.55467 29.4259 2.096C29.7139 1.62667 30.1192 1.264 30.6419 1.008C31.1752 0.741333 31.8045 0.608 32.5299 0.608C33.2445 0.608 33.8632 0.741333 34.3859 1.008C34.9192 1.27467 35.3299 1.64267 35.6179 2.112C35.9165 2.58133 36.0712 3.11467 36.0819 3.712H34.6739C34.6739 3.40267 34.5939 3.09867 34.4339 2.8C34.2739 2.49067 34.0285 2.24 33.6979 2.048C33.3779 1.856 32.9725 1.76 32.4819 1.76C31.8739 1.74933 31.3725 1.904 30.9779 2.224C30.5939 2.544 30.4019 2.98667 30.4019 3.552C30.4019 4.032 30.5352 4.4 30.8019 4.656C31.0792 4.912 31.4632 5.12533 31.9539 5.296C32.4445 5.456 33.0099 5.64267 33.6499 5.856C34.1832 6.048 34.6632 6.272 35.0899 6.528C35.5165 6.784 35.8472 7.11467 36.0819 7.52C36.3272 7.92533 36.4499 8.44267 36.4499 9.072C36.4499 9.60533 36.3112 10.112 36.0339 10.592C35.7565 11.0613 35.3352 11.4453 34.7699 11.744C34.2152 12.0427 33.5165 12.192 32.6739 12.192ZM40.9159 12.192C40.2545 12.192 39.7052 12.08 39.2679 11.856C38.8305 11.632 38.5052 11.3333 38.2919 10.96C38.0785 10.5867 37.9719 10.1813 37.9719 9.744C37.9719 8.93333 38.2812 8.30933 38.8999 7.872C39.5185 7.43467 40.3612 7.216 41.4279 7.216H43.5719V7.12C43.5719 6.42667 43.3905 5.904 43.0279 5.552C42.6652 5.18933 42.1799 5.008 41.5719 5.008C41.0492 5.008 40.5959 5.14133 40.2119 5.408C39.8385 5.664 39.6039 6.04267 39.5079 6.544H38.1319C38.1852 5.968 38.3772 5.48267 38.7079 5.088C39.0492 4.69333 39.4705 4.39467 39.9719 4.192C40.4732 3.97867 41.0065 3.872 41.5719 3.872C42.6812 3.872 43.5132 4.17067 44.0679 4.768C44.6332 5.35467 44.9159 6.13867 44.9159 7.12V12H43.7159L43.6359 10.576C43.4119 11.024 43.0812 11.408 42.6439 11.728C42.2172 12.0373 41.6412 12.192 40.9159 12.192ZM41.1239 11.056C41.6359 11.056 42.0732 10.9227 42.4359 10.656C42.8092 10.3893 43.0919 10.0427 43.2839 9.616C43.4759 9.18933 43.5719 8.74133 43.5719 8.272V8.256H41.5399C40.7505 8.256 40.1905 8.39467 39.8599 8.672C39.5399 8.93867 39.3799 9.27467 39.3799 9.68C39.3799 10.096 39.5292 10.432 39.8279 10.688C40.1372 10.9333 40.5692 11.056 41.1239 11.056ZM46.9321 12V4.064H48.1481L48.2281 5.488C48.4841 4.98667 48.8521 4.592 49.3321 4.304C49.8121 4.016 50.3561 3.872 50.9641 3.872C51.9028 3.872 52.6495 4.16 53.2041 4.736C53.7695 5.30133 54.0521 6.176 54.0521 7.36V12H52.7081V7.504C52.7081 5.85067 52.0255 5.024 50.6601 5.024C49.9775 5.024 49.4068 5.27467 48.9481 5.776C48.5001 6.26667 48.2761 6.97067 48.2761 7.888V12H46.9321ZM59.1284 12.192C58.179 12.192 57.3897 11.952 56.7604 11.472C56.131 10.992 55.763 10.3413 55.6564 9.52H57.0324C57.1177 9.936 57.3364 10.2987 57.6884 10.608C58.051 10.9067 58.5364 11.056 59.1444 11.056C59.7097 11.056 60.1257 10.9387 60.3924 10.704C60.659 10.4587 60.7924 10.1707 60.7924 9.84C60.7924 9.36 60.6164 9.04 60.2644 8.88C59.923 8.72 59.4377 8.576 58.8084 8.448C58.3817 8.36267 57.955 8.24 57.5284 8.08C57.1017 7.92 56.7444 7.696 56.4564 7.408C56.1684 7.10933 56.0244 6.72 56.0244 6.24C56.0244 5.54667 56.2804 4.98133 56.7924 4.544C57.315 4.096 58.019 3.872 58.9044 3.872C59.747 3.872 60.435 4.08533 60.9684 4.512C61.5124 4.928 61.827 5.52533 61.9124 6.304H60.5844C60.531 5.89867 60.355 5.584 60.0564 5.36C59.7684 5.12533 59.379 5.008 58.8884 5.008C58.4084 5.008 58.035 5.10933 57.7684 5.312C57.5124 5.51467 57.3844 5.78133 57.3844 6.112C57.3844 6.432 57.5497 6.68267 57.8804 6.864C58.2217 7.04533 58.6804 7.2 59.2564 7.328C59.747 7.43467 60.211 7.568 60.6484 7.728C61.0964 7.87733 61.459 8.10667 61.7364 8.416C62.0244 8.71467 62.1684 9.152 62.1684 9.728C62.179 10.4427 61.907 11.0347 61.3524 11.504C60.8084 11.9627 60.067 12.192 59.1284 12.192ZM68.4028 12V0.799999H72.0188C72.8934 0.799999 73.6081 0.943999 74.1628 1.232C74.7174 1.52 75.1281 1.91467 75.3948 2.416C75.6614 2.91733 75.7948 3.472 75.7948 4.08C75.7948 4.784 75.6028 5.41867 75.2188 5.984C74.8454 6.54933 74.2588 6.94933 73.4588 7.184L75.9068 12H74.3228L72.0508 7.376H71.9548H69.7468V12H68.4028ZM69.7468 6.32H71.9227C72.7868 6.32 73.4161 6.112 73.8108 5.696C74.2054 5.28 74.4028 4.74667 74.4028 4.096C74.4028 3.43467 74.2054 2.912 73.8108 2.528C73.4268 2.13333 72.7921 1.936 71.9068 1.936H69.7468V6.32ZM80.8908 12.192C80.1334 12.192 79.4614 12.0213 78.8748 11.68C78.2881 11.328 77.8241 10.8427 77.4828 10.224C77.1521 9.60533 76.9868 8.87467 76.9868 8.032C76.9868 7.2 77.1521 6.47467 77.4828 5.856C77.8134 5.22667 78.2721 4.74133 78.8588 4.4C79.4561 4.048 80.1441 3.872 80.9227 3.872C81.6908 3.872 82.3521 4.048 82.9068 4.4C83.4721 4.74133 83.9041 5.19467 84.2028 5.76C84.5014 6.32533 84.6508 6.93333 84.6508 7.584C84.6508 7.70133 84.6454 7.81867 84.6348 7.936C84.6348 8.05333 84.6348 8.18667 84.6348 8.336H78.3148C78.3468 8.944 78.4854 9.45067 78.7308 9.856C78.9868 10.2507 79.3014 10.5493 79.6748 10.752C80.0588 10.9547 80.4641 11.056 80.8908 11.056C81.4454 11.056 81.9094 10.928 82.2828 10.672C82.6561 10.416 82.9281 10.0693 83.0988 9.632H84.4268C84.2134 10.368 83.8028 10.9813 83.1948 11.472C82.5974 11.952 81.8294 12.192 80.8908 12.192ZM80.8908 5.008C80.2508 5.008 79.6801 5.20533 79.1788 5.6C78.6881 5.984 78.4054 6.54933 78.3307 7.296H83.3228C83.2908 6.58133 83.0454 6.02133 82.5868 5.616C82.1281 5.21067 81.5628 5.008 80.8908 5.008ZM89.5213 9.504C89.0733 9.504 88.6626 9.44533 88.2893 9.328L87.4893 10.08C87.6066 10.1653 87.7506 10.24 87.9213 10.304C88.1026 10.3573 88.3586 10.4107 88.6893 10.464C89.0199 10.5067 89.4839 10.5547 90.0813 10.608C91.1479 10.6827 91.9106 10.928 92.3693 11.344C92.8279 11.76 93.0573 12.304 93.0573 12.976C93.0573 13.4347 92.9293 13.872 92.6733 14.288C92.4279 14.704 92.0439 15.0453 91.5213 15.312C91.0093 15.5787 90.3479 15.712 89.5373 15.712C88.8226 15.712 88.1879 15.616 87.6332 15.424C87.0786 15.2427 86.6466 14.96 86.3372 14.576C86.0279 14.2027 85.8733 13.728 85.8733 13.152C85.8733 12.8533 85.9533 12.528 86.1133 12.176C86.2733 11.8347 86.5719 11.5093 87.0093 11.2C86.7746 11.104 86.5719 11.0027 86.4013 10.896C86.2413 10.7787 86.0919 10.6507 85.9533 10.512V10.144L87.3133 8.8C86.6839 8.26667 86.3693 7.56267 86.3693 6.688C86.3693 6.16533 86.4919 5.69067 86.7373 5.264C86.9826 4.83733 87.3399 4.50133 87.8093 4.256C88.2786 4 88.8493 3.872 89.5213 3.872C89.9799 3.872 90.3959 3.936 90.7693 4.064H93.6973V5.072L92.2093 5.136C92.5186 5.584 92.6733 6.10133 92.6733 6.688C92.6733 7.21067 92.5453 7.68533 92.2893 8.112C92.0439 8.53867 91.6866 8.88 91.2173 9.136C90.7586 9.38133 90.1933 9.504 89.5213 9.504ZM89.5213 8.4C90.0866 8.4 90.5346 8.256 90.8653 7.968C91.2066 7.66933 91.3773 7.24267 91.3773 6.688C91.3773 6.144 91.2066 5.728 90.8653 5.44C90.5346 5.14133 90.0866 4.992 89.5213 4.992C88.9453 4.992 88.4866 5.14133 88.1453 5.44C87.8146 5.728 87.6493 6.144 87.6493 6.688C87.6493 7.24267 87.8146 7.66933 88.1453 7.968C88.4866 8.256 88.9453 8.4 89.5213 8.4ZM87.1853 13.024C87.1853 13.5573 87.4093 13.952 87.8573 14.208C88.3053 14.4747 88.8653 14.608 89.5373 14.608C90.1986 14.608 90.7266 14.464 91.1213 14.176C91.5266 13.888 91.7293 13.504 91.7293 13.024C91.7293 12.6827 91.5906 12.384 91.3133 12.128C91.0359 11.8827 90.5239 11.7387 89.7773 11.696C89.1906 11.6533 88.6839 11.6 88.2573 11.536C87.8199 11.7707 87.5319 12.0213 87.3932 12.288C87.2546 12.5653 87.1853 12.8107 87.1853 13.024ZM98.1094 12.192C97.1707 12.192 96.424 11.9093 95.8694 11.344C95.3147 10.768 95.0374 9.888 95.0374 8.704V4.064H96.3814V8.56C96.3814 10.2133 97.0587 11.04 98.4134 11.04C99.1067 11.04 99.6774 10.7947 100.125 10.304C100.584 9.80267 100.813 9.09333 100.813 8.176V4.064H102.157V12H100.941L100.845 10.576C100.6 11.0773 100.232 11.472 99.7414 11.76C99.2614 12.048 98.7174 12.192 98.1094 12.192ZM104.37 12V0.48H105.714V12H104.37ZM110.557 12.192C109.895 12.192 109.346 12.08 108.909 11.856C108.471 11.632 108.146 11.3333 107.933 10.96C107.719 10.5867 107.613 10.1813 107.613 9.744C107.613 8.93333 107.922 8.30933 108.541 7.872C109.159 7.43467 110.002 7.216 111.069 7.216H113.213V7.12C113.213 6.42667 113.031 5.904 112.669 5.552C112.306 5.18933 111.821 5.008 111.213 5.008C110.69 5.008 110.237 5.14133 109.853 5.408C109.479 5.664 109.245 6.04267 109.149 6.544H107.773C107.826 5.968 108.018 5.48267 108.349 5.088C108.69 4.69333 109.111 4.39467 109.613 4.192C110.114 3.97867 110.647 3.872 111.213 3.872C112.322 3.872 113.154 4.17067 113.709 4.768C114.274 5.35467 114.557 6.13867 114.557 7.12V12H113.357L113.277 10.576C113.053 11.024 112.722 11.408 112.285 11.728C111.858 12.0373 111.282 12.192 110.557 12.192ZM110.765 11.056C111.277 11.056 111.714 10.9227 112.077 10.656C112.45 10.3893 112.733 10.0427 112.925 9.616C113.117 9.18933 113.213 8.74133 113.213 8.272V8.256H111.181C110.391 8.256 109.831 8.39467 109.501 8.672C109.181 8.93867 109.021 9.27467 109.021 9.68C109.021 10.096 109.17 10.432 109.469 10.688C109.778 10.9333 110.21 11.056 110.765 11.056ZM116.573 12V4.064H117.789L117.901 5.584C118.146 5.06133 118.519 4.64533 119.021 4.336C119.522 4.02667 120.141 3.872 120.877 3.872V5.28H120.509C120.039 5.28 119.607 5.36533 119.213 5.536C118.818 5.696 118.503 5.97333 118.269 6.368C118.034 6.76267 117.917 7.30667 117.917 8V12H116.573Z" fill="black"/>
                  </svg> 