<svg width="129" height="14" viewBox="0 0 129 14" fill="none" xmlns="http://www.w3.org/2000/svg">
                    <path d="M0.378 10L0.42 9.804L1.134 9.734C1.498 9.706 1.624 9.65 1.624 9.566V1.656C1.624 1.572 1.568 1.544 1.05 1.502L0.434 1.446L0.392 1.25H6.692L6.916 3.616L6.72 3.63L6.594 3.056C6.244 2.006 5.922 1.46 4.004 1.46H2.492V5.366H3.696C4.872 5.338 4.942 5.198 5.124 4.554L5.264 4.176H5.418L5.152 6.85L4.998 6.836L4.97 6.458C4.914 5.73 4.886 5.646 3.626 5.618L2.492 5.604V9.552C2.492 9.65 2.562 9.692 3.08 9.734L3.962 9.79L4.004 10H0.378ZM6.93722 10L6.97922 9.804L7.44122 9.776C7.76322 9.762 7.87522 9.748 7.87522 9.608V5.226C7.87522 4.596 7.79122 4.456 7.45522 4.428L6.89522 4.358L6.92322 4.218L8.63122 3.826L8.58922 6.108H8.60322C9.14922 4.596 9.75122 3.784 10.5072 3.784C10.9832 3.784 11.2212 4.106 11.2212 4.414C11.2212 4.708 11.0112 5.002 10.6752 5.002C10.3812 5.002 10.1152 4.764 10.0732 4.316C9.44322 4.512 8.99522 5.226 8.61722 6.5V9.636C8.61722 9.734 8.61722 9.762 9.05122 9.776L9.72322 9.804L9.76522 10H6.93722ZM14.2509 10.168C12.7249 10.168 11.4789 8.866 11.4789 7.13C11.4789 5.31 12.6969 3.812 14.4189 3.812C15.7769 3.812 16.5469 4.708 16.5469 5.688C16.5469 5.828 16.5329 5.926 16.5189 6.052L12.3609 6.024C12.3329 6.234 12.2909 6.556 12.2909 6.794C12.2909 8.432 13.2709 9.608 14.5449 9.608C15.4129 9.608 15.9869 9.258 16.5189 8.46L16.6729 8.558C16.1269 9.538 15.3429 10.168 14.2509 10.168ZM12.4029 5.828L15.6929 5.8C15.7069 4.806 15.2309 4.036 14.3069 4.036C13.5229 4.036 12.6969 4.778 12.4029 5.828ZM18.3808 2.454C17.9748 2.454 17.7788 2.104 17.7788 1.852C17.7788 1.572 17.9888 1.208 18.3948 1.208C18.8008 1.208 18.9688 1.572 18.9688 1.838C18.9688 2.104 18.7728 2.454 18.3808 2.454ZM17.1908 10L17.2328 9.804L17.7228 9.776C18.0308 9.762 18.1428 9.748 18.1428 9.608V5.24C18.1428 4.596 18.0588 4.456 17.6948 4.428L17.1488 4.358L17.1768 4.218L18.8988 3.826V9.636C18.8988 9.734 18.9548 9.748 19.4028 9.776L19.8508 9.804L19.8928 10H17.1908ZM22.5073 13.472C21.0933 13.472 20.1553 12.842 20.1553 11.876C20.1553 11.064 21.0373 10.406 21.6813 10.126V10.112C20.9113 10.028 20.3793 9.734 20.3793 9.202C20.3793 8.544 21.1773 7.97 21.8633 7.816V7.802C21.1493 7.564 20.5473 6.864 20.5473 5.982C20.5473 4.75 21.5693 3.812 22.8573 3.812C23.3893 3.812 23.8933 3.98 24.2573 4.232L25.9373 4.036L25.8813 4.596L24.5513 4.47L24.5373 4.512C24.8733 4.834 25.1393 5.324 25.1393 5.884C25.1393 7.074 24.0893 7.984 22.7873 7.984C22.5073 7.984 22.2133 7.928 22.0873 7.9C21.6113 8.012 21.1353 8.362 21.1353 8.768C21.1353 9.202 21.4573 9.398 22.2273 9.398C22.5073 9.398 23.4593 9.37 23.8093 9.37C25.1393 9.37 25.8673 10 25.8673 10.882C25.8673 12.366 24.4253 13.472 22.5073 13.472ZM22.9413 13.178C24.1593 13.178 25.3353 12.394 25.3353 11.386C25.3353 10.616 24.8313 10.14 23.6273 10.098C23.1793 10.084 22.8573 10.126 21.9613 10.168C21.4993 10.35 20.7573 10.952 20.7573 11.708C20.7573 12.59 21.6953 13.178 22.9413 13.178ZM22.8293 7.788C23.6973 7.788 24.3413 7.032 24.3413 5.954C24.3413 4.75 23.7813 4.008 22.8433 4.008C21.9893 4.008 21.3593 4.806 21.3593 5.856C21.3593 7.032 21.9753 7.788 22.8293 7.788ZM26.1296 10L26.1716 9.804L26.6196 9.776C26.9276 9.762 27.0396 9.748 27.0396 9.608V1.796C27.0396 1.208 26.9836 1.082 26.6056 1.026L26.0596 0.983999L26.0736 0.843999L27.7956 0.48V5.03L27.8096 5.044C28.4256 4.54 29.2236 3.812 30.1616 3.812C30.5956 3.812 30.9736 3.952 31.2396 4.218C31.5476 4.526 31.7016 4.974 31.7016 5.576V9.622C31.7016 9.706 31.7016 9.762 32.2056 9.776L32.6396 9.804L32.6816 10H30.0076L30.0496 9.804L30.5396 9.776C30.9176 9.762 30.9596 9.706 30.9596 9.608V5.842C30.9596 4.834 30.4696 4.4 29.6856 4.4C28.9716 4.4 28.2996 4.82 27.7956 5.31V9.636C27.7956 9.734 27.8516 9.748 28.2996 9.776L28.7476 9.804L28.7896 10H26.1296ZM35.2068 10.182C34.5908 10.182 33.9328 9.944 33.9468 8.88L34.0168 4.484L32.9528 4.456L33.0648 4.05L34.0308 4.008L34.0868 2.804L34.7868 2.818L34.7728 4.022H36.7608L36.6348 4.484H34.7728C34.7728 4.484 34.6888 8.726 34.6888 8.74C34.6608 9.44 35.0388 9.706 35.5428 9.706C36.0608 9.706 36.3968 9.398 36.7608 9.146L36.8588 9.272C36.3688 9.734 35.8788 10.182 35.2068 10.182ZM39.918 10L39.96 9.804L40.632 9.734C40.996 9.706 41.122 9.65 41.122 9.566V1.656C41.122 1.572 41.066 1.544 40.534 1.502L39.974 1.446L39.932 1.25L43.124 1.208C46.246 1.208 48.066 2.874 48.066 5.464C48.066 8.082 46.106 10 42.872 10H39.918ZM43.222 9.762C45.812 9.692 47.142 7.858 47.142 5.758C47.142 3.266 45.742 1.46 42.942 1.46H41.99V9.594L43.222 9.762ZM49.9902 2.454C49.5842 2.454 49.3882 2.104 49.3882 1.852C49.3882 1.572 49.5982 1.208 50.0042 1.208C50.4102 1.208 50.5782 1.572 50.5782 1.838C50.5782 2.104 50.3822 2.454 49.9902 2.454ZM48.8002 10L48.8422 9.804L49.3322 9.776C49.6402 9.762 49.7522 9.748 49.7522 9.608V5.24C49.7522 4.596 49.6682 4.456 49.3042 4.428L48.7582 4.358L48.7862 4.218L50.5082 3.826V9.636C50.5082 9.734 50.5642 9.748 51.0122 9.776L51.4602 9.804L51.5022 10H48.8002ZM53.9207 10.182C53.3187 10.182 52.7167 10.084 52.2127 9.874L52.0587 8.278H52.2547L52.5347 9.104C52.8987 9.692 53.4587 9.986 54.0047 9.986C54.9007 9.986 55.5167 9.454 55.5167 8.684C55.5167 7.844 54.8727 7.494 53.8787 7.186C53.1087 6.948 52.2267 6.514 52.2267 5.506C52.2267 4.554 53.0667 3.798 54.1587 3.798C54.6067 3.798 54.9987 3.896 55.3627 4.05L55.8107 3.924L55.9087 5.492H55.6987L55.1667 4.344C54.9147 4.176 54.5927 4.008 54.1167 4.008C53.3187 4.008 52.8427 4.456 52.8427 5.128C52.8427 5.912 53.4867 6.178 54.3267 6.472C55.2227 6.78 56.1607 7.102 56.1607 8.32C56.1607 9.328 55.2787 10.182 53.9207 10.182ZM56.6159 13.514L56.6579 13.318L57.1339 13.29C57.4419 13.262 57.5679 13.262 57.5679 13.136V5.212C57.5679 4.596 57.4979 4.456 57.1479 4.428L56.5739 4.358L56.5879 4.218L58.3239 3.826L58.3099 4.96L58.3519 4.988C58.8419 4.428 59.5559 3.854 60.5079 3.854C61.9079 3.854 63.0419 5.044 63.0419 6.822C63.0419 8.768 61.5999 10.182 60.0459 10.182C59.3599 10.182 58.7579 9.972 58.3379 9.762H58.3099V13.15C58.3099 13.248 58.3659 13.276 58.8139 13.29L59.4999 13.318L59.5419 13.514H56.6159ZM60.1019 9.944C61.3899 9.944 62.1879 8.768 62.1879 7.088C62.1879 5.534 61.3759 4.358 60.1019 4.358C59.3319 4.358 58.7719 4.792 58.3099 5.268V9.048C58.6879 9.524 59.3459 9.944 60.1019 9.944ZM63.5785 10L63.6205 9.804L64.0825 9.776C64.4045 9.762 64.5165 9.748 64.5165 9.608V1.866C64.5165 1.208 64.4465 1.082 64.0685 1.026L63.4805 0.983999L63.5085 0.843999L65.2585 0.48V9.636C65.2585 9.734 65.3005 9.762 65.7625 9.776L66.2105 9.804L66.2525 10H63.5785ZM70.94 10.154C70.548 10.154 70.142 9.804 70.156 9.202L70.142 9.174C69.568 9.706 68.966 10.14 68.35 10.14C67.468 10.14 66.866 9.552 66.866 8.782C66.866 7.774 67.692 7.158 70.268 6.472L70.282 5.856C70.352 4.456 69.638 4.134 68.882 4.134C68.238 4.134 67.608 4.526 67.608 4.722C67.608 4.806 67.902 4.96 67.902 5.296C67.902 5.562 67.678 5.8 67.356 5.8C67.062 5.8 66.824 5.646 66.824 5.282C66.824 4.638 68.252 3.812 69.316 3.812C70.408 3.812 71.08 4.246 71.01 5.814L70.87 9.188C70.856 9.58 71.01 9.664 71.262 9.664C71.472 9.664 71.724 9.468 71.962 9.216L72.074 9.342C71.766 9.692 71.416 10.154 70.94 10.154ZM68.686 9.65C69.274 9.65 69.764 9.272 70.184 8.908L70.254 6.696C68.154 7.242 67.636 7.802 67.636 8.614C67.636 9.272 68.028 9.65 68.686 9.65ZM72.6503 13.626C72.2023 13.626 71.8663 13.36 71.8663 13.038C71.8663 12.716 72.0903 12.45 72.4403 12.45C72.7623 12.45 73.0283 12.702 73.0843 13.136C73.6443 13.01 73.9103 12.422 74.3163 11.148L74.6243 10.168V10.154L72.4823 4.876C72.2723 4.33 72.2303 4.26 71.9083 4.232L71.5023 4.19L71.4603 4.008H74.0223L73.9943 4.19L73.6163 4.232C73.2243 4.246 73.1683 4.386 73.3083 4.778L75.0163 9.104L76.3743 5.366C76.6963 4.428 76.6403 4.302 75.9823 4.246L75.5903 4.19L75.5483 4.008H77.8583L77.8163 4.19L77.4943 4.232C77.0323 4.26 76.9763 4.428 76.5843 5.478L74.8903 10.028L74.4423 11.484C74.0083 12.954 73.5183 13.626 72.6503 13.626ZM80.4519 10L80.4939 9.804L81.3059 9.734C81.6699 9.706 81.7959 9.65 81.7959 9.566V1.656C81.7959 1.572 81.7399 1.544 81.2219 1.502L80.5079 1.446L80.4659 1.25H83.9939C86.1079 1.25 87.1999 2.09 87.1999 3.448C87.1999 4.946 85.8559 5.94 83.9799 5.94C83.5319 5.94 82.9859 5.884 82.6639 5.842V9.594C82.6639 9.678 82.7339 9.72 83.2519 9.748L84.1339 9.804L84.1759 10H80.4519ZM83.9799 5.744C85.4919 5.744 86.2899 4.974 86.2899 3.588C86.2899 2.23 85.5339 1.432 83.6999 1.474L82.6639 1.488V5.576C82.9859 5.66 83.4479 5.744 83.9799 5.744ZM87.6286 10L87.6706 9.804L88.1326 9.776C88.4546 9.762 88.5666 9.748 88.5666 9.608V5.226C88.5666 4.596 88.4826 4.456 88.1466 4.428L87.5866 4.358L87.6146 4.218L89.3226 3.826L89.2806 6.108H89.2946C89.8406 4.596 90.4426 3.784 91.1986 3.784C91.6746 3.784 91.9126 4.106 91.9126 4.414C91.9126 4.708 91.7026 5.002 91.3666 5.002C91.0726 5.002 90.8066 4.764 90.7646 4.316C90.1346 4.512 89.6866 5.226 89.3086 6.5V9.636C89.3086 9.734 89.3086 9.762 89.7426 9.776L90.4146 9.804L90.4566 10H87.6286ZM95.2363 10.182C93.5283 10.182 92.1843 8.852 92.1843 7.032C92.1843 5.212 93.5423 3.812 95.2503 3.812C96.9303 3.812 98.2743 5.142 98.2743 6.948C98.2743 8.81 96.9163 10.182 95.2363 10.182ZM95.2503 9.986C96.4683 9.986 97.4063 8.698 97.4063 7.074C97.4063 6.052 97.1683 5.156 96.6363 4.624C96.2583 4.232 95.7823 4.022 95.2223 4.022C93.9763 4.022 93.0243 5.282 93.0243 6.878C93.0243 7.956 93.3323 8.908 93.8783 9.454C94.2143 9.79 94.7043 9.986 95.2503 9.986ZM101.565 10L101.607 9.804L102.293 9.734C102.643 9.706 102.769 9.65 102.769 9.566V1.656C102.769 1.572 102.713 1.544 102.195 1.502L101.621 1.446L101.579 1.25H105.121L105.079 1.446L104.127 1.516C103.763 1.544 103.637 1.628 103.637 1.698V9.734L105.037 9.762C106.997 9.748 107.389 9.146 107.795 8.166L107.977 7.466H108.187L107.641 10H101.565ZM110.023 2.454C109.617 2.454 109.421 2.104 109.421 1.852C109.421 1.572 109.631 1.208 110.037 1.208C110.443 1.208 110.611 1.572 110.611 1.838C110.611 2.104 110.415 2.454 110.023 2.454ZM108.833 10L108.875 9.804L109.365 9.776C109.673 9.762 109.785 9.748 109.785 9.608V5.24C109.785 4.596 109.701 4.456 109.337 4.428L108.791 4.358L108.819 4.218L110.541 3.826V9.636C110.541 9.734 110.597 9.748 111.045 9.776L111.493 9.804L111.535 10H108.833ZM114.15 13.472C112.736 13.472 111.798 12.842 111.798 11.876C111.798 11.064 112.68 10.406 113.324 10.126V10.112C112.554 10.028 112.022 9.734 112.022 9.202C112.022 8.544 112.82 7.97 113.506 7.816V7.802C112.792 7.564 112.19 6.864 112.19 5.982C112.19 4.75 113.212 3.812 114.5 3.812C115.032 3.812 115.536 3.98 115.9 4.232L117.58 4.036L117.524 4.596L116.194 4.47L116.18 4.512C116.516 4.834 116.782 5.324 116.782 5.884C116.782 7.074 115.732 7.984 114.43 7.984C114.15 7.984 113.856 7.928 113.73 7.9C113.254 8.012 112.778 8.362 112.778 8.768C112.778 9.202 113.1 9.398 113.87 9.398C114.15 9.398 115.102 9.37 115.452 9.37C116.782 9.37 117.51 10 117.51 10.882C117.51 12.366 116.068 13.472 114.15 13.472ZM114.584 13.178C115.802 13.178 116.978 12.394 116.978 11.386C116.978 10.616 116.474 10.14 115.27 10.098C114.822 10.084 114.5 10.126 113.604 10.168C113.142 10.35 112.4 10.952 112.4 11.708C112.4 12.59 113.338 13.178 114.584 13.178ZM114.472 7.788C115.34 7.788 115.984 7.032 115.984 5.954C115.984 4.75 115.424 4.008 114.486 4.008C113.632 4.008 113.002 4.806 113.002 5.856C113.002 7.032 113.618 7.788 114.472 7.788ZM117.772 10L117.814 9.804L118.262 9.776C118.57 9.762 118.682 9.748 118.682 9.608V1.796C118.682 1.208 118.626 1.082 118.248 1.026L117.702 0.983999L117.716 0.843999L119.438 0.48V5.03L119.452 5.044C120.068 4.54 120.866 3.812 121.804 3.812C122.238 3.812 122.616 3.952 122.882 4.218C123.19 4.526 123.344 4.974 123.344 5.576V9.622C123.344 9.706 123.344 9.762 123.848 9.776L124.282 9.804L124.324 10H121.65L121.692 9.804L122.182 9.776C122.56 9.762 122.602 9.706 122.602 9.608V5.842C122.602 4.834 122.112 4.4 121.328 4.4C120.614 4.4 119.942 4.82 119.438 5.31V9.636C119.438 9.734 119.494 9.748 119.942 9.776L120.39 9.804L120.432 10H117.772ZM126.849 10.182C126.233 10.182 125.575 9.944 125.589 8.88L125.659 4.484L124.595 4.456L124.707 4.05L125.673 4.008L125.729 2.804L126.429 2.818L126.415 4.022H128.403L128.277 4.484H126.415C126.415 4.484 126.331 8.726 126.331 8.74C126.303 9.44 126.681 9.706 127.185 9.706C127.703 9.706 128.039 9.398 128.403 9.146L128.501 9.272C128.011 9.734 127.521 10.182 126.849 10.182Z" fill="black"/>
                  </svg> 