<svg width="328" height="29" viewBox="0 0 328 29" fill="none" xmlns="http://www.w3.org/2000/svg">
                    <path d="M0.87 21L0.96 20.55L2.16 20.43C3.15 20.34 3.42 20.13 3.42 19.92V3.24C3.42 3 3.33 2.91 1.95 2.79L0.99 2.7L0.9 2.25H15.45L15.81 8.01H15.24L14.94 6.87C14.01 4.23 13.41 2.79 8.76 2.79H6.27V11.28L7.56 11.25C10.47 11.16 11.31 10.92 11.85 9.3L12.18 8.4L12.66 8.43L12.03 14.79L11.55 14.76L11.46 13.89C11.34 12.15 10.56 11.97 7.41 11.85L6.27 11.82V20.01C6.27 20.25 6.45 20.37 7.8 20.46L9.36 20.55L9.45 21H0.87ZM15.9209 21L16.0109 20.55L16.6409 20.52C17.5109 20.46 17.8409 20.37 17.8409 20.01V11.76C17.8409 9.9 17.6309 9.6 16.5809 9.36L15.8909 9.21L15.9209 8.88L20.3609 7.71L20.3009 12.18H20.3909C21.4409 9.27 22.6409 7.68 24.4109 7.68C25.4909 7.68 26.3309 8.43 26.3309 9.33C26.3309 10.2 25.7309 11.01 24.7109 11.01C23.9309 11.01 23.1209 10.47 22.9709 9.39C21.9209 9.72 21.1109 11.01 20.3309 13.41V20.07C20.3309 20.34 20.5409 20.46 21.7409 20.52L22.7609 20.55L22.8509 21H15.9209ZM32.9114 21.42C29.4014 21.42 26.8814 18.57 26.8814 14.88C26.8814 10.83 29.6714 7.65 33.5414 7.65C36.5414 7.65 38.3414 9.36 38.3414 11.88C38.3414 12.12 38.3114 12.36 38.2514 12.66L29.6414 12.6C29.5814 12.9 29.5514 13.53 29.5514 13.83C29.5514 17.28 31.5614 19.53 34.2014 19.53C35.7614 19.53 37.0514 19.05 38.1614 17.4L38.4914 17.58C37.1414 20.01 35.3414 21.42 32.9114 21.42ZM29.7014 12.12C29.7014 12.12 35.6414 12.09 35.6114 12.09C35.6414 10.02 34.8914 8.19 33.1814 8.19C31.5314 8.19 30.0614 9.96 29.7014 12.12ZM42.6192 5.16C41.4492 5.16 40.9392 4.2 40.9392 3.48C40.9392 2.7 41.4492 1.74 42.6192 1.74C43.7892 1.74 44.2992 2.7 44.2992 3.48C44.2992 4.2 43.7892 5.16 42.6192 5.16ZM39.7392 21L39.8292 20.55L40.4592 20.52C41.3292 20.46 41.6592 20.37 41.6592 20.01V11.73C41.6592 9.9 41.4492 9.6 40.3992 9.36L39.7092 9.21L39.7392 8.88L44.1492 7.71V20.07C44.1492 20.34 44.3292 20.43 45.5592 20.52L46.0992 20.55L46.1892 21H39.7392ZM51.7434 28.47C48.6534 28.47 46.7934 27.24 46.7934 25.23C46.7934 23.46 48.6534 22.23 50.2134 21.63V21.54C48.4434 21.33 47.2434 20.4 47.2434 19.26C47.2434 17.79 48.8634 16.68 50.3634 16.29C50.3634 16.26 50.3934 16.2 50.3934 16.2C48.9834 15.63 47.7534 14.25 47.7534 12.33C47.7534 9.69 49.9734 7.71 52.8834 7.71C54.3234 7.71 55.4334 8.16 56.3934 8.79L60.1734 8.28L59.9634 9.9L56.9934 9.45L56.9634 9.57C57.5334 10.14 58.0134 11.07 58.0134 12.12C58.0134 14.64 55.7334 16.65 52.7934 16.65C52.1934 16.65 51.3834 16.53 50.9934 16.44C50.1234 16.62 49.3734 17.16 49.3734 17.94C49.3734 18.84 50.2434 19.23 51.6834 19.23C52.6734 19.23 54.0534 19.14 55.1034 19.14C57.8334 19.14 59.4834 20.52 59.4834 22.74C59.4834 26.04 56.3934 28.47 51.7434 28.47ZM52.8534 16.17C54.5034 16.17 55.5234 14.73 55.5234 12.39C55.5234 9.99 54.8034 8.16 52.8534 8.16C51.3534 8.16 50.3334 9.69 50.3334 11.97C50.3334 14.49 51.3234 16.17 52.8534 16.17ZM53.3334 27.75C55.9134 27.75 57.7134 26.13 57.7134 24.18C57.7134 22.68 56.6934 21.66 54.0534 21.57C53.1234 21.54 51.8334 21.63 50.8434 21.72C49.9434 22.05 48.8934 23.16 48.8934 24.45C48.8934 26.43 50.7834 27.75 53.3334 27.75ZM60.2993 21L60.3893 20.55L60.9893 20.52C61.8293 20.46 62.1593 20.37 62.1593 20.01V3.6C62.1593 2.91 61.9793 2.67 61.2293 2.46L60.1493 2.1L60.1793 1.77L64.6793 0.6V10.08L64.7393 10.11C66.0293 9.06 67.7093 7.68 69.7193 7.68C70.6493 7.68 71.4893 7.98 72.0893 8.55C72.8093 9.3 73.0793 10.35 73.0793 11.64V20.04C73.0793 20.25 73.1393 20.4 74.5193 20.52L75.0293 20.55L75.1193 21H68.6693L68.7593 20.55L69.3893 20.52C70.3793 20.46 70.5593 20.28 70.5593 20.01V12.42C70.5593 10.32 69.6593 9.51 67.8893 9.51C66.5393 9.51 65.4293 10.08 64.6793 10.74V20.07C64.6793 20.34 64.8593 20.43 66.0893 20.52L66.6893 20.55L66.7793 21H60.2993ZM80.7258 21.42C78.7158 21.42 77.4858 20.37 77.5158 17.94L77.6958 9.45L75.2958 9.39L75.3858 8.88L77.0058 7.62L79.8858 5.31L80.2458 5.4L80.2158 8.07H84.8358L84.4158 9.33H80.2158L80.0058 17.64C79.9758 19.05 80.7258 19.8 82.2258 19.8C83.2158 19.8 84.0558 19.44 84.7458 18.9L84.8958 19.2C83.7258 20.4 82.2258 21.42 80.7258 21.42ZM91.3973 21L91.4873 20.55L92.6273 20.43C93.5873 20.34 93.9473 20.13 93.9473 19.92V3.24C93.9473 3 93.7673 2.91 92.4173 2.79L91.5173 2.7L91.4273 2.25L98.8073 2.16C106.007 2.04 109.757 5.97 109.757 11.19C109.757 16.53 105.917 21 98.1473 21H91.3973ZM98.8373 20.43C104.057 20.34 106.697 16.41 106.697 11.91C106.697 6.96 104.147 2.79 98.2673 2.79H96.7973V19.83L98.8373 20.43ZM114.104 5.16C112.934 5.16 112.424 4.2 112.424 3.48C112.424 2.7 112.934 1.74 114.104 1.74C115.274 1.74 115.784 2.7 115.784 3.48C115.784 4.2 115.274 5.16 114.104 5.16ZM111.224 21L111.314 20.55L111.944 20.52C112.814 20.46 113.144 20.37 113.144 20.01V11.73C113.144 9.9 112.934 9.6 111.884 9.36L111.194 9.21L111.224 8.88L115.634 7.71V20.07C115.634 20.34 115.814 20.43 117.044 20.52L117.584 20.55L117.674 21H111.224ZM123.108 21.42C121.518 21.42 120.258 21.15 119.148 20.73L118.908 16.92L119.478 16.89L120.138 18.63C120.858 19.98 121.968 20.88 123.378 20.88C124.968 20.88 126.168 19.83 126.168 18.39C126.168 16.92 124.818 16.14 122.958 15.48C121.068 14.76 119.238 13.92 119.238 11.49C119.238 9.3 121.068 7.65 123.738 7.65C124.908 7.65 125.808 7.86 126.558 8.16L127.518 7.83L127.668 11.61L127.098 11.64L125.778 9.03C125.298 8.64 124.518 8.19 123.648 8.19C122.118 8.19 121.248 9.09 121.248 10.35C121.248 11.82 122.418 12.33 124.338 13.05C126.438 13.83 128.268 14.73 128.268 17.19C128.268 19.38 126.438 21.42 123.108 21.42ZM129.261 28.53L129.351 28.08L129.981 28.05C130.821 27.99 131.181 27.9 131.181 27.57V11.73C131.181 9.9 130.941 9.6 129.921 9.36L129.231 9.21L129.261 8.88L133.701 7.71L133.671 10.32L133.761 10.35C135.021 8.88 136.521 7.83 138.321 7.83C141.411 7.83 143.631 10.5 143.631 14.13C143.631 18.72 140.241 21.42 136.761 21.42C135.591 21.42 134.511 21.18 133.701 20.85H133.671V27.63C133.671 27.87 133.821 27.99 135.051 28.05L136.131 28.08L136.221 28.53H129.261ZM137.331 20.79C139.461 20.79 140.871 18.24 140.871 15C140.871 11.97 139.311 9.6 136.881 9.6C135.561 9.6 134.421 10.32 133.671 11.22V18.06C134.391 19.53 135.771 20.79 137.331 20.79ZM144.767 21L144.827 20.55L145.457 20.52C146.327 20.46 146.627 20.37 146.627 20.01V4.32C146.627 2.91 146.447 2.67 145.667 2.46L144.617 2.1L144.647 1.77L149.147 0.6V20.07C149.147 20.34 149.327 20.4 150.527 20.52L151.097 20.55L151.187 21H144.767ZM161.543 21.36C160.313 21.36 159.593 20.61 159.473 19.14L159.413 19.11C158.363 20.25 157.133 21.33 155.633 21.33C153.863 21.33 152.393 19.98 152.393 18.27C152.393 16.2 154.043 14.7 159.593 13.44L159.623 12.69C159.683 9.63 158.483 8.58 156.683 8.58C155.633 8.58 154.433 9.15 154.433 9.42C154.433 9.63 155.183 10.23 155.183 11.04C155.183 11.73 154.613 12.36 153.713 12.36C152.843 12.36 152.213 11.79 152.213 11.1C152.213 9.54 155.783 7.65 158.183 7.65C161.243 7.65 162.383 8.76 162.173 12.81L161.903 18.36C161.843 19.32 162.203 19.83 162.833 19.83C163.313 19.83 163.703 19.47 164.153 19.08L164.423 19.35C163.793 20.19 162.773 21.36 161.543 21.36ZM156.923 19.74C157.793 19.74 158.513 19.47 159.413 18.6L159.593 13.92C155.723 14.82 154.913 16.08 154.913 17.49C154.913 18.84 155.903 19.74 156.923 19.74ZM166.65 28.74C165.6 28.74 164.79 28.05 164.79 27.15C164.79 26.31 165.42 25.65 166.29 25.65C167.31 25.65 167.79 26.25 168.06 26.94C168.72 26.76 169.11 25.86 169.62 24.42L170.7 21.18H170.67L165.75 10.26C165.15 8.94 165.03 8.73 164.07 8.64L163.47 8.55L163.38 8.1H169.95L169.86 8.55L169.29 8.61C168.3 8.67 168.12 9.03 168.54 10.02L171.9 17.79L174.15 11.55C174.99 9.18 174.81 8.79 173.07 8.61L172.53 8.55L172.44 8.1H177.75L177.66 8.55L177.09 8.61C175.86 8.73 175.71 9.12 174.69 11.88L171.36 20.79L170.1 24.72C169.26 27.33 168.36 28.74 166.65 28.74ZM183.5 21L183.59 20.55L185.03 20.43C185.99 20.34 186.35 20.13 186.35 19.92V3.24C186.35 3 186.17 2.91 184.82 2.79L183.62 2.7L183.53 2.25H191.84C196.67 2.25 198.95 4.11 198.95 6.87C198.95 10.23 195.83 12.36 191.6 12.36C190.7 12.36 189.89 12.3 189.2 12.21V20.01C189.2 20.25 189.38 20.37 190.73 20.46L192.29 20.55L192.38 21H183.5ZM191.54 11.79C194.15 11.79 195.89 10.14 195.89 7.35C195.89 4.44 194.51 2.76 191.24 2.82H189.2V11.49C189.86 11.67 190.37 11.79 191.54 11.79ZM199.847 21L199.937 20.55L200.567 20.52C201.437 20.46 201.767 20.37 201.767 20.01V11.76C201.767 9.9 201.557 9.6 200.507 9.36L199.817 9.21L199.847 8.88L204.287 7.71L204.227 12.18H204.317C205.367 9.27 206.567 7.68 208.337 7.68C209.417 7.68 210.257 8.43 210.257 9.33C210.257 10.2 209.657 11.01 208.637 11.01C207.857 11.01 207.047 10.47 206.897 9.39C205.847 9.72 205.037 11.01 204.257 13.41V20.07C204.257 20.34 204.467 20.46 205.667 20.52L206.687 20.55L206.777 21H199.847ZM217.587 21.42C213.567 21.42 210.807 18.42 210.807 14.58C210.807 10.74 213.777 7.65 217.767 7.65C221.757 7.65 224.547 10.59 224.547 14.37C224.547 18.3 221.607 21.42 217.587 21.42ZM217.737 20.88C220.107 20.88 221.607 18.12 221.607 14.94C221.607 12.6 221.097 10.38 219.987 9.24C219.477 8.73 218.727 8.19 217.587 8.19C215.097 8.19 213.747 11.01 213.747 14.04C213.747 16.44 214.197 18.63 215.337 19.8C215.907 20.4 216.657 20.88 217.737 20.88ZM231.195 21L231.285 20.55L232.215 20.46C233.805 20.37 234.105 19.92 234.195 17.85L234.585 3.93C234.345 3.24 233.865 2.94 233.025 2.82L231.915 2.7L231.825 2.25H237.765L243.135 16.92H243.195L248.745 2.25H254.715L254.625 2.7L252.975 2.82C252.135 2.91 251.775 3.18 251.775 3.42L252.075 18.36C252.135 19.98 252.315 20.31 253.545 20.43L254.655 20.55L254.745 21H246.645L246.735 20.55L248.235 20.4C249.105 20.31 249.345 19.83 249.285 18.3L248.955 3.72H248.865L242.355 20.82H241.755L235.665 4.47C235.575 4.17 235.275 3.87 235.185 3.72L234.855 17.88C234.765 19.89 235.185 20.37 237.015 20.46L237.885 20.55L237.975 21H231.195ZM261.515 21.42C258.005 21.42 255.485 18.57 255.485 14.88C255.485 10.83 258.275 7.65 262.145 7.65C265.145 7.65 266.945 9.36 266.945 11.88C266.945 12.12 266.915 12.36 266.855 12.66L258.245 12.6C258.185 12.9 258.155 13.53 258.155 13.83C258.155 17.28 260.165 19.53 262.805 19.53C264.365 19.53 265.655 19.05 266.765 17.4L267.095 17.58C265.745 20.01 263.945 21.42 261.515 21.42ZM258.305 12.12C258.305 12.12 264.245 12.09 264.215 12.09C264.245 10.02 263.495 8.19 261.785 8.19C260.135 8.19 258.665 9.96 258.305 12.12ZM278.453 21.48V18.93H278.363C277.163 20.37 275.663 21.39 273.863 21.39C270.833 21.39 268.493 18.75 268.493 15C268.493 10.44 271.943 7.83 275.423 7.83C276.533 7.83 277.493 7.98 278.393 8.37C278.393 8.37 278.453 8.34 278.453 8.37V3.33C278.453 2.67 278.273 2.37 277.493 2.22L276.173 1.89L276.233 1.59L280.943 0.569998V19.14C280.943 19.74 281.063 19.86 281.363 19.95L282.983 20.34L282.953 20.67L278.453 21.48ZM275.333 19.65C276.713 19.65 277.673 19.02 278.453 18.18V11.13C277.763 9.66 276.353 8.46 274.823 8.46C272.573 8.46 271.253 10.98 271.253 14.16C271.253 17.25 272.843 19.65 275.333 19.65ZM286.34 5.16C285.17 5.16 284.66 4.2 284.66 3.48C284.66 2.7 285.17 1.74 286.34 1.74C287.51 1.74 288.02 2.7 288.02 3.48C288.02 4.2 287.51 5.16 286.34 5.16ZM283.46 21L283.55 20.55L284.18 20.52C285.05 20.46 285.38 20.37 285.38 20.01V11.73C285.38 9.9 285.17 9.6 284.12 9.36L283.43 9.21L283.46 8.88L287.87 7.71V20.07C287.87 20.34 288.05 20.43 289.28 20.52L289.82 20.55L289.91 21H283.46ZM300.594 21.48V18.99H300.534C299.274 20.13 297.594 21.42 295.644 21.42C294.684 21.42 293.874 21.12 293.244 20.52C292.554 19.8 292.284 18.75 292.284 17.4L292.314 9.03C292.314 8.73 292.224 8.7 290.844 8.58L290.334 8.52L290.244 8.07H294.864L294.774 16.65C294.774 18.78 295.674 19.56 297.474 19.56C298.794 19.56 299.814 19.02 300.564 18.39V9.75C300.564 8.85 300.324 8.67 299.154 8.58L298.524 8.52L298.434 8.07H303.084V18.9C303.084 19.47 303.204 19.62 303.504 19.71L305.124 20.1L305.094 20.43L300.594 21.48ZM305.608 21L305.698 20.55L306.328 20.52C307.198 20.46 307.528 20.37 307.528 20.01V11.76C307.528 9.9 307.318 9.6 306.268 9.36L305.578 9.21L305.608 8.88L310.048 7.71L309.988 10.08L310.078 10.11C311.218 9.03 312.628 7.68 314.608 7.68C315.598 7.68 316.408 8.01 317.008 8.58C317.368 8.94 317.668 9.51 317.788 10.2L317.848 10.23C319.078 8.97 320.578 7.68 322.528 7.68C323.518 7.68 324.298 7.95 324.928 8.55C325.618 9.27 325.918 10.44 325.918 11.76V20.04C325.918 20.25 325.948 20.4 327.328 20.52L327.838 20.55L327.928 21H321.508L321.598 20.55L322.228 20.52C323.218 20.46 323.398 20.28 323.398 20.01V12.45C323.398 10.32 322.618 9.51 320.848 9.51C319.708 9.51 318.418 10.14 317.998 10.83C318.028 10.92 317.968 11.19 317.968 11.28V20.04C317.968 20.25 317.998 20.4 319.378 20.52L319.918 20.55L320.008 21H313.618L313.708 20.55L314.308 20.52C315.298 20.46 315.448 20.28 315.448 20.01V12.45C315.448 10.32 314.668 9.51 312.958 9.51C311.758 9.51 310.798 10.08 310.018 10.71V20.07C310.018 20.34 310.198 20.43 311.398 20.52L312.028 20.55L312.088 21H305.608Z" fill="black"/>
                  </svg> 