<svg width="219" height="20" viewBox="0 0 219 20" fill="none" xmlns="http://www.w3.org/2000/svg">
                    <path d="M0.490156 14L0.550156 13.7L1.35016 13.62C2.01016 13.56 2.19016 13.42 2.19016 13.28V2.16C2.19016 2 2.13016 1.94 1.21016 1.86L0.570156 1.8L0.510156 1.5H10.2102L10.4502 5.34H10.0702L9.87016 4.58C9.25016 2.82 8.85016 1.86 5.75016 1.86H4.09016V7.52L4.95016 7.5C6.89016 7.44 7.45016 7.28 7.81016 6.2L8.03016 5.6L8.35016 5.62L7.93016 9.86L7.61016 9.84L7.55016 9.26C7.47016 8.1 6.95016 7.98 4.85016 7.9L4.09016 7.88V13.34C4.09016 13.5 4.21016 13.58 5.11016 13.64L6.15016 13.7L6.21016 14H0.490156ZM10.5241 14L10.5841 13.7L11.0041 13.68C11.5841 13.64 11.8041 13.58 11.8041 13.34V7.84C11.8041 6.6 11.6641 6.4 10.9641 6.24L10.5041 6.14L10.5241 5.92L13.4841 5.14L13.4441 8.12H13.5041C14.2041 6.18 15.0041 5.12 16.1841 5.12C16.9041 5.12 17.4641 5.62 17.4641 6.22C17.4641 6.8 17.0641 7.34 16.3841 7.34C15.8641 7.34 15.3241 6.98 15.2241 6.26C14.5241 6.48 13.9841 7.34 13.4641 8.94V13.38C13.4641 13.56 13.6041 13.64 14.4041 13.68L15.0841 13.7L15.1441 14H10.5241ZM21.8511 14.28C19.5111 14.28 17.8311 12.38 17.8311 9.92C17.8311 7.22 19.6911 5.1 22.2711 5.1C24.2711 5.1 25.4711 6.24 25.4711 7.92C25.4711 8.08 25.4511 8.24 25.4111 8.44L19.6711 8.4C19.6311 8.6 19.6111 9.02 19.6111 9.22C19.6111 11.52 20.9511 13.02 22.7111 13.02C23.7511 13.02 24.6111 12.7 25.3511 11.6L25.5711 11.72C24.6711 13.34 23.4711 14.28 21.8511 14.28ZM19.7111 8.08C19.7111 8.08 23.6711 8.06 23.6511 8.06C23.6711 6.68 23.1711 5.46 22.0311 5.46C20.9311 5.46 19.9511 6.64 19.7111 8.08ZM28.323 3.44C27.543 3.44 27.203 2.8 27.203 2.32C27.203 1.8 27.543 1.16 28.323 1.16C29.103 1.16 29.443 1.8 29.443 2.32C29.443 2.8 29.103 3.44 28.323 3.44ZM26.403 14L26.463 13.7L26.883 13.68C27.463 13.64 27.683 13.58 27.683 13.34V7.82C27.683 6.6 27.543 6.4 26.843 6.24L26.383 6.14L26.403 5.92L29.343 5.14V13.38C29.343 13.56 29.463 13.62 30.283 13.68L30.643 13.7L30.703 14H26.403ZM34.4058 18.98C32.3458 18.98 31.1058 18.16 31.1058 16.82C31.1058 15.64 32.3458 14.82 33.3858 14.42V14.36C32.2058 14.22 31.4058 13.6 31.4058 12.84C31.4058 11.86 32.4858 11.12 33.4858 10.86C33.4858 10.84 33.5058 10.8 33.5058 10.8C32.5658 10.42 31.7458 9.5 31.7458 8.22C31.7458 6.46 33.2258 5.14 35.1658 5.14C36.1258 5.14 36.8658 5.44 37.5058 5.86L40.0258 5.52L39.8858 6.6L37.9058 6.3L37.8858 6.38C38.2658 6.76 38.5858 7.38 38.5858 8.08C38.5858 9.76 37.0658 11.1 35.1058 11.1C34.7058 11.1 34.1658 11.02 33.9058 10.96C33.3258 11.08 32.8258 11.44 32.8258 11.96C32.8258 12.56 33.4058 12.82 34.3658 12.82C35.0258 12.82 35.9458 12.76 36.6458 12.76C38.4658 12.76 39.5658 13.68 39.5658 15.16C39.5658 17.36 37.5058 18.98 34.4058 18.98ZM35.1458 10.78C36.2458 10.78 36.9258 9.82 36.9258 8.26C36.9258 6.66 36.4458 5.44 35.1458 5.44C34.1458 5.44 33.4658 6.46 33.4658 7.98C33.4658 9.66 34.1258 10.78 35.1458 10.78ZM35.4658 18.5C37.1858 18.5 38.3858 17.42 38.3858 16.12C38.3858 15.12 37.7058 14.44 35.9458 14.38C35.3258 14.36 34.4658 14.42 33.8058 14.48C33.2058 14.7 32.5058 15.44 32.5058 16.3C32.5058 17.62 33.7658 18.5 35.4658 18.5ZM40.1097 14L40.1697 13.7L40.5697 13.68C41.1297 13.64 41.3497 13.58 41.3497 13.34V2.4C41.3497 1.94 41.2297 1.78 40.7297 1.64L40.0097 1.4L40.0297 1.18L43.0297 0.4V6.72L43.0697 6.74C43.9297 6.04 45.0497 5.12 46.3897 5.12C47.0097 5.12 47.5697 5.32 47.9697 5.7C48.4497 6.2 48.6297 6.9 48.6297 7.76V13.36C48.6297 13.5 48.6697 13.6 49.5897 13.68L49.9297 13.7L49.9897 14H45.6897L45.7497 13.7L46.1697 13.68C46.8297 13.64 46.9497 13.52 46.9497 13.34V8.28C46.9497 6.88 46.3497 6.34 45.1697 6.34C44.2697 6.34 43.5297 6.72 43.0297 7.16V13.38C43.0297 13.56 43.1497 13.62 43.9697 13.68L44.3697 13.7L44.4297 14H40.1097ZM53.7273 14.28C52.3873 14.28 51.5673 13.58 51.5873 11.96L51.7073 6.3L50.1073 6.26L50.1673 5.92L51.2473 5.08L53.1673 3.54L53.4073 3.6L53.3873 5.38H56.4673L56.1873 6.22H53.3873L53.2473 11.76C53.2273 12.7 53.7273 13.2 54.7273 13.2C55.3873 13.2 55.9473 12.96 56.4073 12.6L56.5073 12.8C55.7273 13.6 54.7273 14.28 53.7273 14.28ZM60.8417 14L60.9017 13.7L61.6617 13.62C62.3017 13.56 62.5417 13.42 62.5417 13.28V2.16C62.5417 2 62.4217 1.94 61.5217 1.86L60.9217 1.8L60.8617 1.5L65.7817 1.44C70.5817 1.36 73.0817 3.98 73.0817 7.46C73.0817 11.02 70.5217 14 65.3417 14H60.8417ZM65.8017 13.62C69.2817 13.56 71.0417 10.94 71.0417 7.94C71.0417 4.64 69.3417 1.86 65.4217 1.86H64.4417V13.22L65.8017 13.62ZM75.9792 3.44C75.1992 3.44 74.8592 2.8 74.8592 2.32C74.8592 1.8 75.1992 1.16 75.9792 1.16C76.7592 1.16 77.0992 1.8 77.0992 2.32C77.0992 2.8 76.7592 3.44 75.9792 3.44ZM74.0592 14L74.1192 13.7L74.5392 13.68C75.1192 13.64 75.3392 13.58 75.3392 13.34V7.82C75.3392 6.6 75.1992 6.4 74.4992 6.24L74.0392 6.14L74.0592 5.92L76.9992 5.14V13.38C76.9992 13.56 77.1192 13.62 77.9392 13.68L78.2992 13.7L78.3592 14H74.0592ZM81.982 14.28C80.922 14.28 80.082 14.1 79.342 13.82L79.182 11.28L79.562 11.26L80.002 12.42C80.482 13.32 81.222 13.92 82.162 13.92C83.222 13.92 84.022 13.22 84.022 12.26C84.022 11.28 83.122 10.76 81.882 10.32C80.622 9.84 79.402 9.28 79.402 7.66C79.402 6.2 80.622 5.1 82.402 5.1C83.182 5.1 83.782 5.24 84.282 5.44L84.922 5.22L85.022 7.74L84.642 7.76L83.762 6.02C83.442 5.76 82.922 5.46 82.342 5.46C81.322 5.46 80.742 6.06 80.742 6.9C80.742 7.88 81.522 8.22 82.802 8.7C84.202 9.22 85.422 9.82 85.422 11.46C85.422 12.92 84.202 14.28 81.982 14.28ZM86.0839 19.02L86.1439 18.72L86.5639 18.7C87.1239 18.66 87.3639 18.6 87.3639 18.38V7.82C87.3639 6.6 87.2039 6.4 86.5239 6.24L86.0639 6.14L86.0839 5.92L89.0439 5.14L89.0239 6.88L89.0839 6.9C89.9239 5.92 90.9239 5.22 92.1239 5.22C94.1839 5.22 95.6639 7 95.6639 9.42C95.6639 12.48 93.4039 14.28 91.0839 14.28C90.3039 14.28 89.5839 14.12 89.0439 13.9H89.0239V18.42C89.0239 18.58 89.1239 18.66 89.9439 18.7L90.6639 18.72L90.7239 19.02H86.0839ZM91.4639 13.86C92.8839 13.86 93.8239 12.16 93.8239 10C93.8239 7.98 92.7839 6.4 91.1639 6.4C90.2839 6.4 89.5239 6.88 89.0239 7.48V12.04C89.5039 13.02 90.4239 13.86 91.4639 13.86ZM96.4216 14L96.4616 13.7L96.8816 13.68C97.4616 13.64 97.6616 13.58 97.6616 13.34V2.88C97.6616 1.94 97.5416 1.78 97.0216 1.64L96.3216 1.4L96.3416 1.18L99.3416 0.4V13.38C99.3416 13.56 99.4616 13.6 100.262 13.68L100.642 13.7L100.702 14H96.4216ZM107.606 14.24C106.786 14.24 106.306 13.74 106.226 12.76L106.186 12.74C105.486 13.5 104.666 14.22 103.666 14.22C102.486 14.22 101.506 13.32 101.506 12.18C101.506 10.8 102.606 9.8 106.306 8.96L106.326 8.46C106.366 6.42 105.566 5.72 104.366 5.72C103.666 5.72 102.866 6.1 102.866 6.28C102.866 6.42 103.366 6.82 103.366 7.36C103.366 7.82 102.986 8.24 102.386 8.24C101.806 8.24 101.386 7.86 101.386 7.4C101.386 6.36 103.766 5.1 105.366 5.1C107.406 5.1 108.166 5.84 108.026 8.54L107.846 12.24C107.806 12.88 108.046 13.22 108.466 13.22C108.786 13.22 109.046 12.98 109.346 12.72L109.526 12.9C109.106 13.46 108.426 14.24 107.606 14.24ZM104.526 13.16C105.106 13.16 105.586 12.98 106.186 12.4L106.306 9.28C103.726 9.88 103.186 10.72 103.186 11.66C103.186 12.56 103.846 13.16 104.526 13.16ZM111.01 19.16C110.31 19.16 109.77 18.7 109.77 18.1C109.77 17.54 110.19 17.1 110.77 17.1C111.45 17.1 111.77 17.5 111.95 17.96C112.39 17.84 112.65 17.24 112.99 16.28L113.71 14.12H113.69L110.41 6.84C110.01 5.96 109.93 5.82 109.29 5.76L108.89 5.7L108.83 5.4H113.21L113.15 5.7L112.77 5.74C112.11 5.78 111.99 6.02 112.27 6.68L114.51 11.86L116.01 7.7C116.57 6.12 116.45 5.86 115.29 5.74L114.93 5.7L114.87 5.4H118.41L118.35 5.7L117.97 5.74C117.15 5.82 117.05 6.08 116.37 7.92L114.15 13.86L113.31 16.48C112.75 18.22 112.15 19.16 111.01 19.16ZM122.243 14L122.303 13.7L123.263 13.62C123.903 13.56 124.143 13.42 124.143 13.28V2.16C124.143 2 124.023 1.94 123.123 1.86L122.323 1.8L122.263 1.5H127.803C131.023 1.5 132.543 2.74 132.543 4.58C132.543 6.82 130.463 8.24 127.643 8.24C127.043 8.24 126.503 8.2 126.043 8.14V13.34C126.043 13.5 126.163 13.58 127.063 13.64L128.103 13.7L128.163 14H122.243ZM127.603 7.86C129.343 7.86 130.503 6.76 130.503 4.9C130.503 2.96 129.583 1.84 127.403 1.88H126.043V7.66C126.483 7.78 126.823 7.86 127.603 7.86ZM133.141 14L133.201 13.7L133.621 13.68C134.201 13.64 134.421 13.58 134.421 13.34V7.84C134.421 6.6 134.281 6.4 133.581 6.24L133.121 6.14L133.141 5.92L136.101 5.14L136.061 8.12H136.121C136.821 6.18 137.621 5.12 138.801 5.12C139.521 5.12 140.081 5.62 140.081 6.22C140.081 6.8 139.681 7.34 139.001 7.34C138.481 7.34 137.941 6.98 137.841 6.26C137.141 6.48 136.601 7.34 136.081 8.94V13.38C136.081 13.56 136.221 13.64 137.021 13.68L137.701 13.7L137.761 14H133.141ZM144.968 14.28C142.288 14.28 140.448 12.28 140.448 9.72C140.448 7.16 142.428 5.1 145.088 5.1C147.748 5.1 149.608 7.06 149.608 9.58C149.608 12.2 147.648 14.28 144.968 14.28ZM145.068 13.92C146.648 13.92 147.648 12.08 147.648 9.96C147.648 8.4 147.308 6.92 146.568 6.16C146.228 5.82 145.728 5.46 144.968 5.46C143.308 5.46 142.408 7.34 142.408 9.36C142.408 10.96 142.708 12.42 143.468 13.2C143.848 13.6 144.348 13.92 145.068 13.92ZM154.04 14L154.1 13.7L154.72 13.64C155.78 13.58 155.98 13.28 156.04 11.9L156.3 2.62C156.14 2.16 155.82 1.96 155.26 1.88L154.52 1.8L154.46 1.5H158.42L162 11.28H162.04L165.74 1.5H169.72L169.66 1.8L168.56 1.88C168 1.94 167.76 2.12 167.76 2.28L167.96 12.24C168 13.32 168.12 13.54 168.94 13.62L169.68 13.7L169.74 14H164.34L164.4 13.7L165.4 13.6C165.98 13.54 166.14 13.22 166.1 12.2L165.88 2.48H165.82L161.48 13.88H161.08L157.02 2.98C156.96 2.78 156.76 2.58 156.7 2.48L156.48 11.92C156.42 13.26 156.7 13.58 157.92 13.64L158.5 13.7L158.56 14H154.04ZM174.253 14.28C171.913 14.28 170.233 12.38 170.233 9.92C170.233 7.22 172.093 5.1 174.673 5.1C176.673 5.1 177.873 6.24 177.873 7.92C177.873 8.08 177.853 8.24 177.813 8.44L172.073 8.4C172.033 8.6 172.013 9.02 172.013 9.22C172.013 11.52 173.353 13.02 175.113 13.02C176.153 13.02 177.013 12.7 177.753 11.6L177.973 11.72C177.073 13.34 175.873 14.28 174.253 14.28ZM172.113 8.08C172.113 8.08 176.073 8.06 176.053 8.06C176.073 6.68 175.573 5.46 174.433 5.46C173.333 5.46 172.353 6.64 172.113 8.08ZM185.545 14.32V12.62H185.485C184.685 13.58 183.685 14.26 182.485 14.26C180.465 14.26 178.905 12.5 178.905 10C178.905 6.96 181.205 5.22 183.525 5.22C184.265 5.22 184.905 5.32 185.505 5.58C185.505 5.58 185.545 5.56 185.545 5.58V2.22C185.545 1.78 185.425 1.58 184.905 1.48L184.025 1.26L184.065 1.06L187.205 0.379999V12.76C187.205 13.16 187.285 13.24 187.485 13.3L188.565 13.56L188.545 13.78L185.545 14.32ZM183.465 13.1C184.385 13.1 185.025 12.68 185.545 12.12V7.42C185.085 6.44 184.145 5.64 183.125 5.64C181.625 5.64 180.745 7.32 180.745 9.44C180.745 11.5 181.805 13.1 183.465 13.1ZM190.803 3.44C190.023 3.44 189.683 2.8 189.683 2.32C189.683 1.8 190.023 1.16 190.803 1.16C191.583 1.16 191.923 1.8 191.923 2.32C191.923 2.8 191.583 3.44 190.803 3.44ZM188.883 14L188.943 13.7L189.363 13.68C189.943 13.64 190.163 13.58 190.163 13.34V7.82C190.163 6.6 190.023 6.4 189.323 6.24L188.863 6.14L188.883 5.92L191.823 5.14V13.38C191.823 13.56 191.943 13.62 192.763 13.68L193.123 13.7L193.183 14H188.883ZM200.306 14.32V12.66H200.266C199.426 13.42 198.306 14.28 197.006 14.28C196.366 14.28 195.826 14.08 195.406 13.68C194.946 13.2 194.766 12.5 194.766 11.6L194.786 6.02C194.786 5.82 194.726 5.8 193.806 5.72L193.466 5.68L193.406 5.38H196.486L196.426 11.1C196.426 12.52 197.026 13.04 198.226 13.04C199.106 13.04 199.786 12.68 200.286 12.26V6.5C200.286 5.9 200.126 5.78 199.346 5.72L198.926 5.68L198.866 5.38H201.966V12.6C201.966 12.98 202.046 13.08 202.246 13.14L203.326 13.4L203.306 13.62L200.306 14.32ZM203.649 14L203.709 13.7L204.129 13.68C204.709 13.64 204.929 13.58 204.929 13.34V7.84C204.929 6.6 204.789 6.4 204.089 6.24L203.629 6.14L203.649 5.92L206.609 5.14L206.569 6.72L206.629 6.74C207.389 6.02 208.329 5.12 209.649 5.12C210.309 5.12 210.849 5.34 211.249 5.72C211.489 5.96 211.689 6.34 211.769 6.8L211.809 6.82C212.629 5.98 213.629 5.12 214.929 5.12C215.589 5.12 216.109 5.3 216.529 5.7C216.989 6.18 217.189 6.96 217.189 7.84V13.36C217.189 13.5 217.209 13.6 218.129 13.68L218.469 13.7L218.529 14H214.249L214.309 13.7L214.729 13.68C215.389 13.64 215.509 13.52 215.509 13.34V8.3C215.509 6.88 214.989 6.34 213.809 6.34C213.049 6.34 212.189 6.76 211.909 7.22C211.929 7.28 211.889 7.46 211.889 7.52V13.36C211.889 13.5 211.909 13.6 212.829 13.68L213.189 13.7L213.249 14H208.989L209.049 13.7L209.449 13.68C210.109 13.64 210.209 13.52 210.209 13.34V8.3C210.209 6.88 209.689 6.34 208.549 6.34C207.749 6.34 207.109 6.72 206.589 7.14V13.38C206.589 13.56 206.709 13.62 207.509 13.68L207.929 13.7L207.969 14H203.649Z" fill="black"/>
                  </svg> 