<svg width="248" height="22" viewBox="0 0 248 22" fill="none" xmlns="http://www.w3.org/2000/svg">
                    <path d="M5.962 16L5.896 15.208L4.928 15.098C4.422 15.054 4.334 14.922 4.334 14.724V9.686C5.786 9.686 5.874 9.862 5.94 10.346L6.094 11.71H7.062L7.502 6.694H6.512L6.05 8.19C5.896 8.696 5.632 8.806 4.334 8.806V3.152C7.26 3.152 7.59 3.262 7.876 4.604L8.294 6.584H9.46V2.25H0.66L0.726 3.042L1.364 3.108C1.87 3.174 1.958 3.306 1.958 3.482V14.768C1.958 14.966 1.87 15.098 1.364 15.142L0.726 15.208L0.66 16H5.962ZM15.4211 16L15.3551 15.208L14.5191 15.12C14.0131 15.054 13.9031 14.944 13.9031 14.746V10.236C14.3871 9.158 15.1131 8.146 15.6411 7.772C15.8831 8.234 16.3011 8.608 16.8291 8.608C17.5771 8.608 17.9951 7.97 17.9951 7.222C17.9951 6.408 17.5111 5.836 16.6531 5.836C15.6631 5.836 14.8491 6.738 14.0131 8.542H13.9031V5.836L10.6031 6.804L10.5591 7.42L10.8671 7.486C11.5931 7.64 11.7911 7.926 11.7911 9.026V14.79C11.7911 14.988 11.7031 15.098 11.1971 15.164L10.7131 15.208L10.6471 16H15.4211ZM25.376 13.316C24.782 14.174 24.034 14.658 23.264 14.658C21.724 14.658 20.712 13.096 20.712 10.434V10.258L25.728 10.346C25.794 9.972 25.838 9.51 25.838 9.158C25.838 7.112 24.65 5.836 22.912 5.836C20.47 5.836 18.534 8.212 18.534 11.402C18.534 14.262 20.14 16.308 22.296 16.308C23.924 16.308 25.2 15.318 25.816 13.558L25.376 13.316ZM23.704 9.488L20.734 9.532C20.91 7.728 21.658 6.76 22.494 6.76C23.33 6.76 23.704 7.794 23.704 9.158V9.488ZM31.5052 16L31.4392 15.208L30.9332 15.164C30.4272 15.098 30.3172 14.988 30.3172 14.79V5.836L27.0172 6.804L26.9732 7.42L27.2812 7.486C28.0072 7.64 28.2052 7.926 28.2052 9.026V14.79C28.2052 14.988 28.0952 15.098 27.5892 15.164L27.0832 15.208L27.0172 16H31.5052ZM29.0852 4.164C29.9652 4.164 30.4272 3.482 30.4272 2.69C30.4272 1.92 29.9652 1.216 29.0852 1.216C28.2052 1.216 27.7432 1.898 27.7432 2.69C27.7432 3.46 28.2052 4.164 29.0852 4.164ZM34.1682 16.66C33.0682 17.122 32.2322 17.87 32.2322 19.212C32.2322 20.73 33.6842 21.72 35.7082 21.72C38.6122 21.72 40.5042 19.938 40.5042 17.65C40.5042 15.868 39.3162 14.68 37.6002 14.68C37.0062 14.68 36.4782 14.724 35.6862 14.724C34.9162 14.724 34.4322 14.372 34.4322 13.734C34.4322 13.382 34.7182 12.964 35.1142 12.744C35.3782 12.832 35.8182 12.898 36.1262 12.898C38.1502 12.898 39.6242 11.336 39.6242 9.29C39.6242 8.652 39.3822 7.992 39.1182 7.574L39.1402 7.464L40.9662 7.948V6.452H38.3482C37.7982 6.078 37.1382 5.836 36.2362 5.836C34.1242 5.836 32.7382 7.486 32.7382 9.444C32.7382 10.874 33.4422 11.886 34.3442 12.436V12.546C33.4862 13.008 32.8042 13.844 32.8042 14.724C32.8042 15.626 33.4202 16.33 34.1682 16.572V16.66ZM34.9822 16.77C36.1262 16.77 36.5222 16.726 37.0502 16.77C38.1282 16.858 38.7442 17.584 38.7442 18.618C38.7442 19.828 37.7982 20.796 36.4562 20.796C35.0042 20.796 34.1022 19.938 34.1022 18.618C34.1022 17.628 34.6962 16.946 34.9822 16.77ZM36.1702 12.106C35.3342 12.106 34.8282 10.742 34.8282 9.18C34.8282 7.948 35.2682 6.628 36.1922 6.628C37.0282 6.628 37.5342 7.992 37.5342 9.554C37.5342 10.786 37.0942 12.106 36.1702 12.106ZM51.0697 16L51.0037 15.208L50.5197 15.164C50.0137 15.098 49.9257 14.988 49.9257 14.79V9.092C49.9257 7.464 49.2437 5.836 47.6377 5.836C46.5817 5.836 45.5917 6.43 44.7117 7.398H44.6017V0.665999L41.1917 1.744L41.1257 2.338L42.2037 2.756C42.4237 2.844 42.4897 2.998 42.4897 3.328V14.79C42.4897 14.988 42.4017 15.098 41.8957 15.164L41.4117 15.208L41.3457 16H45.6577L45.5917 15.208L45.1957 15.164C44.6897 15.098 44.6017 14.988 44.6017 14.79V8.41C44.9977 8.036 45.6137 7.596 46.2737 7.596C47.3297 7.596 47.8137 8.19 47.8137 10.016V14.79C47.8137 14.988 47.7257 15.098 47.2197 15.164L46.8237 15.208L46.7577 16H51.0697ZM57.5297 14.218C57.1117 14.526 56.6277 14.724 56.2097 14.724C55.3737 14.724 54.8237 14.328 54.8677 12.656L54.9997 7.332H57.5077L57.6397 6.144H55.0217L55.0877 3.988L54.3177 3.9L52.9537 5.374L51.5677 6.584L51.5457 7.266L52.8877 7.376L52.7557 13.206C52.7117 15.494 53.6577 16.308 55.0217 16.308C56.0337 16.308 57.0897 15.714 57.7057 14.79L57.5297 14.218ZM69.8069 16L69.7409 15.208L68.7729 15.098C68.2669 15.032 68.1789 14.922 68.1789 14.724V3.152C69.8729 3.152 70.2689 3.504 70.5329 4.78L70.9509 6.716H72.0949V2.25H62.1069L61.7769 6.716H62.9869L63.4709 4.67C63.7569 3.46 64.2629 3.152 65.8029 3.152V14.724C65.8029 14.922 65.7149 15.032 65.2089 15.098L64.2409 15.208L64.1749 16H69.8069ZM78.958 13.316C78.364 14.174 77.616 14.658 76.846 14.658C75.306 14.658 74.294 13.096 74.294 10.434V10.258L79.31 10.346C79.376 9.972 79.42 9.51 79.42 9.158C79.42 7.112 78.232 5.836 76.494 5.836C74.052 5.836 72.116 8.212 72.116 11.402C72.116 14.262 73.722 16.308 75.878 16.308C77.506 16.308 78.782 15.318 79.398 13.558L78.958 13.316ZM77.286 9.488L74.316 9.532C74.492 7.728 75.24 6.76 76.076 6.76C76.912 6.76 77.286 7.794 77.286 9.158V9.488ZM88.7224 16L88.6564 15.208L88.5244 15.186C87.8644 15.054 87.6884 14.834 87.2484 14.02L85.4004 10.632L86.6764 8.476C87.3804 7.288 87.7544 7.068 88.3704 6.958L88.5024 6.936L88.5684 6.144H85.3124L85.3784 6.936L85.5104 6.958C86.2144 7.046 86.1484 7.596 85.7524 8.278L84.8504 9.884L83.9484 8.102C83.5964 7.398 83.5964 7.024 84.2124 6.958L84.4104 6.936L84.4764 6.144H80.1644L80.2304 6.936L80.3624 6.958C81.0224 7.09 81.1984 7.31 81.6384 8.124L83.3544 11.27L81.9024 13.668C81.1984 14.856 80.8244 15.076 80.2084 15.186L80.0764 15.208L80.0104 16H83.2664L83.2004 15.208L83.0684 15.186C82.3644 15.098 82.4304 14.548 82.8264 13.866L83.8824 11.996L84.9384 14.042C85.3124 14.746 85.2904 15.12 84.6744 15.186L84.4764 15.208L84.4104 16H88.7224ZM95.0199 14.218C94.6019 14.526 94.1179 14.724 93.6999 14.724C92.8639 14.724 92.3139 14.328 92.3579 12.656L92.4899 7.332H94.9979L95.1299 6.144H92.5119L92.5779 3.988L91.8079 3.9L90.4439 5.374L89.0579 6.584L89.0359 7.266L90.3779 7.376L90.2459 13.206C90.2019 15.494 91.1479 16.308 92.5119 16.308C93.5239 16.308 94.5799 15.714 95.1959 14.79L95.0199 14.218ZM109.52 16L109.96 11.6H108.684L107.672 14.966C107.276 15.252 106.792 15.384 106.308 15.384C104.13 15.384 103.096 12.81 103.096 8.982C103.096 5.462 104.174 2.866 106.242 2.866C106.99 2.866 107.452 3.086 107.936 3.482L108.662 6.738H109.872V2.03L108.332 2.36C107.892 2.184 107.1 1.942 106.176 1.942C102.832 1.942 100.5 4.736 100.5 9.29C100.5 13.844 102.788 16.308 106.11 16.308C107.056 16.308 107.892 16.066 108.508 15.802L109.52 16ZM126.169 16L126.103 15.208L125.619 15.164C125.113 15.098 125.025 14.988 125.025 14.79V9.026C125.025 7.398 124.299 5.836 122.649 5.836C121.593 5.836 120.625 6.474 119.767 7.508H119.657C119.327 6.562 118.689 5.836 117.589 5.836C116.577 5.836 115.741 6.43 114.861 7.398H114.751V5.836L111.451 6.804L111.407 7.42L111.715 7.486C112.441 7.64 112.639 7.926 112.639 9.026V14.79C112.639 14.988 112.551 15.098 112.045 15.164L111.561 15.208L111.495 16H115.763L115.697 15.208L115.301 15.164C114.817 15.12 114.751 14.988 114.751 14.79V8.41C115.147 8.036 115.653 7.596 116.313 7.596C117.303 7.596 117.787 8.146 117.787 9.928V14.79C117.787 14.988 117.721 15.12 117.237 15.164L116.841 15.208L116.775 16H120.977L120.911 15.208L120.427 15.164C119.943 15.12 119.877 14.988 119.877 14.79V8.388C120.273 8.014 120.779 7.596 121.439 7.596C122.429 7.596 122.913 8.146 122.913 9.906V14.79C122.913 14.988 122.847 15.12 122.363 15.164L121.967 15.208L121.901 16H126.169ZM131.627 21.412L131.561 20.62L130.747 20.532C130.241 20.488 130.153 20.356 130.153 20.158V16C130.593 16.176 131.099 16.308 131.649 16.308C134.443 16.308 135.961 13.646 135.961 10.698C135.961 8.014 134.751 5.946 132.749 5.946C131.803 5.946 130.879 6.54 130.263 7.486H130.153V5.836L126.853 6.804L126.809 7.42L127.117 7.486C127.843 7.64 128.041 7.926 128.041 9.026V20.202C128.041 20.4 127.953 20.532 127.447 20.576L126.963 20.62L126.897 21.412H131.627ZM130.153 8.63C130.571 8.058 131.099 7.574 131.737 7.574C132.969 7.574 133.717 9.092 133.717 11.556C133.717 13.976 132.969 15.384 131.913 15.384C131.187 15.384 130.659 14.834 130.153 14.02V8.63ZM146.728 16L146.662 15.208L145.694 15.098C145.188 15.054 145.1 14.922 145.1 14.724V10.456C145.518 10.5 145.98 10.522 146.42 10.522C148.818 10.522 150.908 8.96 150.908 6.012C150.908 3.878 149.39 2.25 146.508 2.25H141.426L141.492 3.042L142.13 3.108C142.636 3.174 142.724 3.284 142.724 3.482V14.768C142.724 14.966 142.636 15.076 142.13 15.142L141.492 15.208L141.426 16H146.728ZM146.068 3.152C147.498 3.152 148.334 4.428 148.334 6.43C148.334 8.388 147.366 9.642 146.09 9.642C145.738 9.642 145.386 9.598 145.1 9.51V3.152H146.068ZM156.767 16L156.701 15.208L155.865 15.12C155.359 15.054 155.249 14.944 155.249 14.746V10.236C155.733 9.158 156.459 8.146 156.987 7.772C157.229 8.234 157.647 8.608 158.175 8.608C158.923 8.608 159.341 7.97 159.341 7.222C159.341 6.408 158.857 5.836 157.999 5.836C157.009 5.836 156.195 6.738 155.359 8.542H155.249V5.836L151.949 6.804L151.905 7.42L152.213 7.486C152.939 7.64 153.137 7.926 153.137 9.026V14.79C153.137 14.988 153.049 15.098 152.543 15.164L152.059 15.208L151.993 16H156.767ZM164.28 15.406C162.806 15.406 162.19 12.81 162.19 10.72C162.19 8.146 162.96 6.738 164.038 6.738C165.512 6.738 166.128 9.334 166.128 11.424C166.128 13.998 165.358 15.406 164.28 15.406ZM163.994 16.308C166.524 16.308 168.46 13.976 168.46 10.984C168.46 8.168 166.898 5.836 164.346 5.836C161.816 5.836 159.88 8.168 159.88 11.16C159.88 13.976 161.442 16.308 163.994 16.308ZM174.239 15.626C175.295 16.022 176.329 16.308 177.671 16.308C180.267 16.286 181.895 14.394 181.895 12.128C181.895 9.84 180.509 8.718 178.419 7.772C176.901 7.068 176.131 6.43 176.131 4.934C176.131 3.724 176.967 2.844 178.111 2.844C178.639 2.844 179.013 2.954 179.453 3.174L180.223 6.386H181.367V1.898L180.355 2.228C179.651 2.052 179.013 1.942 178.177 1.942C175.713 1.942 174.129 3.658 174.129 5.77C174.129 7.794 175.361 8.982 177.407 9.906C179.277 10.764 179.893 11.49 179.893 13.008C179.893 14.24 179.255 15.384 177.847 15.406C177.231 15.406 176.571 15.142 176.087 14.834L175.207 11.578H174.019L174.239 15.626ZM190.397 13.316C189.803 14.174 189.055 14.658 188.285 14.658C186.745 14.658 185.733 13.096 185.733 10.434V10.258L190.749 10.346C190.815 9.972 190.859 9.51 190.859 9.158C190.859 7.112 189.671 5.836 187.933 5.836C185.491 5.836 183.555 8.212 183.555 11.402C183.555 14.262 185.161 16.308 187.317 16.308C188.945 16.308 190.221 15.318 190.837 13.558L190.397 13.316ZM188.725 9.488L185.755 9.532C185.931 7.728 186.679 6.76 187.515 6.76C188.351 6.76 188.725 7.794 188.725 9.158V9.488ZM206.757 16L206.691 15.208L206.207 15.164C205.701 15.098 205.613 14.988 205.613 14.79V9.026C205.613 7.398 204.887 5.836 203.237 5.836C202.181 5.836 201.213 6.474 200.355 7.508H200.245C199.915 6.562 199.277 5.836 198.177 5.836C197.165 5.836 196.329 6.43 195.449 7.398H195.339V5.836L192.039 6.804L191.995 7.42L192.303 7.486C193.029 7.64 193.227 7.926 193.227 9.026V14.79C193.227 14.988 193.139 15.098 192.633 15.164L192.149 15.208L192.083 16H196.351L196.285 15.208L195.889 15.164C195.405 15.12 195.339 14.988 195.339 14.79V8.41C195.735 8.036 196.241 7.596 196.901 7.596C197.891 7.596 198.375 8.146 198.375 9.928V14.79C198.375 14.988 198.309 15.12 197.825 15.164L197.429 15.208L197.363 16H201.565L201.499 15.208L201.015 15.164C200.531 15.12 200.465 14.988 200.465 14.79V8.388C200.861 8.014 201.367 7.596 202.027 7.596C203.017 7.596 203.501 8.146 203.501 9.906V14.79C203.501 14.988 203.435 15.12 202.951 15.164L202.555 15.208L202.489 16H206.757ZM212.017 16L211.951 15.208L211.445 15.164C210.939 15.098 210.829 14.988 210.829 14.79V5.836L207.529 6.804L207.485 7.42L207.793 7.486C208.519 7.64 208.717 7.926 208.717 9.026V14.79C208.717 14.988 208.607 15.098 208.101 15.164L207.595 15.208L207.529 16H212.017ZM209.597 4.164C210.477 4.164 210.939 3.482 210.939 2.69C210.939 1.92 210.477 1.216 209.597 1.216C208.717 1.216 208.255 1.898 208.255 2.69C208.255 3.46 208.717 4.164 209.597 4.164ZM215.34 15.736C215.78 16 216.77 16.308 217.474 16.308C220.268 16.308 221.786 13.646 221.786 10.698C221.786 8.014 220.576 5.946 218.574 5.946C217.628 5.946 216.704 6.54 216.088 7.486H215.978V0.665999L212.568 1.744L212.502 2.338L213.58 2.756C213.8 2.844 213.866 2.998 213.866 3.328V16.418H214.152L215.274 15.736H215.34ZM215.978 8.63C216.396 8.058 216.924 7.574 217.562 7.574C218.794 7.574 219.542 9.092 219.542 11.556C219.542 13.976 218.794 15.384 217.738 15.384C217.012 15.384 216.484 14.834 215.978 14.02V8.63ZM227.616 15.406C226.142 15.406 225.526 12.81 225.526 10.72C225.526 8.146 226.296 6.738 227.374 6.738C228.848 6.738 229.464 9.334 229.464 11.424C229.464 13.998 228.694 15.406 227.616 15.406ZM227.33 16.308C229.86 16.308 231.796 13.976 231.796 10.984C231.796 8.168 230.234 5.836 227.682 5.836C225.152 5.836 223.216 8.168 223.216 11.16C223.216 13.976 224.778 16.308 227.33 16.308ZM237.302 16L237.236 15.208L236.752 15.164C236.246 15.098 236.158 14.988 236.158 14.79V0.665999L232.748 1.744L232.682 2.338L233.76 2.756C233.98 2.844 234.046 2.998 234.046 3.328V14.79C234.046 14.988 233.958 15.098 233.452 15.164L232.968 15.208L232.902 16H237.302ZM247.491 15.912L247.535 15.34L246.853 15.142C246.457 15.032 246.325 14.966 246.325 14.394V0.665999L242.827 1.282L242.761 1.876L243.927 2.25C244.147 2.316 244.213 2.492 244.213 2.822V6.254C243.773 6.078 243.267 5.946 242.717 5.946C239.923 5.946 238.405 8.608 238.405 11.556C238.405 14.24 239.615 16.308 241.617 16.308C242.563 16.308 243.487 15.714 244.103 14.768H244.213V16.308L247.491 15.912ZM244.213 13.624C243.795 14.196 243.267 14.68 242.629 14.68C241.397 14.68 240.649 13.162 240.649 10.698C240.649 8.278 241.397 6.87 242.453 6.87C243.179 6.87 243.707 7.42 244.213 8.234V13.624Z" fill="black"/>
                  </svg>