<svg width="111" height="13" viewBox="0 0 111 13" fill="none" xmlns="http://www.w3.org/2000/svg">
                    <path d="M0.234156 9L0.270156 8.832L0.882156 8.772C1.19416 8.748 1.30216 8.7 1.30216 8.628V1.848C1.30216 1.776 1.25416 1.752 0.810156 1.716L0.282156 1.668L0.246156 1.5H5.64616L5.83816 3.528L5.67016 3.54L5.56216 3.048C5.26216 2.148 4.98616 1.68 3.34216 1.68H2.04616V5.028H3.07816C4.08616 5.004 4.14616 4.884 4.30216 4.332L4.42216 4.008H4.55416L4.32616 6.3L4.19416 6.288L4.17016 5.964C4.12216 5.34 4.09816 5.268 3.01816 5.244L2.04616 5.232V8.616C2.04616 8.7 2.10616 8.736 2.55016 8.772L3.30616 8.82L3.34216 9H0.234156ZM5.85634 9L5.89234 8.832L6.28834 8.808C6.56434 8.796 6.66034 8.784 6.66034 8.664V4.908C6.66034 4.368 6.58834 4.248 6.30034 4.224L5.82034 4.164L5.84434 4.044L7.30834 3.708L7.27234 5.664H7.28434C7.75234 4.368 8.26834 3.672 8.91634 3.672C9.32434 3.672 9.52834 3.948 9.52834 4.212C9.52834 4.464 9.34834 4.716 9.06034 4.716C8.80834 4.716 8.58034 4.512 8.54434 4.128C8.00434 4.296 7.62034 4.908 7.29634 6V8.688C7.29634 8.772 7.29634 8.796 7.66834 8.808L8.24434 8.832L8.28034 9H5.85634ZM12.1252 9.144C10.8172 9.144 9.74922 8.028 9.74922 6.54C9.74922 4.98 10.7932 3.696 12.2692 3.696C13.4332 3.696 14.0932 4.464 14.0932 5.304C14.0932 5.424 14.0812 5.508 14.0692 5.616L10.5052 5.592C10.4812 5.772 10.4452 6.048 10.4452 6.252C10.4452 7.656 11.2852 8.664 12.3772 8.664C13.1212 8.664 13.6132 8.364 14.0692 7.68L14.2012 7.764C13.7332 8.604 13.0612 9.144 12.1252 9.144ZM10.5412 5.424L13.3612 5.4C13.3732 4.548 12.9652 3.888 12.1732 3.888C11.5012 3.888 10.7932 4.524 10.5412 5.424ZM15.6651 2.532C15.3171 2.532 15.1491 2.232 15.1491 2.016C15.1491 1.776 15.3291 1.464 15.6771 1.464C16.0251 1.464 16.1691 1.776 16.1691 2.004C16.1691 2.232 16.0011 2.532 15.6651 2.532ZM14.6451 9L14.6811 8.832L15.1011 8.808C15.3651 8.796 15.4611 8.784 15.4611 8.664V4.92C15.4611 4.368 15.3891 4.248 15.0771 4.224L14.6091 4.164L14.6331 4.044L16.1091 3.708V8.688C16.1091 8.772 16.1571 8.784 16.5411 8.808L16.9251 8.832L16.9611 9H14.6451ZM19.2021 11.976C17.9901 11.976 17.1861 11.436 17.1861 10.608C17.1861 9.912 17.9421 9.348 18.4941 9.108V9.096C17.8341 9.024 17.3781 8.772 17.3781 8.316C17.3781 7.752 18.0621 7.26 18.6501 7.128V7.116C18.0381 6.912 17.5221 6.312 17.5221 5.556C17.5221 4.5 18.3981 3.696 19.5021 3.696C19.9581 3.696 20.3901 3.84 20.7021 4.056L22.1421 3.888L22.0941 4.368L20.9541 4.26L20.9421 4.296C21.2301 4.572 21.4581 4.992 21.4581 5.472C21.4581 6.492 20.5581 7.272 19.4421 7.272C19.2021 7.272 18.9501 7.224 18.8421 7.2C18.4341 7.296 18.0261 7.596 18.0261 7.944C18.0261 8.316 18.3021 8.484 18.9621 8.484C19.2021 8.484 20.0181 8.46 20.3181 8.46C21.4581 8.46 22.0821 9 22.0821 9.756C22.0821 11.028 20.8461 11.976 19.2021 11.976ZM19.5741 11.724C20.6181 11.724 21.6261 11.052 21.6261 10.188C21.6261 9.528 21.1941 9.12 20.1621 9.084C19.7781 9.072 19.5021 9.108 18.7341 9.144C18.3381 9.3 17.7021 9.816 17.7021 10.464C17.7021 11.22 18.5061 11.724 19.5741 11.724ZM19.4781 7.104C20.2221 7.104 20.7741 6.456 20.7741 5.532C20.7741 4.5 20.2941 3.864 19.4901 3.864C18.7581 3.864 18.2181 4.548 18.2181 5.448C18.2181 6.456 18.7461 7.104 19.4781 7.104ZM22.3069 9L22.3429 8.832L22.7269 8.808C22.9909 8.796 23.0869 8.784 23.0869 8.664V1.968C23.0869 1.464 23.0389 1.356 22.7149 1.308L22.2469 1.272L22.2589 1.152L23.7349 0.84V4.74L23.7469 4.752C24.2749 4.32 24.9589 3.696 25.7629 3.696C26.1349 3.696 26.4589 3.816 26.6869 4.044C26.9509 4.308 27.0829 4.692 27.0829 5.208V8.676C27.0829 8.748 27.0829 8.796 27.5149 8.808L27.8869 8.832L27.9229 9H25.6309L25.6669 8.832L26.0869 8.808C26.4109 8.796 26.4469 8.748 26.4469 8.664V5.436C26.4469 4.572 26.0269 4.2 25.3549 4.2C24.7429 4.2 24.1669 4.56 23.7349 4.98V8.688C23.7349 8.772 23.7829 8.784 24.1669 8.808L24.5509 8.832L24.5869 9H22.3069ZM30.0874 9.156C29.5594 9.156 28.9954 8.952 29.0074 8.04L29.0674 4.272L28.1554 4.248L28.2514 3.9L29.0794 3.864L29.1274 2.832L29.7274 2.844L29.7154 3.876H31.4194L31.3114 4.272H29.7154C29.7154 4.272 29.6434 7.908 29.6434 7.92C29.6194 8.52 29.9434 8.748 30.3754 8.748C30.8194 8.748 31.1074 8.484 31.4194 8.268L31.5034 8.376C31.0834 8.772 30.6634 9.156 30.0874 9.156ZM34.1256 9L34.1616 8.832L34.7376 8.772C35.0496 8.748 35.1576 8.7 35.1576 8.628V1.848C35.1576 1.776 35.1096 1.752 34.6536 1.716L34.1736 1.668L34.1376 1.5L36.8736 1.464C39.5496 1.464 41.1096 2.892 41.1096 5.112C41.1096 7.356 39.4296 9 36.6576 9H34.1256ZM36.9576 8.796C39.1776 8.736 40.3176 7.164 40.3176 5.364C40.3176 3.228 39.1176 1.68 36.7176 1.68H35.9016V8.652L36.9576 8.796ZM42.7589 2.532C42.4109 2.532 42.2429 2.232 42.2429 2.016C42.2429 1.776 42.4229 1.464 42.7709 1.464C43.1189 1.464 43.2629 1.776 43.2629 2.004C43.2629 2.232 43.0949 2.532 42.7589 2.532ZM41.7389 9L41.7749 8.832L42.1949 8.808C42.4589 8.796 42.5549 8.784 42.5549 8.664V4.92C42.5549 4.368 42.4829 4.248 42.1709 4.224L41.7029 4.164L41.7269 4.044L43.2029 3.708V8.688C43.2029 8.772 43.2509 8.784 43.6349 8.808L44.0189 8.832L44.0549 9H41.7389ZM46.1279 9.156C45.6119 9.156 45.0959 9.072 44.6639 8.892L44.5319 7.524H44.6999L44.9399 8.232C45.2519 8.736 45.7319 8.988 46.1999 8.988C46.9679 8.988 47.4959 8.532 47.4959 7.872C47.4959 7.152 46.9439 6.852 46.0919 6.588C45.4319 6.384 44.6759 6.012 44.6759 5.148C44.6759 4.332 45.3959 3.684 46.3319 3.684C46.7159 3.684 47.0519 3.768 47.3639 3.9L47.7479 3.792L47.8319 5.136H47.6519L47.1959 4.152C46.9799 4.008 46.7039 3.864 46.2959 3.864C45.6119 3.864 45.2039 4.248 45.2039 4.824C45.2039 5.496 45.7559 5.724 46.4759 5.976C47.2439 6.24 48.0479 6.516 48.0479 7.56C48.0479 8.424 47.2919 9.156 46.1279 9.156ZM48.4381 12.012L48.4741 11.844L48.8821 11.82C49.1461 11.796 49.2541 11.796 49.2541 11.688V4.896C49.2541 4.368 49.1941 4.248 48.8941 4.224L48.4021 4.164L48.4141 4.044L49.9021 3.708L49.8901 4.68L49.9261 4.704C50.3461 4.224 50.9581 3.732 51.7741 3.732C52.9741 3.732 53.9461 4.752 53.9461 6.276C53.9461 7.944 52.7101 9.156 51.3781 9.156C50.7901 9.156 50.2741 8.976 49.9141 8.796H49.8901V11.7C49.8901 11.784 49.9381 11.808 50.3221 11.82L50.9101 11.844L50.9461 12.012H48.4381ZM51.4261 8.952C52.5301 8.952 53.2141 7.944 53.2141 6.504C53.2141 5.172 52.5181 4.164 51.4261 4.164C50.7661 4.164 50.2861 4.536 49.8901 4.944V8.184C50.2141 8.592 50.7781 8.952 51.4261 8.952ZM54.406 9L54.442 8.832L54.838 8.808C55.114 8.796 55.21 8.784 55.21 8.664V2.028C55.21 1.464 55.15 1.356 54.826 1.308L54.322 1.272L54.346 1.152L55.846 0.84V8.688C55.846 8.772 55.882 8.796 56.278 8.808L56.662 8.832L56.698 9H54.406ZM60.7158 9.132C60.3798 9.132 60.0318 8.832 60.0438 8.316L60.0318 8.292C59.5398 8.748 59.0238 9.12 58.4958 9.12C57.7398 9.12 57.2238 8.616 57.2238 7.956C57.2238 7.092 57.9318 6.564 60.1398 5.976L60.1518 5.448C60.2118 4.248 59.5998 3.972 58.9518 3.972C58.3998 3.972 57.8598 4.308 57.8598 4.476C57.8598 4.548 58.1118 4.68 58.1118 4.968C58.1118 5.196 57.9198 5.4 57.6438 5.4C57.3918 5.4 57.1878 5.268 57.1878 4.956C57.1878 4.404 58.4118 3.696 59.3238 3.696C60.2598 3.696 60.8358 4.068 60.7758 5.412L60.6558 8.304C60.6438 8.64 60.7758 8.712 60.9918 8.712C61.1718 8.712 61.3878 8.544 61.5918 8.328L61.6878 8.436C61.4238 8.736 61.1238 9.132 60.7158 9.132ZM58.7838 8.7C59.2878 8.7 59.7078 8.376 60.0678 8.064L60.1278 6.168C58.3278 6.636 57.8838 7.116 57.8838 7.812C57.8838 8.376 58.2198 8.7 58.7838 8.7ZM62.1818 12.108C61.7978 12.108 61.5098 11.88 61.5098 11.604C61.5098 11.328 61.7018 11.1 62.0018 11.1C62.2778 11.1 62.5058 11.316 62.5538 11.688C63.0338 11.58 63.2618 11.076 63.6098 9.984L63.8738 9.144V9.132L62.0378 4.608C61.8578 4.14 61.8218 4.08 61.5458 4.056L61.1978 4.02L61.1618 3.864H63.3578L63.3338 4.02L63.0098 4.056C62.6738 4.068 62.6258 4.188 62.7458 4.524L64.2098 8.232L65.3738 5.028C65.6498 4.224 65.6018 4.116 65.0378 4.068L64.7018 4.02L64.6658 3.864H66.6458L66.6098 4.02L66.3338 4.056C65.9378 4.08 65.8898 4.224 65.5538 5.124L64.1018 9.024L63.7178 10.272C63.3458 11.532 62.9258 12.108 62.1818 12.108ZM68.8689 9L68.9049 8.832L69.6009 8.772C69.9129 8.748 70.0209 8.7 70.0209 8.628V1.848C70.0209 1.776 69.9729 1.752 69.5289 1.716L68.9169 1.668L68.8809 1.5H71.9049C73.7169 1.5 74.6529 2.22 74.6529 3.384C74.6529 4.668 73.5009 5.52 71.8929 5.52C71.5089 5.52 71.0409 5.472 70.7649 5.436V8.652C70.7649 8.724 70.8249 8.76 71.2689 8.784L72.0249 8.832L72.0609 9H68.8689ZM71.8929 5.352C73.1889 5.352 73.8729 4.692 73.8729 3.504C73.8729 2.34 73.2249 1.656 71.6529 1.692L70.7649 1.704V5.208C71.0409 5.28 71.4369 5.352 71.8929 5.352ZM75.0204 9L75.0564 8.832L75.4524 8.808C75.7284 8.796 75.8244 8.784 75.8244 8.664V4.908C75.8244 4.368 75.7524 4.248 75.4644 4.224L74.9844 4.164L75.0084 4.044L76.4724 3.708L76.4364 5.664H76.4484C76.9164 4.368 77.4324 3.672 78.0804 3.672C78.4884 3.672 78.6924 3.948 78.6924 4.212C78.6924 4.464 78.5124 4.716 78.2244 4.716C77.9724 4.716 77.7444 4.512 77.7084 4.128C77.1684 4.296 76.7844 4.908 76.4604 6V8.688C76.4604 8.772 76.4604 8.796 76.8324 8.808L77.4084 8.832L77.4444 9H75.0204ZM81.5413 9.156C80.0773 9.156 78.9253 8.016 78.9253 6.456C78.9253 4.896 80.0893 3.696 81.5533 3.696C82.9933 3.696 84.1453 4.836 84.1453 6.384C84.1453 7.98 82.9813 9.156 81.5413 9.156ZM81.5533 8.988C82.5973 8.988 83.4013 7.884 83.4013 6.492C83.4013 5.616 83.1973 4.848 82.7413 4.392C82.4173 4.056 82.0093 3.876 81.5293 3.876C80.4613 3.876 79.6453 4.956 79.6453 6.324C79.6453 7.248 79.9093 8.064 80.3773 8.532C80.6653 8.82 81.0853 8.988 81.5533 8.988ZM86.9655 9L87.0015 8.832L87.5895 8.772C87.8895 8.748 87.9975 8.7 87.9975 8.628V1.848C87.9975 1.776 87.9495 1.752 87.5055 1.716L87.0135 1.668L86.9775 1.5H90.0135L89.9775 1.668L89.1615 1.728C88.8495 1.752 88.7415 1.824 88.7415 1.884V8.772L89.9415 8.796C91.6215 8.784 91.9575 8.268 92.3055 7.428L92.4615 6.828H92.6415L92.1735 9H86.9655ZM94.2159 2.532C93.8679 2.532 93.6999 2.232 93.6999 2.016C93.6999 1.776 93.8799 1.464 94.2279 1.464C94.5759 1.464 94.7199 1.776 94.7199 2.004C94.7199 2.232 94.5519 2.532 94.2159 2.532ZM93.1959 9L93.2319 8.832L93.6519 8.808C93.9159 8.796 94.0119 8.784 94.0119 8.664V4.92C94.0119 4.368 93.9399 4.248 93.6279 4.224L93.1599 4.164L93.1839 4.044L94.6599 3.708V8.688C94.6599 8.772 94.7079 8.784 95.0919 8.808L95.4759 8.832L95.5119 9H93.1959ZM97.7529 11.976C96.5409 11.976 95.7369 11.436 95.7369 10.608C95.7369 9.912 96.4929 9.348 97.0449 9.108V9.096C96.3849 9.024 95.9289 8.772 95.9289 8.316C95.9289 7.752 96.6129 7.26 97.2009 7.128V7.116C96.5889 6.912 96.0729 6.312 96.0729 5.556C96.0729 4.5 96.9489 3.696 98.0529 3.696C98.5089 3.696 98.9409 3.84 99.2529 4.056L100.693 3.888L100.645 4.368L99.5049 4.26L99.4929 4.296C99.7809 4.572 100.009 4.992 100.009 5.472C100.009 6.492 99.1089 7.272 97.9929 7.272C97.7529 7.272 97.5009 7.224 97.3929 7.2C96.9849 7.296 96.5769 7.596 96.5769 7.944C96.5769 8.316 96.8529 8.484 97.5129 8.484C97.7529 8.484 98.5689 8.46 98.8689 8.46C100.009 8.46 100.633 9 100.633 9.756C100.633 11.028 99.3969 11.976 97.7529 11.976ZM98.1249 11.724C99.1689 11.724 100.177 11.052 100.177 10.188C100.177 9.528 99.7449 9.12 98.7129 9.084C98.3289 9.072 98.0529 9.108 97.2849 9.144C96.8889 9.3 96.2529 9.816 96.2529 10.464C96.2529 11.22 97.0569 11.724 98.1249 11.724ZM98.0289 7.104C98.7729 7.104 99.3249 6.456 99.3249 5.532C99.3249 4.5 98.8449 3.864 98.0409 3.864C97.3089 3.864 96.7689 4.548 96.7689 5.448C96.7689 6.456 97.2969 7.104 98.0289 7.104ZM100.858 9L100.894 8.832L101.278 8.808C101.542 8.796 101.638 8.784 101.638 8.664V1.968C101.638 1.464 101.59 1.356 101.266 1.308L100.798 1.272L100.81 1.152L102.286 0.84V4.74L102.298 4.752C102.826 4.32 103.51 3.696 104.314 3.696C104.686 3.696 105.01 3.816 105.238 4.044C105.502 4.308 105.634 4.692 105.634 5.208V8.676C105.634 8.748 105.634 8.796 106.066 8.808L106.438 8.832L106.474 9H104.182L104.218 8.832L104.638 8.808C104.962 8.796 104.998 8.748 104.998 8.664V5.436C104.998 4.572 104.578 4.2 103.906 4.2C103.294 4.2 102.718 4.56 102.286 4.98V8.688C102.286 8.772 102.334 8.784 102.718 8.808L103.102 8.832L103.138 9H100.858ZM108.638 9.156C108.11 9.156 107.546 8.952 107.558 8.04L107.618 4.272L106.706 4.248L106.802 3.9L107.63 3.864L107.678 2.832L108.278 2.844L108.266 3.876H109.97L109.862 4.272H108.266C108.266 4.272 108.194 7.908 108.194 7.92C108.17 8.52 108.494 8.748 108.926 8.748C109.37 8.748 109.658 8.484 109.97 8.268L110.054 8.376C109.634 8.772 109.214 9.156 108.638 9.156Z" fill="black"/>
                  </svg> 