<svg width="206" height="26" viewBox="0 0 206 26" fill="none" xmlns="http://www.w3.org/2000/svg">
                    <path d="M10.404 0.323998H0.0440002V19H4.356V11.216H9.956V7.576H4.356V3.964H10.404V0.323998ZM12.8297 6.512V14.044C12.8297 15.416 13.0537 16.676 14.2017 17.796C15.6297 19.196 17.7017 19.42 19.2417 19.42C20.7257 19.42 22.8257 19.196 24.2537 17.796C25.5137 16.564 25.6537 15.22 25.6537 13.792V6.512H21.6217V13.4C21.6217 14.016 21.5377 14.856 20.9497 15.416C20.5857 15.752 19.9977 16.004 19.2417 16.004C18.3457 16.004 17.8417 15.668 17.5617 15.416C16.9177 14.828 16.8617 13.96 16.8617 13.4V6.512H12.8297ZM35.4345 9.76V6.512H32.9425V2.48H28.9105V6.512H27.5105V9.76H28.9105V19H32.9425V9.76H35.4345ZM37.1657 6.512V14.044C37.1657 15.416 37.3897 16.676 38.5377 17.796C39.9657 19.196 42.0377 19.42 43.5777 19.42C45.0617 19.42 47.1617 19.196 48.5897 17.796C49.8497 16.564 49.9897 15.22 49.9897 13.792V6.512H45.9577V13.4C45.9577 14.016 45.8737 14.856 45.2857 15.416C44.9217 15.752 44.3337 16.004 43.5777 16.004C42.6817 16.004 42.1777 15.668 41.8977 15.416C41.2537 14.828 41.1977 13.96 41.1977 13.4V6.512H37.1657ZM53.1344 19H57.1664V13.932C57.1664 12.868 57.2504 11.524 58.1464 10.572C58.6504 10.04 59.2944 9.732 60.1624 9.732C60.8624 9.732 61.4504 9.9 61.9824 10.18L62.2064 6.4C61.7584 6.26 61.3944 6.204 60.8904 6.204C60.1064 6.204 59.4064 6.316 58.7344 6.736C58.0904 7.128 57.5304 7.772 57.1664 8.472V6.512H53.1344V19ZM73.0463 7.912C71.8983 6.344 70.1903 6.092 69.1263 6.092C67.3903 6.092 65.8783 6.708 64.7863 7.8C63.6383 8.948 62.8543 10.74 62.8543 12.84C62.8543 14.492 63.3583 16.116 64.6743 17.516C66.0463 18.972 67.5583 19.42 69.3503 19.42C70.3863 19.42 71.9543 19.168 73.0463 17.488V19H77.0783V6.512H73.0463V7.912ZM70.1343 9.564C70.8623 9.564 71.7583 9.844 72.3743 10.432C72.9623 10.992 73.2983 11.832 73.2983 12.728C73.2983 13.792 72.8503 14.576 72.3183 15.08C71.7863 15.612 71.0303 15.948 70.2183 15.948C69.2663 15.948 68.3983 15.556 67.8383 14.968C67.4743 14.576 66.9983 13.848 66.9983 12.728C66.9983 11.608 67.5023 10.88 67.9223 10.46C68.4543 9.928 69.2663 9.564 70.1343 9.564ZM87.2159 0.323998V19H91.5279V12.448H94.1599C95.4759 12.448 97.4359 12.308 98.9199 10.796C99.6199 10.068 100.516 8.752 100.516 6.4C100.516 5.112 100.292 3.264 98.6959 1.864C97.2119 0.547999 95.4199 0.323998 93.7959 0.323998H87.2159ZM91.5279 3.852H92.9839C93.8239 3.852 94.7479 3.936 95.3919 4.552C95.8119 4.944 96.0919 5.588 96.0919 6.372C96.0919 7.184 95.7839 7.828 95.3919 8.22C94.6919 8.892 93.6559 8.92 93.0679 8.92H91.5279V3.852ZM114.726 3.964V0.323998H102.294V3.964H106.354V19H110.666V3.964H114.726ZM127.84 0.323998H123.528V19H127.84V11.076H135.288V19H139.6V0.323998H135.288V7.436H127.84V0.323998ZM146.817 11.048C146.929 10.488 147.209 10.04 147.517 9.704C147.909 9.312 148.525 8.892 149.561 8.892C150.373 8.892 151.017 9.172 151.465 9.592C152.053 10.152 152.249 10.936 152.277 11.048H146.817ZM156.001 13.036C156.001 11.496 155.721 9.536 154.237 7.968C152.697 6.344 150.681 6.092 149.281 6.092C147.881 6.092 146.005 6.372 144.493 7.884C143.233 9.172 142.589 11.02 142.589 12.812C142.589 14.884 143.373 16.536 144.465 17.628C145.921 19.084 147.573 19.42 149.449 19.42C150.849 19.42 152.193 19.224 153.397 18.496C154.125 18.048 155.245 17.124 155.805 15.36L151.997 14.968C151.661 15.668 151.185 15.976 151.129 16.004C150.709 16.256 150.093 16.368 149.505 16.368C148.889 16.368 148.049 16.256 147.433 15.584C146.929 15.024 146.677 14.128 146.677 13.456H156.001V13.036ZM168.093 7.912C166.945 6.344 165.237 6.092 164.173 6.092C162.437 6.092 160.925 6.708 159.833 7.8C158.685 8.948 157.901 10.74 157.901 12.84C157.901 14.492 158.405 16.116 159.721 17.516C161.093 18.972 162.605 19.42 164.397 19.42C165.433 19.42 167.001 19.168 168.093 17.488V19H172.125V6.512H168.093V7.912ZM165.181 9.564C165.909 9.564 166.805 9.844 167.421 10.432C168.009 10.992 168.345 11.832 168.345 12.728C168.345 13.792 167.897 14.576 167.365 15.08C166.833 15.612 166.077 15.948 165.265 15.948C164.313 15.948 163.445 15.556 162.885 14.968C162.521 14.576 162.045 13.848 162.045 12.728C162.045 11.608 162.549 10.88 162.969 10.46C163.501 9.928 164.313 9.564 165.181 9.564ZM173.74 6.512L180.068 19H182.588L188.916 6.512H184.492L181.328 13.204L178.164 6.512H173.74ZM190.593 25.412H195.129L205.181 6.512H200.645L197.201 13.288L193.673 6.512H189.025L194.989 17.404L190.593 25.412Z" fill="black"/>
                  </svg> 