<svg width="272" height="58" viewBox="0 0 272 58" fill="none" xmlns="http://www.w3.org/2000/svg">
                    <path d="M0.0100001 22H2.53V4.39H2.59C2.59 4.39 3.49 6.01 4.18 7.06L14.02 22H16.78V0.549999H14.26V18.22H14.2C14.2 18.22 13.36 16.57 12.64 15.46L2.86 0.549999H0.0100001V22ZM27.0808 22.42C30.5908 22.42 33.0208 20.53 33.7408 17.2H31.3708C30.8308 19.3 29.3308 20.38 27.0808 20.38C23.9608 20.38 22.2508 17.98 22.0708 14.83H34.0708C34.0708 9.7 31.5808 6.1 26.9308 6.1C22.5208 6.1 19.5808 9.76 19.5808 14.26C19.5808 18.76 22.3408 22.42 27.0808 22.42ZM26.9308 8.02C29.7208 8.02 31.3108 9.91 31.4608 13H22.1308C22.4908 10.18 24.0508 8.02 26.9308 8.02ZM48.7469 22V6.49H46.3169V16.03C46.3169 18.49 44.7269 20.35 42.2669 20.35C40.0769 20.35 38.7869 19.18 38.7869 17.17V6.49H36.3569V17.23C36.3569 20.44 38.3969 22.36 41.5769 22.36C43.8269 22.36 45.1469 21.37 46.2569 19.87H46.3169V22H48.7469ZM58.6628 22.42C62.1728 22.42 64.6028 20.53 65.3228 17.2H62.9528C62.4128 19.3 60.9128 20.38 58.6628 20.38C55.5428 20.38 53.8328 17.98 53.6528 14.83H65.6528C65.6528 9.7 63.1628 6.1 58.5128 6.1C54.1028 6.1 51.1628 9.76 51.1628 14.26C51.1628 18.76 53.9228 22.42 58.6628 22.42ZM58.5128 8.02C61.3028 8.02 62.8928 9.91 63.0428 13H53.7128C54.0728 10.18 55.6328 8.02 58.5128 8.02ZM73.1643 22H75.8643V11.86H87.3243V22H90.0243V0.549999H87.3243V9.67H75.8643V0.549999H73.1643V22ZM105.873 22.15C106.503 22.15 106.893 22.03 107.193 21.91V20.14H107.103C105.753 20.44 105.453 19.75 105.453 18.49V11.11C105.453 7.42 103.023 6.19 99.723 6.19C95.613 6.19 93.633 8.44 93.543 11.44H95.883C95.973 9.1 97.233 8.02 99.753 8.02C101.973 8.02 103.233 9.01 103.233 10.75C103.233 12.43 101.703 12.64 99.513 12.97C95.643 13.57 92.763 14.32 92.763 17.98C92.763 20.92 95.073 22.3 98.013 22.3C100.653 22.3 102.243 21.04 103.173 19.84H103.203C103.443 21.43 104.283 22.15 105.873 22.15ZM98.553 20.44C96.963 20.44 95.343 19.99 95.343 17.92C95.343 15.64 97.293 15.22 99.723 14.77C101.043 14.53 102.453 14.14 103.263 13.63V16.27C103.263 18.07 101.793 20.44 98.553 20.44ZM121.166 22.15C121.796 22.15 122.186 22.03 122.486 21.91V20.14H122.396C121.046 20.44 120.746 19.75 120.746 18.49V11.11C120.746 7.42 118.316 6.19 115.016 6.19C110.906 6.19 108.926 8.44 108.836 11.44H111.176C111.266 9.1 112.526 8.02 115.046 8.02C117.266 8.02 118.526 9.01 118.526 10.75C118.526 12.43 116.996 12.64 114.806 12.97C110.936 13.57 108.056 14.32 108.056 17.98C108.056 20.92 110.366 22.3 113.306 22.3C115.946 22.3 117.536 21.04 118.466 19.84H118.496C118.736 21.43 119.576 22.15 121.166 22.15ZM113.846 20.44C112.256 20.44 110.636 19.99 110.636 17.92C110.636 15.64 112.586 15.22 115.016 14.77C116.336 14.53 117.746 14.14 118.556 13.63V16.27C118.556 18.07 117.086 20.44 113.846 20.44ZM130.159 22.45C133.729 22.45 136.279 20.86 136.279 17.74C136.279 14.17 133.669 13.48 130.549 12.85C127.879 12.31 126.379 11.98 126.379 10.3C126.379 9.07 127.279 8.08 129.499 8.08C131.809 8.08 132.919 8.98 133.159 11.02H135.649C135.289 7.99 133.399 6.16 129.559 6.16C125.959 6.16 123.979 7.84 123.979 10.42C123.979 13.81 126.709 14.44 129.769 15.07C132.619 15.67 133.819 16.12 133.819 17.86C133.819 19.3 132.769 20.41 130.219 20.41C127.909 20.41 126.109 19.66 125.779 16.96H123.289C123.529 20.44 125.899 22.45 130.159 22.45ZM160.54 22H162.28V10.66H153.13V13H159.58V13.51C159.58 17.11 157.51 20.11 153.1 20.11C148.75 20.11 145.69 16.6 145.69 11.35C145.69 6.31 148.03 2.44 153.19 2.44C156.58 2.44 158.59 4.15 159.19 7H161.98C161.29 2.8 158.23 0.0999994 153.25 0.0999994C146.5 0.0999994 142.93 5.05 142.93 11.35C142.93 17.86 146.98 22.45 153.01 22.45C155.83 22.45 158.14 21.37 159.7 19.18H159.76L160.54 22ZM168.076 6.49H165.646V22H168.076V13.39C168.076 10.48 170.176 8.68 172.576 8.68C173.056 8.68 173.296 8.71 173.656 8.83H173.746V6.49C173.446 6.37 173.206 6.31 172.756 6.31C170.686 6.31 169.066 7.57 168.136 9.07H168.076V6.49ZM181.973 22.42C186.623 22.42 189.443 18.76 189.443 14.26C189.443 9.76 186.623 6.1 181.973 6.1C177.353 6.1 174.473 9.76 174.473 14.26C174.473 18.76 177.353 22.42 181.973 22.42ZM181.973 20.38C178.673 20.38 176.963 17.68 176.963 14.26C176.963 10.84 178.673 8.11 181.973 8.11C185.273 8.11 186.953 10.84 186.953 14.26C186.953 17.68 185.273 20.38 181.973 20.38ZM190.584 8.47H192.834V19.09C192.834 21.28 194.274 22.09 196.254 22.09C196.974 22.09 197.634 22 198.204 21.88V19.78H198.114C197.844 19.87 197.304 19.99 196.824 19.99C195.834 19.99 195.264 19.63 195.264 18.55V8.47H198.264V6.49H195.264V1.6H192.834V6.49H190.584V8.47ZM207.257 22.42C210.767 22.42 213.197 20.53 213.917 17.2H211.547C211.007 19.3 209.507 20.38 207.257 20.38C204.137 20.38 202.427 17.98 202.247 14.83H214.247C214.247 9.7 211.757 6.1 207.107 6.1C202.697 6.1 199.757 9.76 199.757 14.26C199.757 18.76 202.517 22.42 207.257 22.42ZM207.107 8.02C209.897 8.02 211.487 9.91 211.637 13H202.307C202.667 10.18 204.227 8.02 207.107 8.02ZM222.503 22.45C226.073 22.45 228.623 20.86 228.623 17.74C228.623 14.17 226.013 13.48 222.893 12.85C220.223 12.31 218.723 11.98 218.723 10.3C218.723 9.07 219.623 8.08 221.843 8.08C224.153 8.08 225.263 8.98 225.503 11.02H227.993C227.633 7.99 225.743 6.16 221.903 6.16C218.303 6.16 216.323 7.84 216.323 10.42C216.323 13.81 219.053 14.44 222.113 15.07C224.963 15.67 226.163 16.12 226.163 17.86C226.163 19.3 225.113 20.41 222.563 20.41C220.253 20.41 218.453 19.66 218.123 16.96H215.633C215.873 20.44 218.243 22.45 222.503 22.45ZM241.149 22H243.999L237.339 12.07L243.279 6.49H240.189L233.379 13.12V0.549999H230.949V22H233.379V15.79L235.659 13.63L241.149 22ZM0.0100001 52H7.6C14.05 52 17.32 47.77 17.32 41.35C17.32 34.93 14.26 30.55 7.81 30.55H0.0100001V52ZM2.71 49.63V32.89H7.72C12.76 32.89 14.56 36.31 14.56 41.35C14.56 46.39 12.55 49.63 7.51 49.63H2.71ZM20.1578 52H22.5878V36.49H20.1578V52ZM20.1578 33.55H22.5878V30.55H20.1578V33.55ZM31.78 52.45C35.35 52.45 37.9 50.86 37.9 47.74C37.9 44.17 35.29 43.48 32.17 42.85C29.5 42.31 28 41.98 28 40.3C28 39.07 28.9 38.08 31.12 38.08C33.43 38.08 34.54 38.98 34.78 41.02H37.27C36.91 37.99 35.02 36.16 31.18 36.16C27.58 36.16 25.6 37.84 25.6 40.42C25.6 43.81 28.33 44.44 31.39 45.07C34.24 45.67 35.44 46.12 35.44 47.86C35.44 49.3 34.39 50.41 31.84 50.41C29.53 50.41 27.73 49.66 27.4 46.96H24.91C25.15 50.44 27.52 52.45 31.78 52.45ZM40.2262 56.98H42.6562V50.17H42.7162C44.0062 51.82 45.5062 52.45 47.6062 52.45C51.8062 52.45 54.3562 49.27 54.3562 44.29C54.3562 39.13 51.6262 36.13 47.6962 36.13C45.4462 36.13 43.8862 37.09 42.7162 38.68H42.6562V36.49H40.2262V56.98ZM47.4262 50.41C43.8562 50.41 42.5062 47.68 42.5062 44.32C42.5062 40.96 44.0662 38.2 47.4562 38.2C50.3962 38.2 51.8662 40.84 51.8662 44.32C51.8662 47.83 50.3962 50.41 47.4262 50.41ZM56.8689 52H59.2989V30.55H56.8689V52ZM74.8769 52.15C75.5069 52.15 75.8969 52.03 76.1969 51.91V50.14H76.1069C74.7569 50.44 74.4569 49.75 74.4569 48.49V41.11C74.4569 37.42 72.0269 36.19 68.7269 36.19C64.6169 36.19 62.6369 38.44 62.5469 41.44H64.8869C64.9769 39.1 66.2369 38.02 68.7569 38.02C70.9769 38.02 72.2369 39.01 72.2369 40.75C72.2369 42.43 70.7069 42.64 68.5169 42.97C64.6469 43.57 61.7669 44.32 61.7669 47.98C61.7669 50.92 64.0769 52.3 67.0169 52.3C69.6569 52.3 71.2469 51.04 72.1769 49.84H72.2069C72.4469 51.43 73.2869 52.15 74.8769 52.15ZM67.5569 50.44C65.9669 50.44 64.3469 49.99 64.3469 47.92C64.3469 45.64 66.2969 45.22 68.7269 44.77C70.0469 44.53 71.4569 44.14 72.2669 43.63V46.27C72.2669 48.07 70.7969 50.44 67.5569 50.44ZM79.6769 57.13C81.5669 57.13 82.7669 56.47 84.0269 53.26L90.6569 36.49H88.0769L84.5369 46.15C84.0569 47.44 83.5169 49.18 83.5169 49.18H83.4569C83.4569 49.18 82.8869 47.44 82.4069 46.15L78.7469 36.49H76.1069L82.1669 51.55L81.5669 53.08C80.9669 54.58 80.2769 54.97 79.2569 54.97C78.4469 54.97 77.9369 54.82 77.6069 54.64H77.4869V56.8C78.1469 57.07 78.7469 57.13 79.6769 57.13ZM97.51 52H100.21V43H106.06C110.74 43 112.99 40.63 112.99 36.7C112.99 35.08 112.45 33.67 111.55 32.62C110.44 31.3 108.7 30.55 106.45 30.55H97.51V52ZM100.21 32.89H106C108.73 32.89 110.32 34.24 110.32 36.82C110.32 39.28 108.88 40.81 105.85 40.81H100.21V32.89ZM117.656 36.49H115.226V52H117.656V43.39C117.656 40.48 119.756 38.68 122.156 38.68C122.636 38.68 122.876 38.71 123.236 38.83H123.326V36.49C123.026 36.37 122.786 36.31 122.336 36.31C120.266 36.31 118.646 37.57 117.716 39.07H117.656V36.49ZM131.553 52.42C136.203 52.42 139.023 48.76 139.023 44.26C139.023 39.76 136.203 36.1 131.553 36.1C126.933 36.1 124.053 39.76 124.053 44.26C124.053 48.76 126.933 52.42 131.553 52.42ZM131.553 50.38C128.253 50.38 126.543 47.68 126.543 44.26C126.543 40.84 128.253 38.11 131.553 38.11C134.853 38.11 136.533 40.84 136.533 44.26C136.533 47.68 134.853 50.38 131.553 50.38ZM152.822 52.45C157.082 52.45 160.202 49.69 160.202 45.31C160.202 40.75 156.872 38.14 153.212 38.14C151.232 38.14 149.672 38.77 148.502 39.88H148.442L149.792 33.7H158.972V31.45H148.022L145.742 42.49H148.172C149.042 41.26 150.572 40.36 152.792 40.36C155.492 40.36 157.622 42.16 157.622 45.25C157.622 48.25 155.732 50.23 152.792 50.23C149.882 50.23 148.082 48.61 147.752 46.06H145.262C145.442 49.87 148.562 52.45 152.822 52.45ZM169.404 52.45C173.664 52.45 176.784 49.69 176.784 45.31C176.784 40.75 173.454 38.14 169.794 38.14C167.814 38.14 166.254 38.77 165.084 39.88H165.024L166.374 33.7H175.554V31.45H164.604L162.324 42.49H164.754C165.624 41.26 167.154 40.36 169.374 40.36C172.074 40.36 174.204 42.16 174.204 45.25C174.204 48.25 172.314 50.23 169.374 50.23C166.464 50.23 164.664 48.61 164.334 46.06H161.844C162.024 49.87 165.144 52.45 169.404 52.45ZM184.522 52H187.222V42.94H193.192C196.072 42.94 197.332 44.05 197.542 47.2C197.782 50.8 197.872 51.61 198.322 52H201.232V51.88C200.842 51.61 200.482 50.74 200.242 47.29C200.032 44.11 199.342 42.61 197.152 41.83V41.74C199.732 40.9 200.872 39.04 200.872 36.43C200.872 32.92 198.322 30.55 194.542 30.55H184.522V52ZM187.222 32.89H193.732C196.882 32.89 198.082 34.21 198.082 36.82C198.082 39.25 196.582 40.75 193.582 40.75H187.222V32.89ZM210.274 52.42C214.924 52.42 217.744 48.76 217.744 44.26C217.744 39.76 214.924 36.1 210.274 36.1C205.654 36.1 202.774 39.76 202.774 44.26C202.774 48.76 205.654 52.42 210.274 52.42ZM210.274 50.38C206.974 50.38 205.264 47.68 205.264 44.26C205.264 40.84 206.974 38.11 210.274 38.11C213.574 38.11 215.254 40.84 215.254 44.26C215.254 47.68 213.574 50.38 210.274 50.38ZM220.168 52H222.598V42.34C222.598 39.91 224.698 38.17 226.588 38.17C228.178 38.17 229.258 39.31 229.258 41.23V52H231.688V42.34C231.688 39.91 233.488 38.17 235.498 38.17C237.058 38.17 238.348 39.31 238.348 41.23V52H240.778V41.11C240.778 37.9 238.828 36.13 236.068 36.13C234.178 36.13 232.318 37.12 231.328 38.89H231.268C230.608 37.09 229.108 36.13 227.218 36.13C225.268 36.13 223.618 37.21 222.658 38.71H222.598V36.49H220.168V52ZM256.166 52.15C256.796 52.15 257.186 52.03 257.486 51.91V50.14H257.396C256.046 50.44 255.746 49.75 255.746 48.49V41.11C255.746 37.42 253.316 36.19 250.016 36.19C245.906 36.19 243.926 38.44 243.836 41.44H246.176C246.266 39.1 247.526 38.02 250.046 38.02C252.266 38.02 253.526 39.01 253.526 40.75C253.526 42.43 251.996 42.64 249.806 42.97C245.936 43.57 243.056 44.32 243.056 47.98C243.056 50.92 245.366 52.3 248.306 52.3C250.946 52.3 252.536 51.04 253.466 49.84H253.496C253.736 51.43 254.576 52.15 256.166 52.15ZM248.846 50.44C247.256 50.44 245.636 49.99 245.636 47.92C245.636 45.64 247.586 45.22 250.016 44.77C251.336 44.53 252.746 44.14 253.556 43.63V46.27C253.556 48.07 252.086 50.44 248.846 50.44ZM261.709 36.49H259.279V52H261.709V42.46C261.709 39.91 263.509 38.17 265.969 38.17C268.159 38.17 269.479 39.31 269.479 41.32V52H271.909V41.11C271.909 37.9 269.929 36.13 266.689 36.13C264.439 36.13 262.879 37.06 261.769 38.53H261.709V36.49Z" fill="black"/>
                  </svg> 