<svg width="222" height="12" viewBox="0 0 222 12" fill="none" xmlns="http://www.w3.org/2000/svg">
                    <path d="M0.570156 9H2.28616V4.572C2.28616 3.972 2.23816 3.072 2.23816 3.072H2.26216C2.26216 3.072 2.59816 3.804 2.87416 4.26L5.80216 9H7.48216V0.42H5.76616V4.92C5.76616 5.52 5.81416 6.408 5.81416 6.408H5.79016C5.79016 6.408 5.46616 5.676 5.19016 5.208L2.33416 0.42H0.570156V9ZM11.5567 9.18C13.1407 9.18 14.1127 8.256 14.3407 7.164H12.7327C12.5527 7.632 12.1807 7.92 11.5447 7.92C10.6207 7.92 10.0927 7.332 9.97272 6.384H14.4367C14.4367 4.188 13.3807 2.676 11.4007 2.676C9.60072 2.676 8.36472 4.092 8.36472 5.916C8.36472 7.752 9.51672 9.18 11.5567 9.18ZM11.4247 3.936C12.1687 3.936 12.6847 4.476 12.7327 5.256H9.99672C10.1407 4.452 10.5607 3.936 11.4247 3.936ZM20.6521 9V2.844H19.0201V6.396C19.0201 7.212 18.5521 7.788 17.7841 7.788C17.0881 7.788 16.7641 7.392 16.7641 6.672V2.844H15.1441V6.948C15.1441 8.292 15.9121 9.168 17.2801 9.168C18.1441 9.168 18.6241 8.844 19.0441 8.28H19.0801V9H20.6521ZM24.5997 9.18C26.1837 9.18 27.1557 8.256 27.3837 7.164H25.7757C25.5957 7.632 25.2237 7.92 24.5877 7.92C23.6637 7.92 23.1357 7.332 23.0157 6.384H27.4797C27.4797 4.188 26.4237 2.676 24.4437 2.676C22.6437 2.676 21.4077 4.092 21.4077 5.916C21.4077 7.752 22.5597 9.18 24.5997 9.18ZM24.4677 3.936C25.2117 3.936 25.7277 4.476 25.7757 5.256H23.0397C23.1837 4.452 23.6037 3.936 24.4677 3.936ZM30.3827 9H32.1227V5.22H35.4947V9H37.2347V0.42H35.4947V3.78H32.1227V0.42H30.3827V9ZM42.2946 9H43.8666V8.94C43.7226 8.832 43.6506 8.556 43.6506 8.088V4.956C43.6506 3.516 42.9066 2.688 41.0586 2.688C39.2586 2.688 38.4546 3.636 38.4066 4.716H39.8586C39.9066 4.128 40.2786 3.852 41.0466 3.852C41.7306 3.852 42.0786 4.14 42.0786 4.584C42.0786 5.052 41.6106 5.136 40.5906 5.28C39.2226 5.472 38.1186 5.904 38.1186 7.26C38.1186 8.484 39.0066 9.144 40.2666 9.144C41.3226 9.144 41.7666 8.784 42.0786 8.316H42.1026C42.1386 8.592 42.1986 8.88 42.2946 9ZM40.6626 8.004C40.0866 8.004 39.7026 7.8 39.7026 7.224C39.7026 6.648 40.1226 6.456 40.9746 6.264C41.3826 6.168 41.8266 6.072 42.1146 5.904V6.828C42.1146 7.428 41.5986 8.004 40.6626 8.004ZM48.5642 9H50.1362V8.94C49.9922 8.832 49.9202 8.556 49.9202 8.088V4.956C49.9202 3.516 49.1762 2.688 47.3282 2.688C45.5282 2.688 44.7242 3.636 44.6762 4.716H46.1282C46.1762 4.128 46.5482 3.852 47.3162 3.852C48.0002 3.852 48.3482 4.14 48.3482 4.584C48.3482 5.052 47.8802 5.136 46.8602 5.28C45.4922 5.472 44.3882 5.904 44.3882 7.26C44.3882 8.484 45.2762 9.144 46.5362 9.144C47.5922 9.144 48.0362 8.784 48.3482 8.316H48.3722C48.4082 8.592 48.4682 8.88 48.5642 9ZM46.9322 8.004C46.3562 8.004 45.9722 7.8 45.9722 7.224C45.9722 6.648 46.3922 6.456 47.2442 6.264C47.6522 6.168 48.0962 6.072 48.3842 5.904V6.828C48.3842 7.428 47.8682 8.004 46.9322 8.004ZM53.4537 9.18C54.9897 9.18 56.0457 8.436 56.0457 7.2C56.0457 5.76 54.9057 5.472 53.8737 5.256C52.9977 5.076 52.1817 5.028 52.1817 4.5C52.1817 4.056 52.6017 3.816 53.2377 3.816C53.9337 3.816 54.3537 4.056 54.4257 4.716H55.9017C55.7817 3.48 54.8817 2.676 53.2617 2.676C51.8577 2.676 50.7537 3.312 50.7537 4.644C50.7537 5.988 51.8337 6.288 52.9377 6.504C53.7777 6.672 54.5577 6.732 54.5577 7.32C54.5577 7.752 54.1497 8.028 53.4297 8.028C52.6977 8.028 52.1937 7.716 52.0857 7.008H50.5737C50.6697 8.316 51.6657 9.18 53.4537 9.18ZM65.2175 9H66.5255V4.44H62.9135V5.784H64.9775V5.832C64.9775 6.78 64.1015 7.776 62.7695 7.776C61.2935 7.776 60.3695 6.492 60.3695 4.74C60.3695 3.036 61.1735 1.692 62.7935 1.692C63.8975 1.692 64.5335 2.292 64.7255 3.12H66.4295C66.1535 1.44 64.9175 0.252 62.7575 0.252C61.6055 0.252 60.6935 0.599999 59.9975 1.236C59.0975 2.064 58.5935 3.312 58.5935 4.74C58.5935 6.036 59.0015 7.14 59.7095 7.932C60.4175 8.712 61.4255 9.18 62.7215 9.18C63.7415 9.18 64.5455 8.832 65.1335 7.848H65.1575L65.2175 9ZM69.182 2.844H67.61V9H69.242V6C69.242 4.704 70.01 4.14 71.078 4.248H71.114V2.82C71.018 2.784 70.91 2.772 70.73 2.772C70.01 2.772 69.59 3.132 69.218 3.828H69.182V2.844ZM74.5573 9.18C76.4653 9.18 77.7733 7.764 77.7733 5.928C77.7733 4.092 76.4653 2.676 74.5573 2.676C72.6493 2.676 71.3413 4.092 71.3413 5.928C71.3413 7.764 72.6493 9.18 74.5573 9.18ZM74.5573 7.932C73.5493 7.932 72.9973 7.128 72.9973 5.928C72.9973 4.728 73.5493 3.912 74.5573 3.912C75.5533 3.912 76.1173 4.728 76.1173 5.928C76.1173 7.128 75.5533 7.932 74.5573 7.932ZM78.0547 3.924H78.9067V7.536C78.9067 8.7 79.7827 9.012 80.5747 9.012C81.2227 9.012 81.5947 8.988 81.5947 8.988V7.788C81.5947 7.788 81.3187 7.8 81.1147 7.8C80.7547 7.8 80.5027 7.644 80.5027 7.188V3.924H81.5587V2.844H80.5027V0.924H78.9067V2.844H78.0547V3.924ZM85.2325 9.18C86.8165 9.18 87.7885 8.256 88.0165 7.164H86.4085C86.2285 7.632 85.8565 7.92 85.2205 7.92C84.2965 7.92 83.7685 7.332 83.6485 6.384H88.1125C88.1125 4.188 87.0565 2.676 85.0765 2.676C83.2765 2.676 82.0405 4.092 82.0405 5.916C82.0405 7.752 83.1925 9.18 85.2325 9.18ZM85.1005 3.936C85.8445 3.936 86.3605 4.476 86.4085 5.256H83.6725C83.8165 4.452 84.2365 3.936 85.1005 3.936ZM91.3638 9.18C92.8998 9.18 93.9558 8.436 93.9558 7.2C93.9558 5.76 92.8158 5.472 91.7838 5.256C90.9078 5.076 90.0918 5.028 90.0918 4.5C90.0918 4.056 90.5118 3.816 91.1478 3.816C91.8438 3.816 92.2638 4.056 92.3358 4.716H93.8118C93.6918 3.48 92.7918 2.676 91.1718 2.676C89.7678 2.676 88.6638 3.312 88.6638 4.644C88.6638 5.988 89.7438 6.288 90.8478 6.504C91.6878 6.672 92.4678 6.732 92.4678 7.32C92.4678 7.752 92.0598 8.028 91.3398 8.028C90.6078 8.028 90.1038 7.716 89.9958 7.008H88.4838C88.5798 8.316 89.5758 9.18 91.3638 9.18ZM98.7481 9H100.728L98.1841 5.184L100.452 2.844H98.4961L96.3121 5.172V0.42H94.6921V9H96.3121V6.924L97.0201 6.192L98.7481 9ZM103.39 9H106.594C107.674 9 108.502 8.7 109.138 8.172C110.038 7.416 110.506 6.192 110.506 4.8C110.506 2.268 109.03 0.42 106.738 0.42H103.39V9ZM105.13 7.5V1.908H106.522C107.998 1.908 108.742 3.096 108.742 4.8C108.742 6.504 108.106 7.5 106.474 7.5H105.13ZM111.321 9H112.953V2.844H111.321V9ZM111.321 1.884H112.953V0.42H111.321V1.884ZM116.501 9.18C118.037 9.18 119.093 8.436 119.093 7.2C119.093 5.76 117.953 5.472 116.921 5.256C116.045 5.076 115.229 5.028 115.229 4.5C115.229 4.056 115.649 3.816 116.285 3.816C116.981 3.816 117.401 4.056 117.473 4.716H118.949C118.829 3.48 117.929 2.676 116.309 2.676C114.905 2.676 113.801 3.312 113.801 4.644C113.801 5.988 114.881 6.288 115.985 6.504C116.825 6.672 117.605 6.732 117.605 7.32C117.605 7.752 117.197 8.028 116.477 8.028C115.745 8.028 115.241 7.716 115.133 7.008H113.621C113.717 8.316 114.713 9.18 116.501 9.18ZM119.829 11.016H121.461V8.304H121.485C121.833 8.832 122.397 9.18 123.261 9.18C124.845 9.18 125.925 7.92 125.925 5.928C125.925 4.008 124.881 2.676 123.249 2.676C122.409 2.676 121.833 3.072 121.437 3.612H121.401V2.844H119.829V11.016ZM122.913 7.824C121.941 7.824 121.425 7.092 121.425 5.976C121.425 4.872 121.833 3.996 122.853 3.996C123.861 3.996 124.269 4.812 124.269 5.976C124.269 7.14 123.741 7.824 122.913 7.824ZM126.708 9H128.34V0.42H126.708V9ZM133.291 9H134.863V8.94C134.719 8.832 134.647 8.556 134.647 8.088V4.956C134.647 3.516 133.903 2.688 132.055 2.688C130.255 2.688 129.451 3.636 129.403 4.716H130.855C130.903 4.128 131.275 3.852 132.043 3.852C132.727 3.852 133.075 4.14 133.075 4.584C133.075 5.052 132.607 5.136 131.587 5.28C130.219 5.472 129.115 5.904 129.115 7.26C129.115 8.484 130.003 9.144 131.263 9.144C132.319 9.144 132.763 8.784 133.075 8.316H133.099C133.135 8.592 133.195 8.88 133.291 9ZM131.659 8.004C131.083 8.004 130.699 7.8 130.699 7.224C130.699 6.648 131.119 6.456 131.971 6.264C132.379 6.168 132.823 6.072 133.111 5.904V6.828C133.111 7.428 132.595 8.004 131.659 8.004ZM135.758 11.016H136.718C137.966 11.016 138.422 10.524 138.89 9.156L141.038 2.844H139.394L138.53 5.616C138.338 6.18 138.17 6.96 138.17 6.96H138.146C138.146 6.96 137.942 6.18 137.75 5.616L136.838 2.844H135.122L136.778 7.224C137.126 8.16 137.246 8.556 137.246 8.892C137.246 9.396 136.982 9.732 136.334 9.732H135.758V11.016ZM143.738 9H145.538V5.892H147.65C149.45 5.892 150.518 4.8 150.518 3.18C150.518 2.388 150.23 1.716 149.75 1.224C149.246 0.707999 148.502 0.42 147.506 0.42H143.738V9ZM145.538 1.932H147.362C148.226 1.932 148.73 2.388 148.73 3.192C148.73 3.972 148.25 4.476 147.338 4.476H145.538V1.932ZM152.819 2.844H151.247V9H152.879V6C152.879 4.704 153.647 4.14 154.715 4.248H154.751V2.82C154.655 2.784 154.547 2.772 154.367 2.772C153.647 2.772 153.227 3.132 152.855 3.828H152.819V2.844ZM158.194 9.18C160.102 9.18 161.41 7.764 161.41 5.928C161.41 4.092 160.102 2.676 158.194 2.676C156.286 2.676 154.978 4.092 154.978 5.928C154.978 7.764 156.286 9.18 158.194 9.18ZM158.194 7.932C157.186 7.932 156.634 7.128 156.634 5.928C156.634 4.728 157.186 3.912 158.194 3.912C159.19 3.912 159.754 4.728 159.754 5.928C159.754 7.128 159.19 7.932 158.194 7.932ZM167.436 9.18C169.152 9.18 170.496 7.992 170.496 6.3C170.496 4.548 169.164 3.36 167.64 3.36C166.68 3.36 166.14 3.708 165.708 4.212H165.684C165.684 2.76 166.26 1.86 167.46 1.86C168.18 1.86 168.54 2.232 168.66 2.736H170.232C170.028 1.512 169.044 0.611999 167.4 0.611999C166.284 0.611999 165.564 0.96 165.036 1.56C164.304 2.388 164.016 3.564 164.028 5.016C164.052 7.248 165.084 9.18 167.436 9.18ZM167.376 7.896C166.452 7.896 165.792 7.236 165.792 6.312C165.792 5.364 166.38 4.68 167.388 4.68C168.276 4.68 168.936 5.388 168.936 6.324C168.936 7.212 168.264 7.896 167.376 7.896ZM174.249 9.18C176.049 9.18 177.429 7.98 177.429 6.264C177.429 4.488 176.097 3.396 174.645 3.396C173.889 3.396 173.301 3.6 172.941 3.912H172.917L173.229 2.136H176.937V0.779999H172.089L171.297 5.268H172.869C173.109 4.992 173.589 4.752 174.213 4.752C175.077 4.752 175.737 5.292 175.737 6.264C175.737 7.14 175.149 7.812 174.213 7.812C173.361 7.812 172.689 7.428 172.545 6.624H170.937C171.093 8.22 172.425 9.18 174.249 9.18ZM180.394 9H181.99V4.08C181.99 3.384 181.918 2.304 181.918 2.304H181.942C181.942 2.304 182.134 3.312 182.314 3.936L183.754 9H185.422L186.898 3.936C187.078 3.312 187.27 2.304 187.27 2.304H187.294C187.294 2.304 187.222 3.384 187.222 4.08V9H188.842V0.42H186.358L185.146 4.728C184.846 5.808 184.618 7.044 184.618 7.044H184.594C184.594 7.044 184.354 5.808 184.054 4.728L182.842 0.42H180.394V9ZM192.928 9.18C194.512 9.18 195.484 8.256 195.712 7.164H194.104C193.924 7.632 193.552 7.92 192.916 7.92C191.992 7.92 191.464 7.332 191.344 6.384H195.808C195.808 4.188 194.752 2.676 192.772 2.676C190.972 2.676 189.736 4.092 189.736 5.916C189.736 7.752 190.888 9.18 192.928 9.18ZM192.796 3.936C193.54 3.936 194.056 4.476 194.104 5.256H191.368C191.512 4.452 191.932 3.936 192.796 3.936ZM198.867 9.18C199.731 9.18 200.343 8.784 200.703 8.196H200.727V9H202.299V0.42H200.667V3.588H200.631C200.295 3.072 199.755 2.676 198.891 2.676C197.355 2.676 196.263 4.008 196.263 5.928C196.263 7.92 197.319 9.18 198.867 9.18ZM199.227 7.812C198.387 7.812 197.919 7.116 197.919 5.928C197.919 4.788 198.375 3.996 199.275 3.996C200.319 3.996 200.703 4.788 200.703 5.964C200.703 7.092 200.199 7.812 199.227 7.812ZM203.36 9H204.992V2.844H203.36V9ZM203.36 1.884H204.992V0.42H203.36V1.884ZM211.504 9V2.844H209.872V6.396C209.872 7.212 209.404 7.788 208.636 7.788C207.94 7.788 207.616 7.392 207.616 6.672V2.844H205.996V6.948C205.996 8.292 206.764 9.168 208.132 9.168C208.996 9.168 209.476 8.844 209.896 8.28H209.932V9H211.504ZM212.559 9H214.191V5.424C214.191 4.608 214.635 4.08 215.295 4.08C215.895 4.08 216.243 4.44 216.243 5.136V9H217.875V5.424C217.875 4.608 218.295 4.08 218.979 4.08C219.579 4.08 219.927 4.44 219.927 5.136V9H221.559V4.86C221.559 3.516 220.827 2.676 219.531 2.676C218.751 2.676 218.103 3.084 217.683 3.756H217.659C217.359 3.108 216.735 2.676 215.955 2.676C215.103 2.676 214.503 3.108 214.167 3.672H214.131V2.844H212.559V9Z" fill="black"/>
                  </svg> 