<svg width="296" height="15" viewBox="0 0 296 15" fill="none" xmlns="http://www.w3.org/2000/svg">
                    <path d="M0.88 12H3.168V6.096C3.168 5.296 3.104 4.096 3.104 4.096H3.136C3.136 4.096 3.584 5.072 3.952 5.68L7.856 12H10.096V0.559999H7.808V6.56C7.808 7.36 7.872 8.544 7.872 8.544H7.84C7.84 8.544 7.408 7.568 7.04 6.944L3.232 0.559999H0.88V12ZM15.5288 12.24C17.6408 12.24 18.9368 11.008 19.2408 9.552H17.0968C16.8568 10.176 16.3608 10.56 15.5128 10.56C14.2808 10.56 13.5768 9.776 13.4168 8.512H19.3688C19.3688 5.584 17.9608 3.568 15.3208 3.568C12.9208 3.568 11.2728 5.456 11.2728 7.888C11.2728 10.336 12.8088 12.24 15.5288 12.24ZM15.3528 5.248C16.3448 5.248 17.0328 5.968 17.0968 7.008H13.4488C13.6408 5.936 14.2008 5.248 15.3528 5.248ZM27.6559 12V3.792H25.4799V8.528C25.4799 9.616 24.8559 10.384 23.8319 10.384C22.9039 10.384 22.4719 9.856 22.4719 8.896V3.792H20.3119V9.264C20.3119 11.056 21.3359 12.224 23.1599 12.224C24.3119 12.224 24.9519 11.792 25.5119 11.04H25.5599V12H27.6559ZM32.9194 12.24C35.0314 12.24 36.3274 11.008 36.6314 9.552H34.4874C34.2474 10.176 33.7514 10.56 32.9034 10.56C31.6714 10.56 30.9674 9.776 30.8074 8.512H36.7594C36.7594 5.584 35.3514 3.568 32.7114 3.568C30.3114 3.568 28.6634 5.456 28.6634 7.888C28.6634 10.336 30.1994 12.24 32.9194 12.24ZM32.7434 5.248C33.7354 5.248 34.4234 5.968 34.4874 7.008H30.8394C31.0314 5.936 31.5914 5.248 32.7434 5.248ZM40.63 12H42.95V6.96H47.446V12H49.766V0.559999H47.446V5.04H42.95V0.559999H40.63V12ZM56.5126 12H58.6086V11.92C58.4166 11.776 58.3206 11.408 58.3206 10.784V6.608C58.3206 4.688 57.3286 3.584 54.8646 3.584C52.4646 3.584 51.3926 4.848 51.3286 6.288H53.2646C53.3286 5.504 53.8246 5.136 54.8486 5.136C55.7606 5.136 56.2246 5.52 56.2246 6.112C56.2246 6.736 55.6006 6.848 54.2406 7.04C52.4166 7.296 50.9446 7.872 50.9446 9.68C50.9446 11.312 52.1286 12.192 53.8086 12.192C55.2166 12.192 55.8086 11.712 56.2246 11.088H56.2566C56.3046 11.456 56.3846 11.84 56.5126 12ZM54.3366 10.672C53.5686 10.672 53.0566 10.4 53.0566 9.632C53.0566 8.864 53.6166 8.608 54.7526 8.352C55.2966 8.224 55.8886 8.096 56.2726 7.872V9.104C56.2726 9.904 55.5846 10.672 54.3366 10.672ZM64.872 12H66.968V11.92C66.776 11.776 66.68 11.408 66.68 10.784V6.608C66.68 4.688 65.688 3.584 63.224 3.584C60.824 3.584 59.752 4.848 59.688 6.288H61.624C61.688 5.504 62.184 5.136 63.208 5.136C64.12 5.136 64.584 5.52 64.584 6.112C64.584 6.736 63.96 6.848 62.6 7.04C60.776 7.296 59.304 7.872 59.304 9.68C59.304 11.312 60.488 12.192 62.168 12.192C63.576 12.192 64.168 11.712 64.584 11.088H64.616C64.664 11.456 64.744 11.84 64.872 12ZM62.696 10.672C61.928 10.672 61.416 10.4 61.416 9.632C61.416 8.864 61.976 8.608 63.112 8.352C63.656 8.224 64.248 8.096 64.632 7.872V9.104C64.632 9.904 63.944 10.672 62.696 10.672ZM71.3914 12.24C73.4394 12.24 74.8474 11.248 74.8474 9.6C74.8474 7.68 73.3274 7.296 71.9514 7.008C70.7834 6.768 69.6954 6.704 69.6954 6C69.6954 5.408 70.2554 5.088 71.1034 5.088C72.0314 5.088 72.5914 5.408 72.6874 6.288H74.6554C74.4954 4.64 73.2954 3.568 71.1354 3.568C69.2634 3.568 67.7914 4.416 67.7914 6.192C67.7914 7.984 69.2314 8.384 70.7034 8.672C71.8234 8.896 72.8634 8.976 72.8634 9.76C72.8634 10.336 72.3194 10.704 71.3594 10.704C70.3834 10.704 69.7114 10.288 69.5674 9.344H67.5514C67.6794 11.088 69.0074 12.24 71.3914 12.24ZM87.0765 12H88.8205V5.92H84.0045V7.712H86.7565V7.776C86.7565 9.04 85.5885 10.368 83.8125 10.368C81.8445 10.368 80.6125 8.656 80.6125 6.32C80.6125 4.048 81.6845 2.256 83.8445 2.256C85.3165 2.256 86.1645 3.056 86.4205 4.16H88.6925C88.3245 1.92 86.6765 0.335999 83.7965 0.335999C82.2605 0.335999 81.0445 0.799999 80.1165 1.648C78.9165 2.752 78.2445 4.416 78.2445 6.32C78.2445 8.048 78.7885 9.52 79.7325 10.576C80.6765 11.616 82.0205 12.24 83.7485 12.24C85.1085 12.24 86.1805 11.776 86.9645 10.464H86.9965L87.0765 12ZM92.3625 3.792H90.2665V12H92.4425V8C92.4425 6.272 93.4665 5.52 94.8905 5.664H94.9385V3.76C94.8105 3.712 94.6665 3.696 94.4265 3.696C93.4665 3.696 92.9065 4.176 92.4105 5.104H92.3625V3.792ZM99.5295 12.24C102.074 12.24 103.818 10.352 103.818 7.904C103.818 5.456 102.074 3.568 99.5295 3.568C96.9855 3.568 95.2415 5.456 95.2415 7.904C95.2415 10.352 96.9855 12.24 99.5295 12.24ZM99.5295 10.576C98.1855 10.576 97.4495 9.504 97.4495 7.904C97.4495 6.304 98.1855 5.216 99.5295 5.216C100.858 5.216 101.61 6.304 101.61 7.904C101.61 9.504 100.858 10.576 99.5295 10.576ZM104.193 5.232H105.329V10.048C105.329 11.6 106.497 12.016 107.553 12.016C108.417 12.016 108.913 11.984 108.913 11.984V10.384C108.913 10.384 108.545 10.4 108.273 10.4C107.793 10.4 107.457 10.192 107.457 9.584V5.232H108.865V3.792H107.457V1.232H105.329V3.792H104.193V5.232ZM113.763 12.24C115.875 12.24 117.171 11.008 117.475 9.552H115.331C115.091 10.176 114.595 10.56 113.747 10.56C112.515 10.56 111.811 9.776 111.651 8.512H117.603C117.603 5.584 116.195 3.568 113.555 3.568C111.155 3.568 109.507 5.456 109.507 7.888C109.507 10.336 111.043 12.24 113.763 12.24ZM113.587 5.248C114.579 5.248 115.267 5.968 115.331 7.008H111.683C111.875 5.936 112.435 5.248 113.587 5.248ZM121.938 12.24C123.986 12.24 125.394 11.248 125.394 9.6C125.394 7.68 123.874 7.296 122.498 7.008C121.33 6.768 120.242 6.704 120.242 6C120.242 5.408 120.802 5.088 121.65 5.088C122.578 5.088 123.138 5.408 123.234 6.288H125.202C125.042 4.64 123.842 3.568 121.682 3.568C119.81 3.568 118.338 4.416 118.338 6.192C118.338 7.984 119.778 8.384 121.25 8.672C122.37 8.896 123.41 8.976 123.41 9.76C123.41 10.336 122.866 10.704 121.906 10.704C120.93 10.704 120.258 10.288 120.114 9.344H118.098C118.226 11.088 119.554 12.24 121.938 12.24ZM131.784 12H134.424L131.032 6.912L134.056 3.792H131.448L128.536 6.896V0.559999H126.376V12H128.536V9.232L129.48 8.256L131.784 12ZM137.974 12H142.246C143.686 12 144.79 11.6 145.638 10.896C146.838 9.888 147.462 8.256 147.462 6.4C147.462 3.024 145.494 0.559999 142.438 0.559999H137.974V12ZM140.294 10V2.544H142.15C144.118 2.544 145.11 4.128 145.11 6.4C145.11 8.672 144.262 10 142.086 10H140.294ZM148.548 12H150.724V3.792H148.548V12ZM148.548 2.512H150.724V0.559999H148.548V2.512ZM155.454 12.24C157.502 12.24 158.91 11.248 158.91 9.6C158.91 7.68 157.39 7.296 156.014 7.008C154.846 6.768 153.758 6.704 153.758 6C153.758 5.408 154.318 5.088 155.166 5.088C156.094 5.088 156.654 5.408 156.75 6.288H158.718C158.558 4.64 157.358 3.568 155.198 3.568C153.326 3.568 151.854 4.416 151.854 6.192C151.854 7.984 153.294 8.384 154.766 8.672C155.886 8.896 156.926 8.976 156.926 9.76C156.926 10.336 156.382 10.704 155.422 10.704C154.446 10.704 153.774 10.288 153.63 9.344H151.614C151.742 11.088 153.07 12.24 155.454 12.24ZM159.892 14.688H162.068V11.072H162.1C162.564 11.776 163.316 12.24 164.468 12.24C166.58 12.24 168.02 10.56 168.02 7.904C168.02 5.344 166.628 3.568 164.452 3.568C163.332 3.568 162.564 4.096 162.036 4.816H161.988V3.792H159.892V14.688ZM164.004 10.432C162.708 10.432 162.02 9.456 162.02 7.968C162.02 6.496 162.564 5.328 163.924 5.328C165.268 5.328 165.812 6.416 165.812 7.968C165.812 9.52 165.108 10.432 164.004 10.432ZM169.064 12H171.24V0.559999H169.064V12ZM177.841 12H179.937V11.92C179.745 11.776 179.649 11.408 179.649 10.784V6.608C179.649 4.688 178.657 3.584 176.193 3.584C173.793 3.584 172.721 4.848 172.657 6.288H174.593C174.657 5.504 175.153 5.136 176.177 5.136C177.089 5.136 177.553 5.52 177.553 6.112C177.553 6.736 176.929 6.848 175.569 7.04C173.745 7.296 172.273 7.872 172.273 9.68C172.273 11.312 173.457 12.192 175.137 12.192C176.545 12.192 177.137 11.712 177.553 11.088H177.585C177.633 11.456 177.713 11.84 177.841 12ZM175.665 10.672C174.897 10.672 174.385 10.4 174.385 9.632C174.385 8.864 174.945 8.608 176.081 8.352C176.625 8.224 177.217 8.096 177.601 7.872V9.104C177.601 9.904 176.913 10.672 175.665 10.672ZM181.13 14.688H182.41C184.074 14.688 184.682 14.032 185.306 12.208L188.17 3.792H185.978L184.826 7.488C184.57 8.24 184.346 9.28 184.346 9.28H184.314C184.314 9.28 184.042 8.24 183.786 7.488L182.57 3.792H180.282L182.49 9.632C182.954 10.88 183.114 11.408 183.114 11.856C183.114 12.528 182.762 12.976 181.898 12.976H181.13V14.688ZM191.771 12H194.171V7.856H196.987C199.387 7.856 200.811 6.4 200.811 4.24C200.811 3.184 200.427 2.288 199.787 1.632C199.115 0.943999 198.123 0.559999 196.795 0.559999H191.771V12ZM194.171 2.576H196.603C197.755 2.576 198.427 3.184 198.427 4.256C198.427 5.296 197.787 5.968 196.571 5.968H194.171V2.576ZM203.878 3.792H201.782V12H203.958V8C203.958 6.272 204.982 5.52 206.406 5.664H206.454V3.76C206.326 3.712 206.182 3.696 205.942 3.696C204.982 3.696 204.422 4.176 203.926 5.104H203.878V3.792ZM211.045 12.24C213.589 12.24 215.333 10.352 215.333 7.904C215.333 5.456 213.589 3.568 211.045 3.568C208.501 3.568 206.757 5.456 206.757 7.904C206.757 10.352 208.501 12.24 211.045 12.24ZM211.045 10.576C209.701 10.576 208.965 9.504 208.965 7.904C208.965 6.304 209.701 5.216 211.045 5.216C212.373 5.216 213.125 6.304 213.125 7.904C213.125 9.504 212.373 10.576 211.045 10.576ZM223.368 12.24C225.656 12.24 227.448 10.656 227.448 8.4C227.448 6.064 225.672 4.48 223.64 4.48C222.36 4.48 221.64 4.944 221.064 5.616H221.032C221.032 3.68 221.8 2.48 223.4 2.48C224.36 2.48 224.84 2.976 225 3.648H227.096C226.824 2.016 225.512 0.815999 223.32 0.815999C221.832 0.815999 220.872 1.28 220.168 2.08C219.192 3.184 218.808 4.752 218.824 6.688C218.856 9.664 220.232 12.24 223.368 12.24ZM223.288 10.528C222.056 10.528 221.176 9.648 221.176 8.416C221.176 7.152 221.96 6.24 223.304 6.24C224.488 6.24 225.368 7.184 225.368 8.432C225.368 9.616 224.472 10.528 223.288 10.528ZM232.452 12.24C234.852 12.24 236.692 10.64 236.692 8.352C236.692 5.984 234.916 4.528 232.98 4.528C231.972 4.528 231.188 4.8 230.708 5.216H230.676L231.092 2.848H236.036V1.04H229.572L228.516 7.024H230.612C230.932 6.656 231.572 6.336 232.404 6.336C233.556 6.336 234.436 7.056 234.436 8.352C234.436 9.52 233.652 10.416 232.404 10.416C231.268 10.416 230.372 9.904 230.18 8.832H228.036C228.244 10.96 230.02 12.24 232.452 12.24ZM240.646 12H242.774V5.44C242.774 4.512 242.678 3.072 242.678 3.072H242.71C242.71 3.072 242.966 4.416 243.206 5.248L245.126 12H247.35L249.318 5.248C249.558 4.416 249.814 3.072 249.814 3.072H249.846C249.846 3.072 249.75 4.512 249.75 5.44V12H251.91V0.559999H248.598L246.982 6.304C246.582 7.744 246.278 9.392 246.278 9.392H246.246C246.246 9.392 245.926 7.744 245.526 6.304L243.91 0.559999H240.646V12ZM257.357 12.24C259.469 12.24 260.765 11.008 261.069 9.552H258.925C258.685 10.176 258.189 10.56 257.341 10.56C256.109 10.56 255.405 9.776 255.245 8.512H261.197C261.197 5.584 259.789 3.568 257.149 3.568C254.749 3.568 253.101 5.456 253.101 7.888C253.101 10.336 254.637 12.24 257.357 12.24ZM257.181 5.248C258.173 5.248 258.861 5.968 258.925 7.008H255.277C255.469 5.936 256.029 5.248 257.181 5.248ZM265.276 12.24C266.428 12.24 267.244 11.712 267.724 10.928H267.756V12H269.852V0.559999H267.676V4.784H267.628C267.18 4.096 266.46 3.568 265.308 3.568C263.26 3.568 261.804 5.344 261.804 7.904C261.804 10.56 263.212 12.24 265.276 12.24ZM265.756 10.416C264.636 10.416 264.012 9.488 264.012 7.904C264.012 6.384 264.62 5.328 265.82 5.328C267.212 5.328 267.724 6.384 267.724 7.952C267.724 9.456 267.052 10.416 265.756 10.416ZM271.267 12H273.443V3.792H271.267V12ZM271.267 2.512H273.443V0.559999H271.267V2.512ZM282.125 12V3.792H279.949V8.528C279.949 9.616 279.325 10.384 278.301 10.384C277.373 10.384 276.941 9.856 276.941 8.896V3.792H274.781V9.264C274.781 11.056 275.805 12.224 277.629 12.224C278.781 12.224 279.421 11.792 279.981 11.04H280.029V12H282.125ZM283.532 12H285.708V7.232C285.708 6.144 286.3 5.44 287.18 5.44C287.98 5.44 288.444 5.92 288.444 6.848V12H290.62V7.232C290.62 6.144 291.18 5.44 292.092 5.44C292.892 5.44 293.356 5.92 293.356 6.848V12H295.532V6.48C295.532 4.688 294.556 3.568 292.828 3.568C291.788 3.568 290.924 4.112 290.364 5.008H290.332C289.932 4.144 289.1 3.568 288.06 3.568C286.924 3.568 286.124 4.144 285.676 4.896H285.628V3.792H283.532V12Z" fill="black"/>
                  </svg> 