<svg width="255" height="54" viewBox="0 0 255 54" fill="none" xmlns="http://www.w3.org/2000/svg">
                    <path d="M0.786156 21H3.13816V4.564H3.19416C3.19416 4.564 4.03416 6.076 4.67816 7.056L13.8622 21H16.4382V0.979999H14.0862V17.472H14.0302C14.0302 17.472 13.2462 15.932 12.5742 14.896L3.44616 0.979999H0.786156V21ZM26.0522 21.392C29.3282 21.392 31.5962 19.628 32.2682 16.52H30.0562C29.5522 18.48 28.1522 19.488 26.0522 19.488C23.1402 19.488 21.5442 17.248 21.3762 14.308H32.5762C32.5762 9.52 30.2522 6.16 25.9122 6.16C21.7962 6.16 19.0522 9.576 19.0522 13.776C19.0522 17.976 21.6282 21.392 26.0522 21.392ZM25.9122 7.952C28.5162 7.952 30.0002 9.716 30.1402 12.6H21.4322C21.7682 9.968 23.2242 7.952 25.9122 7.952ZM46.2739 21V6.524H44.0059V15.428C44.0059 17.724 42.5219 19.46 40.2259 19.46C38.1819 19.46 36.9779 18.368 36.9779 16.492V6.524H34.7099V16.548C34.7099 19.544 36.6139 21.336 39.5819 21.336C41.6819 21.336 42.9139 20.412 43.9499 19.012H44.0059V21H46.2739ZM55.5288 21.392C58.8048 21.392 61.0728 19.628 61.7448 16.52H59.5328C59.0288 18.48 57.6288 19.488 55.5288 19.488C52.6168 19.488 51.0208 17.248 50.8528 14.308H62.0528C62.0528 9.52 59.7288 6.16 55.3888 6.16C51.2728 6.16 48.5288 9.576 48.5288 13.776C48.5288 17.976 51.1048 21.392 55.5288 21.392ZM55.3888 7.952C57.9928 7.952 59.4768 9.716 59.6168 12.6H50.9088C51.2448 9.968 52.7008 7.952 55.3888 7.952ZM69.0635 21H71.5835V11.536H82.2795V21H84.7995V0.979999H82.2795V9.492H71.5835V0.979999H69.0635V21ZM99.5916 21.14C100.18 21.14 100.544 21.028 100.824 20.916V19.264H100.74C99.4796 19.544 99.1996 18.9 99.1996 17.724V10.836C99.1996 7.392 96.9316 6.244 93.8516 6.244C90.0156 6.244 88.1676 8.344 88.0836 11.144H90.2676C90.3516 8.96 91.5276 7.952 93.8796 7.952C95.9516 7.952 97.1276 8.876 97.1276 10.5C97.1276 12.068 95.6996 12.264 93.6556 12.572C90.0436 13.132 87.3556 13.832 87.3556 17.248C87.3556 19.992 89.5116 21.28 92.2556 21.28C94.7196 21.28 96.2036 20.104 97.0716 18.984H97.0996C97.3236 20.468 98.1076 21.14 99.5916 21.14ZM92.7596 19.544C91.2756 19.544 89.7636 19.124 89.7636 17.192C89.7636 15.064 91.5836 14.672 93.8516 14.252C95.0836 14.028 96.3996 13.664 97.1556 13.188V15.652C97.1556 17.332 95.7836 19.544 92.7596 19.544ZM113.865 21.14C114.453 21.14 114.817 21.028 115.097 20.916V19.264H115.013C113.753 19.544 113.473 18.9 113.473 17.724V10.836C113.473 7.392 111.205 6.244 108.125 6.244C104.289 6.244 102.441 8.344 102.357 11.144H104.541C104.625 8.96 105.801 7.952 108.153 7.952C110.225 7.952 111.401 8.876 111.401 10.5C111.401 12.068 109.973 12.264 107.929 12.572C104.317 13.132 101.629 13.832 101.629 17.248C101.629 19.992 103.785 21.28 106.529 21.28C108.993 21.28 110.477 20.104 111.345 18.984H111.373C111.597 20.468 112.381 21.14 113.865 21.14ZM107.033 19.544C105.549 19.544 104.037 19.124 104.037 17.192C104.037 15.064 105.857 14.672 108.125 14.252C109.357 14.028 110.673 13.664 111.429 13.188V15.652C111.429 17.332 110.057 19.544 107.033 19.544ZM122.258 21.42C125.59 21.42 127.97 19.936 127.97 17.024C127.97 13.692 125.534 13.048 122.622 12.46C120.13 11.956 118.73 11.648 118.73 10.08C118.73 8.932 119.57 8.008 121.642 8.008C123.798 8.008 124.834 8.848 125.058 10.752H127.382C127.046 7.924 125.282 6.216 121.698 6.216C118.338 6.216 116.49 7.784 116.49 10.192C116.49 13.356 119.038 13.944 121.894 14.532C124.554 15.092 125.674 15.512 125.674 17.136C125.674 18.48 124.694 19.516 122.314 19.516C120.158 19.516 118.478 18.816 118.17 16.296H115.846C116.07 19.544 118.282 21.42 122.258 21.42ZM150.615 21H152.239V10.416H143.699V12.6H149.719V13.076C149.719 16.436 147.787 19.236 143.671 19.236C139.611 19.236 136.755 15.96 136.755 11.06C136.755 6.356 138.939 2.744 143.755 2.744C146.919 2.744 148.795 4.34 149.355 7H151.959C151.315 3.08 148.459 0.559999 143.811 0.559999C137.511 0.559999 134.179 5.18 134.179 11.06C134.179 17.136 137.959 21.42 143.587 21.42C146.219 21.42 148.375 20.412 149.831 18.368H149.887L150.615 21ZM157.648 6.524H155.38V21H157.648V12.964C157.648 10.248 159.608 8.568 161.848 8.568C162.296 8.568 162.52 8.596 162.856 8.708H162.94V6.524C162.66 6.412 162.436 6.356 162.016 6.356C160.084 6.356 158.572 7.532 157.704 8.932H157.648V6.524ZM170.619 21.392C174.959 21.392 177.591 17.976 177.591 13.776C177.591 9.576 174.959 6.16 170.619 6.16C166.307 6.16 163.619 9.576 163.619 13.776C163.619 17.976 166.307 21.392 170.619 21.392ZM170.619 19.488C167.539 19.488 165.943 16.968 165.943 13.776C165.943 10.584 167.539 8.036 170.619 8.036C173.699 8.036 175.267 10.584 175.267 13.776C175.267 16.968 173.699 19.488 170.619 19.488ZM178.655 8.372H180.755V18.284C180.755 20.328 182.099 21.084 183.947 21.084C184.619 21.084 185.235 21 185.767 20.888V18.928H185.683C185.431 19.012 184.927 19.124 184.479 19.124C183.555 19.124 183.023 18.788 183.023 17.78V8.372H185.823V6.524H183.023V1.96H180.755V6.524H178.655V8.372ZM194.216 21.392C197.492 21.392 199.76 19.628 200.432 16.52H198.22C197.716 18.48 196.316 19.488 194.216 19.488C191.304 19.488 189.708 17.248 189.54 14.308H200.74C200.74 9.52 198.416 6.16 194.076 6.16C189.96 6.16 187.216 9.576 187.216 13.776C187.216 17.976 189.792 21.392 194.216 21.392ZM194.076 7.952C196.68 7.952 198.164 9.716 198.304 12.6H189.596C189.932 9.968 191.388 7.952 194.076 7.952ZM208.446 21.42C211.778 21.42 214.158 19.936 214.158 17.024C214.158 13.692 211.722 13.048 208.81 12.46C206.318 11.956 204.918 11.648 204.918 10.08C204.918 8.932 205.758 8.008 207.83 8.008C209.986 8.008 211.022 8.848 211.246 10.752H213.57C213.234 7.924 211.47 6.216 207.886 6.216C204.526 6.216 202.678 7.784 202.678 10.192C202.678 13.356 205.226 13.944 208.082 14.532C210.742 15.092 211.862 15.512 211.862 17.136C211.862 18.48 210.882 19.516 208.502 19.516C206.346 19.516 204.666 18.816 204.358 16.296H202.034C202.258 19.544 204.47 21.42 208.446 21.42ZM225.849 21H228.509L222.293 11.732L227.837 6.524H224.953L218.597 12.712V0.979999H216.329V21H218.597V15.204L220.725 13.188L225.849 21ZM0.786156 49H7.87016C13.8902 49 16.9422 45.052 16.9422 39.06C16.9422 33.068 14.0862 28.98 8.06616 28.98H0.786156V49ZM3.30616 46.788V31.164H7.98216C12.6862 31.164 14.3662 34.356 14.3662 39.06C14.3662 43.764 12.4902 46.788 7.78616 46.788H3.30616ZM19.5908 49H21.8588V34.524H19.5908V49ZM19.5908 31.78H21.8588V28.98H19.5908V31.78ZM30.4382 49.42C33.7702 49.42 36.1502 47.936 36.1502 45.024C36.1502 41.692 33.7142 41.048 30.8022 40.46C28.3102 39.956 26.9102 39.648 26.9102 38.08C26.9102 36.932 27.7502 36.008 29.8222 36.008C31.9782 36.008 33.0142 36.848 33.2382 38.752H35.5622C35.2262 35.924 33.4622 34.216 29.8782 34.216C26.5182 34.216 24.6702 35.784 24.6702 38.192C24.6702 41.356 27.2182 41.944 30.0742 42.532C32.7342 43.092 33.8542 43.512 33.8542 45.136C33.8542 46.48 32.8742 47.516 30.4942 47.516C28.3382 47.516 26.6582 46.816 26.3502 44.296H24.0262C24.2502 47.544 26.4622 49.42 30.4382 49.42ZM38.3213 53.648H40.5893V47.292H40.6453C41.8493 48.832 43.2493 49.42 45.2093 49.42C49.1293 49.42 51.5093 46.452 51.5093 41.804C51.5093 36.988 48.9613 34.188 45.2933 34.188C43.1933 34.188 41.7373 35.084 40.6453 36.568H40.5893V34.524H38.3213V53.648ZM45.0413 47.516C41.7093 47.516 40.4493 44.968 40.4493 41.832C40.4493 38.696 41.9053 36.12 45.0693 36.12C47.8133 36.12 49.1853 38.584 49.1853 41.832C49.1853 45.108 47.8133 47.516 45.0413 47.516ZM53.8545 49H56.1225V28.98H53.8545V49ZM70.6619 49.14C71.2499 49.14 71.6139 49.028 71.8939 48.916V47.264H71.8099C70.5499 47.544 70.2699 46.9 70.2699 45.724V38.836C70.2699 35.392 68.0019 34.244 64.9219 34.244C61.0859 34.244 59.2379 36.344 59.1539 39.144H61.3379C61.4219 36.96 62.5979 35.952 64.9499 35.952C67.0219 35.952 68.1979 36.876 68.1979 38.5C68.1979 40.068 66.7699 40.264 64.7259 40.572C61.1139 41.132 58.4259 41.832 58.4259 45.248C58.4259 47.992 60.5819 49.28 63.3259 49.28C65.7899 49.28 67.2739 48.104 68.1419 46.984H68.1699C68.3939 48.468 69.1779 49.14 70.6619 49.14ZM63.8299 47.544C62.3459 47.544 60.8339 47.124 60.8339 45.192C60.8339 43.064 62.6539 42.672 64.9219 42.252C66.1539 42.028 67.4699 41.664 68.2259 41.188V43.652C68.2259 45.332 66.8539 47.544 63.8299 47.544ZM75.1419 53.788C76.9059 53.788 78.0259 53.172 79.2019 50.176L85.3899 34.524H82.9819L79.6779 43.54C79.2299 44.744 78.7259 46.368 78.7259 46.368H78.6699C78.6699 46.368 78.1379 44.744 77.6899 43.54L74.2739 34.524H71.8099L77.4659 48.58L76.9059 50.008C76.3459 51.408 75.7019 51.772 74.7499 51.772C73.9939 51.772 73.5179 51.632 73.2099 51.464H73.0979V53.48C73.7139 53.732 74.2739 53.788 75.1419 53.788ZM91.7862 49H94.3062V40.6H99.7662C104.134 40.6 106.234 38.388 106.234 34.72C106.234 33.208 105.73 31.892 104.89 30.912C103.854 29.68 102.23 28.98 100.13 28.98H91.7862V49ZM94.3062 31.164H99.7102C102.258 31.164 103.742 32.424 103.742 34.832C103.742 37.128 102.398 38.556 99.5702 38.556H94.3062V31.164ZM110.589 34.524H108.321V49H110.589V40.964C110.589 38.248 112.549 36.568 114.789 36.568C115.237 36.568 115.461 36.596 115.797 36.708H115.881V34.524C115.601 34.412 115.377 34.356 114.957 34.356C113.025 34.356 111.513 35.532 110.645 36.932H110.589V34.524ZM123.56 49.392C127.9 49.392 130.532 45.976 130.532 41.776C130.532 37.576 127.9 34.16 123.56 34.16C119.248 34.16 116.56 37.576 116.56 41.776C116.56 45.976 119.248 49.392 123.56 49.392ZM123.56 47.488C120.48 47.488 118.884 44.968 118.884 41.776C118.884 38.584 120.48 36.036 123.56 36.036C126.64 36.036 128.208 38.584 128.208 41.776C128.208 44.968 126.64 47.488 123.56 47.488ZM143.411 49.42C147.387 49.42 150.299 46.844 150.299 42.756C150.299 38.5 147.191 36.064 143.775 36.064C141.927 36.064 140.471 36.652 139.379 37.688H139.323L140.583 31.92H149.151V29.82H138.931L136.803 40.124H139.071C139.883 38.976 141.311 38.136 143.383 38.136C145.903 38.136 147.891 39.816 147.891 42.7C147.891 45.5 146.127 47.348 143.383 47.348C140.667 47.348 138.987 45.836 138.679 43.456H136.355C136.523 47.012 139.435 49.42 143.411 49.42ZM158.888 49.42C162.864 49.42 165.776 46.844 165.776 42.756C165.776 38.5 162.668 36.064 159.252 36.064C157.404 36.064 155.948 36.652 154.856 37.688H154.8L156.06 31.92H164.628V29.82H154.408L152.28 40.124H154.548C155.36 38.976 156.788 38.136 158.86 38.136C161.38 38.136 163.368 39.816 163.368 42.7C163.368 45.5 161.604 47.348 158.86 47.348C156.144 47.348 154.464 45.836 154.156 43.456H151.832C152 47.012 154.912 49.42 158.888 49.42ZM172.997 49H175.517V40.544H181.089C183.777 40.544 184.953 41.58 185.149 44.52C185.373 47.88 185.457 48.636 185.877 49H188.593V48.888C188.229 48.636 187.893 47.824 187.669 44.604C187.473 41.636 186.829 40.236 184.785 39.508V39.424C187.193 38.64 188.257 36.904 188.257 34.468C188.257 31.192 185.877 28.98 182.349 28.98H172.997V49ZM175.517 31.164H181.593C184.533 31.164 185.653 32.396 185.653 34.832C185.653 37.1 184.253 38.5 181.453 38.5H175.517V31.164ZM197.033 49.392C201.373 49.392 204.005 45.976 204.005 41.776C204.005 37.576 201.373 34.16 197.033 34.16C192.721 34.16 190.033 37.576 190.033 41.776C190.033 45.976 192.721 49.392 197.033 49.392ZM197.033 47.488C193.953 47.488 192.357 44.968 192.357 41.776C192.357 38.584 193.953 36.036 197.033 36.036C200.113 36.036 201.681 38.584 201.681 41.776C201.681 44.968 200.113 47.488 197.033 47.488ZM206.267 49H208.535V39.984C208.535 37.716 210.495 36.092 212.259 36.092C213.743 36.092 214.751 37.156 214.751 38.948V49H217.019V39.984C217.019 37.716 218.699 36.092 220.575 36.092C222.031 36.092 223.235 37.156 223.235 38.948V49H225.503V38.836C225.503 35.84 223.683 34.188 221.107 34.188C219.343 34.188 217.607 35.112 216.683 36.764H216.627C216.011 35.084 214.611 34.188 212.847 34.188C211.027 34.188 209.487 35.196 208.591 36.596H208.535V34.524H206.267V49ZM239.865 49.14C240.453 49.14 240.817 49.028 241.097 48.916V47.264H241.013C239.753 47.544 239.473 46.9 239.473 45.724V38.836C239.473 35.392 237.205 34.244 234.125 34.244C230.289 34.244 228.441 36.344 228.357 39.144H230.541C230.625 36.96 231.801 35.952 234.153 35.952C236.225 35.952 237.401 36.876 237.401 38.5C237.401 40.068 235.973 40.264 233.929 40.572C230.317 41.132 227.629 41.832 227.629 45.248C227.629 47.992 229.785 49.28 232.529 49.28C234.993 49.28 236.477 48.104 237.345 46.984H237.373C237.597 48.468 238.381 49.14 239.865 49.14ZM233.033 47.544C231.549 47.544 230.037 47.124 230.037 45.192C230.037 43.064 231.857 42.672 234.125 42.252C235.357 42.028 236.673 41.664 237.429 41.188V43.652C237.429 45.332 236.057 47.544 233.033 47.544ZM245.038 34.524H242.77V49H245.038V40.096C245.038 37.716 246.718 36.092 249.014 36.092C251.058 36.092 252.29 37.156 252.29 39.032V49H254.558V38.836C254.558 35.84 252.71 34.188 249.686 34.188C247.586 34.188 246.13 35.056 245.094 36.428H245.038V34.524Z" fill="black"/>
                  </svg> 