<svg width="173" height="15" viewBox="0 0 173 15" fill="none" xmlns="http://www.w3.org/2000/svg">
                    <path d="M8.54216 7.888H2.23816V12H0.238156V1.2H8.65416C11.3262 1.2 12.6542 2.496 12.6542 4.56C12.6542 6.624 11.2942 7.888 8.54216 7.888ZM8.63816 2.992H2.23816V6.048H8.62216C9.85416 6.048 10.5582 5.488 10.5582 4.496C10.5582 3.536 9.87016 2.992 8.63816 2.992ZM20.3978 3.088V4.944C18.5898 4.944 16.4938 5.2 16.2538 7.04V12H14.2538V3.28H16.1258V4.784C16.8298 3.408 18.2538 3.088 20.3978 3.088ZM32.5028 7.744V8.144H23.3988C23.6388 9.92 25.2548 10.8 27.2548 10.8C28.9348 10.8 30.1028 10.256 30.4548 9.36H32.5508C32.1348 10.944 29.8788 12.192 27.2868 12.192C23.9908 12.192 21.5268 10.672 21.5268 7.648C21.5268 4.608 23.9908 3.088 27.2548 3.088C30.6148 3.088 32.5028 5.552 32.5028 7.744ZM23.4468 6.912H30.4868C30.3748 5.92 29.2068 4.496 27.2388 4.496C25.2868 4.496 23.7508 5.2 23.4468 6.912ZM44.7519 5.76L42.7839 5.84C42.4159 4.848 41.6639 4.448 39.9039 4.448C37.9359 4.448 36.6559 4.736 36.6559 5.696C36.6559 7.808 44.8479 5.568 44.8479 9.184C44.8479 11.072 43.5679 12.192 39.7919 12.192C37.6639 12.192 36.7519 12 35.9839 11.6C35.1999 11.168 34.4479 10.256 34.4479 9.2H36.4479C36.5599 10.288 37.8239 10.736 39.9199 10.736C41.7279 10.736 42.9119 10.32 42.9119 9.408C42.9119 8.144 39.6479 8.368 38.2399 8.208C36.8319 8.064 34.6719 7.888 34.6719 5.776C34.6719 3.888 36.5759 3.088 39.8879 3.088C43.1039 3.088 44.3839 4.032 44.7519 5.76ZM49.2575 3.28V12H47.2575V3.28H49.2575ZM49.3535 1.68C49.3535 2.16 48.8415 2.544 48.2655 2.544C47.6575 2.544 47.1935 2.16 47.1935 1.68C47.1935 1.2 47.6575 0.799999 48.2655 0.799999C48.8415 0.799999 49.3535 1.2 49.3535 1.68ZM62.3844 5.744L60.8004 6.496C60.3204 5.424 59.1044 4.592 57.5044 4.592C55.3764 4.592 53.6484 5.552 53.6484 7.632C53.6484 9.744 55.3764 10.688 57.4724 10.688C59.1844 10.688 60.5444 9.856 60.8484 8.688L62.4324 9.472C61.9524 10.944 60.2244 12.192 57.3604 12.192C54.2564 12.192 51.7924 10.672 51.7924 7.632C51.7924 4.608 54.2564 3.088 57.5204 3.088C59.8884 3.088 61.7444 4.32 62.3844 5.744ZM74.9998 7.184V9.952C74.9998 10.272 75.2078 10.592 75.6238 10.592C75.8158 10.592 76.0078 10.528 76.2318 10.4V11.776C75.9278 12.064 75.4478 12.192 75.0158 12.192C74.1998 12.192 73.5758 11.744 73.3038 11.136C72.4878 11.616 70.5518 12.192 68.4558 12.192C65.5758 12.192 64.1518 11.136 64.1518 9.136C64.1518 6.72 66.7598 6.16 69.2078 6.16C70.7758 6.16 72.5198 6.64 73.1598 6.976C73.1598 5.664 72.1358 4.624 69.0798 4.624C67.6078 4.624 65.9438 4.928 65.0158 5.392L64.4718 4.048C65.4638 3.392 67.3678 3.088 69.2238 3.088C73.1758 3.088 74.9998 4.416 74.9998 7.184ZM73.1278 10V8.304C72.7118 7.872 70.8398 7.552 69.3038 7.552C67.0798 7.552 66.0078 8.08 66.0078 9.152C66.0078 10.304 67.0318 10.784 68.8078 10.784C70.3278 10.784 72.5838 10.288 73.1278 10ZM88.194 3.28L83.33 12H81.298L76.37 3.28H78.498L82.402 10.064L86.242 3.28H88.194ZM102.99 7.872L106.622 12H103.838L100.462 7.888H96.2382V12H94.2382V1.2H102.654C105.326 1.2 106.654 2.496 106.654 4.56C106.654 6.544 105.246 7.696 102.99 7.872ZM102.638 2.992H96.2382V6.048H102.398C103.774 6.048 104.558 5.52 104.558 4.496C104.558 3.536 103.87 2.992 102.638 2.992ZM119.409 7.744V8.144H110.305C110.545 9.92 112.161 10.8 114.161 10.8C115.841 10.8 117.009 10.256 117.361 9.36H119.457C119.041 10.944 116.785 12.192 114.193 12.192C110.897 12.192 108.433 10.672 108.433 7.648C108.433 4.608 110.897 3.088 114.161 3.088C117.521 3.088 119.409 5.552 119.409 7.744ZM110.353 6.912H117.393C117.281 5.92 116.113 4.496 114.145 4.496C112.193 4.496 110.657 5.2 110.353 6.912ZM132.506 3.28V9.696C132.506 13.136 130.474 14.432 126.858 14.432C124.394 14.432 123.002 14.176 121.738 13.648L122.362 12.192C123.434 12.672 124.922 13.072 126.746 13.072C128.906 13.072 130.698 12.112 130.698 10.288C129.994 10.992 128.442 11.584 126.394 11.584C124.17 11.584 121.386 10.528 121.386 7.344C121.386 4.336 124.106 3.104 126.762 3.104C128.778 3.104 129.962 3.68 130.618 4.144V3.28H132.506ZM130.618 8.24V6.096C130.154 5.216 128.698 4.496 127.226 4.496C125.21 4.496 123.306 5.344 123.306 7.296C123.306 9.28 125.242 10.064 127.13 10.064C128.922 10.064 130.202 9.376 130.618 8.24ZM145.528 3.28V12H143.656V10.96C142.76 11.68 141.576 12.192 140.04 12.192C137.592 12.192 135 11.328 135 6.992V3.28H137V6.944C137 9.952 138.488 10.64 140.104 10.64C141.496 10.64 142.632 10.128 143.544 9.424V3.28H145.528ZM150.223 0.848V12H148.223V0.848H150.223ZM163.422 7.184V9.952C163.422 10.272 163.63 10.592 164.046 10.592C164.238 10.592 164.43 10.528 164.654 10.4V11.776C164.35 12.064 163.87 12.192 163.438 12.192C162.622 12.192 161.998 11.744 161.726 11.136C160.91 11.616 158.974 12.192 156.878 12.192C153.998 12.192 152.574 11.136 152.574 9.136C152.574 6.72 155.182 6.16 157.63 6.16C159.198 6.16 160.942 6.64 161.582 6.976C161.582 5.664 160.558 4.624 157.502 4.624C156.03 4.624 154.366 4.928 153.438 5.392L152.894 4.048C153.886 3.392 155.79 3.088 157.646 3.088C161.598 3.088 163.422 4.416 163.422 7.184ZM161.55 10V8.304C161.134 7.872 159.262 7.552 157.726 7.552C155.502 7.552 154.43 8.08 154.43 9.152C154.43 10.304 155.454 10.784 157.23 10.784C158.75 10.784 161.006 10.288 161.55 10ZM172.617 3.088V4.944C170.809 4.944 168.713 5.2 168.473 7.04V12H166.473V3.28H168.345V4.784C169.049 3.408 170.473 3.088 172.617 3.088Z" fill="black"/>
                  </svg> 