<svg width="195" height="16" viewBox="0 0 195 16" fill="none" xmlns="http://www.w3.org/2000/svg">
                    <path d="M9.836 8.374H2.744V13H0.494V0.85H9.962C12.968 0.85 14.462 2.308 14.462 4.63C14.462 6.952 12.932 8.374 9.836 8.374ZM9.944 2.866H2.744V6.304H9.926C11.312 6.304 12.104 5.674 12.104 4.558C12.104 3.478 11.33 2.866 9.944 2.866ZM23.1736 2.974V5.062C21.1396 5.062 18.7816 5.35 18.5116 7.42V13H16.2616V3.19H18.3676V4.882C19.1596 3.334 20.7616 2.974 23.1736 2.974ZM36.7917 8.212V8.662H26.5497C26.8197 10.66 28.6377 11.65 30.8877 11.65C32.7777 11.65 34.0917 11.038 34.4877 10.03H36.8457C36.3777 11.812 33.8397 13.216 30.9237 13.216C27.2157 13.216 24.4437 11.506 24.4437 8.104C24.4437 4.684 27.2157 2.974 30.8877 2.974C34.6677 2.974 36.7917 5.746 36.7917 8.212ZM26.6037 7.276H34.5237C34.3977 6.16 33.0837 4.558 30.8697 4.558C28.6737 4.558 26.9457 5.35 26.6037 7.276ZM50.572 5.98L48.358 6.07C47.944 4.954 47.098 4.504 45.118 4.504C42.904 4.504 41.464 4.828 41.464 5.908C41.464 8.284 50.68 5.764 50.68 9.832C50.68 11.956 49.24 13.216 44.992 13.216C42.598 13.216 41.572 13 40.708 12.55C39.826 12.064 38.98 11.038 38.98 9.85H41.23C41.356 11.074 42.778 11.578 45.136 11.578C47.17 11.578 48.502 11.11 48.502 10.084C48.502 8.662 44.83 8.914 43.246 8.734C41.662 8.572 39.232 8.374 39.232 5.998C39.232 3.874 41.374 2.974 45.1 2.974C48.718 2.974 50.158 4.036 50.572 5.98ZM55.6408 3.19V13H53.3908V3.19H55.6408ZM55.7488 1.39C55.7488 1.93 55.1728 2.362 54.5248 2.362C53.8408 2.362 53.3188 1.93 53.3188 1.39C53.3188 0.85 53.8408 0.399999 54.5248 0.399999C55.1728 0.399999 55.7488 0.85 55.7488 1.39ZM70.4085 5.962L68.6265 6.808C68.0865 5.602 66.7185 4.666 64.9185 4.666C62.5245 4.666 60.5805 5.746 60.5805 8.086C60.5805 10.462 62.5245 11.524 64.8825 11.524C66.8085 11.524 68.3385 10.588 68.6805 9.274L70.4625 10.156C69.9225 11.812 67.9785 13.216 64.7565 13.216C61.2645 13.216 58.4925 11.506 58.4925 8.086C58.4925 4.684 61.2645 2.974 64.9365 2.974C67.6005 2.974 69.6885 4.36 70.4085 5.962ZM84.6008 7.582V10.696C84.6008 11.056 84.8348 11.416 85.3028 11.416C85.5188 11.416 85.7348 11.344 85.9868 11.2V12.748C85.6448 13.072 85.1048 13.216 84.6188 13.216C83.7008 13.216 82.9988 12.712 82.6928 12.028C81.7748 12.568 79.5968 13.216 77.2388 13.216C73.9988 13.216 72.3968 12.028 72.3968 9.778C72.3968 7.06 75.3308 6.43 78.0848 6.43C79.8488 6.43 81.8108 6.97 82.5308 7.348C82.5308 5.872 81.3788 4.702 77.9408 4.702C76.2848 4.702 74.4128 5.044 73.3688 5.566L72.7568 4.054C73.8728 3.316 76.0148 2.974 78.1028 2.974C82.5488 2.974 84.6008 4.468 84.6008 7.582ZM82.4948 10.75V8.842C82.0268 8.356 79.9208 7.996 78.1928 7.996C75.6908 7.996 74.4848 8.59 74.4848 9.796C74.4848 11.092 75.6368 11.632 77.6348 11.632C79.3448 11.632 81.8828 11.074 82.4948 10.75ZM99.4444 3.19L93.9724 13H91.6864L86.1424 3.19H88.5364L92.9284 10.822L97.2484 3.19H99.4444ZM116.09 8.356L120.176 13H117.044L113.246 8.374H108.494V13H106.244V0.85H115.712C118.718 0.85 120.212 2.308 120.212 4.63C120.212 6.862 118.628 8.158 116.09 8.356ZM115.694 2.866H108.494V6.304H115.424C116.972 6.304 117.854 5.71 117.854 4.558C117.854 3.478 117.08 2.866 115.694 2.866ZM134.561 8.212V8.662H124.319C124.589 10.66 126.407 11.65 128.657 11.65C130.547 11.65 131.861 11.038 132.257 10.03H134.615C134.147 11.812 131.609 13.216 128.693 13.216C124.985 13.216 122.213 11.506 122.213 8.104C122.213 4.684 124.985 2.974 128.657 2.974C132.437 2.974 134.561 5.746 134.561 8.212ZM124.373 7.276H132.293C132.167 6.16 130.853 4.558 128.639 4.558C126.443 4.558 124.715 5.35 124.373 7.276ZM149.296 3.19V10.408C149.296 14.278 147.01 15.736 142.942 15.736C140.17 15.736 138.604 15.448 137.182 14.854L137.884 13.216C139.09 13.756 140.764 14.206 142.816 14.206C145.246 14.206 147.262 13.126 147.262 11.074C146.47 11.866 144.724 12.532 142.42 12.532C139.918 12.532 136.786 11.344 136.786 7.762C136.786 4.378 139.846 2.992 142.834 2.992C145.102 2.992 146.434 3.64 147.172 4.162V3.19H149.296ZM147.172 8.77V6.358C146.65 5.368 145.012 4.558 143.356 4.558C141.088 4.558 138.946 5.512 138.946 7.708C138.946 9.94 141.124 10.822 143.248 10.822C145.264 10.822 146.704 10.048 147.172 8.77ZM163.945 3.19V13H161.839V11.83C160.831 12.64 159.499 13.216 157.771 13.216C155.017 13.216 152.101 12.244 152.101 7.366V3.19H154.351V7.312C154.351 10.696 156.025 11.47 157.843 11.47C159.409 11.47 160.687 10.894 161.713 10.102V3.19H163.945ZM169.226 0.454V13H166.976V0.454H169.226ZM184.075 7.582V10.696C184.075 11.056 184.309 11.416 184.777 11.416C184.993 11.416 185.209 11.344 185.461 11.2V12.748C185.119 13.072 184.579 13.216 184.093 13.216C183.175 13.216 182.473 12.712 182.167 12.028C181.249 12.568 179.071 13.216 176.713 13.216C173.473 13.216 171.871 12.028 171.871 9.778C171.871 7.06 174.805 6.43 177.559 6.43C179.323 6.43 181.285 6.97 182.005 7.348C182.005 5.872 180.853 4.702 177.415 4.702C175.759 4.702 173.887 5.044 172.843 5.566L172.231 4.054C173.347 3.316 175.489 2.974 177.577 2.974C182.023 2.974 184.075 4.468 184.075 7.582ZM181.969 10.75V8.842C181.501 8.356 179.395 7.996 177.667 7.996C175.165 7.996 173.959 8.59 173.959 9.796C173.959 11.092 175.111 11.632 177.109 11.632C178.819 11.632 181.357 11.074 181.969 10.75ZM194.42 2.974V5.062C192.386 5.062 190.028 5.35 189.758 7.42V13H187.508V3.19H189.614V4.882C190.406 3.334 192.008 2.974 194.42 2.974Z" fill="black"/>
                  </svg>