<svg width="129" height="20" viewBox="0 0 129 20" fill="none" xmlns="http://www.w3.org/2000/svg">
                    <path d="M0.48 15V0.799999H6.76C7.41333 0.799999 8.01333 0.933332 8.56 1.2C9.12 1.46667 9.6 1.82667 10 2.28C10.4133 2.73333 10.7267 3.24 10.94 3.8C11.1667 4.36 11.28 4.93333 11.28 5.52C11.28 6.12 11.1733 6.7 10.96 7.26C10.76 7.80667 10.4667 8.28667 10.08 8.7C9.69333 9.11333 9.24 9.43333 8.72 9.66L11.96 15H8.92L6 10.24H3.24V15H0.48ZM3.24 7.82H6.7C7.04667 7.82 7.35333 7.72 7.62 7.52C7.88667 7.30667 8.1 7.02667 8.26 6.68C8.42 6.33333 8.5 5.94667 8.5 5.52C8.5 5.06667 8.40667 4.67333 8.22 4.34C8.03333 3.99333 7.79333 3.72 7.5 3.52C7.22 3.32 6.91333 3.22 6.58 3.22H3.24V7.82ZM12.625 11.9C12.625 11.22 12.8117 10.6267 13.185 10.12C13.5717 9.6 14.105 9.2 14.785 8.92C15.465 8.64 16.245 8.5 17.125 8.5C17.565 8.5 18.0117 8.53333 18.465 8.6C18.9183 8.66667 19.3117 8.77333 19.645 8.92V8.36C19.645 7.69333 19.445 7.18 19.045 6.82C18.6583 6.46 18.0783 6.28 17.305 6.28C16.7317 6.28 16.185 6.38 15.665 6.58C15.145 6.78 14.5983 7.07333 14.025 7.46L13.165 5.7C13.8583 5.24667 14.565 4.90667 15.285 4.68C16.0183 4.45333 16.785 4.34 17.585 4.34C19.0783 4.34 20.2383 4.71333 21.065 5.46C21.905 6.20667 22.325 7.27333 22.325 8.66V12C22.325 12.28 22.3717 12.48 22.465 12.6C22.5717 12.72 22.7383 12.7933 22.965 12.82V15C22.725 15.04 22.505 15.0733 22.305 15.1C22.1183 15.1267 21.9583 15.14 21.825 15.14C21.2917 15.14 20.885 15.02 20.605 14.78C20.3383 14.54 20.1717 14.2467 20.105 13.9L20.045 13.36C19.5917 13.9467 19.025 14.4 18.345 14.72C17.665 15.04 16.9717 15.2 16.265 15.2C15.5717 15.2 14.945 15.06 14.385 14.78C13.8383 14.4867 13.405 14.0933 13.085 13.6C12.7783 13.0933 12.625 12.5267 12.625 11.9ZM19.145 12.44C19.2917 12.28 19.4117 12.12 19.505 11.96C19.5983 11.8 19.645 11.6533 19.645 11.52V10.46C19.325 10.3267 18.9783 10.2267 18.605 10.16C18.2317 10.08 17.8783 10.04 17.545 10.04C16.8517 10.04 16.2783 10.1933 15.825 10.5C15.385 10.7933 15.165 11.1867 15.165 11.68C15.165 11.9467 15.2383 12.2 15.385 12.44C15.5317 12.68 15.745 12.8733 16.025 13.02C16.305 13.1667 16.6383 13.24 17.025 13.24C17.425 13.24 17.8183 13.1667 18.205 13.02C18.5917 12.86 18.905 12.6667 19.145 12.44ZM24.8094 0.4H27.4894V11.64C27.4894 12.12 27.5694 12.4467 27.7294 12.62C27.8894 12.78 28.1094 12.86 28.3894 12.86C28.6027 12.86 28.8227 12.8333 29.0494 12.78C29.276 12.7267 29.476 12.66 29.6494 12.58L30.0094 14.62C29.6494 14.7933 29.2294 14.9267 28.7494 15.02C28.2694 15.1133 27.836 15.16 27.4494 15.16C26.6094 15.16 25.956 14.94 25.4894 14.5C25.036 14.0467 24.8094 13.4067 24.8094 12.58V0.4ZM36.037 15.2C35.197 15.2 34.437 15.06 33.757 14.78C33.077 14.4867 32.497 14.0933 32.017 13.6C31.537 13.0933 31.1637 12.52 30.897 11.88C30.6437 11.2267 30.517 10.54 30.517 9.82C30.517 8.82 30.737 7.90667 31.177 7.08C31.6304 6.25333 32.2704 5.59333 33.097 5.1C33.937 4.59333 34.9237 4.34 36.057 4.34C37.2037 4.34 38.1837 4.59333 38.997 5.1C39.8104 5.59333 40.4304 6.25333 40.857 7.08C41.297 7.89333 41.517 8.77333 41.517 9.72C41.517 9.88 41.5104 10.0467 41.497 10.22C41.4837 10.38 41.4704 10.5133 41.457 10.62H33.357C33.4104 11.1533 33.5637 11.62 33.817 12.02C34.0837 12.42 34.417 12.7267 34.817 12.94C35.2304 13.14 35.6704 13.24 36.137 13.24C36.6704 13.24 37.1704 13.1133 37.637 12.86C38.117 12.5933 38.4437 12.2467 38.617 11.82L40.917 12.46C40.6637 12.9933 40.297 13.4667 39.817 13.88C39.3504 14.2933 38.797 14.62 38.157 14.86C37.517 15.0867 36.8104 15.2 36.037 15.2ZM33.297 8.92H38.777C38.7237 8.38667 38.5704 7.92667 38.317 7.54C38.077 7.14 37.757 6.83333 37.357 6.62C36.957 6.39333 36.5104 6.28 36.017 6.28C35.537 6.28 35.097 6.39333 34.697 6.62C34.3104 6.83333 33.9904 7.14 33.737 7.54C33.497 7.92667 33.3504 8.38667 33.297 8.92ZM55.8567 4.52H58.3967L54.0167 15H51.7767L50.0167 10.5L48.2967 15H46.0367L41.6767 4.52H44.1967L47.3167 12.44L48.5367 9.02L46.7167 4.54H48.9367L50.0167 7.74L51.1167 4.54H53.3367L51.5167 9.02L52.7567 12.44L55.8567 4.52ZM58.6602 11.9C58.6602 11.22 58.8468 10.6267 59.2202 10.12C59.6068 9.6 60.1402 9.2 60.8202 8.92C61.5002 8.64 62.2802 8.5 63.1602 8.5C63.6002 8.5 64.0468 8.53333 64.5002 8.6C64.9535 8.66667 65.3468 8.77333 65.6802 8.92V8.36C65.6802 7.69333 65.4802 7.18 65.0802 6.82C64.6935 6.46 64.1135 6.28 63.3402 6.28C62.7668 6.28 62.2202 6.38 61.7002 6.58C61.1802 6.78 60.6335 7.07333 60.0602 7.46L59.2002 5.7C59.8935 5.24667 60.6002 4.90667 61.3202 4.68C62.0535 4.45333 62.8202 4.34 63.6202 4.34C65.1135 4.34 66.2735 4.71333 67.1002 5.46C67.9402 6.20667 68.3602 7.27333 68.3602 8.66V12C68.3602 12.28 68.4068 12.48 68.5002 12.6C68.6068 12.72 68.7735 12.7933 69.0002 12.82V15C68.7602 15.04 68.5402 15.0733 68.3402 15.1C68.1535 15.1267 67.9935 15.14 67.8602 15.14C67.3268 15.14 66.9202 15.02 66.6402 14.78C66.3735 14.54 66.2068 14.2467 66.1402 13.9L66.0802 13.36C65.6268 13.9467 65.0602 14.4 64.3802 14.72C63.7002 15.04 63.0068 15.2 62.3002 15.2C61.6068 15.2 60.9802 15.06 60.4202 14.78C59.8735 14.4867 59.4402 14.0933 59.1202 13.6C58.8135 13.0933 58.6602 12.5267 58.6602 11.9ZM65.1802 12.44C65.3268 12.28 65.4468 12.12 65.5402 11.96C65.6335 11.8 65.6802 11.6533 65.6802 11.52V10.46C65.3602 10.3267 65.0135 10.2267 64.6402 10.16C64.2668 10.08 63.9135 10.04 63.5802 10.04C62.8868 10.04 62.3135 10.1933 61.8602 10.5C61.4202 10.7933 61.2002 11.1867 61.2002 11.68C61.2002 11.9467 61.2735 12.2 61.4202 12.44C61.5668 12.68 61.7802 12.8733 62.0602 13.02C62.3402 13.1667 62.6735 13.24 63.0602 13.24C63.4602 13.24 63.8535 13.1667 64.2402 13.02C64.6268 12.86 64.9402 12.6667 65.1802 12.44ZM70.6939 17.04C70.9339 17.0933 71.1539 17.14 71.3539 17.18C71.5672 17.22 71.7472 17.24 71.8939 17.24C72.1472 17.24 72.3539 17.1733 72.5139 17.04C72.6872 16.92 72.8539 16.6933 73.0139 16.36C73.1739 16.04 73.3406 15.5867 73.5139 15L69.3739 4.52H72.1539L74.9739 12.26L77.4539 4.52H80.0139L75.6139 17.08C75.4539 17.5467 75.2072 17.9667 74.8739 18.34C74.5539 18.7267 74.1472 19.0267 73.6539 19.24C73.1739 19.4667 72.6339 19.58 72.0339 19.58C71.8206 19.58 71.6072 19.56 71.3939 19.52C71.1806 19.4933 70.9472 19.44 70.6939 19.36V17.04ZM97.4669 11.34C97.4669 12.14 97.2602 12.8133 96.8469 13.36C96.4335 13.8933 95.8735 14.3 95.1669 14.58C94.4735 14.86 93.7135 15 92.8869 15H86.0269V0.799999H93.6269C94.2935 0.799999 94.8669 0.979999 95.3469 1.34C95.8402 1.68667 96.2135 2.14 96.4669 2.7C96.7335 3.24667 96.8669 3.82 96.8669 4.42C96.8669 5.1 96.6935 5.74667 96.3469 6.36C96.0002 6.97333 95.4935 7.42667 94.8269 7.72C95.6402 7.96 96.2802 8.39333 96.7469 9.02C97.2269 9.64667 97.4669 10.42 97.4669 11.34ZM94.6869 10.82C94.6869 10.46 94.6135 10.14 94.4669 9.86C94.3202 9.56667 94.1202 9.34 93.8669 9.18C93.6269 9.00667 93.3469 8.92 93.0269 8.92H88.7869V12.66H92.8869C93.2202 12.66 93.5202 12.58 93.7869 12.42C94.0669 12.2467 94.2869 12.02 94.4469 11.74C94.6069 11.46 94.6869 11.1533 94.6869 10.82ZM88.7869 3.16V6.74H92.4669C92.7735 6.74 93.0535 6.66667 93.3069 6.52C93.5602 6.37333 93.7602 6.16667 93.9069 5.9C94.0669 5.63333 94.1469 5.31333 94.1469 4.94C94.1469 4.58 94.0735 4.26667 93.9269 4C93.7935 3.73333 93.6069 3.52667 93.3669 3.38C93.1402 3.23333 92.8802 3.16 92.5869 3.16H88.7869ZM104.201 15.2C103.347 15.2 102.581 15.06 101.901 14.78C101.221 14.4867 100.641 14.0867 100.161 13.58C99.694 13.0733 99.334 12.4933 99.0806 11.84C98.8273 11.1867 98.7006 10.5 98.7006 9.78C98.7006 9.04667 98.8273 8.35333 99.0806 7.7C99.334 7.04667 99.694 6.46667 100.161 5.96C100.641 5.45333 101.221 5.06 101.901 4.78C102.581 4.48667 103.347 4.34 104.201 4.34C105.054 4.34 105.814 4.48667 106.481 4.78C107.161 5.06 107.741 5.45333 108.221 5.96C108.701 6.46667 109.061 7.04667 109.301 7.7C109.554 8.35333 109.681 9.04667 109.681 9.78C109.681 10.5 109.554 11.1867 109.301 11.84C109.061 12.4933 108.701 13.0733 108.221 13.58C107.754 14.0867 107.181 14.4867 106.501 14.78C105.821 15.06 105.054 15.2 104.201 15.2ZM101.461 9.78C101.461 10.3933 101.581 10.94 101.821 11.42C102.061 11.8867 102.387 12.2533 102.801 12.52C103.214 12.7867 103.681 12.92 104.201 12.92C104.707 12.92 105.167 12.7867 105.581 12.52C105.994 12.24 106.321 11.8667 106.561 11.4C106.814 10.92 106.941 10.3733 106.941 9.76C106.941 9.16 106.814 8.62 106.561 8.14C106.321 7.66 105.994 7.28667 105.581 7.02C105.167 6.75333 104.707 6.62 104.201 6.62C103.681 6.62 103.214 6.76 102.801 7.04C102.387 7.30667 102.061 7.68 101.821 8.16C101.581 8.62667 101.461 9.16667 101.461 9.78ZM111.47 0.4H114.15V11.64C114.15 12.12 114.23 12.4467 114.39 12.62C114.55 12.78 114.77 12.86 115.05 12.86C115.263 12.86 115.483 12.8333 115.71 12.78C115.936 12.7267 116.136 12.66 116.31 12.58L116.67 14.62C116.31 14.7933 115.89 14.9267 115.41 15.02C114.93 15.1133 114.496 15.16 114.11 15.16C113.27 15.16 112.616 14.94 112.15 14.5C111.696 14.0467 111.47 13.4067 111.47 12.58V0.4ZM117.197 9.76C117.197 8.74667 117.397 7.83333 117.797 7.02C118.197 6.19333 118.751 5.54 119.457 5.06C120.164 4.58 120.971 4.34 121.877 4.34C122.651 4.34 123.344 4.53333 123.957 4.92C124.584 5.29333 125.071 5.77333 125.417 6.36V0.4H128.097V12C128.097 12.28 128.144 12.48 128.237 12.6C128.331 12.72 128.491 12.7933 128.717 12.82V15C128.251 15.0933 127.871 15.14 127.577 15.14C127.097 15.14 126.697 15.02 126.377 14.78C126.071 14.54 125.897 14.2267 125.857 13.84L125.817 13.18C125.431 13.8333 124.904 14.3333 124.237 14.68C123.584 15.0267 122.897 15.2 122.177 15.2C121.457 15.2 120.791 15.06 120.177 14.78C119.577 14.5 119.051 14.1133 118.597 13.62C118.157 13.1267 117.811 12.5533 117.557 11.9C117.317 11.2333 117.197 10.52 117.197 9.76ZM125.417 11.16V8.66C125.284 8.27333 125.071 7.92667 124.777 7.62C124.484 7.31333 124.157 7.07333 123.797 6.9C123.437 6.71333 123.077 6.62 122.717 6.62C122.304 6.62 121.931 6.70667 121.597 6.88C121.264 7.05333 120.971 7.28667 120.717 7.58C120.477 7.87333 120.291 8.21333 120.157 8.6C120.037 8.98667 119.977 9.39333 119.977 9.82C119.977 10.2467 120.044 10.6533 120.177 11.04C120.324 11.4133 120.531 11.74 120.797 12.02C121.064 12.3 121.371 12.52 121.717 12.68C122.077 12.84 122.464 12.92 122.877 12.92C123.131 12.92 123.384 12.88 123.637 12.8C123.904 12.7067 124.151 12.5867 124.377 12.44C124.617 12.28 124.824 12.0933 124.997 11.88C125.184 11.6533 125.324 11.4133 125.417 11.16Z" fill="black"/>
                  </svg> 