<svg width="103" height="16" viewBox="0 0 103 16" fill="none" xmlns="http://www.w3.org/2000/svg">
                    <path d="M0.184 12V0.639999H5.208C5.73067 0.639999 6.21067 0.752 6.648 0.976C7.096 1.18933 7.48 1.47733 7.8 1.84C8.12 2.192 8.37067 2.59733 8.552 3.056C8.73333 3.504 8.824 3.95733 8.824 4.416C8.824 5.152 8.63733 5.824 8.264 6.432C7.90133 7.02933 7.40533 7.46133 6.776 7.728L9.368 12H6.888L4.568 8.192H2.392V12H0.184ZM2.392 6.256H5.16C5.36267 6.256 5.54933 6.208 5.72 6.112C5.90133 6.016 6.056 5.888 6.184 5.728C6.312 5.55733 6.41333 5.36 6.488 5.136C6.56267 4.912 6.6 4.672 6.6 4.416C6.6 4.14933 6.55733 3.904 6.472 3.68C6.38667 3.456 6.26933 3.264 6.12 3.104C5.98133 2.93333 5.816 2.80533 5.624 2.72C5.44267 2.624 5.256 2.576 5.064 2.576H2.392V6.256ZM12.7953 12.16C12.3899 12.16 12.0113 12.096 11.6593 11.968C11.3073 11.8293 11.0033 11.6427 10.7473 11.408C10.4913 11.1627 10.2886 10.88 10.1393 10.56C10.0006 10.24 9.93125 9.888 9.93125 9.504C9.93125 9.10933 10.0166 8.74667 10.1873 8.416C10.3686 8.07467 10.6139 7.78667 10.9233 7.552C11.2433 7.31733 11.6219 7.136 12.0593 7.008C12.4966 6.86933 12.9766 6.8 13.4993 6.8C13.8726 6.8 14.2353 6.832 14.5873 6.896C14.9499 6.96 15.2699 7.05067 15.5473 7.168V6.688C15.5473 6.13333 15.3873 5.70667 15.0673 5.408C14.7579 5.10933 14.2939 4.96 13.6753 4.96C13.2273 4.96 12.7899 5.04 12.3633 5.2C11.9366 5.36 11.4993 5.59467 11.0513 5.904L10.3953 4.544C11.4726 3.82933 12.6353 3.472 13.8833 3.472C15.0886 3.472 16.0219 3.77067 16.6833 4.368C17.3553 4.95467 17.6913 5.808 17.6913 6.928V9.536C17.6913 9.76 17.7286 9.92 17.8033 10.016C17.8886 10.112 18.0219 10.1653 18.2033 10.176V12C17.8406 12.0747 17.5259 12.112 17.2593 12.112C16.8539 12.112 16.5393 12.0213 16.3153 11.84C16.1019 11.6587 15.9686 11.4187 15.9153 11.12L15.8673 10.656C15.4939 11.1467 15.0406 11.52 14.5073 11.776C13.9739 12.032 13.4033 12.16 12.7953 12.16ZM13.4033 10.592C13.7659 10.592 14.1073 10.528 14.4273 10.4C14.7579 10.272 15.0139 10.1013 15.1953 9.888C15.4299 9.70667 15.5473 9.504 15.5473 9.28V8.32C15.2913 8.224 15.0139 8.14933 14.7153 8.096C14.4166 8.032 14.1286 8 13.8513 8C13.2966 8 12.8433 8.128 12.4913 8.384C12.1393 8.62933 11.9633 8.944 11.9633 9.328C11.9633 9.69067 12.1019 9.99467 12.3793 10.24C12.6566 10.4747 12.9979 10.592 13.4033 10.592ZM19.6788 0.32H21.8228V9.312C21.8228 9.62133 21.8974 9.86133 22.0468 10.032C22.1961 10.2027 22.4094 10.288 22.6868 10.288C22.8148 10.288 22.9534 10.2667 23.1028 10.224C23.2628 10.1813 23.4121 10.128 23.5508 10.064L23.8388 11.696C23.5508 11.8347 23.2148 11.9413 22.8307 12.016C22.4468 12.0907 22.1001 12.128 21.7908 12.128C21.1188 12.128 20.5961 11.952 20.2228 11.6C19.8601 11.2373 19.6788 10.7253 19.6788 10.064V0.32ZM28.6609 12.16C27.9889 12.16 27.3809 12.048 26.8369 11.824C26.2929 11.5893 25.8289 11.2747 25.4449 10.88C25.0609 10.4853 24.7622 10.0267 24.5489 9.504C24.3462 8.98133 24.2449 8.432 24.2449 7.856C24.2449 7.25867 24.3462 6.69867 24.5489 6.176C24.7515 5.64267 25.0449 5.17867 25.4289 4.784C25.8129 4.37867 26.2769 4.05867 26.8209 3.824C27.3755 3.58933 27.9942 3.472 28.6769 3.472C29.3595 3.472 29.9675 3.58933 30.5009 3.824C31.0449 4.05867 31.5035 4.37333 31.8769 4.768C32.2609 5.16267 32.5489 5.62133 32.7409 6.144C32.9435 6.66667 33.0449 7.21067 33.0449 7.776C33.0449 7.91467 33.0395 8.048 33.0289 8.176C33.0289 8.304 33.0182 8.41067 32.9969 8.496H26.5169C26.5489 8.82667 26.6289 9.12 26.7569 9.376C26.8849 9.632 27.0502 9.85067 27.2529 10.032C27.4555 10.2133 27.6849 10.352 27.9409 10.448C28.1969 10.544 28.4635 10.592 28.7409 10.592C29.1675 10.592 29.5675 10.4907 29.9409 10.288C30.3249 10.0747 30.5862 9.79733 30.7249 9.456L32.5649 9.968C32.2555 10.608 31.7595 11.136 31.0769 11.552C30.4049 11.9573 29.5995 12.16 28.6609 12.16ZM30.8369 7.104C30.7835 6.47467 30.5489 5.97333 30.1329 5.6C29.7275 5.216 29.2315 5.024 28.6449 5.024C28.3569 5.024 28.0849 5.07733 27.8289 5.184C27.5835 5.28 27.3649 5.41867 27.1729 5.6C26.9809 5.78133 26.8209 6 26.6929 6.256C26.5755 6.512 26.5062 6.79467 26.4849 7.104H30.8369ZM44.5323 3.616H46.5643L43.0603 12H41.3003L39.8603 8.32L38.4363 12H36.6763L33.1883 3.616H35.2043L37.7003 9.984L38.7243 7.264L37.2523 3.632H38.9803L39.8603 6.208L40.7563 3.632H42.4843L41.0283 7.264L42.0363 9.984L44.5323 3.616ZM49.639 12.16C49.2337 12.16 48.855 12.096 48.503 11.968C48.151 11.8293 47.847 11.6427 47.591 11.408C47.335 11.1627 47.1323 10.88 46.983 10.56C46.8443 10.24 46.775 9.888 46.775 9.504C46.775 9.10933 46.8603 8.74667 47.031 8.416C47.2123 8.07467 47.4577 7.78667 47.767 7.552C48.087 7.31733 48.4657 7.136 48.903 7.008C49.3403 6.86933 49.8203 6.8 50.343 6.8C50.7163 6.8 51.079 6.832 51.431 6.896C51.7937 6.96 52.1137 7.05067 52.391 7.168V6.688C52.391 6.13333 52.231 5.70667 51.911 5.408C51.6017 5.10933 51.1377 4.96 50.519 4.96C50.071 4.96 49.6337 5.04 49.207 5.2C48.7803 5.36 48.343 5.59467 47.895 5.904L47.239 4.544C48.3163 3.82933 49.479 3.472 50.727 3.472C51.9323 3.472 52.8657 3.77067 53.527 4.368C54.199 4.95467 54.535 5.808 54.535 6.928V9.536C54.535 9.76 54.5723 9.92 54.647 10.016C54.7323 10.112 54.8657 10.1653 55.047 10.176V12C54.6843 12.0747 54.3697 12.112 54.103 12.112C53.6977 12.112 53.383 12.0213 53.159 11.84C52.9457 11.6587 52.8123 11.4187 52.759 11.12L52.711 10.656C52.3377 11.1467 51.8843 11.52 51.351 11.776C50.8177 12.032 50.247 12.16 49.639 12.16ZM50.247 10.592C50.6097 10.592 50.951 10.528 51.271 10.4C51.6017 10.272 51.8577 10.1013 52.039 9.888C52.2737 9.70667 52.391 9.504 52.391 9.28V8.32C52.135 8.224 51.8577 8.14933 51.559 8.096C51.2603 8.032 50.9723 8 50.695 8C50.1403 8 49.687 8.128 49.335 8.384C48.983 8.62933 48.807 8.944 48.807 9.328C48.807 9.69067 48.9457 9.99467 49.223 10.24C49.5003 10.4747 49.8417 10.592 50.247 10.592ZM56.5114 13.632C56.6927 13.6853 56.8687 13.7227 57.0394 13.744C57.21 13.776 57.354 13.792 57.4714 13.792C57.61 13.792 57.738 13.7653 57.8554 13.712C57.9727 13.6587 58.0794 13.5627 58.1754 13.424C58.2714 13.296 58.3674 13.1147 58.4634 12.88C58.5594 12.6453 58.6607 12.352 58.7674 12L55.4554 3.616H57.6634L59.9354 10.144L61.9514 3.616H63.9674L60.4474 13.664C60.2447 14.2507 59.898 14.7307 59.4074 15.104C58.9167 15.4773 58.3087 15.664 57.5834 15.664C57.4127 15.664 57.2367 15.648 57.0554 15.616C56.8847 15.5947 56.7034 15.552 56.5114 15.488V13.632ZM77.8985 9.072C77.8985 9.552 77.8025 9.97333 77.6105 10.336C77.4185 10.6987 77.1518 11.0027 76.8105 11.248C76.4798 11.4933 76.0905 11.68 75.6425 11.808C75.2052 11.936 74.7358 12 74.2345 12H68.7465V0.639999H74.8265C75.2212 0.639999 75.5785 0.725333 75.8985 0.896C76.2185 1.06667 76.4905 1.29067 76.7145 1.568C76.9385 1.83467 77.1092 2.144 77.2265 2.496C77.3545 2.83733 77.4185 3.184 77.4185 3.536C77.4185 4.09067 77.2798 4.61333 77.0025 5.104C76.7252 5.584 76.3198 5.94133 75.7865 6.176C76.4372 6.368 76.9492 6.71467 77.3225 7.216C77.7065 7.70667 77.8985 8.32533 77.8985 9.072ZM75.6745 8.656C75.6745 8.45333 75.6372 8.26133 75.5625 8.08C75.4985 7.888 75.4078 7.72267 75.2905 7.584C75.1732 7.44533 75.0345 7.33867 74.8745 7.264C74.7145 7.17867 74.5385 7.136 74.3465 7.136H70.9545V10.128H74.2345C74.4372 10.128 74.6238 10.0907 74.7945 10.016C74.9758 9.94133 75.1305 9.84 75.2585 9.712C75.3865 9.57333 75.4878 9.41333 75.5625 9.232C75.6372 9.05067 75.6745 8.85867 75.6745 8.656ZM70.9545 2.528V5.392H73.8985C74.2718 5.392 74.5865 5.264 74.8425 5.008C75.1092 4.752 75.2425 4.4 75.2425 3.952C75.2425 3.51467 75.1198 3.168 74.8745 2.912C74.6398 2.656 74.3465 2.528 73.9945 2.528H70.9545ZM83.2855 12.16C82.6028 12.16 81.9895 12.0427 81.4455 11.808C80.9015 11.5733 80.4375 11.2587 80.0535 10.864C79.6802 10.4587 79.3922 9.99467 79.1895 9.472C78.9868 8.94933 78.8855 8.4 78.8855 7.824C78.8855 7.23733 78.9868 6.68267 79.1895 6.16C79.3922 5.63733 79.6802 5.17867 80.0535 4.784C80.4375 4.37867 80.9015 4.05867 81.4455 3.824C81.9895 3.58933 82.6028 3.472 83.2855 3.472C83.9682 3.472 84.5762 3.58933 85.1095 3.824C85.6535 4.05867 86.1122 4.37867 86.4855 4.784C86.8695 5.17867 87.1628 5.63733 87.3655 6.16C87.5682 6.68267 87.6695 7.23733 87.6695 7.824C87.6695 8.4 87.5682 8.94933 87.3655 9.472C87.1628 9.99467 86.8748 10.4587 86.5015 10.864C86.1282 11.2587 85.6695 11.5733 85.1255 11.808C84.5815 12.0427 83.9682 12.16 83.2855 12.16ZM81.0935 7.824C81.0935 8.19733 81.1468 8.53867 81.2535 8.848C81.3708 9.14667 81.5255 9.408 81.7175 9.632C81.9202 9.856 82.1548 10.032 82.4215 10.16C82.6882 10.2773 82.9762 10.336 83.2855 10.336C83.5948 10.336 83.8828 10.2773 84.1495 10.16C84.4162 10.032 84.6455 9.856 84.8375 9.632C85.0402 9.408 85.1948 9.14133 85.3015 8.832C85.4188 8.52267 85.4775 8.18133 85.4775 7.808C85.4775 7.44533 85.4188 7.10933 85.3015 6.8C85.1948 6.49067 85.0402 6.224 84.8375 6C84.6455 5.776 84.4162 5.60533 84.1495 5.488C83.8828 5.36 83.5948 5.296 83.2855 5.296C82.9762 5.296 82.6882 5.36 82.4215 5.488C82.1548 5.616 81.9202 5.792 81.7175 6.016C81.5255 6.24 81.3708 6.50667 81.2535 6.816C81.1468 7.12533 81.0935 7.46133 81.0935 7.824ZM89.1006 0.32H91.2446V9.312C91.2446 9.62133 91.3193 9.86133 91.4686 10.032C91.618 10.2027 91.8313 10.288 92.1086 10.288C92.2366 10.288 92.3753 10.2667 92.5246 10.224C92.6846 10.1813 92.834 10.128 92.9726 10.064L93.2606 11.696C92.9726 11.8347 92.6366 11.9413 92.2526 12.016C91.8686 12.0907 91.522 12.128 91.2126 12.128C90.5406 12.128 90.018 11.952 89.6446 11.6C89.282 11.2373 89.1006 10.7253 89.1006 10.064V0.32ZM97.6668 12.16C97.0908 12.16 96.5574 12.048 96.0668 11.824C95.5761 11.6 95.1548 11.2907 94.8028 10.896C94.4508 10.5013 94.1734 10.0427 93.9708 9.52C93.7788 8.98667 93.6828 8.416 93.6828 7.808C93.6828 7.2 93.7734 6.63467 93.9548 6.112C94.1468 5.58933 94.4081 5.13067 94.7388 4.736C95.0694 4.34133 95.4641 4.032 95.9228 3.808C96.3814 3.584 96.8828 3.472 97.4268 3.472C98.0454 3.472 98.6001 3.62133 99.0908 3.92C99.5921 4.21867 99.9814 4.608 100.259 5.088V0.32H102.403V9.536C102.403 9.76 102.44 9.92 102.515 10.016C102.589 10.112 102.717 10.1653 102.899 10.176V12C102.525 12.0747 102.221 12.112 101.987 12.112C101.603 12.112 101.288 12.016 101.043 11.824C100.797 11.632 100.659 11.3813 100.627 11.072L100.579 10.544C100.269 11.0773 99.8481 11.4827 99.3148 11.76C98.7921 12.0267 98.2428 12.16 97.6668 12.16ZM98.2268 10.336C98.4294 10.336 98.6374 10.304 98.8508 10.24C99.0641 10.1653 99.2614 10.064 99.4428 9.936C99.6241 9.808 99.7841 9.65867 99.9228 9.488C100.072 9.31733 100.184 9.13067 100.259 8.928V6.928C100.173 6.69333 100.051 6.48 99.8908 6.288C99.7414 6.08533 99.5654 5.91467 99.3628 5.776C99.1708 5.62667 98.9628 5.50933 98.7388 5.424C98.5254 5.33867 98.3121 5.296 98.0988 5.296C97.7788 5.296 97.4801 5.36533 97.2028 5.504C96.9361 5.64267 96.7068 5.83467 96.5148 6.08C96.3228 6.31467 96.1734 6.58667 96.0668 6.896C95.9601 7.20533 95.9068 7.52533 95.9068 7.856C95.9068 8.208 95.9654 8.53333 96.0828 8.832C96.2001 9.13067 96.3601 9.392 96.5628 9.616C96.7654 9.84 97.0054 10.016 97.2828 10.144C97.5708 10.272 97.8854 10.336 98.2268 10.336Z" fill="black"/>
                  </svg> 