<svg width="111" height="12" viewBox="0 0 111 12" fill="none" xmlns="http://www.w3.org/2000/svg">
                    <path d="M0.068 9V0.48H3.668C4.036 0.48 4.372 0.556 4.676 0.707999C4.98 0.859999 5.244 1.068 5.468 1.332C5.7 1.588 5.876 1.876 5.996 2.196C6.124 2.508 6.188 2.828 6.188 3.156C6.188 3.564 6.108 3.948 5.948 4.308C5.796 4.668 5.576 4.972 5.288 5.22C5.008 5.468 4.676 5.632 4.292 5.712L6.38 9H5.432L3.428 5.856H0.908V9H0.068ZM0.908 5.112H3.692C4.028 5.112 4.32 5.02 4.568 4.836C4.816 4.652 5.008 4.412 5.144 4.116C5.28 3.812 5.348 3.492 5.348 3.156C5.348 2.812 5.268 2.496 5.108 2.208C4.956 1.912 4.748 1.676 4.484 1.5C4.228 1.316 3.94 1.224 3.62 1.224H0.908V5.112ZM8.46209 7.2C8.46209 6.808 8.57409 6.472 8.79809 6.192C9.02209 5.904 9.33009 5.684 9.72209 5.532C10.1221 5.372 10.5821 5.292 11.1021 5.292C11.4061 5.292 11.7221 5.316 12.0501 5.364C12.3781 5.412 12.6701 5.484 12.9261 5.58V5.052C12.9261 4.524 12.7701 4.104 12.4581 3.792C12.1461 3.48 11.7141 3.324 11.1621 3.324C10.8261 3.324 10.4941 3.388 10.1661 3.516C9.84609 3.636 9.51009 3.816 9.15809 4.056L8.84609 3.48C9.25409 3.2 9.65409 2.992 10.0461 2.856C10.4381 2.712 10.8381 2.64 11.2461 2.64C12.0141 2.64 12.6221 2.86 13.0701 3.3C13.5181 3.74 13.7421 4.348 13.7421 5.124V8.016C13.7421 8.128 13.7661 8.212 13.8141 8.268C13.8621 8.316 13.9381 8.344 14.0421 8.352V9C13.9541 9.008 13.8781 9.016 13.8141 9.024C13.7501 9.032 13.7021 9.032 13.6701 9.024C13.4701 9.016 13.3181 8.952 13.2141 8.832C13.1101 8.712 13.0541 8.584 13.0461 8.448L13.0341 7.992C12.7541 8.352 12.3901 8.632 11.9421 8.832C11.4941 9.024 11.0381 9.12 10.5741 9.12C10.1741 9.12 9.81009 9.036 9.48209 8.868C9.16209 8.692 8.91009 8.46 8.72609 8.172C8.55009 7.876 8.46209 7.552 8.46209 7.2ZM12.6501 7.68C12.7381 7.568 12.8061 7.46 12.8541 7.356C12.9021 7.252 12.9261 7.16 12.9261 7.08V6.168C12.6541 6.064 12.3701 5.984 12.0741 5.928C11.7861 5.872 11.4941 5.844 11.1981 5.844C10.6141 5.844 10.1421 5.96 9.78209 6.192C9.42209 6.424 9.24209 6.74 9.24209 7.14C9.24209 7.372 9.30209 7.592 9.42209 7.8C9.54209 8 9.71809 8.168 9.95009 8.304C10.1821 8.432 10.4541 8.496 10.7661 8.496C11.1581 8.496 11.5221 8.42 11.8581 8.268C12.2021 8.116 12.4661 7.92 12.6501 7.68ZM16.8612 0.24H17.6772V7.584C17.6772 7.896 17.7332 8.1 17.8452 8.196C17.9572 8.292 18.0932 8.34 18.2532 8.34C18.3972 8.34 18.5412 8.324 18.6852 8.292C18.8292 8.26 18.9532 8.228 19.0572 8.196L19.2012 8.856C19.0492 8.92 18.8612 8.972 18.6372 9.012C18.4212 9.052 18.2332 9.072 18.0732 9.072C17.7052 9.072 17.4092 8.964 17.1852 8.748C16.9692 8.532 16.8612 8.236 16.8612 7.86V0.24ZM24.1147 9.12C23.6667 9.12 23.2507 9.036 22.8667 8.868C22.4827 8.692 22.1507 8.456 21.8707 8.16C21.5907 7.856 21.3707 7.508 21.2107 7.116C21.0587 6.724 20.9827 6.304 20.9827 5.856C20.9827 5.272 21.1147 4.736 21.3787 4.248C21.6507 3.76 22.0227 3.372 22.4947 3.084C22.9667 2.788 23.5027 2.64 24.1027 2.64C24.7187 2.64 25.2547 2.788 25.7107 3.084C26.1747 3.38 26.5387 3.772 26.8027 4.26C27.0667 4.74 27.1987 5.268 27.1987 5.844C27.1987 5.908 27.1987 5.972 27.1987 6.036C27.1987 6.092 27.1947 6.136 27.1867 6.168H21.8347C21.8747 6.616 21.9987 7.016 22.2067 7.368C22.4227 7.712 22.6987 7.988 23.0347 8.196C23.3787 8.396 23.7507 8.496 24.1507 8.496C24.5587 8.496 24.9427 8.392 25.3027 8.184C25.6707 7.976 25.9267 7.704 26.0707 7.368L26.7787 7.56C26.6507 7.856 26.4547 8.124 26.1907 8.364C25.9267 8.604 25.6147 8.792 25.2547 8.928C24.9027 9.056 24.5227 9.12 24.1147 9.12ZM21.8107 5.58H26.4307C26.3987 5.124 26.2747 4.724 26.0587 4.38C25.8507 4.036 25.5747 3.768 25.2307 3.576C24.8947 3.376 24.5227 3.276 24.1147 3.276C23.7067 3.276 23.3347 3.376 22.9987 3.576C22.6627 3.768 22.3867 4.04 22.1707 4.392C21.9627 4.736 21.8427 5.132 21.8107 5.58ZM37.4856 2.748H38.2896L35.6016 9H34.8936L33.5856 5.892L32.2896 9H31.5816L28.8936 2.748H29.6856L31.9656 8.16L33.1176 5.34L32.0616 2.76H32.7936L33.5856 4.788L34.3896 2.76H35.1096L34.0656 5.34L35.2176 8.16L37.4856 2.748ZM40.039 7.2C40.039 6.808 40.151 6.472 40.375 6.192C40.599 5.904 40.907 5.684 41.299 5.532C41.699 5.372 42.159 5.292 42.679 5.292C42.983 5.292 43.299 5.316 43.627 5.364C43.955 5.412 44.247 5.484 44.503 5.58V5.052C44.503 4.524 44.347 4.104 44.035 3.792C43.723 3.48 43.291 3.324 42.739 3.324C42.403 3.324 42.071 3.388 41.743 3.516C41.423 3.636 41.087 3.816 40.735 4.056L40.423 3.48C40.831 3.2 41.231 2.992 41.623 2.856C42.015 2.712 42.415 2.64 42.823 2.64C43.591 2.64 44.199 2.86 44.647 3.3C45.095 3.74 45.319 4.348 45.319 5.124V8.016C45.319 8.128 45.343 8.212 45.391 8.268C45.439 8.316 45.515 8.344 45.619 8.352V9C45.531 9.008 45.455 9.016 45.391 9.024C45.327 9.032 45.279 9.032 45.247 9.024C45.047 9.016 44.895 8.952 44.791 8.832C44.687 8.712 44.631 8.584 44.623 8.448L44.611 7.992C44.331 8.352 43.967 8.632 43.519 8.832C43.071 9.024 42.615 9.12 42.151 9.12C41.751 9.12 41.387 9.036 41.059 8.868C40.739 8.692 40.487 8.46 40.303 8.172C40.127 7.876 40.039 7.552 40.039 7.2ZM44.227 7.68C44.315 7.568 44.383 7.46 44.431 7.356C44.479 7.252 44.503 7.16 44.503 7.08V6.168C44.231 6.064 43.947 5.984 43.651 5.928C43.363 5.872 43.071 5.844 42.775 5.844C42.191 5.844 41.719 5.96 41.359 6.192C40.999 6.424 40.819 6.74 40.819 7.14C40.819 7.372 40.879 7.592 40.999 7.8C41.119 8 41.295 8.168 41.527 8.304C41.759 8.432 42.031 8.496 42.343 8.496C42.735 8.496 43.099 8.42 43.435 8.268C43.779 8.116 44.043 7.92 44.227 7.68ZM48.5745 10.92C48.6865 10.928 48.7945 10.932 48.8985 10.932C49.0025 10.94 49.0785 10.936 49.1265 10.92C49.2225 10.904 49.3145 10.848 49.4025 10.752C49.4905 10.656 49.5945 10.472 49.7145 10.2C49.8345 9.928 50.0025 9.528 50.2185 9L47.4945 2.748H48.3585L50.6505 8.16L52.7625 2.748H53.5785L50.3385 10.812C50.2825 10.964 50.1985 11.104 50.0865 11.232C49.9745 11.368 49.8345 11.472 49.6665 11.544C49.5065 11.624 49.3065 11.668 49.0665 11.676C48.9945 11.684 48.9185 11.684 48.8385 11.676C48.7665 11.676 48.6785 11.668 48.5745 11.652V10.92ZM60.2569 9V0.48H63.8569C64.2249 0.48 64.5609 0.556 64.8649 0.707999C65.1689 0.859999 65.4329 1.068 65.6569 1.332C65.8889 1.588 66.0649 1.876 66.1849 2.196C66.3129 2.508 66.3769 2.828 66.3769 3.156C66.3769 3.564 66.2969 3.948 66.1369 4.308C65.9849 4.668 65.7649 4.972 65.4769 5.22C65.1969 5.468 64.8649 5.632 64.4809 5.712L66.5689 9H65.6209L63.6169 5.856H61.0969V9H60.2569ZM61.0969 5.112H63.8809C64.2169 5.112 64.5089 5.02 64.7569 4.836C65.0049 4.652 65.1969 4.412 65.3329 4.116C65.4689 3.812 65.5369 3.492 65.5369 3.156C65.5369 2.812 65.4569 2.496 65.2969 2.208C65.1449 1.912 64.9369 1.676 64.6729 1.5C64.4169 1.316 64.1289 1.224 63.8089 1.224H61.0969V5.112ZM71.7612 9.12C71.3132 9.12 70.8972 9.036 70.5132 8.868C70.1292 8.692 69.7972 8.456 69.5172 8.16C69.2372 7.856 69.0172 7.508 68.8572 7.116C68.7052 6.724 68.6292 6.304 68.6292 5.856C68.6292 5.272 68.7612 4.736 69.0252 4.248C69.2972 3.76 69.6692 3.372 70.1412 3.084C70.6132 2.788 71.1492 2.64 71.7492 2.64C72.3652 2.64 72.9012 2.788 73.3572 3.084C73.8212 3.38 74.1852 3.772 74.4492 4.26C74.7132 4.74 74.8452 5.268 74.8452 5.844C74.8452 5.908 74.8452 5.972 74.8452 6.036C74.8452 6.092 74.8412 6.136 74.8332 6.168H69.4812C69.5212 6.616 69.6452 7.016 69.8532 7.368C70.0692 7.712 70.3452 7.988 70.6812 8.196C71.0252 8.396 71.3972 8.496 71.7972 8.496C72.2052 8.496 72.5892 8.392 72.9492 8.184C73.3172 7.976 73.5732 7.704 73.7172 7.368L74.4252 7.56C74.2972 7.856 74.1012 8.124 73.8372 8.364C73.5732 8.604 73.2612 8.792 72.9012 8.928C72.5492 9.056 72.1692 9.12 71.7612 9.12ZM69.4572 5.58H74.0772C74.0452 5.124 73.9212 4.724 73.7052 4.38C73.4972 4.036 73.2212 3.768 72.8772 3.576C72.5412 3.376 72.1692 3.276 71.7612 3.276C71.3532 3.276 70.9812 3.376 70.6452 3.576C70.3092 3.768 70.0332 4.04 69.8172 4.392C69.6092 4.736 69.4892 5.132 69.4572 5.58ZM79.9322 9.084C79.5082 9.084 79.1162 8.996 78.7562 8.82C78.3962 8.644 78.0842 8.408 77.8202 8.112C77.5642 7.808 77.3642 7.464 77.2202 7.08C77.0762 6.696 77.0042 6.3 77.0042 5.892C77.0042 5.452 77.0722 5.04 77.2082 4.656C77.3522 4.264 77.5522 3.916 77.8082 3.612C78.0722 3.308 78.3802 3.072 78.7322 2.904C79.0842 2.728 79.4762 2.64 79.9082 2.64C80.4442 2.64 80.9082 2.776 81.3002 3.048C81.7002 3.32 82.0362 3.656 82.3082 4.056V2.748H83.0402V9.024C83.0402 9.6 82.9002 10.084 82.6202 10.476C82.3482 10.876 81.9762 11.176 81.5042 11.376C81.0402 11.576 80.5322 11.676 79.9802 11.676C79.2682 11.676 78.6922 11.548 78.2522 11.292C77.8122 11.036 77.4522 10.692 77.1722 10.26L77.6762 9.864C77.9242 10.256 78.2522 10.548 78.6602 10.74C79.0762 10.932 79.5162 11.028 79.9802 11.028C80.3882 11.028 80.7602 10.952 81.0962 10.8C81.4402 10.656 81.7122 10.436 81.9122 10.14C82.1202 9.844 82.2242 9.472 82.2242 9.024V7.788C81.9842 8.18 81.6562 8.496 81.2402 8.736C80.8242 8.968 80.3882 9.084 79.9322 9.084ZM80.1602 8.4C80.4082 8.4 80.6442 8.356 80.8682 8.268C81.1002 8.18 81.3122 8.064 81.5042 7.92C81.6962 7.768 81.8562 7.6 81.9842 7.416C82.1122 7.232 82.1922 7.044 82.2242 6.852V4.92C82.1042 4.616 81.9322 4.348 81.7082 4.116C81.4842 3.876 81.2282 3.692 80.9402 3.564C80.6602 3.428 80.3682 3.36 80.0642 3.36C79.7122 3.36 79.3962 3.436 79.1162 3.588C78.8442 3.732 78.6122 3.928 78.4202 4.176C78.2362 4.416 78.0922 4.688 77.9882 4.992C77.8842 5.296 77.8322 5.6 77.8322 5.904C77.8322 6.24 77.8922 6.56 78.0122 6.864C78.1322 7.16 78.2962 7.428 78.5042 7.668C78.7202 7.9 78.9682 8.08 79.2482 8.208C79.5362 8.336 79.8402 8.4 80.1602 8.4ZM86.1022 6.42V2.748H86.9182V6.276C86.9182 6.988 87.0382 7.52 87.2782 7.872C87.5262 8.224 87.8902 8.4 88.3702 8.4C88.6902 8.4 88.9982 8.332 89.2942 8.196C89.5982 8.052 89.8662 7.852 90.0982 7.596C90.3302 7.332 90.5062 7.028 90.6262 6.684V2.748H91.4422V8.016C91.4422 8.128 91.4662 8.212 91.5142 8.268C91.5622 8.316 91.6342 8.344 91.7302 8.352V9C91.6342 9.008 91.5582 9.012 91.5022 9.012C91.4462 9.02 91.3942 9.024 91.3462 9.024C91.1862 9.008 91.0462 8.944 90.9262 8.832C90.8142 8.72 90.7542 8.584 90.7462 8.424L90.7222 7.584C90.4502 8.064 90.0782 8.44 89.6062 8.712C89.1422 8.984 88.6382 9.12 88.0942 9.12C87.4382 9.12 86.9422 8.892 86.6062 8.436C86.2702 7.98 86.1022 7.308 86.1022 6.42ZM94.6432 0.24H95.4592V7.584C95.4592 7.896 95.5152 8.1 95.6272 8.196C95.7392 8.292 95.8752 8.34 96.0352 8.34C96.1792 8.34 96.3232 8.324 96.4672 8.292C96.6112 8.26 96.7352 8.228 96.8392 8.196L96.9832 8.856C96.8312 8.92 96.6432 8.972 96.4192 9.012C96.2032 9.052 96.0152 9.072 95.8552 9.072C95.4872 9.072 95.1912 8.964 94.9672 8.748C94.7512 8.532 94.6432 8.236 94.6432 7.86V0.24ZM98.6927 7.2C98.6927 6.808 98.8047 6.472 99.0287 6.192C99.2527 5.904 99.5607 5.684 99.9527 5.532C100.353 5.372 100.813 5.292 101.333 5.292C101.637 5.292 101.953 5.316 102.281 5.364C102.609 5.412 102.901 5.484 103.157 5.58V5.052C103.157 4.524 103.001 4.104 102.689 3.792C102.377 3.48 101.945 3.324 101.393 3.324C101.057 3.324 100.725 3.388 100.397 3.516C100.077 3.636 99.7407 3.816 99.3887 4.056L99.0767 3.48C99.4847 3.2 99.8847 2.992 100.277 2.856C100.669 2.712 101.069 2.64 101.477 2.64C102.245 2.64 102.853 2.86 103.301 3.3C103.749 3.74 103.973 4.348 103.973 5.124V8.016C103.973 8.128 103.997 8.212 104.045 8.268C104.093 8.316 104.169 8.344 104.273 8.352V9C104.185 9.008 104.109 9.016 104.045 9.024C103.981 9.032 103.933 9.032 103.901 9.024C103.701 9.016 103.549 8.952 103.445 8.832C103.341 8.712 103.285 8.584 103.277 8.448L103.265 7.992C102.985 8.352 102.621 8.632 102.173 8.832C101.725 9.024 101.269 9.12 100.805 9.12C100.405 9.12 100.041 9.036 99.7127 8.868C99.3927 8.692 99.1407 8.46 98.9567 8.172C98.7807 7.876 98.6927 7.552 98.6927 7.2ZM102.881 7.68C102.969 7.568 103.037 7.46 103.085 7.356C103.133 7.252 103.157 7.16 103.157 7.08V6.168C102.885 6.064 102.601 5.984 102.305 5.928C102.017 5.872 101.725 5.844 101.429 5.844C100.845 5.844 100.373 5.96 100.013 6.192C99.6527 6.424 99.4727 6.74 99.4727 7.14C99.4727 7.372 99.5327 7.592 99.6527 7.8C99.7727 8 99.9487 8.168 100.181 8.304C100.413 8.432 100.685 8.496 100.997 8.496C101.389 8.496 101.753 8.42 102.089 8.268C102.433 8.116 102.697 7.92 102.881 7.68ZM110.176 3.468C109.632 3.484 109.152 3.636 108.736 3.924C108.328 4.212 108.04 4.608 107.872 5.112V9H107.056V2.748H107.824V4.248C108.04 3.808 108.324 3.452 108.676 3.18C109.036 2.908 109.416 2.756 109.816 2.724C109.896 2.716 109.964 2.712 110.02 2.712C110.084 2.712 110.136 2.716 110.176 2.724V3.468Z" fill="black"/>
                  </svg>