<svg width="234" height="26" viewBox="0 0 234 26" fill="none" xmlns="http://www.w3.org/2000/svg">
                    <path d="M0.386 7.576C0.386 11.008 2.399 13.252 6.293 14.143L10.22 15.034C12.497 15.562 13.52 16.75 13.52 18.631C13.52 21.007 11.507 22.492 8.339 22.492C5.336 22.492 3.422 21.04 3.356 18.763H0.0560001C0.254 22.855 3.488 25.396 8.339 25.396C13.421 25.396 16.754 22.657 16.754 18.367C16.754 15.001 14.774 12.889 10.88 11.998L6.953 11.074C4.709 10.546 3.62 9.391 3.62 7.477C3.62 5.134 5.567 3.616 8.57 3.616C11.243 3.616 12.926 5.002 13.091 7.378H16.358C16.094 3.253 13.157 0.711998 8.603 0.711998C3.686 0.711998 0.386 3.484 0.386 7.576ZM25.0089 25.396C27.6159 25.396 29.8269 24.241 30.6519 22.393L30.9819 25H33.6219V14.869C33.6219 10.513 30.9159 8.401 26.9229 8.401C22.7649 8.401 19.9929 10.612 19.9929 13.978H22.6989C22.6989 12.031 24.1839 10.876 26.7909 10.876C28.9689 10.876 30.5859 11.833 30.5859 14.539V15.001L25.5039 15.397C21.7089 15.694 19.4979 17.542 19.4979 20.512C19.4979 23.449 21.5439 25.396 25.0089 25.396ZM25.8999 22.987C23.8869 22.987 22.6329 22.129 22.6329 20.413C22.6329 18.829 23.7549 17.773 26.4939 17.509L30.6189 17.179V18.037C30.6189 21.073 28.8369 22.987 25.8999 22.987ZM42.214 25V11.47H45.382V8.863H42.214V3.814H39.112V8.863H35.944V11.47H39.112V25H42.214ZM46.9487 16.915C46.9487 21.898 50.5127 25.396 55.3637 25.396C60.1817 25.396 63.7457 21.898 63.7457 16.915C63.7457 11.932 60.1817 8.434 55.3637 8.434C50.5127 8.434 46.9487 11.932 46.9487 16.915ZM50.0837 16.915C50.0837 13.549 52.2287 11.206 55.3637 11.206C58.4657 11.206 60.6437 13.549 60.6437 16.915C60.6437 20.281 58.4657 22.624 55.3637 22.624C52.2287 22.624 50.0837 20.281 50.0837 16.915ZM65.8595 20.314C65.8595 23.383 68.2685 25.396 72.0635 25.396C75.8915 25.396 78.5315 23.449 78.5315 20.38C78.5315 17.971 77.1785 16.717 74.4395 16.057L71.6015 15.364C70.0175 14.968 69.2255 14.242 69.2255 13.153C69.2255 11.668 70.3145 10.81 72.2615 10.81C74.1425 10.81 75.2315 11.833 75.2975 13.45H78.2675C78.2015 10.381 75.8915 8.401 72.3605 8.401C68.7965 8.401 66.2885 10.282 66.2885 13.252C66.2885 15.628 67.6415 17.047 70.5125 17.74L73.3505 18.4C75.0335 18.829 75.5615 19.489 75.5615 20.578C75.5615 22.063 74.3075 22.954 72.1295 22.954C70.0835 22.954 68.8295 21.964 68.8295 20.314H65.8595ZM85.0735 24.967V16.189C85.0735 13.417 86.6905 11.239 89.6935 11.239C92.0035 11.239 93.5545 12.559 93.5545 15.826V25H96.6565V15.133C96.6565 11.008 94.6765 8.401 90.5515 8.401C88.0435 8.401 86.0965 9.589 85.0735 11.338V0.711998H81.9715V24.967H85.0735ZM102.471 5.035C103.593 5.035 104.517 4.111 104.517 2.989C104.517 1.834 103.593 0.942999 102.471 0.942999C101.349 0.942999 100.425 1.834 100.425 2.989C100.425 4.111 101.349 5.035 102.471 5.035ZM100.953 25H104.055V8.863H100.953V25ZM121.278 25V14.803C121.278 11.47 121.212 9.028 121.047 7.873L127.977 25H131.013L137.976 7.807C137.811 9.49 137.778 11.107 137.778 15.562V25H140.946V1.141H137.712L129.495 21.205L121.278 1.141H118.11V25H121.278ZM152.936 25.396C156.929 25.396 159.635 23.449 160.427 19.984H157.523C156.995 21.832 155.411 22.822 153.002 22.822C149.933 22.822 148.151 20.941 147.92 17.542L160.394 17.509V16.354C160.394 11.569 157.391 8.401 152.804 8.401C148.118 8.401 144.917 11.899 144.917 16.948C144.917 21.964 148.184 25.396 152.936 25.396ZM152.804 11.008C155.543 11.008 157.292 12.79 157.292 15.463H147.986C148.382 12.625 150.098 11.008 152.804 11.008ZM170.327 25.396C172.901 25.396 175.079 24.274 176.135 22.063L176.399 25H179.171V0.711998H176.102V11.47C175.013 9.49 172.934 8.401 170.459 8.401C165.674 8.401 162.803 12.031 162.803 16.981C162.803 21.898 165.641 25.396 170.327 25.396ZM170.954 22.591C167.786 22.591 165.938 20.215 165.938 16.882C165.938 13.582 167.786 11.206 170.954 11.206C174.122 11.206 176.069 13.582 176.069 16.882C176.069 20.248 174.122 22.591 170.954 22.591ZM185.164 5.035C186.286 5.035 187.21 4.111 187.21 2.989C187.21 1.834 186.286 0.942999 185.164 0.942999C184.042 0.942999 183.118 1.834 183.118 2.989C183.118 4.111 184.042 5.035 185.164 5.035ZM183.646 25H186.748V8.863H183.646V25ZM201.407 8.863V17.377C201.407 20.842 199.856 22.657 197.018 22.657C194.642 22.657 193.157 21.337 193.157 17.872V8.863H190.055V18.895C190.055 22.855 192.167 25.396 195.929 25.396C198.305 25.396 200.45 24.241 201.374 22.558L201.704 25H204.476V8.863H201.407ZM212.078 25V15.43C212.078 12.856 213.629 11.239 215.972 11.239C218.15 11.239 219.536 12.625 219.536 15.166V25H222.605V15.43C222.605 12.856 224.156 11.206 226.499 11.206C228.677 11.206 230.096 12.658 230.096 15.199V25H233.132V14.44C233.132 10.711 230.888 8.401 227.192 8.401C224.684 8.401 222.737 9.655 221.978 11.668C221.153 9.655 219.371 8.401 216.863 8.401C214.586 8.401 212.87 9.457 212.045 10.975L211.748 8.863H208.976V25H212.078Z" fill="black"/>
                  </svg>