<svg width="109" height="16" viewBox="0 0 109 16" fill="none" xmlns="http://www.w3.org/2000/svg">
                    <path d="M0.741 4.987C0.741 7.115 1.976 8.464 4.332 8.977L6.536 9.471C7.676 9.718 8.151 10.269 8.151 11.2C8.151 12.359 7.125 13.062 5.51 13.062C3.952 13.062 3.002 12.359 2.983 11.181H0.551C0.608 13.67 2.546 15.247 5.51 15.247C8.569 15.247 10.583 13.575 10.583 10.991C10.583 8.92 9.424 7.704 7.049 7.191L4.864 6.716C3.705 6.45 3.173 5.899 3.173 4.911C3.173 3.752 4.142 3.03 5.643 3.03C7.011 3.03 7.866 3.733 7.923 4.93H10.355C10.279 2.422 8.493 0.864 5.681 0.864C2.755 0.864 0.741 2.555 0.741 4.987ZM15.2341 15.247C16.6971 15.247 17.9701 14.582 18.3691 13.613L18.5401 15H20.5731V9.3C20.5731 6.697 19.0151 5.329 16.4881 5.329C13.9421 5.329 12.2701 6.659 12.2701 8.692H14.2461C14.2461 7.704 15.0061 7.134 16.3741 7.134C17.5521 7.134 18.3121 7.647 18.3121 8.92V9.129L15.5001 9.338C13.2771 9.509 12.0231 10.592 12.0231 12.321C12.0231 14.088 13.2391 15.247 15.2341 15.247ZM15.9941 13.499C14.9491 13.499 14.3791 13.081 14.3791 12.226C14.3791 11.466 14.9301 10.991 16.3741 10.858L18.3311 10.706V11.2C18.3311 12.644 17.4191 13.499 15.9941 13.499ZM25.9124 15V7.552H27.7364V5.614H25.9124V2.688H23.5944V5.614H21.7894V7.552H23.5944V15H25.9124ZM28.5337 10.288C28.5337 13.214 30.6427 15.228 33.5497 15.228C36.4567 15.228 38.5657 13.214 38.5657 10.288C38.5657 7.362 36.4567 5.348 33.5497 5.348C30.6427 5.348 28.5337 7.362 28.5337 10.288ZM30.8517 10.288C30.8517 8.578 31.9537 7.419 33.5497 7.419C35.1457 7.419 36.2477 8.578 36.2477 10.288C36.2477 11.998 35.1457 13.157 33.5497 13.157C31.9537 13.157 30.8517 11.998 30.8517 10.288ZM39.6811 12.15C39.6811 13.993 41.1631 15.247 43.5001 15.247C45.8181 15.247 47.4331 14.069 47.4331 12.169C47.4331 10.725 46.6351 10.003 45.0581 9.642L43.3671 9.243C42.5691 9.053 42.1511 8.711 42.1511 8.179C42.1511 7.476 42.6831 7.058 43.5951 7.058C44.4881 7.058 45.0201 7.571 45.0391 8.369H47.2431C47.2241 6.545 45.7991 5.329 43.6901 5.329C41.5241 5.329 39.9661 6.431 39.9661 8.274C39.9661 9.775 40.7831 10.573 42.4741 10.953L44.1651 11.352C45.0011 11.542 45.2481 11.884 45.2481 12.359C45.2481 13.043 44.6591 13.48 43.5761 13.48C42.5121 13.48 41.9041 12.967 41.8851 12.15H39.6811ZM51.516 15V9.87C51.516 8.464 52.371 7.438 53.834 7.438C55.012 7.438 55.791 8.198 55.791 9.775V15H58.109V9.224C58.109 6.792 56.893 5.329 54.575 5.329C53.226 5.329 52.124 5.918 51.535 6.83V0.864H49.198V15H51.516ZM61.5455 3.733C62.3055 3.733 62.9325 3.106 62.9325 2.327C62.9325 1.548 62.3055 0.94 61.5455 0.94C60.7475 0.94 60.1205 1.548 60.1205 2.327C60.1205 3.106 60.7475 3.733 61.5455 3.733ZM60.3865 15H62.7045V5.614H60.3865V15ZM70.5624 15H76.1864C79.0554 15 80.7084 13.613 80.7084 11.238C80.7084 9.623 79.9674 8.521 78.5044 8.046C79.8154 7.495 80.4994 6.393 80.4994 4.854C80.4994 2.536 78.8274 1.111 76.0914 1.111H70.5624V15ZM75.8824 3.258C77.2504 3.258 78.0104 3.904 78.0104 5.101C78.0104 6.336 77.2694 7.039 75.9394 7.039H72.9944V3.258H75.8824ZM76.0914 9.091C77.4404 9.091 78.2194 9.756 78.2194 10.934C78.2194 12.188 77.4594 12.853 76.0914 12.853H72.9944V9.091H76.0914ZM82.0454 10.288C82.0454 13.214 84.1544 15.228 87.0614 15.228C89.9684 15.228 92.0774 13.214 92.0774 10.288C92.0774 7.362 89.9684 5.348 87.0614 5.348C84.1544 5.348 82.0454 7.362 82.0454 10.288ZM84.3634 10.288C84.3634 8.578 85.4654 7.419 87.0614 7.419C88.6574 7.419 89.7594 8.578 89.7594 10.288C89.7594 11.998 88.6574 13.157 87.0614 13.157C85.4654 13.157 84.3634 11.998 84.3634 10.288ZM96.2518 15V0.864H93.9528V15H96.2518ZM102.54 15.247C103.965 15.247 105.181 14.62 105.751 13.537L105.903 15H108.031V0.864H105.732V6.811C105.143 5.88 103.984 5.329 102.673 5.329C99.8423 5.329 98.1323 7.419 98.1323 10.345C98.1323 13.252 99.8233 15.247 102.54 15.247ZM103.053 13.119C101.438 13.119 100.45 11.941 100.45 10.269C100.45 8.597 101.438 7.4 103.053 7.4C104.668 7.4 105.713 8.578 105.713 10.269C105.713 11.96 104.668 13.119 103.053 13.119Z" fill="black"/>
                  </svg> 