<svg width="102" height="15" viewBox="0 0 102 15" fill="none" xmlns="http://www.w3.org/2000/svg">
                    <path d="M0.66 3.05C0.66 4.52 1.545 5.48 3.225 5.885L5.04 6.335C6.195 6.605 6.735 7.235 6.735 8.195C6.735 9.425 5.73 10.19 4.155 10.19C2.685 10.19 1.695 9.455 1.635 8.33H0.525C0.66 10.085 2.07 11.18 4.155 11.18C6.375 11.18 7.815 9.995 7.815 8.135C7.815 6.68 6.945 5.72 5.265 5.315L3.42 4.865C2.295 4.58 1.74 3.98 1.74 3.035C1.74 1.82 2.73 1.04 4.245 1.04C5.595 1.04 6.42 1.73 6.54 2.945H7.635C7.47 1.145 6.195 0.0649995 4.26 0.0649995C2.1 0.0649995 0.66 1.25 0.66 3.05ZM11.6171 11.18C12.8471 11.18 13.8371 10.64 14.2871 9.725L14.4221 11H15.2921V6.305C15.2921 4.385 14.0621 3.545 12.3821 3.545C10.5971 3.545 9.39715 4.49 9.39715 5.96H10.3421C10.3421 4.985 11.0921 4.415 12.3521 4.415C13.4171 4.415 14.2721 4.865 14.2721 6.29V6.53L11.8721 6.725C10.1771 6.86 9.15715 7.7 9.15715 9.035C9.15715 10.31 10.0721 11.18 11.6171 11.18ZM11.8571 10.34C10.8671 10.34 10.2071 9.89 10.2071 9.005C10.2071 8.195 10.7621 7.595 12.1271 7.475L14.2721 7.31V7.7C14.2721 9.275 13.3871 10.34 11.8571 10.34ZM18.9022 11V4.61H20.3572V3.74H18.9022V1.445H17.8822V3.74H16.4272V4.61H17.8822V11H18.9022ZM21.1218 7.37C21.1218 9.575 22.6818 11.18 24.8118 11.18C26.9418 11.18 28.5018 9.575 28.5018 7.37C28.5018 5.15 26.9418 3.545 24.8118 3.545C22.6818 3.545 21.1218 5.15 21.1218 7.37ZM22.1718 7.355C22.1718 5.675 23.2518 4.475 24.8118 4.475C26.3568 4.475 27.4518 5.675 27.4518 7.355C27.4518 9.065 26.3568 10.25 24.8118 10.25C23.2518 10.25 22.1718 9.065 22.1718 7.355ZM29.5421 8.96C29.5421 10.31 30.5621 11.18 32.1971 11.18C33.8471 11.18 34.9571 10.325 34.9571 9.02C34.9571 7.97 34.3871 7.385 33.1271 7.07L31.8821 6.755C31.0871 6.56 30.6971 6.17 30.6971 5.615C30.6971 4.835 31.2671 4.4 32.2871 4.4C33.2621 4.4 33.8471 4.895 33.8771 5.735H34.8821C34.8371 4.385 33.8471 3.545 32.3171 3.545C30.7571 3.545 29.6921 4.355 29.6921 5.63C29.6921 6.62 30.3071 7.28 31.5671 7.595L32.8121 7.91C33.6671 8.12 33.9671 8.465 33.9671 9.065C33.9671 9.845 33.3071 10.325 32.1821 10.325C31.1621 10.325 30.5321 9.8 30.5321 8.96H29.5421ZM37.6961 10.985V7.04C37.6961 5.645 38.5061 4.49 40.0661 4.49C41.1911 4.49 41.9861 5.09 41.9861 6.785V11H43.0211V6.56C43.0211 4.73 42.1661 3.545 40.2611 3.545C39.0461 3.545 38.1611 4.13 37.6961 5V0.0649995H36.6611V10.985H37.6961ZM45.5939 1.745C46.0139 1.745 46.3739 1.4 46.3739 0.979999C46.3739 0.559999 46.0139 0.2 45.5939 0.2C45.1739 0.2 44.8289 0.559999 44.8289 0.979999C44.8289 1.4 45.1739 1.745 45.5939 1.745ZM45.0839 11H46.1189V3.74H45.0839V11ZM53.7424 11V6.545H56.8774L59.0674 11H60.2674L57.9724 6.365C59.3524 5.99 60.1624 4.91 60.1624 3.365C60.1624 1.46 58.8424 0.26 56.6674 0.26H52.6624V11H53.7424ZM53.7424 1.235H56.6674C58.1374 1.235 59.0524 2 59.0524 3.395C59.0524 4.76 58.1824 5.57 56.6974 5.57H53.7424V1.235ZM64.5498 11.18C66.2598 11.18 67.3848 10.355 67.7748 8.825H66.7848C66.5148 9.785 65.7498 10.295 64.5648 10.295C63.0048 10.295 62.0748 9.275 61.9998 7.505H67.7748V6.995C67.7748 4.94 66.4398 3.545 64.4748 3.545C62.4048 3.545 60.9948 5.105 60.9948 7.37C60.9948 9.65 62.4198 11.18 64.5498 11.18ZM64.4748 4.43C65.8398 4.43 66.7398 5.36 66.7398 6.755H62.0298C62.2098 5.33 63.1098 4.43 64.4748 4.43ZM68.9346 7.16C68.9346 9.14 70.1946 10.775 72.2646 10.775C73.5096 10.775 74.5146 10.175 75.0096 9.155V10.88C75.0096 12.395 74.0196 13.4 72.5346 13.4C71.2296 13.4 70.3296 12.71 70.1046 11.54H69.0696C69.3546 13.295 70.6596 14.345 72.5196 14.345C74.6496 14.345 76.0296 12.935 76.0296 10.775V3.74H75.1296L75.0246 5.195C74.5596 4.13 73.5996 3.545 72.3396 3.545C70.2096 3.545 68.9346 5.18 68.9346 7.16ZM69.9696 7.145C69.9696 5.675 70.8696 4.46 72.4296 4.46C74.0196 4.46 74.9196 5.6 74.9196 7.145C74.9196 8.705 73.9896 9.845 72.4146 9.845C70.8846 9.845 69.9696 8.63 69.9696 7.145ZM83.2894 3.74V7.595C83.2894 9.32 82.4644 10.25 81.0694 10.25C79.9144 10.25 79.1494 9.635 79.1494 7.91V3.725H78.0994V8.24C78.0994 10.01 79.0294 11.18 80.7394 11.18C81.8794 11.18 82.8844 10.61 83.2894 9.77L83.4244 11H84.3244V3.74H83.2894ZM87.5604 11V0.0649995H86.5254V11H87.5604ZM91.8466 11.18C93.0766 11.18 94.0666 10.64 94.5166 9.725L94.6516 11H95.5216V6.305C95.5216 4.385 94.2916 3.545 92.6116 3.545C90.8266 3.545 89.6266 4.49 89.6266 5.96H90.5716C90.5716 4.985 91.3216 4.415 92.5816 4.415C93.6466 4.415 94.5016 4.865 94.5016 6.29V6.53L92.1016 6.725C90.4066 6.86 89.3866 7.7 89.3866 9.035C89.3866 10.31 90.3016 11.18 91.8466 11.18ZM92.0866 10.34C91.0966 10.34 90.4366 9.89 90.4366 9.005C90.4366 8.195 90.9916 7.595 92.3566 7.475L94.5016 7.31V7.7C94.5016 9.275 93.6166 10.34 92.0866 10.34ZM101.394 3.65C101.139 3.59 100.944 3.575 100.719 3.575C99.6986 3.575 98.9336 4.085 98.6486 4.865L98.5736 3.74H97.5986V11H98.6336V6.86C98.6336 5.48 99.4886 4.58 100.824 4.58H101.394V3.65Z" fill="black"/>
                  </svg> 