<svg width="206" height="23" viewBox="0 0 206 23" fill="none" xmlns="http://www.w3.org/2000/svg">
                    <path d="M1.218 6.688C1.218 9.704 2.987 11.676 6.409 12.459L9.86 13.242C11.861 13.706 12.76 14.75 12.76 16.403C12.76 18.491 10.991 19.796 8.207 19.796C5.568 19.796 3.886 18.52 3.828 16.519H0.928C1.102 20.115 3.944 22.348 8.207 22.348C12.673 22.348 15.602 19.941 15.602 16.171C15.602 13.213 13.862 11.357 10.44 10.574L6.989 9.762C5.017 9.298 4.06 8.283 4.06 6.601C4.06 4.542 5.771 3.208 8.41 3.208C10.759 3.208 12.238 4.426 12.383 6.514H15.254C15.022 2.889 12.441 0.655998 8.439 0.655998C4.118 0.655998 1.218 3.092 1.218 6.688ZM22.8563 22.348C25.1473 22.348 27.0903 21.333 27.8153 19.709L28.1053 22H30.4253V13.097C30.4253 9.269 28.0473 7.413 24.5383 7.413C20.8843 7.413 18.4483 9.356 18.4483 12.314H20.8263C20.8263 10.603 22.1313 9.588 24.4223 9.588C26.3363 9.588 27.7573 10.429 27.7573 12.807V13.213L23.2913 13.561C19.9563 13.822 18.0133 15.446 18.0133 18.056C18.0133 20.637 19.8113 22.348 22.8563 22.348ZM23.6393 20.231C21.8703 20.231 20.7683 19.477 20.7683 17.969C20.7683 16.577 21.7543 15.649 24.1613 15.417L27.7863 15.127V15.881C27.7863 18.549 26.2203 20.231 23.6393 20.231ZM37.976 22V10.11H40.76V7.819H37.976V3.382H35.25V7.819H32.466V10.11H35.25V22H37.976ZM42.1368 14.895C42.1368 19.274 45.2688 22.348 49.5318 22.348C53.7658 22.348 56.8978 19.274 56.8978 14.895C56.8978 10.516 53.7658 7.442 49.5318 7.442C45.2688 7.442 42.1368 10.516 42.1368 14.895ZM44.8918 14.895C44.8918 11.937 46.7768 9.878 49.5318 9.878C52.2578 9.878 54.1718 11.937 54.1718 14.895C54.1718 17.853 52.2578 19.912 49.5318 19.912C46.7768 19.912 44.8918 17.853 44.8918 14.895ZM58.7554 17.882C58.7554 20.579 60.8724 22.348 64.2074 22.348C67.5714 22.348 69.8914 20.637 69.8914 17.94C69.8914 15.823 68.7024 14.721 66.2954 14.141L63.8014 13.532C62.4094 13.184 61.7134 12.546 61.7134 11.589C61.7134 10.284 62.6704 9.53 64.3814 9.53C66.0344 9.53 66.9914 10.429 67.0494 11.85H69.6594C69.6014 9.153 67.5714 7.413 64.4684 7.413C61.3364 7.413 59.1324 9.066 59.1324 11.676C59.1324 13.764 60.3214 15.011 62.8444 15.62L65.3384 16.2C66.8174 16.577 67.2814 17.157 67.2814 18.114C67.2814 19.419 66.1794 20.202 64.2654 20.202C62.4674 20.202 61.3654 19.332 61.3654 17.882H58.7554ZM75.6404 21.971V14.257C75.6404 11.821 77.0614 9.907 79.7004 9.907C81.7304 9.907 83.0934 11.067 83.0934 13.938V22H85.8194V13.329C85.8194 9.704 84.0794 7.413 80.4544 7.413C78.2504 7.413 76.5394 8.457 75.6404 9.994V0.655998H72.9144V21.971H75.6404ZM90.929 4.455C91.915 4.455 92.727 3.643 92.727 2.657C92.727 1.642 91.915 0.858999 90.929 0.858999C89.943 0.858999 89.131 1.642 89.131 2.657C89.131 3.643 89.943 4.455 90.929 4.455ZM89.595 22H92.321V7.819H89.595V22ZM107.456 22V13.039C107.456 10.11 107.398 7.964 107.253 6.949L113.343 22H116.011L122.13 6.891C121.985 8.37 121.956 9.791 121.956 13.706V22H124.74V1.033H121.898L114.677 18.665L107.456 1.033H104.672V22H107.456ZM135.278 22.348C138.787 22.348 141.165 20.637 141.861 17.592H139.309C138.845 19.216 137.453 20.086 135.336 20.086C132.639 20.086 131.073 18.433 130.87 15.446L141.832 15.417V14.402C141.832 10.197 139.193 7.413 135.162 7.413C131.044 7.413 128.231 10.487 128.231 14.924C128.231 19.332 131.102 22.348 135.278 22.348ZM135.162 9.704C137.569 9.704 139.106 11.27 139.106 13.619H130.928C131.276 11.125 132.784 9.704 135.162 9.704ZM150.56 22.348C152.822 22.348 154.736 21.362 155.664 19.419L155.896 22H158.332V0.655998H155.635V10.11C154.678 8.37 152.851 7.413 150.676 7.413C146.471 7.413 143.948 10.603 143.948 14.953C143.948 19.274 146.442 22.348 150.56 22.348ZM151.111 19.883C148.327 19.883 146.703 17.795 146.703 14.866C146.703 11.966 148.327 9.878 151.111 9.878C153.895 9.878 155.606 11.966 155.606 14.866C155.606 17.824 153.895 19.883 151.111 19.883ZM163.599 4.455C164.585 4.455 165.397 3.643 165.397 2.657C165.397 1.642 164.585 0.858999 163.599 0.858999C162.613 0.858999 161.801 1.642 161.801 2.657C161.801 3.643 162.613 4.455 163.599 4.455ZM162.265 22H164.991V7.819H162.265V22ZM177.873 7.819V15.301C177.873 18.346 176.51 19.941 174.016 19.941C171.928 19.941 170.623 18.781 170.623 15.736V7.819H167.897V16.635C167.897 20.115 169.753 22.348 173.059 22.348C175.147 22.348 177.032 21.333 177.844 19.854L178.134 22H180.57V7.819H177.873ZM187.251 22V13.59C187.251 11.328 188.614 9.907 190.673 9.907C192.587 9.907 193.805 11.125 193.805 13.358V22H196.502V13.59C196.502 11.328 197.865 9.878 199.924 9.878C201.838 9.878 203.085 11.154 203.085 13.387V22H205.753V12.72C205.753 9.443 203.781 7.413 200.533 7.413C198.329 7.413 196.618 8.515 195.951 10.284C195.226 8.515 193.66 7.413 191.456 7.413C189.455 7.413 187.947 8.341 187.222 9.675L186.961 7.819H184.525V22H187.251Z" fill="black"/>
                  </svg> 