<svg width="222" height="28" viewBox="0 0 222 28" fill="none" xmlns="http://www.w3.org/2000/svg">
                    <path d="M7.968 21.384C7.016 21.384 6.152 21.264 5.376 21.024C4.6 20.784 3.916 20.488 3.324 20.136C2.74 19.776 2.248 19.416 1.848 19.056C1.448 18.696 1.144 18.4 0.936 18.168L2.592 15.624C2.816 15.856 3.096 16.132 3.432 16.452C3.776 16.772 4.176 17.088 4.632 17.4C5.088 17.704 5.6 17.96 6.168 18.168C6.736 18.368 7.364 18.468 8.052 18.468C8.7 18.468 9.28 18.36 9.792 18.144C10.304 17.928 10.712 17.608 11.016 17.184C11.32 16.752 11.472 16.22 11.472 15.588C11.472 15.036 11.356 14.564 11.124 14.172C10.9 13.78 10.576 13.44 10.152 13.152C9.728 12.856 9.224 12.576 8.64 12.312C8.056 12.04 7.404 11.76 6.684 11.472C6.172 11.256 5.664 11.004 5.16 10.716C4.664 10.428 4.212 10.084 3.804 9.684C3.404 9.284 3.084 8.824 2.844 8.304C2.604 7.776 2.484 7.168 2.484 6.48C2.484 5.736 2.628 5.028 2.916 4.356C3.212 3.676 3.628 3.072 4.164 2.544C4.7 2.016 5.336 1.6 6.072 1.296C6.816 0.991999 7.644 0.839999 8.556 0.839999C9.3 0.839999 10.024 0.947999 10.728 1.164C11.432 1.38 12.072 1.66 12.648 2.004C13.232 2.348 13.708 2.716 14.076 3.108L12.708 5.496C12.404 5.184 12.04 4.892 11.616 4.62C11.2 4.34 10.736 4.116 10.224 3.948C9.712 3.78 9.176 3.696 8.616 3.696C7.96 3.696 7.404 3.824 6.948 4.08C6.492 4.336 6.14 4.672 5.892 5.088C5.652 5.496 5.532 5.94 5.532 6.42C5.532 6.836 5.616 7.192 5.784 7.488C5.96 7.776 6.2 8.024 6.504 8.232C6.808 8.44 7.156 8.632 7.548 8.808C7.948 8.976 8.368 9.144 8.808 9.312C9.68 9.664 10.484 10.024 11.22 10.392C11.964 10.752 12.608 11.164 13.152 11.628C13.696 12.084 14.116 12.628 14.412 13.26C14.716 13.884 14.868 14.636 14.868 15.516C14.868 16.748 14.572 17.804 13.98 18.684C13.396 19.564 12.584 20.236 11.544 20.7C10.512 21.156 9.32 21.384 7.968 21.384ZM17.9788 27.24V8.712H20.9668V10.584C21.4628 9.872 22.1068 9.32 22.8988 8.928C23.6908 8.528 24.5548 8.328 25.4908 8.328C26.6748 8.328 27.7268 8.612 28.6468 9.18C29.5748 9.748 30.3068 10.524 30.8428 11.508C31.3788 12.484 31.6468 13.6 31.6468 14.856C31.6468 16.096 31.3788 17.208 30.8428 18.192C30.3148 19.176 29.5908 19.956 28.6708 20.532C27.7588 21.1 26.7228 21.384 25.5628 21.384C24.6348 21.384 23.7708 21.18 22.9708 20.772C22.1708 20.356 21.5028 19.776 20.9668 19.032V27.24H17.9788ZM24.7108 18.828C25.4468 18.828 26.0988 18.66 26.6668 18.324C27.2428 17.98 27.6948 17.512 28.0228 16.92C28.3508 16.32 28.5148 15.636 28.5148 14.868C28.5148 14.1 28.3468 13.416 28.0108 12.816C27.6828 12.208 27.2348 11.736 26.6668 11.4C26.0988 11.056 25.4468 10.884 24.7108 10.884C23.9748 10.884 23.3188 11.056 22.7428 11.4C22.1668 11.736 21.7108 12.204 21.3748 12.804C21.0468 13.404 20.8828 14.088 20.8828 14.856C20.8828 15.624 21.0468 16.308 21.3748 16.908C21.7028 17.508 22.1548 17.98 22.7308 18.324C23.3148 18.66 23.9748 18.828 24.7108 18.828ZM39.798 21.384C38.662 21.384 37.63 21.104 36.702 20.544C35.782 19.976 35.05 19.2 34.506 18.216C33.97 17.232 33.702 16.108 33.702 14.844C33.702 13.596 33.962 12.484 34.482 11.508C35.01 10.524 35.734 9.748 36.654 9.18C37.574 8.612 38.622 8.328 39.798 8.328C40.758 8.328 41.642 8.528 42.45 8.928C43.258 9.328 43.898 9.884 44.37 10.596V8.712H47.358V21H44.37V19.032C43.826 19.776 43.158 20.356 42.366 20.772C41.582 21.18 40.726 21.384 39.798 21.384ZM40.65 18.828C41.394 18.828 42.05 18.66 42.618 18.324C43.186 17.98 43.634 17.508 43.962 16.908C44.29 16.308 44.454 15.624 44.454 14.856C44.454 14.08 44.29 13.396 43.962 12.804C43.634 12.204 43.186 11.736 42.618 11.4C42.05 11.056 41.394 10.884 40.65 10.884C39.914 10.884 39.258 11.056 38.682 11.4C38.106 11.736 37.654 12.204 37.326 12.804C36.998 13.404 36.834 14.088 36.834 14.856C36.834 15.624 36.998 16.308 37.326 16.908C37.654 17.508 38.106 17.98 38.682 18.324C39.258 18.66 39.914 18.828 40.65 18.828ZM51.2732 21V8.712H54.2612V10.5C54.6932 9.796 55.2332 9.26 55.8812 8.892C56.5292 8.516 57.2412 8.328 58.0172 8.328C58.4252 8.328 58.8412 8.384 59.2652 8.496C59.6972 8.6 60.0652 8.74 60.3692 8.916L59.1332 11.448C58.8692 11.288 58.5612 11.16 58.2092 11.064C57.8652 10.968 57.5452 10.92 57.2492 10.92C56.7372 10.92 56.2532 11.052 55.7972 11.316C55.3412 11.58 54.9692 11.92 54.6812 12.336C54.4012 12.752 54.2612 13.2 54.2612 13.68V21H51.2732ZM65.9473 21.384C64.8353 21.384 63.9673 21.024 63.3433 20.304C62.7273 19.584 62.4193 18.572 62.4193 17.268V10.98H60.9193V8.712H62.4193V4.116H65.4073V8.712H68.2393V10.98H65.4073V17.064C65.4073 17.6 65.5153 18.012 65.7313 18.3C65.9473 18.58 66.2553 18.72 66.6553 18.72C67.0713 18.72 67.4513 18.592 67.7953 18.336L68.5513 20.724C68.1913 20.932 67.7793 21.092 67.3153 21.204C66.8513 21.324 66.3953 21.384 65.9473 21.384ZM76.3802 21.384C75.2442 21.384 74.2122 21.104 73.2842 20.544C72.3642 19.976 71.6322 19.2 71.0882 18.216C70.5522 17.232 70.2842 16.108 70.2842 14.844C70.2842 13.596 70.5442 12.484 71.0642 11.508C71.5922 10.524 72.3162 9.748 73.2362 9.18C74.1562 8.612 75.2042 8.328 76.3802 8.328C77.3402 8.328 78.2242 8.528 79.0322 8.928C79.8402 9.328 80.4802 9.884 80.9522 10.596V8.712H83.9402V21H80.9522V19.032C80.4082 19.776 79.7402 20.356 78.9482 20.772C78.1642 21.18 77.3082 21.384 76.3802 21.384ZM77.2322 18.828C77.9762 18.828 78.6322 18.66 79.2002 18.324C79.7682 17.98 80.2162 17.508 80.5442 16.908C80.8722 16.308 81.0362 15.624 81.0362 14.856C81.0362 14.08 80.8722 13.396 80.5442 12.804C80.2162 12.204 79.7682 11.736 79.2002 11.4C78.6322 11.056 77.9762 10.884 77.2322 10.884C76.4962 10.884 75.8402 11.056 75.2642 11.4C74.6882 11.736 74.2362 12.204 73.9082 12.804C73.5802 13.404 73.4162 14.088 73.4162 14.856C73.4162 15.624 73.5802 16.308 73.9082 16.908C74.2362 17.508 74.6882 17.98 75.2642 18.324C75.8402 18.66 76.4962 18.828 77.2322 18.828ZM87.8554 21V8.712H90.8434V10.188C91.2674 9.644 91.8314 9.2 92.5354 8.856C93.2474 8.504 94.0594 8.328 94.9714 8.328C95.9154 8.328 96.7394 8.532 97.4434 8.94C98.1554 9.34 98.7074 9.908 99.0994 10.644C99.4914 11.38 99.6874 12.252 99.6874 13.26V21H96.6994V13.884C96.6994 12.86 96.4434 12.072 95.9314 11.52C95.4274 10.96 94.7274 10.68 93.8314 10.68C93.2154 10.68 92.6834 10.808 92.2354 11.064C91.7874 11.312 91.4434 11.648 91.2034 12.072C90.9634 12.488 90.8434 12.952 90.8434 13.464V21H87.8554ZM114.192 21.384C113.24 21.384 112.376 21.264 111.6 21.024C110.824 20.784 110.14 20.488 109.548 20.136C108.964 19.776 108.472 19.416 108.072 19.056C107.672 18.696 107.368 18.4 107.16 18.168L108.816 15.624C109.04 15.856 109.32 16.132 109.656 16.452C110 16.772 110.4 17.088 110.856 17.4C111.312 17.704 111.824 17.96 112.392 18.168C112.96 18.368 113.588 18.468 114.276 18.468C114.924 18.468 115.504 18.36 116.016 18.144C116.528 17.928 116.936 17.608 117.24 17.184C117.544 16.752 117.696 16.22 117.696 15.588C117.696 15.036 117.58 14.564 117.348 14.172C117.124 13.78 116.8 13.44 116.376 13.152C115.952 12.856 115.448 12.576 114.864 12.312C114.28 12.04 113.628 11.76 112.908 11.472C112.396 11.256 111.888 11.004 111.384 10.716C110.888 10.428 110.436 10.084 110.028 9.684C109.628 9.284 109.308 8.824 109.068 8.304C108.828 7.776 108.708 7.168 108.708 6.48C108.708 5.736 108.852 5.028 109.14 4.356C109.436 3.676 109.852 3.072 110.388 2.544C110.924 2.016 111.56 1.6 112.296 1.296C113.04 0.991999 113.868 0.839999 114.78 0.839999C115.524 0.839999 116.248 0.947999 116.952 1.164C117.656 1.38 118.296 1.66 118.872 2.004C119.456 2.348 119.932 2.716 120.3 3.108L118.932 5.496C118.628 5.184 118.264 4.892 117.84 4.62C117.424 4.34 116.96 4.116 116.448 3.948C115.936 3.78 115.4 3.696 114.84 3.696C114.184 3.696 113.628 3.824 113.172 4.08C112.716 4.336 112.364 4.672 112.116 5.088C111.876 5.496 111.756 5.94 111.756 6.42C111.756 6.836 111.84 7.192 112.008 7.488C112.184 7.776 112.424 8.024 112.728 8.232C113.032 8.44 113.38 8.632 113.772 8.808C114.172 8.976 114.592 9.144 115.032 9.312C115.904 9.664 116.708 10.024 117.444 10.392C118.188 10.752 118.832 11.164 119.376 11.628C119.92 12.084 120.34 12.628 120.636 13.26C120.94 13.884 121.092 14.636 121.092 15.516C121.092 16.748 120.796 17.804 120.204 18.684C119.62 19.564 118.808 20.236 117.768 20.7C116.736 21.156 115.544 21.384 114.192 21.384ZM130.059 21.384C128.747 21.384 127.571 21.1 126.531 20.532C125.499 19.964 124.679 19.188 124.071 18.204C123.471 17.22 123.171 16.112 123.171 14.88C123.171 13.968 123.343 13.116 123.687 12.324C124.031 11.532 124.507 10.836 125.115 10.236C125.723 9.636 126.431 9.168 127.239 8.832C128.047 8.496 128.919 8.328 129.855 8.328C131.135 8.328 132.255 8.592 133.215 9.12C134.183 9.648 134.935 10.384 135.471 11.328C136.015 12.272 136.287 13.372 136.287 14.628C136.287 14.732 136.283 14.82 136.275 14.892C136.267 14.956 136.251 15.068 136.227 15.228H126.219C126.219 15.972 126.387 16.628 126.723 17.196C127.059 17.756 127.527 18.196 128.127 18.516C128.735 18.828 129.431 18.984 130.215 18.984C130.959 18.984 131.619 18.836 132.195 18.54C132.779 18.236 133.307 17.776 133.779 17.16L135.951 18.276C135.367 19.252 134.555 20.016 133.515 20.568C132.483 21.112 131.331 21.384 130.059 21.384ZM126.351 13.356H133.323C133.219 12.796 133.007 12.312 132.687 11.904C132.367 11.496 131.963 11.18 131.475 10.956C130.987 10.724 130.443 10.608 129.843 10.608C129.211 10.608 128.647 10.72 128.151 10.944C127.655 11.168 127.251 11.484 126.939 11.892C126.627 12.3 126.431 12.788 126.351 13.356ZM139.139 21V8.712H142.127V10.188C142.695 9.556 143.291 9.088 143.915 8.784C144.547 8.48 145.239 8.328 145.991 8.328C146.959 8.328 147.819 8.548 148.571 8.988C149.331 9.428 149.867 10.02 150.179 10.764C150.731 9.98 151.359 9.38 152.063 8.964C152.767 8.54 153.583 8.328 154.511 8.328C155.391 8.328 156.171 8.512 156.851 8.88C157.539 9.24 158.079 9.76 158.471 10.44C158.871 11.112 159.071 11.924 159.071 12.876V21H156.083V13.692C156.083 12.78 155.843 12.06 155.363 11.532C154.891 10.996 154.255 10.728 153.455 10.728C152.911 10.728 152.423 10.844 151.991 11.076C151.559 11.308 151.219 11.616 150.971 12C150.723 12.384 150.599 12.796 150.599 13.236V21H147.611V13.572C147.611 12.708 147.379 12.02 146.915 11.508C146.451 10.988 145.819 10.728 145.019 10.728C144.467 10.728 143.971 10.844 143.531 11.076C143.099 11.308 142.755 11.616 142.499 12C142.251 12.376 142.127 12.784 142.127 13.224V21H139.139ZM162.759 21V8.712H165.747V21H162.759ZM164.259 6.192C163.931 6.192 163.627 6.112 163.347 5.952C163.075 5.784 162.855 5.564 162.687 5.292C162.527 5.012 162.447 4.704 162.447 4.368C162.447 4.04 162.527 3.74 162.687 3.468C162.855 3.196 163.075 2.98 163.347 2.82C163.627 2.652 163.931 2.568 164.259 2.568C164.595 2.568 164.895 2.652 165.159 2.82C165.431 2.98 165.647 3.196 165.807 3.468C165.975 3.74 166.059 4.04 166.059 4.368C166.059 4.704 165.975 5.012 165.807 5.292C165.647 5.564 165.431 5.784 165.159 5.952C164.895 6.112 164.595 6.192 164.259 6.192ZM177.252 21.384C176.316 21.384 175.448 21.176 174.648 20.76C173.856 20.344 173.192 19.768 172.656 19.032V21H169.668V0.36H172.656V10.596C173.152 9.884 173.792 9.328 174.576 8.928C175.368 8.528 176.24 8.328 177.192 8.328C178.368 8.328 179.42 8.612 180.348 9.18C181.276 9.748 182.004 10.524 182.532 11.508C183.068 12.484 183.336 13.6 183.336 14.856C183.336 16.12 183.064 17.244 182.52 18.228C181.976 19.212 181.244 19.984 180.324 20.544C179.412 21.104 178.388 21.384 177.252 21.384ZM176.4 18.828C177.144 18.828 177.8 18.66 178.368 18.324C178.944 17.98 179.392 17.512 179.712 16.92C180.04 16.32 180.204 15.636 180.204 14.868C180.204 14.1 180.036 13.416 179.7 12.816C179.372 12.208 178.924 11.736 178.356 11.4C177.788 11.056 177.136 10.884 176.4 10.884C175.664 10.884 175.004 11.056 174.42 11.4C173.844 11.736 173.392 12.208 173.064 12.816C172.736 13.416 172.572 14.1 172.572 14.868C172.572 15.636 172.732 16.32 173.052 16.92C173.38 17.512 173.832 17.98 174.408 18.324C174.992 18.66 175.656 18.828 176.4 18.828ZM192.351 21.384C191.023 21.384 189.823 21.108 188.751 20.556C187.687 20.004 186.843 19.236 186.219 18.252C185.595 17.268 185.283 16.136 185.283 14.856C185.283 13.568 185.595 12.436 186.219 11.46C186.843 10.476 187.687 9.708 188.751 9.156C189.815 8.604 191.015 8.328 192.351 8.328C193.679 8.328 194.875 8.604 195.939 9.156C197.011 9.708 197.855 10.476 198.471 11.46C199.095 12.436 199.407 13.568 199.407 14.856C199.407 16.136 199.095 17.268 198.471 18.252C197.855 19.236 197.011 20.004 195.939 20.556C194.875 21.108 193.679 21.384 192.351 21.384ZM192.351 18.816C193.103 18.816 193.775 18.648 194.367 18.312C194.967 17.968 195.439 17.5 195.783 16.908C196.127 16.308 196.299 15.624 196.299 14.856C196.299 14.08 196.127 13.396 195.783 12.804C195.439 12.204 194.967 11.736 194.367 11.4C193.775 11.064 193.103 10.896 192.351 10.896C191.607 10.896 190.935 11.064 190.335 11.4C189.735 11.736 189.263 12.204 188.919 12.804C188.575 13.396 188.403 14.08 188.403 14.856C188.403 15.624 188.575 16.308 188.919 16.908C189.263 17.5 189.735 17.968 190.335 18.312C190.935 18.648 191.607 18.816 192.351 18.816ZM202.259 21V0.36H205.247V21H202.259ZM214.305 21.384C213.185 21.384 212.161 21.104 211.233 20.544C210.313 19.984 209.581 19.212 209.037 18.228C208.501 17.244 208.233 16.12 208.233 14.856C208.233 13.6 208.497 12.484 209.025 11.508C209.561 10.524 210.289 9.748 211.209 9.18C212.137 8.612 213.193 8.328 214.377 8.328C215.321 8.328 216.189 8.528 216.981 8.928C217.773 9.328 218.413 9.884 218.901 10.596V0.347999H221.889V21H218.901V19.032C218.365 19.768 217.697 20.344 216.897 20.76C216.105 21.176 215.241 21.384 214.305 21.384ZM215.169 18.828C215.913 18.828 216.569 18.66 217.137 18.324C217.713 17.98 218.165 17.512 218.493 16.92C218.821 16.32 218.985 15.636 218.985 14.868C218.985 14.1 218.821 13.416 218.493 12.816C218.165 12.208 217.713 11.736 217.137 11.4C216.569 11.056 215.913 10.884 215.169 10.884C214.441 10.884 213.789 11.056 213.213 11.4C212.637 11.736 212.185 12.208 211.857 12.816C211.529 13.416 211.365 14.104 211.365 14.88C211.365 15.64 211.525 16.32 211.845 16.92C212.173 17.512 212.625 17.98 213.201 18.324C213.777 18.66 214.433 18.828 215.169 18.828Z" fill="black"/>
                  </svg> 