<svg width="125" height="17" viewBox="0 0 125 17" fill="none" xmlns="http://www.w3.org/2000/svg">
                    <path d="M4.711 13.224C4.13233 13.224 3.61667 13.1447 3.164 12.986C2.71133 12.8227 2.32167 12.6243 1.995 12.391C1.66833 12.1577 1.4 11.929 1.19 11.705C0.98 11.4763 0.826 11.2967 0.728 11.166L1.505 10.06C1.61233 10.1907 1.757 10.3587 1.939 10.564C2.121 10.7693 2.345 10.9747 2.611 11.18C2.877 11.3853 3.18733 11.558 3.542 11.698C3.89667 11.838 4.298 11.908 4.746 11.908C5.17067 11.908 5.55567 11.8333 5.901 11.684C6.24633 11.5347 6.52167 11.313 6.727 11.019C6.937 10.725 7.042 10.361 7.042 9.927C7.042 9.55833 6.96733 9.24567 6.818 8.989C6.66867 8.72767 6.461 8.50367 6.195 8.317C5.929 8.13033 5.61867 7.96 5.264 7.806C4.90933 7.64733 4.52667 7.48867 4.116 7.33C3.82667 7.21333 3.53267 7.078 3.234 6.924C2.93533 6.76533 2.66 6.574 2.408 6.35C2.156 6.12133 1.953 5.85067 1.799 5.538C1.645 5.22533 1.568 4.85667 1.568 4.432C1.568 4.00267 1.64967 3.59667 1.813 3.214C1.97633 2.83133 2.20733 2.493 2.506 2.199C2.80467 1.90033 3.15933 1.667 3.57 1.499C3.98533 1.32633 4.445 1.24 4.949 1.24C5.397 1.24 5.81933 1.31 6.216 1.45C6.61733 1.59 6.97433 1.76967 7.287 1.989C7.59967 2.20367 7.84933 2.43 8.036 2.668L7.371 3.711C7.217 3.51033 7.021 3.32133 6.783 3.144C6.545 2.962 6.272 2.815 5.964 2.703C5.656 2.591 5.32467 2.535 4.97 2.535C4.536 2.535 4.16733 2.626 3.864 2.808C3.56533 2.98533 3.33667 3.21633 3.178 3.501C3.01933 3.78567 2.94 4.089 2.94 4.411C2.94 4.70033 2.99833 4.94533 3.115 5.146C3.23633 5.34667 3.39733 5.517 3.598 5.657C3.79867 5.797 4.025 5.92067 4.277 6.028C4.529 6.13533 4.788 6.238 5.054 6.336C5.53 6.52267 5.98033 6.71633 6.405 6.917C6.82967 7.113 7.203 7.344 7.525 7.61C7.847 7.87133 8.099 8.18633 8.281 8.555C8.46767 8.92367 8.561 9.36933 8.561 9.892C8.561 10.5967 8.393 11.1987 8.057 11.698C7.72567 12.1927 7.27067 12.5707 6.692 12.832C6.11333 13.0933 5.453 13.224 4.711 13.224ZM10.9916 16.64V5.832H12.3496V7.134C12.639 6.65333 13.0286 6.28 13.5186 6.014C14.0133 5.74333 14.557 5.608 15.1496 5.608C15.8403 5.608 16.454 5.77367 16.9906 6.105C17.532 6.43633 17.959 6.889 18.2716 7.463C18.5843 8.03233 18.7406 8.68333 18.7406 9.416C18.7406 10.1393 18.5843 10.7903 18.2716 11.369C17.9636 11.943 17.5413 12.3957 17.0046 12.727C16.468 13.0583 15.859 13.224 15.1776 13.224C14.5896 13.224 14.0483 13.0863 13.5536 12.811C13.059 12.5357 12.6576 12.1507 12.3496 11.656V16.64H10.9916ZM14.8206 12.055C15.306 12.055 15.7376 11.943 16.1156 11.719C16.4936 11.4903 16.79 11.1777 17.0046 10.781C17.2193 10.3843 17.3266 9.93167 17.3266 9.423C17.3266 8.90967 17.217 8.45467 16.9976 8.058C16.783 7.65667 16.4866 7.344 16.1086 7.12C15.7353 6.89133 15.306 6.777 14.8206 6.777C14.3353 6.777 13.9013 6.89133 13.5186 7.12C13.1406 7.344 12.842 7.65433 12.6226 8.051C12.408 8.44767 12.3006 8.90267 12.3006 9.416C12.3006 9.92933 12.408 10.3843 12.6226 10.781C12.842 11.1777 13.1406 11.4903 13.5186 11.719C13.9013 11.943 14.3353 12.055 14.8206 12.055ZM24.1195 13.224C23.4522 13.224 22.8478 13.0607 22.3065 12.734C21.7698 12.4027 21.3428 11.95 21.0255 11.376C20.7128 10.802 20.5565 10.1463 20.5565 9.409C20.5565 8.681 20.7105 8.03233 21.0185 7.463C21.3265 6.889 21.7488 6.43633 22.2855 6.105C22.8222 5.77367 23.4335 5.608 24.1195 5.608C24.7262 5.608 25.2792 5.74333 25.7785 6.014C26.2825 6.28467 26.6722 6.66033 26.9475 7.141V5.832H28.3055V13H26.9475V11.656C26.6348 12.1507 26.2335 12.5357 25.7435 12.811C25.2535 13.0863 24.7122 13.224 24.1195 13.224ZM24.4835 12.055C24.9735 12.055 25.4052 11.943 25.7785 11.719C26.1565 11.4903 26.4528 11.1777 26.6675 10.781C26.8822 10.3843 26.9895 9.92933 26.9895 9.416C26.9895 8.90267 26.8822 8.44767 26.6675 8.051C26.4528 7.65433 26.1565 7.344 25.7785 7.12C25.4052 6.89133 24.9735 6.777 24.4835 6.777C23.9982 6.777 23.5665 6.89133 23.1885 7.12C22.8105 7.344 22.5118 7.65433 22.2925 8.051C22.0778 8.44767 21.9705 8.90267 21.9705 9.416C21.9705 9.92467 22.0778 10.3797 22.2925 10.781C22.5118 11.1777 22.8105 11.4903 23.1885 11.719C23.5665 11.943 23.9982 12.055 24.4835 12.055ZM31.1713 13V5.832H32.5293V6.882C32.7673 6.46667 33.0707 6.15167 33.4393 5.937C33.808 5.71767 34.2257 5.608 34.6923 5.608C34.9163 5.608 35.1427 5.636 35.3713 5.692C35.6047 5.74333 35.8053 5.81333 35.9733 5.902L35.4133 7.05C35.2687 6.97067 35.1007 6.90767 34.9093 6.861C34.718 6.81433 34.5383 6.791 34.3703 6.791C34.0577 6.791 33.759 6.87267 33.4743 7.036C33.1943 7.19467 32.9657 7.40233 32.7883 7.659C32.6157 7.91567 32.5293 8.191 32.5293 8.485V13H31.1713ZM39.6398 13.224C39.0518 13.224 38.5945 13.0303 38.2678 12.643C37.9411 12.251 37.7778 11.7027 37.7778 10.998V6.861H36.9798V5.832H37.7778V3.151H39.1358V5.832H40.8578V6.861H39.1358V10.914C39.1358 11.2687 39.2058 11.5417 39.3458 11.733C39.4858 11.9243 39.6865 12.02 39.9478 12.02C40.2091 12.02 40.4425 11.943 40.6478 11.789L40.9908 12.874C40.8088 12.9813 40.5965 13.0653 40.3538 13.126C40.1158 13.1913 39.8778 13.224 39.6398 13.224ZM46.1175 13.224C45.4502 13.224 44.8459 13.0607 44.3045 12.734C43.7679 12.4027 43.3409 11.95 43.0235 11.376C42.7109 10.802 42.5545 10.1463 42.5545 9.409C42.5545 8.681 42.7085 8.03233 43.0165 7.463C43.3245 6.889 43.7469 6.43633 44.2835 6.105C44.8202 5.77367 45.4315 5.608 46.1175 5.608C46.7242 5.608 47.2772 5.74333 47.7765 6.014C48.2805 6.28467 48.6702 6.66033 48.9455 7.141V5.832H50.3035V13H48.9455V11.656C48.6329 12.1507 48.2315 12.5357 47.7415 12.811C47.2515 13.0863 46.7102 13.224 46.1175 13.224ZM46.4815 12.055C46.9715 12.055 47.4032 11.943 47.7765 11.719C48.1545 11.4903 48.4509 11.1777 48.6655 10.781C48.8802 10.3843 48.9875 9.92933 48.9875 9.416C48.9875 8.90267 48.8802 8.44767 48.6655 8.051C48.4509 7.65433 48.1545 7.344 47.7765 7.12C47.4032 6.89133 46.9715 6.777 46.4815 6.777C45.9962 6.777 45.5645 6.89133 45.1865 7.12C44.8085 7.344 44.5099 7.65433 44.2905 8.051C44.0759 8.44767 43.9685 8.90267 43.9685 9.416C43.9685 9.92467 44.0759 10.3797 44.2905 10.781C44.5099 11.1777 44.8085 11.4903 45.1865 11.719C45.5645 11.943 45.9962 12.055 46.4815 12.055ZM53.1694 13V5.832H54.5274V6.756C54.7467 6.42933 55.0617 6.15633 55.4724 5.937C55.883 5.71767 56.3707 5.608 56.9354 5.608C57.4907 5.608 57.9714 5.72467 58.3774 5.958C58.7834 6.18667 59.096 6.518 59.3154 6.952C59.5394 7.386 59.6514 7.904 59.6514 8.506V13H58.2934V8.779C58.2934 8.107 58.1324 7.59133 57.8104 7.232C57.4884 6.87267 57.0357 6.693 56.4524 6.693C56.051 6.693 55.7057 6.77467 55.4164 6.938C55.1317 7.09667 54.9124 7.31133 54.7584 7.582C54.6044 7.848 54.5274 8.13967 54.5274 8.457V13H53.1694ZM65.7686 13L67.1616 1.45H68.6736L71.8796 9.948L75.0856 1.45H76.5976L77.9906 13H76.5696L75.4566 4.054L72.3556 12.419H71.4036L68.3026 4.054L67.1896 13H65.7686ZM83.9762 13.224C83.2248 13.224 82.5505 13.0583 81.9532 12.727C81.3558 12.3957 80.8845 11.9453 80.5392 11.376C80.1938 10.802 80.0212 10.1557 80.0212 9.437C80.0212 8.905 80.1192 8.408 80.3152 7.946C80.5112 7.484 80.7842 7.078 81.1342 6.728C81.4842 6.37333 81.8902 6.098 82.3522 5.902C82.8142 5.706 83.3088 5.608 83.8362 5.608C84.5828 5.608 85.2362 5.762 85.7962 6.07C86.3608 6.378 86.7995 6.80733 87.1122 7.358C87.4295 7.90867 87.5882 8.548 87.5882 9.276C87.5882 9.33667 87.5858 9.38567 87.5812 9.423C87.5765 9.46033 87.5672 9.50933 87.5532 9.57H81.3932C81.3932 10.0693 81.5052 10.5103 81.7292 10.893C81.9578 11.2757 82.2705 11.5767 82.6672 11.796C83.0685 12.0107 83.5282 12.118 84.0462 12.118C84.5362 12.118 84.9748 12.0177 85.3622 11.817C85.7495 11.6163 86.0855 11.3177 86.3702 10.921L87.3642 11.439C87.0235 12.0037 86.5545 12.4423 85.9572 12.755C85.3645 13.0677 84.7042 13.224 83.9762 13.224ZM81.4632 8.569H86.2232C86.1578 8.20033 86.0132 7.87833 85.7892 7.603C85.5698 7.323 85.2922 7.106 84.9562 6.952C84.6248 6.79333 84.2585 6.714 83.8572 6.714C83.4372 6.714 83.0568 6.791 82.7162 6.945C82.3802 7.09433 82.1025 7.309 81.8832 7.589C81.6685 7.86433 81.5285 8.191 81.4632 8.569ZM92.882 13.224C92.2193 13.224 91.6173 13.0607 91.076 12.734C90.5393 12.4073 90.1123 11.957 89.795 11.383C89.4823 10.809 89.326 10.1533 89.326 9.416C89.326 8.68333 89.48 8.03233 89.788 7.463C90.1007 6.889 90.5253 6.43633 91.062 6.105C91.6033 5.77367 92.2193 5.608 92.91 5.608C93.5073 5.608 94.051 5.74333 94.541 6.014C95.0357 6.28467 95.4277 6.66033 95.717 7.141V0.952999H97.075V13H95.717V11.656C95.409 12.146 95.0077 12.531 94.513 12.811C94.0183 13.0863 93.4747 13.224 92.882 13.224ZM93.246 12.055C93.736 12.055 94.17 11.943 94.548 11.719C94.926 11.4903 95.2223 11.1777 95.437 10.781C95.6517 10.3843 95.759 9.93167 95.759 9.423C95.759 8.90967 95.6517 8.45467 95.437 8.058C95.2223 7.65667 94.926 7.344 94.548 7.12C94.17 6.89133 93.7383 6.777 93.253 6.777C92.7677 6.777 92.336 6.89133 91.958 7.12C91.58 7.344 91.2813 7.65667 91.062 8.058C90.8473 8.45467 90.74 8.90967 90.74 9.423C90.74 9.93167 90.8473 10.3843 91.062 10.781C91.2767 11.1777 91.573 11.4903 91.951 11.719C92.329 11.943 92.7607 12.055 93.246 12.055ZM99.9339 13V5.832H101.292V13H99.9339ZM100.613 4.383C100.459 4.383 100.317 4.34567 100.186 4.271C100.06 4.19167 99.9572 4.08667 99.8779 3.956C99.8032 3.82533 99.7659 3.683 99.7659 3.529C99.7659 3.37033 99.8032 3.228 99.8779 3.102C99.9572 2.976 100.06 2.87567 100.186 2.801C100.317 2.72167 100.459 2.682 100.613 2.682C100.772 2.682 100.914 2.72167 101.04 2.801C101.166 2.87567 101.266 2.976 101.341 3.102C101.42 3.228 101.46 3.368 101.46 3.522C101.46 3.68067 101.42 3.82533 101.341 3.956C101.266 4.08667 101.166 4.19167 101.04 4.271C100.914 4.34567 100.772 4.383 100.613 4.383ZM107.245 13.224C106.093 13.224 105.267 12.9767 104.767 12.482C104.268 11.9827 104.018 11.1543 104.018 9.997V5.832H105.376V9.717C105.376 10.5757 105.519 11.187 105.803 11.551C106.088 11.915 106.569 12.097 107.245 12.097C107.927 12.097 108.41 11.915 108.694 11.551C108.979 11.187 109.121 10.5757 109.121 9.717V5.832H110.479V9.997C110.479 11.1543 110.23 11.9827 109.73 12.482C109.231 12.9767 108.403 13.224 107.245 13.224ZM113.203 13V5.832H114.561V6.756C114.864 6.37333 115.207 6.08633 115.59 5.895C115.972 5.70367 116.397 5.608 116.864 5.608C117.442 5.608 117.951 5.741 118.39 6.007C118.828 6.26833 119.134 6.62533 119.307 7.078C119.605 6.62067 119.965 6.26133 120.385 6C120.805 5.73867 121.297 5.608 121.862 5.608C122.375 5.608 122.83 5.713 123.227 5.923C123.623 6.133 123.936 6.43633 124.165 6.833C124.393 7.22967 124.508 7.71033 124.508 8.275V13H123.15V8.653C123.15 8.05567 122.993 7.582 122.681 7.232C122.368 6.882 121.953 6.707 121.435 6.707C121.075 6.707 120.751 6.78633 120.462 6.945C120.177 7.099 119.951 7.302 119.783 7.554C119.619 7.80133 119.538 8.06267 119.538 8.338V13H118.18V8.562C118.18 7.99733 118.026 7.547 117.718 7.211C117.41 6.875 116.999 6.707 116.486 6.707C116.126 6.707 115.8 6.784 115.506 6.938C115.216 7.08733 114.985 7.28333 114.813 7.526C114.645 7.76867 114.561 8.023 114.561 8.289V13H113.203Z" fill="black"/>
                  </svg> 