<svg width="277" height="34" viewBox="0 0 277 34" fill="none" xmlns="http://www.w3.org/2000/svg">
                    <path d="M8.96 26.48C7.77 26.48 6.69 26.33 5.72 26.03C4.75 25.73 3.895 25.36 3.155 24.92C2.425 24.47 1.81 24.02 1.31 23.57C0.81 23.12 0.43 22.75 0.17 22.46L2.24 19.28C2.52 19.57 2.87 19.915 3.29 20.315C3.72 20.715 4.22 21.11 4.79 21.5C5.36 21.88 6 22.2 6.71 22.46C7.42 22.71 8.205 22.835 9.065 22.835C9.875 22.835 10.6 22.7 11.24 22.43C11.88 22.16 12.39 21.76 12.77 21.23C13.15 20.69 13.34 20.025 13.34 19.235C13.34 18.545 13.195 17.955 12.905 17.465C12.625 16.975 12.22 16.55 11.69 16.19C11.16 15.82 10.53 15.47 9.8 15.14C9.07 14.8 8.255 14.45 7.355 14.09C6.715 13.82 6.08 13.505 5.45 13.145C4.83 12.785 4.265 12.355 3.755 11.855C3.255 11.355 2.855 10.78 2.555 10.13C2.255 9.47 2.105 8.71 2.105 7.85C2.105 6.92 2.285 6.035 2.645 5.195C3.015 4.345 3.535 3.59 4.205 2.93C4.875 2.27 5.67 1.75 6.59 1.37C7.52 0.989999 8.555 0.799999 9.695 0.799999C10.625 0.799999 11.53 0.934999 12.41 1.205C13.29 1.475 14.09 1.825 14.81 2.255C15.54 2.685 16.135 3.145 16.595 3.635L14.885 6.62C14.505 6.23 14.05 5.865 13.52 5.525C13 5.175 12.42 4.895 11.78 4.685C11.14 4.475 10.47 4.37 9.77 4.37C8.95 4.37 8.255 4.53 7.685 4.85C7.115 5.17 6.675 5.59 6.365 6.11C6.065 6.62 5.915 7.175 5.915 7.775C5.915 8.295 6.02 8.74 6.23 9.11C6.45 9.47 6.75 9.78 7.13 10.04C7.51 10.3 7.945 10.54 8.435 10.76C8.935 10.97 9.46 11.18 10.01 11.39C11.1 11.83 12.105 12.28 13.025 12.74C13.955 13.19 14.76 13.705 15.44 14.285C16.12 14.855 16.645 15.535 17.015 16.325C17.395 17.105 17.585 18.045 17.585 19.145C17.585 20.685 17.215 22.005 16.475 23.105C15.745 24.205 14.73 25.045 13.43 25.625C12.14 26.195 10.65 26.48 8.96 26.48ZM21.4735 33.8V10.64H25.2085V12.98C25.8285 12.09 26.6335 11.4 27.6235 10.91C28.6135 10.41 29.6935 10.16 30.8635 10.16C32.3435 10.16 33.6585 10.515 34.8085 11.225C35.9685 11.935 36.8835 12.905 37.5535 14.135C38.2235 15.355 38.5585 16.75 38.5585 18.32C38.5585 19.87 38.2235 21.26 37.5535 22.49C36.8935 23.72 35.9885 24.695 34.8385 25.415C33.6985 26.125 32.4035 26.48 30.9535 26.48C29.7935 26.48 28.7135 26.225 27.7135 25.715C26.7135 25.195 25.8785 24.47 25.2085 23.54V33.8H21.4735ZM29.8885 23.285C30.8085 23.285 31.6235 23.075 32.3335 22.655C33.0535 22.225 33.6185 21.64 34.0285 20.9C34.4385 20.15 34.6435 19.295 34.6435 18.335C34.6435 17.375 34.4335 16.52 34.0135 15.77C33.6035 15.01 33.0435 14.42 32.3335 14C31.6235 13.57 30.8085 13.355 29.8885 13.355C28.9685 13.355 28.1485 13.57 27.4285 14C26.7085 14.42 26.1385 15.005 25.7185 15.755C25.3085 16.505 25.1035 17.36 25.1035 18.32C25.1035 19.28 25.3085 20.135 25.7185 20.885C26.1285 21.635 26.6935 22.225 27.4135 22.655C28.1435 23.075 28.9685 23.285 29.8885 23.285ZM48.7475 26.48C47.3275 26.48 46.0375 26.13 44.8775 25.43C43.7275 24.72 42.8125 23.75 42.1325 22.52C41.4625 21.29 41.1275 19.885 41.1275 18.305C41.1275 16.745 41.4525 15.355 42.1025 14.135C42.7625 12.905 43.6675 11.935 44.8175 11.225C45.9675 10.515 47.2775 10.16 48.7475 10.16C49.9475 10.16 51.0525 10.41 52.0625 10.91C53.0725 11.41 53.8725 12.105 54.4625 12.995V10.64H58.1975V26H54.4625V23.54C53.7825 24.47 52.9475 25.195 51.9575 25.715C50.9775 26.225 49.9075 26.48 48.7475 26.48ZM49.8125 23.285C50.7425 23.285 51.5625 23.075 52.2725 22.655C52.9825 22.225 53.5425 21.635 53.9525 20.885C54.3625 20.135 54.5675 19.28 54.5675 18.32C54.5675 17.35 54.3625 16.495 53.9525 15.755C53.5425 15.005 52.9825 14.42 52.2725 14C51.5625 13.57 50.7425 13.355 49.8125 13.355C48.8925 13.355 48.0725 13.57 47.3525 14C46.6325 14.42 46.0675 15.005 45.6575 15.755C45.2475 16.505 45.0425 17.36 45.0425 18.32C45.0425 19.28 45.2475 20.135 45.6575 20.885C46.0675 21.635 46.6325 22.225 47.3525 22.655C48.0725 23.075 48.8925 23.285 49.8125 23.285ZM63.0915 26V10.64H66.8265V12.875C67.3665 11.995 68.0415 11.325 68.8515 10.865C69.6615 10.395 70.5515 10.16 71.5215 10.16C72.0315 10.16 72.5515 10.23 73.0815 10.37C73.6215 10.5 74.0815 10.675 74.4615 10.895L72.9165 14.06C72.5865 13.86 72.2015 13.7 71.7615 13.58C71.3315 13.46 70.9315 13.4 70.5615 13.4C69.9215 13.4 69.3165 13.565 68.7465 13.895C68.1765 14.225 67.7115 14.65 67.3515 15.17C67.0015 15.69 66.8265 16.25 66.8265 16.85V26H63.0915ZM81.4341 26.48C80.0441 26.48 78.9591 26.03 78.1791 25.13C77.4091 24.23 77.0241 22.965 77.0241 21.335V13.475H75.1491V10.64H77.0241V4.895H80.7591V10.64H84.2991V13.475H80.7591V21.08C80.7591 21.75 80.8941 22.265 81.1641 22.625C81.4341 22.975 81.8191 23.15 82.3191 23.15C82.8391 23.15 83.3141 22.99 83.7441 22.67L84.6891 25.655C84.2391 25.915 83.7241 26.115 83.1441 26.255C82.5641 26.405 81.9941 26.48 81.4341 26.48ZM94.4752 26.48C93.0552 26.48 91.7652 26.13 90.6052 25.43C89.4552 24.72 88.5402 23.75 87.8602 22.52C87.1902 21.29 86.8552 19.885 86.8552 18.305C86.8552 16.745 87.1802 15.355 87.8302 14.135C88.4902 12.905 89.3952 11.935 90.5452 11.225C91.6952 10.515 93.0052 10.16 94.4752 10.16C95.6752 10.16 96.7802 10.41 97.7902 10.91C98.8002 11.41 99.6002 12.105 100.19 12.995V10.64H103.925V26H100.19V23.54C99.5102 24.47 98.6752 25.195 97.6852 25.715C96.7052 26.225 95.6352 26.48 94.4752 26.48ZM95.5402 23.285C96.4702 23.285 97.2902 23.075 98.0002 22.655C98.7102 22.225 99.2702 21.635 99.6802 20.885C100.09 20.135 100.295 19.28 100.295 18.32C100.295 17.35 100.09 16.495 99.6802 15.755C99.2702 15.005 98.7102 14.42 98.0002 14C97.2902 13.57 96.4702 13.355 95.5402 13.355C94.6202 13.355 93.8002 13.57 93.0802 14C92.3602 14.42 91.7952 15.005 91.3852 15.755C90.9752 16.505 90.7702 17.36 90.7702 18.32C90.7702 19.28 90.9752 20.135 91.3852 20.885C91.7952 21.635 92.3602 22.225 93.0802 22.655C93.8002 23.075 94.6202 23.285 95.5402 23.285ZM108.819 26V10.64H112.554V12.485C113.084 11.805 113.789 11.25 114.669 10.82C115.559 10.38 116.574 10.16 117.714 10.16C118.894 10.16 119.924 10.415 120.804 10.925C121.694 11.425 122.384 12.135 122.874 13.055C123.364 13.975 123.609 15.065 123.609 16.325V26H119.874V17.105C119.874 15.825 119.554 14.84 118.914 14.15C118.284 13.45 117.409 13.1 116.289 13.1C115.519 13.1 114.854 13.26 114.294 13.58C113.734 13.89 113.304 14.31 113.004 14.84C112.704 15.36 112.554 15.94 112.554 16.58V26H108.819ZM141.74 26.48C140.55 26.48 139.47 26.33 138.5 26.03C137.53 25.73 136.675 25.36 135.935 24.92C135.205 24.47 134.59 24.02 134.09 23.57C133.59 23.12 133.21 22.75 132.95 22.46L135.02 19.28C135.3 19.57 135.65 19.915 136.07 20.315C136.5 20.715 137 21.11 137.57 21.5C138.14 21.88 138.78 22.2 139.49 22.46C140.2 22.71 140.985 22.835 141.845 22.835C142.655 22.835 143.38 22.7 144.02 22.43C144.66 22.16 145.17 21.76 145.55 21.23C145.93 20.69 146.12 20.025 146.12 19.235C146.12 18.545 145.975 17.955 145.685 17.465C145.405 16.975 145 16.55 144.47 16.19C143.94 15.82 143.31 15.47 142.58 15.14C141.85 14.8 141.035 14.45 140.135 14.09C139.495 13.82 138.86 13.505 138.23 13.145C137.61 12.785 137.045 12.355 136.535 11.855C136.035 11.355 135.635 10.78 135.335 10.13C135.035 9.47 134.885 8.71 134.885 7.85C134.885 6.92 135.065 6.035 135.425 5.195C135.795 4.345 136.315 3.59 136.985 2.93C137.655 2.27 138.45 1.75 139.37 1.37C140.3 0.989999 141.335 0.799999 142.475 0.799999C143.405 0.799999 144.31 0.934999 145.19 1.205C146.07 1.475 146.87 1.825 147.59 2.255C148.32 2.685 148.915 3.145 149.375 3.635L147.665 6.62C147.285 6.23 146.83 5.865 146.3 5.525C145.78 5.175 145.2 4.895 144.56 4.685C143.92 4.475 143.25 4.37 142.55 4.37C141.73 4.37 141.035 4.53 140.465 4.85C139.895 5.17 139.455 5.59 139.145 6.11C138.845 6.62 138.695 7.175 138.695 7.775C138.695 8.295 138.8 8.74 139.01 9.11C139.23 9.47 139.53 9.78 139.91 10.04C140.29 10.3 140.725 10.54 141.215 10.76C141.715 10.97 142.24 11.18 142.79 11.39C143.88 11.83 144.885 12.28 145.805 12.74C146.735 13.19 147.54 13.705 148.22 14.285C148.9 14.855 149.425 15.535 149.795 16.325C150.175 17.105 150.365 18.045 150.365 19.145C150.365 20.685 149.995 22.005 149.255 23.105C148.525 24.205 147.51 25.045 146.21 25.625C144.92 26.195 143.43 26.48 141.74 26.48ZM161.574 26.48C159.934 26.48 158.464 26.125 157.164 25.415C155.874 24.705 154.849 23.735 154.089 22.505C153.339 21.275 152.964 19.89 152.964 18.35C152.964 17.21 153.179 16.145 153.609 15.155C154.039 14.165 154.634 13.295 155.394 12.545C156.154 11.795 157.039 11.21 158.049 10.79C159.059 10.37 160.149 10.16 161.319 10.16C162.919 10.16 164.319 10.49 165.519 11.15C166.729 11.81 167.669 12.73 168.339 13.91C169.019 15.09 169.359 16.465 169.359 18.035C169.359 18.165 169.354 18.275 169.344 18.365C169.334 18.445 169.314 18.585 169.284 18.785H156.774C156.774 19.715 156.984 20.535 157.404 21.245C157.824 21.945 158.409 22.495 159.159 22.895C159.919 23.285 160.789 23.48 161.769 23.48C162.699 23.48 163.524 23.295 164.244 22.925C164.974 22.545 165.634 21.97 166.224 21.2L168.939 22.595C168.209 23.815 167.194 24.77 165.894 25.46C164.604 26.14 163.164 26.48 161.574 26.48ZM156.939 16.445H165.654C165.524 15.745 165.259 15.14 164.859 14.63C164.459 14.12 163.954 13.725 163.344 13.445C162.734 13.155 162.054 13.01 161.304 13.01C160.514 13.01 159.809 13.15 159.189 13.43C158.569 13.71 158.064 14.105 157.674 14.615C157.284 15.125 157.039 15.735 156.939 16.445ZM172.924 26V10.64H176.659V12.485C177.369 11.695 178.114 11.11 178.894 10.73C179.684 10.35 180.549 10.16 181.489 10.16C182.699 10.16 183.774 10.435 184.714 10.985C185.664 11.535 186.334 12.275 186.724 13.205C187.414 12.225 188.199 11.475 189.079 10.955C189.959 10.425 190.979 10.16 192.139 10.16C193.239 10.16 194.214 10.39 195.064 10.85C195.924 11.3 196.599 11.95 197.089 12.8C197.589 13.64 197.839 14.655 197.839 15.845V26H194.104V16.865C194.104 15.725 193.804 14.825 193.204 14.165C192.614 13.495 191.819 13.16 190.819 13.16C190.139 13.16 189.529 13.305 188.989 13.595C188.449 13.885 188.024 14.27 187.714 14.75C187.404 15.23 187.249 15.745 187.249 16.295V26H183.514V16.715C183.514 15.635 183.224 14.775 182.644 14.135C182.064 13.485 181.274 13.16 180.274 13.16C179.584 13.16 178.964 13.305 178.414 13.595C177.874 13.885 177.444 14.27 177.124 14.75C176.814 15.22 176.659 15.73 176.659 16.28V26H172.924ZM202.449 26V10.64H206.184V26H202.449ZM204.324 7.49C203.914 7.49 203.534 7.39 203.184 7.19C202.844 6.98 202.569 6.705 202.359 6.365C202.159 6.015 202.059 5.63 202.059 5.21C202.059 4.8 202.159 4.425 202.359 4.085C202.569 3.745 202.844 3.475 203.184 3.275C203.534 3.065 203.914 2.96 204.324 2.96C204.744 2.96 205.119 3.065 205.449 3.275C205.789 3.475 206.059 3.745 206.259 4.085C206.469 4.425 206.574 4.8 206.574 5.21C206.574 5.63 206.469 6.015 206.259 6.365C206.059 6.705 205.789 6.98 205.449 7.19C205.119 7.39 204.744 7.49 204.324 7.49ZM220.565 26.48C219.395 26.48 218.31 26.22 217.31 25.7C216.32 25.18 215.49 24.46 214.82 23.54V26H211.085V0.2H214.82V12.995C215.44 12.105 216.24 11.41 217.22 10.91C218.21 10.41 219.3 10.16 220.49 10.16C221.96 10.16 223.275 10.515 224.435 11.225C225.595 11.935 226.505 12.905 227.165 14.135C227.835 15.355 228.17 16.75 228.17 18.32C228.17 19.9 227.83 21.305 227.15 22.535C226.47 23.765 225.555 24.73 224.405 25.43C223.265 26.13 221.985 26.48 220.565 26.48ZM219.5 23.285C220.43 23.285 221.25 23.075 221.96 22.655C222.68 22.225 223.24 21.64 223.64 20.9C224.05 20.15 224.255 19.295 224.255 18.335C224.255 17.375 224.045 16.52 223.625 15.77C223.215 15.01 222.655 14.42 221.945 14C221.235 13.57 220.42 13.355 219.5 13.355C218.58 13.355 217.755 13.57 217.025 14C216.305 14.42 215.74 15.01 215.33 15.77C214.92 16.52 214.715 17.375 214.715 18.335C214.715 19.295 214.915 20.15 215.315 20.9C215.725 21.64 216.29 22.225 217.01 22.655C217.74 23.075 218.57 23.285 219.5 23.285ZM239.439 26.48C237.779 26.48 236.279 26.135 234.939 25.445C233.609 24.755 232.554 23.795 231.774 22.565C230.994 21.335 230.604 19.92 230.604 18.32C230.604 16.71 230.994 15.295 231.774 14.075C232.554 12.845 233.609 11.885 234.939 11.195C236.269 10.505 237.769 10.16 239.439 10.16C241.099 10.16 242.594 10.505 243.924 11.195C245.264 11.885 246.319 12.845 247.089 14.075C247.869 15.295 248.259 16.71 248.259 18.32C248.259 19.92 247.869 21.335 247.089 22.565C246.319 23.795 245.264 24.755 243.924 25.445C242.594 26.135 241.099 26.48 239.439 26.48ZM239.439 23.27C240.379 23.27 241.219 23.06 241.959 22.64C242.709 22.21 243.299 21.625 243.729 20.885C244.159 20.135 244.374 19.28 244.374 18.32C244.374 17.35 244.159 16.495 243.729 15.755C243.299 15.005 242.709 14.42 241.959 14C241.219 13.58 240.379 13.37 239.439 13.37C238.509 13.37 237.669 13.58 236.919 14C236.169 14.42 235.579 15.005 235.149 15.755C234.719 16.495 234.504 17.35 234.504 18.32C234.504 19.28 234.719 20.135 235.149 20.885C235.579 21.625 236.169 22.21 236.919 22.64C237.669 23.06 238.509 23.27 239.439 23.27ZM251.824 26V0.2H255.559V26H251.824ZM266.881 26.48C265.481 26.48 264.201 26.13 263.041 25.43C261.891 24.73 260.976 23.765 260.296 22.535C259.626 21.305 259.291 19.9 259.291 18.32C259.291 16.75 259.621 15.355 260.281 14.135C260.951 12.905 261.861 11.935 263.011 11.225C264.171 10.515 265.491 10.16 266.971 10.16C268.151 10.16 269.236 10.41 270.226 10.91C271.216 11.41 272.016 12.105 272.626 12.995V0.184999H276.361V26H272.626V23.54C271.956 24.46 271.121 25.18 270.121 25.7C269.131 26.22 268.051 26.48 266.881 26.48ZM267.961 23.285C268.891 23.285 269.711 23.075 270.421 22.655C271.141 22.225 271.706 21.64 272.116 20.9C272.526 20.15 272.731 19.295 272.731 18.335C272.731 17.375 272.526 16.52 272.116 15.77C271.706 15.01 271.141 14.42 270.421 14C269.711 13.57 268.891 13.355 267.961 13.355C267.051 13.355 266.236 13.57 265.516 14C264.796 14.42 264.231 15.01 263.821 15.77C263.411 16.52 263.206 17.38 263.206 18.35C263.206 19.3 263.406 20.15 263.806 20.9C264.216 21.64 264.781 22.225 265.501 22.655C266.221 23.075 267.041 23.285 267.961 23.285Z" fill="black"/>
                  </svg> 