<svg width="75" height="11" viewBox="0 0 75 11" fill="none" xmlns="http://www.w3.org/2000/svg">
                    <path d="M2.9475 8.144C2.6025 8.144 2.2845 8.105 1.9935 8.027C1.7025 7.952 1.4415 7.8575 1.2105 7.7435C0.9825 7.6265 0.786 7.5065 0.621 7.3835C0.456 7.2605 0.3255 7.1525 0.2295 7.0595L0.9765 5.8535C1.0755 5.9405 1.194 6.038 1.332 6.146C1.47 6.254 1.6245 6.3575 1.7955 6.4565C1.9665 6.5525 2.151 6.6335 2.349 6.6995C2.55 6.7625 2.763 6.794 2.988 6.794C3.198 6.794 3.3825 6.761 3.5415 6.695C3.7035 6.629 3.831 6.5315 3.924 6.4025C4.017 6.2705 4.0635 6.107 4.0635 5.912C4.0635 5.735 4.026 5.585 3.951 5.462C3.876 5.336 3.765 5.2235 3.618 5.1245C3.474 5.0225 3.2955 4.9235 3.0825 4.8275C2.8725 4.7285 2.6325 4.6205 2.3625 4.5035C2.1615 4.4135 1.9695 4.3115 1.7865 4.1975C1.6065 4.0805 1.446 3.9455 1.305 3.7925C1.164 3.6395 1.0515 3.467 0.9675 3.275C0.8865 3.08 0.846 2.8625 0.846 2.6225C0.846 2.3375 0.903 2.0645 1.017 1.8035C1.131 1.5425 1.293 1.31 1.503 1.106C1.716 0.902 1.968 0.74 2.259 0.62C2.553 0.5 2.88 0.44 3.24 0.44C3.51 0.44 3.78 0.476 4.05 0.547999C4.32 0.62 4.572 0.7145 4.806 0.8315C5.04 0.9485 5.238 1.076 5.4 1.214L4.7925 2.357C4.6635 2.246 4.5165 2.147 4.3515 2.06C4.1895 1.97 4.0155 1.898 3.8295 1.844C3.6465 1.79 3.4605 1.763 3.2715 1.763C3.0585 1.763 2.877 1.8005 2.727 1.8755C2.58 1.9505 2.466 2.051 2.385 2.177C2.307 2.3 2.268 2.438 2.268 2.591C2.268 2.717 2.2935 2.825 2.3445 2.915C2.3985 3.002 2.4735 3.0785 2.5695 3.1445C2.6655 3.2075 2.781 3.269 2.916 3.329C3.051 3.386 3.1995 3.4475 3.3615 3.5135C3.7095 3.6605 4.0245 3.806 4.3065 3.95C4.5885 4.094 4.83 4.2545 5.031 4.4315C5.232 4.6055 5.385 4.8095 5.49 5.0435C5.598 5.2775 5.652 5.5565 5.652 5.8805C5.652 6.3545 5.538 6.761 5.31 7.1C5.085 7.439 4.77 7.6985 4.365 7.8785C3.96 8.0555 3.4875 8.144 2.9475 8.144ZM7.93927 10.34V3.392H9.32077V3.9545C9.50677 3.7295 9.73777 3.5555 10.0138 3.4325C10.2898 3.3095 10.5868 3.248 10.9048 3.248C11.3488 3.248 11.7433 3.3545 12.0883 3.5675C12.4363 3.7805 12.7093 4.0715 12.9073 4.4405C13.1083 4.8095 13.2088 5.228 13.2088 5.696C13.2088 6.158 13.1098 6.575 12.9118 6.947C12.7138 7.316 12.4423 7.6085 12.0973 7.8245C11.7553 8.0375 11.3683 8.144 10.9363 8.144C10.6213 8.144 10.3243 8.0795 10.0453 7.9505C9.76627 7.8185 9.52477 7.6325 9.32077 7.3925V10.34H7.93927ZM10.5268 6.9695C10.7668 6.9695 10.9783 6.9155 11.1613 6.8075C11.3473 6.6965 11.4928 6.5465 11.5978 6.3575C11.7028 6.1655 11.7553 5.9465 11.7553 5.7005C11.7553 5.4545 11.7013 5.2355 11.5933 5.0435C11.4853 4.8515 11.3398 4.7 11.1568 4.589C10.9738 4.478 10.7638 4.4225 10.5268 4.4225C10.2898 4.4225 10.0768 4.478 9.88777 4.589C9.70177 4.7 9.55477 4.8515 9.44677 5.0435C9.33877 5.2325 9.28477 5.4515 9.28477 5.7005C9.28477 5.9435 9.33727 6.161 9.44227 6.353C9.55027 6.545 9.69877 6.6965 9.88777 6.8075C10.0768 6.9155 10.2898 6.9695 10.5268 6.9695ZM17.3898 8.144C16.9668 8.144 16.5813 8.039 16.2333 7.829C15.8883 7.616 15.6138 7.325 15.4098 6.956C15.2088 6.584 15.1083 6.161 15.1083 5.687C15.1083 5.225 15.2058 4.811 15.4008 4.445C15.5958 4.076 15.8643 3.785 16.2063 3.572C16.5513 3.356 16.9458 3.248 17.3898 3.248C17.7168 3.248 18.0213 3.311 18.3033 3.437C18.5883 3.56 18.8208 3.7325 19.0008 3.9545V3.392H20.3823V8H19.0008V7.3925C18.7908 7.6355 18.5493 7.8215 18.2763 7.9505C18.0033 8.0795 17.7078 8.144 17.3898 8.144ZM17.7993 6.9695C18.0393 6.9695 18.2523 6.9155 18.4383 6.8075C18.6243 6.6965 18.7698 6.545 18.8748 6.353C18.9798 6.161 19.0323 5.942 19.0323 5.696C19.0323 5.447 18.9783 5.228 18.8703 5.039C18.7653 4.847 18.6198 4.697 18.4338 4.589C18.2508 4.478 18.0393 4.4225 17.7993 4.4225C17.5623 4.4225 17.3508 4.478 17.1648 4.589C16.9788 4.697 16.8318 4.847 16.7238 5.039C16.6158 5.231 16.5618 5.45 16.5618 5.696C16.5618 5.942 16.6143 6.161 16.7193 6.353C16.8273 6.545 16.9743 6.6965 17.1603 6.8075C17.3463 6.9155 17.5593 6.9695 17.7993 6.9695ZM22.9974 8V3.392H24.3789V4.0535C24.5499 3.7955 24.7584 3.5975 25.0044 3.4595C25.2534 3.3185 25.5204 3.248 25.8054 3.248C25.9674 3.248 26.1354 3.272 26.3094 3.32C26.4834 3.368 26.6289 3.4295 26.7459 3.5045L26.1699 4.67C26.0679 4.601 25.9479 4.547 25.8099 4.508C25.6749 4.466 25.5489 4.445 25.4319 4.445C25.2519 4.445 25.0809 4.4915 24.9189 4.5845C24.7569 4.6775 24.6264 4.799 24.5274 4.949C24.4284 5.096 24.3789 5.255 24.3789 5.426V8H22.9974ZM30.0935 8.144C29.6345 8.144 29.2775 7.9985 29.0225 7.7075C28.7675 7.4135 28.64 7.004 28.64 6.479V4.4405H28.0235V3.392H28.64V1.664H30.0215V3.392H31.034V4.4405H30.0215V6.38C30.0215 6.554 30.056 6.686 30.125 6.776C30.197 6.866 30.2975 6.911 30.4265 6.911C30.5705 6.911 30.7085 6.863 30.8405 6.767L31.187 7.874C31.031 7.958 30.8555 8.024 30.6605 8.072C30.4685 8.12 30.2795 8.144 30.0935 8.144ZM35.2749 8.144C34.8519 8.144 34.4664 8.039 34.1184 7.829C33.7734 7.616 33.4989 7.325 33.2949 6.956C33.0939 6.584 32.9934 6.161 32.9934 5.687C32.9934 5.225 33.0909 4.811 33.2859 4.445C33.4809 4.076 33.7494 3.785 34.0914 3.572C34.4364 3.356 34.8309 3.248 35.2749 3.248C35.6019 3.248 35.9064 3.311 36.1884 3.437C36.4734 3.56 36.7059 3.7325 36.8859 3.9545V3.392H38.2674V8H36.8859V7.3925C36.6759 7.6355 36.4344 7.8215 36.1614 7.9505C35.8884 8.0795 35.5929 8.144 35.2749 8.144ZM35.6844 6.9695C35.9244 6.9695 36.1374 6.9155 36.3234 6.8075C36.5094 6.6965 36.6549 6.545 36.7599 6.353C36.8649 6.161 36.9174 5.942 36.9174 5.696C36.9174 5.447 36.8634 5.228 36.7554 5.039C36.6504 4.847 36.5049 4.697 36.3189 4.589C36.1359 4.478 35.9244 4.4225 35.6844 4.4225C35.4474 4.4225 35.2359 4.478 35.0499 4.589C34.8639 4.697 34.7169 4.847 34.6089 5.039C34.5009 5.231 34.4469 5.45 34.4469 5.696C34.4469 5.942 34.4994 6.161 34.6044 6.353C34.7124 6.545 34.8594 6.6965 35.0454 6.8075C35.2314 6.9155 35.4444 6.9695 35.6844 6.9695ZM40.8824 8V3.392H42.2639V3.905C42.4409 3.707 42.6614 3.548 42.9254 3.428C43.1924 3.308 43.4864 3.248 43.8074 3.248C44.1614 3.248 44.4719 3.326 44.7389 3.482C45.0089 3.635 45.2204 3.8495 45.3734 4.1255C45.5264 4.3985 45.6029 4.718 45.6029 5.084V8H44.2214V5.3765C44.2214 5.0465 44.1344 4.79 43.9604 4.607C43.7894 4.421 43.5539 4.328 43.2539 4.328C43.0499 4.328 42.8729 4.37 42.7229 4.454C42.5759 4.535 42.4619 4.6475 42.3809 4.7915C42.3029 4.9325 42.2639 5.093 42.2639 5.273V8H40.8824ZM51.357 8V0.575H53.4855C54.1995 0.575 54.759 0.731 55.164 1.043C55.569 1.355 55.7715 1.8215 55.7715 2.4425C55.7715 3.2135 55.4535 3.758 54.8175 4.076C55.3365 4.157 55.734 4.3565 56.01 4.6745C56.289 4.9895 56.4285 5.4035 56.4285 5.9165C56.4285 6.3485 56.331 6.7205 56.136 7.0325C55.941 7.3445 55.6635 7.5845 55.3035 7.7525C54.9435 7.9175 54.5175 8 54.0255 8H51.357ZM52.8105 3.581H53.148C53.541 3.581 53.8425 3.5 54.0525 3.338C54.2625 3.173 54.3675 2.9375 54.3675 2.6315C54.3675 2.3225 54.2655 2.0915 54.0615 1.9385C53.8575 1.7825 53.553 1.7045 53.148 1.7045H52.8105V3.581ZM52.8105 6.866H53.5305C53.9865 6.866 54.3285 6.782 54.5565 6.614C54.7875 6.446 54.903 6.1985 54.903 5.8715C54.903 5.5385 54.7845 5.2835 54.5475 5.1065C54.3135 4.9265 53.9745 4.8365 53.5305 4.8365H52.8105V6.866ZM60.79 8.144C60.283 8.144 59.8255 8.0405 59.4175 7.8335C59.0095 7.6235 58.6855 7.3355 58.4455 6.9695C58.2055 6.6005 58.0855 6.176 58.0855 5.696C58.0855 5.216 58.204 4.793 58.441 4.427C58.681 4.058 59.005 3.77 59.413 3.563C59.824 3.353 60.283 3.248 60.79 3.248C61.3 3.248 61.759 3.353 62.167 3.563C62.575 3.77 62.8975 4.058 63.1345 4.427C63.3745 4.793 63.4945 5.216 63.4945 5.696C63.4945 6.176 63.3745 6.6005 63.1345 6.9695C62.8975 7.3355 62.575 7.6235 62.167 7.8335C61.759 8.0405 61.3 8.144 60.79 8.144ZM60.7945 6.965C61.0285 6.965 61.2415 6.911 61.4335 6.803C61.6255 6.695 61.777 6.5465 61.888 6.3575C61.999 6.1655 62.0545 5.945 62.0545 5.696C62.0545 5.447 61.999 5.228 61.888 5.039C61.777 4.847 61.6255 4.697 61.4335 4.589C61.2415 4.481 61.0285 4.427 60.7945 4.427C60.5575 4.427 60.343 4.481 60.151 4.589C59.962 4.697 59.812 4.847 59.701 5.039C59.59 5.228 59.5345 5.447 59.5345 5.696C59.5345 5.945 59.59 6.1655 59.701 6.3575C59.812 6.5465 59.962 6.695 60.151 6.803C60.343 6.911 60.5575 6.965 60.7945 6.965ZM65.6901 8V0.26H67.0716V8H65.6901ZM71.5939 8.144C71.1769 8.144 70.7959 8.0405 70.4509 7.8335C70.1089 7.6235 69.8359 7.334 69.6319 6.965C69.4279 6.596 69.3259 6.173 69.3259 5.696C69.3259 5.228 69.4249 4.811 69.6229 4.445C69.8209 4.076 70.0924 3.785 70.4374 3.572C70.7854 3.356 71.1829 3.248 71.6299 3.248C71.9539 3.248 72.2539 3.311 72.5299 3.437C72.8059 3.56 73.0354 3.7325 73.2184 3.9545V0.26H74.5999V8H73.2184V7.3925C73.0144 7.6295 72.7729 7.814 72.4939 7.946C72.2149 8.078 71.9149 8.144 71.5939 8.144ZM72.0079 6.9695C72.2509 6.9695 72.4654 6.9155 72.6514 6.8075C72.8374 6.6965 72.9829 6.545 73.0879 6.353C73.1959 6.161 73.2499 5.9435 73.2499 5.7005C73.2499 5.4545 73.1959 5.2355 73.0879 5.0435C72.9829 4.8515 72.8374 4.7 72.6514 4.589C72.4654 4.478 72.2524 4.4225 72.0124 4.4225C71.7754 4.4225 71.5639 4.478 71.3779 4.589C71.1949 4.7 71.0494 4.853 70.9414 5.048C70.8334 5.24 70.7794 5.459 70.7794 5.705C70.7794 5.948 70.8319 6.1655 70.9369 6.3575C71.0419 6.5465 71.1874 6.6965 71.3734 6.8075C71.5594 6.9155 71.7709 6.9695 72.0079 6.9695Z" fill="black"/>
                  </svg> 