<svg width="417" height="27" viewBox="0 0 417 27" fill="none" xmlns="http://www.w3.org/2000/svg">
                    <path d="M12.15 5.04V21H7.14V5.04H0.21V0.989998H19.05V5.04H12.15ZM20.5931 21V6.21H25.3331V21H20.5931ZM20.5931 4.95V0.989998H25.3331V4.95H20.5931ZM33.9115 2.01V6.21H37.3915V9.6H33.9115V15.78C33.9115 17.07 34.3615 17.43 35.9215 17.4H37.2715V21H34.3315C30.0715 21 29.1115 20.01 29.1715 15.72V9.6H27.0415V6.21H29.1715V2.01H33.9115ZM43.7187 0.989998V21H38.9787V0.989998H43.7187ZM46.897 21V6.21H51.637V21H46.897ZM46.897 4.95V0.989998H51.637V4.95H46.897ZM54.8154 21V6.21H59.5554V8.01C61.5954 6.33 63.1554 5.7 65.3154 5.7C67.3554 5.7 69.2454 6.42 70.4154 7.68C71.5554 8.88 71.9154 10.14 71.9154 12.84V21H67.1754V13.17C67.1754 11.67 66.8754 10.8 66.1254 10.14C65.4654 9.57 64.5354 9.24 63.5154 9.24C61.0554 9.24 59.5554 10.77 59.5554 13.29V21H54.8154ZM87.5177 6.21H92.2577V18.36C92.2577 21.87 91.7177 23.55 90.0977 24.9C88.5677 26.22 86.4677 26.79 83.2877 26.79C79.8377 26.79 77.4677 26.19 76.1477 24.96C75.2177 24.09 74.8577 23.22 74.8577 21.63H80.1677C80.3477 23.01 81.3977 23.64 83.4677 23.64C84.7577 23.64 85.7777 23.34 86.5277 22.77C87.3077 22.17 87.5177 21.51 87.5177 19.92V18.87C85.6877 20.34 84.4277 20.79 82.3277 20.79C77.5877 20.79 74.3777 17.76 74.3777 13.26C74.3777 8.73 77.5877 5.7 82.3277 5.7C84.3977 5.7 85.6877 6.18 87.5177 7.62V6.21ZM83.4977 9.24C80.9777 9.24 79.0877 10.95 79.0877 13.23C79.0877 15.51 81.0077 17.25 83.4677 17.25C85.8977 17.25 87.8477 15.51 87.8477 13.32C87.8477 11.01 85.9577 9.24 83.4977 9.24ZM126.271 21H122.731L122.401 18.9C119.581 20.97 117.481 21.69 114.331 21.69C107.521 21.69 102.901 17.46 102.901 11.22C102.901 8.16 104.071 5.4 106.201 3.42C108.391 1.35 111.481 0.299998 115.291 0.299998C121.201 0.299998 125.071 2.85 126.361 7.62H120.961C120.001 5.25 117.961 3.99 115.081 3.99C111.121 3.99 108.211 6.9 108.211 10.92C108.211 14.85 111.151 17.79 115.081 17.79C117.841 17.79 119.971 16.53 121.411 14.04H116.371V9.99H126.271V21ZM138.582 5.61C141.402 5.61 143.892 6.45 145.632 7.95C147.252 9.39 148.062 11.28 148.062 13.74C148.062 18.39 144.162 21.6 138.522 21.6C132.792 21.6 128.982 18.42 128.982 13.59C128.982 8.79 132.792 5.61 138.582 5.61ZM138.552 9.12C135.912 9.12 134.082 10.95 134.082 13.59C134.082 16.23 135.912 18.09 138.522 18.09C141.072 18.09 142.962 16.23 142.962 13.68C142.962 10.98 141.162 9.12 138.552 9.12ZM155.823 2.01V6.21H159.303V9.6H155.823V15.78C155.823 17.07 156.273 17.43 157.833 17.4H159.183V21H156.243C151.983 21 151.023 20.01 151.083 15.72V9.6H148.953V6.21H151.083V2.01H155.823ZM161.447 21V0.989998H166.187V8.01C168.197 6.33 169.787 5.7 171.947 5.7C173.987 5.7 175.877 6.42 177.047 7.68C178.187 8.88 178.547 10.14 178.547 12.84V21H173.807V13.17C173.807 11.67 173.507 10.8 172.757 10.14C172.097 9.57 171.167 9.24 170.147 9.24C167.687 9.24 166.187 10.77 166.187 13.29V21H161.447ZM181.728 21V6.21H186.468V21H181.728ZM181.728 4.95V0.989998H186.468V4.95H181.728ZM202.007 15.06H207.047C206.267 19.2 202.907 21.6 197.927 21.6C194.777 21.6 192.197 20.61 190.697 18.78C189.527 17.4 188.927 15.66 188.927 13.77C188.927 8.91 192.677 5.61 198.197 5.61C201.047 5.61 203.477 6.54 204.947 8.16C205.817 9.15 206.327 10.17 206.687 11.79H201.917C201.437 9.9 200.177 8.91 198.137 8.91C195.437 8.91 193.637 10.77 193.637 13.53C193.637 16.32 195.437 18.3 198.017 18.3C200.087 18.3 201.617 17.07 202.007 15.06ZM222.657 21H217.647V0.989998H235.197V5.04H222.657V8.79H234.177V12.84H222.657V21ZM237.314 21V0.989998H249.224C252.644 0.989998 253.304 1.05 254.474 1.53C256.094 2.16 257.174 3.96 257.174 6C257.174 7.83 256.364 9.18 254.594 10.29C256.904 11.28 258.104 13.02 258.104 15.3C258.104 17.46 256.904 19.41 255.074 20.22C253.694 20.85 252.494 21 249.374 21H237.314ZM242.324 8.91H249.104C251.024 8.91 251.774 8.37 251.774 6.93C251.774 5.49 251.024 4.95 249.104 4.95H242.324V8.91ZM242.324 17.04H249.104C250.514 17.04 251.054 16.95 251.624 16.68C252.284 16.38 252.704 15.63 252.704 14.73C252.704 13.86 252.284 13.11 251.624 12.81C251.054 12.51 250.514 12.45 249.104 12.45H242.324V17.04ZM287.271 21H268.971V0.989998H287.271V5.04H273.981V8.43H285.741V12.48H273.981V16.95H287.271V21ZM300.214 13.44L307.294 21H300.964L298.954 18.57C298.174 17.64 297.604 16.95 297.304 16.56C297.154 16.74 296.884 17.1 296.464 17.61L295.684 18.57L293.734 21H287.824L294.424 13.44L288.154 6.21H294.184L295.714 8.22L296.314 9.03L296.914 9.84C297.034 10.02 297.154 10.2 297.304 10.38L297.604 9.96L298.294 9.09L299.014 8.22L300.694 6.21H306.394L300.214 13.44ZM313.932 2.01V6.21H317.412V9.6H313.932V15.78C313.932 17.07 314.382 17.43 315.942 17.4H317.292V21H314.352C310.092 21 309.132 20.01 309.192 15.72V9.6H307.062V6.21H309.192V2.01H313.932ZM336.367 14.55H323.167C323.197 16.86 324.847 18.3 327.397 18.3C329.227 18.3 330.367 17.67 330.937 16.32H336.187C335.707 17.67 335.077 18.54 333.877 19.53C332.167 20.94 330.157 21.6 327.547 21.6C324.427 21.6 321.967 20.76 320.437 19.2C319.087 17.82 318.367 15.9 318.367 13.71C318.367 8.76 321.847 5.61 327.367 5.61C331.087 5.61 333.877 6.99 335.227 9.54C336.007 10.98 336.307 12.39 336.367 14.55ZM323.317 11.61H331.297C330.817 9.57 329.497 8.55 327.307 8.55C325.117 8.55 323.767 9.57 323.317 11.61ZM338.842 21V6.21H343.582V8.01C345.622 6.33 347.182 5.7 349.342 5.7C351.382 5.7 353.272 6.42 354.442 7.68C355.582 8.88 355.942 10.14 355.942 12.84V21H351.202V13.17C351.202 11.67 350.902 10.8 350.152 10.14C349.492 9.57 348.562 9.24 347.542 9.24C345.082 9.24 343.582 10.77 343.582 13.29V21H338.842ZM376.133 0.989998V21H371.393V19.59C369.893 20.91 368.303 21.51 366.323 21.51C361.793 21.51 358.403 18.12 358.403 13.62C358.403 9.09 361.793 5.7 366.323 5.7C368.303 5.7 369.923 6.3 371.393 7.62V0.989998H376.133ZM367.463 9.09C365.033 9.09 363.113 11.07 363.113 13.59C363.113 16.11 365.033 18.12 367.433 18.12C369.803 18.12 371.753 16.11 371.753 13.68C371.753 11.1 369.863 9.09 367.463 9.09ZM396.597 14.55H383.397C383.427 16.86 385.077 18.3 387.627 18.3C389.457 18.3 390.597 17.67 391.167 16.32H396.417C395.937 17.67 395.307 18.54 394.107 19.53C392.397 20.94 390.387 21.6 387.777 21.6C384.657 21.6 382.197 20.76 380.667 19.2C379.317 17.82 378.597 15.9 378.597 13.71C378.597 8.76 382.077 5.61 387.597 5.61C391.317 5.61 394.107 6.99 395.457 9.54C396.237 10.98 396.537 12.39 396.597 14.55ZM383.547 11.61H391.527C391.047 9.57 389.727 8.55 387.537 8.55C385.347 8.55 383.997 9.57 383.547 11.61ZM416.081 0.989998V21H411.341V19.59C409.841 20.91 408.251 21.51 406.271 21.51C401.741 21.51 398.351 18.12 398.351 13.62C398.351 9.09 401.741 5.7 406.271 5.7C408.251 5.7 409.871 6.3 411.341 7.62V0.989998H416.081ZM407.411 9.09C404.981 9.09 403.061 11.07 403.061 13.59C403.061 16.11 404.981 18.12 407.381 18.12C409.751 18.12 411.701 16.11 411.701 13.68C411.701 11.1 409.811 9.09 407.411 9.09Z" fill="black"/>
                  </svg> 