<svg width="278" height="18" viewBox="0 0 278 18" fill="none" xmlns="http://www.w3.org/2000/svg">
                    <path d="M8.1 3.36V14H4.76V3.36H0.14V0.659999H12.7V3.36H8.1ZM13.7287 14V4.14H16.8887V14H13.7287ZM13.7287 3.3V0.659999H16.8887V3.3H13.7287ZM22.6077 1.34V4.14H24.9277V6.4H22.6077V10.52C22.6077 11.38 22.9077 11.62 23.9477 11.6H24.8477V14H22.8877C20.0477 14 19.4077 13.34 19.4477 10.48V6.4H18.0277V4.14H19.4477V1.34H22.6077ZM29.1458 0.659999V14H25.9858V0.659999H29.1458ZM31.2647 14V4.14H34.4247V14H31.2647ZM31.2647 3.3V0.659999H34.4247V3.3H31.2647ZM36.5436 14V4.14H39.7036V5.34C41.0636 4.22 42.1036 3.8 43.5436 3.8C44.9036 3.8 46.1636 4.28 46.9436 5.12C47.7036 5.92 47.9436 6.76 47.9436 8.56V14H44.7836V8.78C44.7836 7.78 44.5836 7.2 44.0836 6.76C43.6436 6.38 43.0236 6.16 42.3436 6.16C40.7036 6.16 39.7036 7.18 39.7036 8.86V14H36.5436ZM58.3452 4.14H61.5052V12.24C61.5052 14.58 61.1452 15.7 60.0652 16.6C59.0452 17.48 57.6452 17.86 55.5252 17.86C53.2252 17.86 51.6452 17.46 50.7652 16.64C50.1452 16.06 49.9052 15.48 49.9052 14.42H53.4452C53.5652 15.34 54.2652 15.76 55.6452 15.76C56.5052 15.76 57.1852 15.56 57.6852 15.18C58.2052 14.78 58.3452 14.34 58.3452 13.28V12.58C57.1252 13.56 56.2852 13.86 54.8852 13.86C51.7252 13.86 49.5852 11.84 49.5852 8.84C49.5852 5.82 51.7252 3.8 54.8852 3.8C56.2652 3.8 57.1252 4.12 58.3452 5.08V4.14ZM55.6652 6.16C53.9852 6.16 52.7252 7.3 52.7252 8.82C52.7252 10.34 54.0052 11.5 55.6452 11.5C57.2652 11.5 58.5652 10.34 58.5652 8.88C58.5652 7.34 57.3052 6.16 55.6652 6.16ZM84.1809 14H81.8209L81.6009 12.6C79.7209 13.98 78.3209 14.46 76.2209 14.46C71.6809 14.46 68.6009 11.64 68.6009 7.48C68.6009 5.44 69.3809 3.6 70.8009 2.28C72.2609 0.899999 74.3209 0.199999 76.8609 0.199999C80.8009 0.199999 83.3809 1.9 84.2409 5.08H80.6409C80.0009 3.5 78.6409 2.66 76.7209 2.66C74.0809 2.66 72.1409 4.6 72.1409 7.28C72.1409 9.9 74.1009 11.86 76.7209 11.86C78.5609 11.86 79.9809 11.02 80.9409 9.36H77.5809V6.66H84.1809V14ZM92.3878 3.74C94.2678 3.74 95.9278 4.3 97.0878 5.3C98.1678 6.26 98.7078 7.52 98.7078 9.16C98.7078 12.26 96.1078 14.4 92.3478 14.4C88.5278 14.4 85.9878 12.28 85.9878 9.06C85.9878 5.86 88.5278 3.74 92.3878 3.74ZM92.3678 6.08C90.6078 6.08 89.3878 7.3 89.3878 9.06C89.3878 10.82 90.6078 12.06 92.3478 12.06C94.0478 12.06 95.3078 10.82 95.3078 9.12C95.3078 7.32 94.1078 6.08 92.3678 6.08ZM103.882 1.34V4.14H106.202V6.4H103.882V10.52C103.882 11.38 104.182 11.62 105.222 11.6H106.122V14H104.162C101.322 14 100.682 13.34 100.722 10.48V6.4H99.3019V4.14H100.722V1.34H103.882ZM107.631 14V0.659999H110.791V5.34C112.131 4.22 113.191 3.8 114.631 3.8C115.991 3.8 117.251 4.28 118.031 5.12C118.791 5.92 119.031 6.76 119.031 8.56V14H115.871V8.78C115.871 7.78 115.671 7.2 115.171 6.76C114.731 6.38 114.111 6.16 113.431 6.16C111.791 6.16 110.791 7.18 110.791 8.86V14H107.631ZM121.152 14V4.14H124.312V14H121.152ZM121.152 3.3V0.659999H124.312V3.3H121.152ZM134.671 10.04H138.031C137.511 12.8 135.271 14.4 131.951 14.4C129.851 14.4 128.131 13.74 127.131 12.52C126.351 11.6 125.951 10.44 125.951 9.18C125.951 5.94 128.451 3.74 132.131 3.74C134.031 3.74 135.651 4.36 136.631 5.44C137.211 6.1 137.551 6.78 137.791 7.86H134.611C134.291 6.6 133.451 5.94 132.091 5.94C130.291 5.94 129.091 7.18 129.091 9.02C129.091 10.88 130.291 12.2 132.011 12.2C133.391 12.2 134.411 11.38 134.671 10.04ZM148.438 14H145.098V0.659999H156.798V3.36H148.438V5.86H156.118V8.56H148.438V14ZM158.209 14V0.659999H166.149C168.429 0.659999 168.869 0.7 169.649 1.02C170.729 1.44 171.449 2.64 171.449 4C171.449 5.22 170.909 6.12 169.729 6.86C171.269 7.52 172.069 8.68 172.069 10.2C172.069 11.64 171.269 12.94 170.049 13.48C169.129 13.9 168.329 14 166.249 14H158.209ZM161.549 5.94H166.069C167.349 5.94 167.849 5.58 167.849 4.62C167.849 3.66 167.349 3.3 166.069 3.3H161.549V5.94ZM161.549 11.36H166.069C167.009 11.36 167.369 11.3 167.749 11.12C168.189 10.92 168.469 10.42 168.469 9.82C168.469 9.24 168.189 8.74 167.749 8.54C167.369 8.34 167.009 8.3 166.069 8.3H161.549V11.36ZM191.514 14H179.314V0.659999H191.514V3.36H182.654V5.62H190.494V8.32H182.654V11.3H191.514V14ZM200.143 8.96L204.863 14H200.643L199.303 12.38C198.783 11.76 198.403 11.3 198.203 11.04C198.103 11.16 197.923 11.4 197.643 11.74L197.123 12.38L195.823 14H191.883L196.283 8.96L192.103 4.14H196.123L197.143 5.48L197.543 6.02L197.943 6.56C198.023 6.68 198.103 6.8 198.203 6.92L198.403 6.64L198.863 6.06L199.343 5.48L200.463 4.14H204.263L200.143 8.96ZM209.288 1.34V4.14H211.608V6.4H209.288V10.52C209.288 11.38 209.588 11.62 210.628 11.6H211.528V14H209.568C206.728 14 206.088 13.34 206.128 10.48V6.4H204.708V4.14H206.128V1.34H209.288ZM224.245 9.7H215.445C215.465 11.24 216.565 12.2 218.265 12.2C219.485 12.2 220.245 11.78 220.625 10.88H224.125C223.805 11.78 223.385 12.36 222.585 13.02C221.445 13.96 220.105 14.4 218.365 14.4C216.285 14.4 214.645 13.84 213.625 12.8C212.725 11.88 212.245 10.6 212.245 9.14C212.245 5.84 214.565 3.74 218.245 3.74C220.725 3.74 222.585 4.66 223.485 6.36C224.005 7.32 224.205 8.26 224.245 9.7ZM215.545 7.74H220.865C220.545 6.38 219.665 5.7 218.205 5.7C216.745 5.7 215.845 6.38 215.545 7.74ZM225.894 14V4.14H229.054V5.34C230.414 4.22 231.454 3.8 232.894 3.8C234.254 3.8 235.514 4.28 236.294 5.12C237.054 5.92 237.294 6.76 237.294 8.56V14H234.134V8.78C234.134 7.78 233.934 7.2 233.434 6.76C232.994 6.38 232.374 6.16 231.694 6.16C230.054 6.16 229.054 7.18 229.054 8.86V14H225.894ZM250.755 0.659999V14H247.595V13.06C246.595 13.94 245.535 14.34 244.215 14.34C241.195 14.34 238.935 12.08 238.935 9.08C238.935 6.06 241.195 3.8 244.215 3.8C245.535 3.8 246.615 4.2 247.595 5.08V0.659999H250.755ZM244.975 6.06C243.355 6.06 242.075 7.38 242.075 9.06C242.075 10.74 243.355 12.08 244.955 12.08C246.535 12.08 247.835 10.74 247.835 9.12C247.835 7.4 246.575 6.06 244.975 6.06ZM264.398 9.7H255.598C255.618 11.24 256.718 12.2 258.418 12.2C259.638 12.2 260.398 11.78 260.778 10.88H264.278C263.958 11.78 263.538 12.36 262.738 13.02C261.598 13.96 260.258 14.4 258.518 14.4C256.438 14.4 254.798 13.84 253.778 12.8C252.878 11.88 252.398 10.6 252.398 9.14C252.398 5.84 254.718 3.74 258.398 3.74C260.878 3.74 262.738 4.66 263.638 6.36C264.158 7.32 264.358 8.26 264.398 9.7ZM255.698 7.74H261.018C260.698 6.38 259.818 5.7 258.358 5.7C256.898 5.7 255.998 6.38 255.698 7.74ZM277.388 0.659999V14H274.228V13.06C273.228 13.94 272.168 14.34 270.848 14.34C267.828 14.34 265.568 12.08 265.568 9.08C265.568 6.06 267.828 3.8 270.848 3.8C272.168 3.8 273.248 4.2 274.228 5.08V0.659999H277.388ZM271.608 6.06C269.988 6.06 268.708 7.38 268.708 9.06C268.708 10.74 269.988 12.08 271.588 12.08C273.168 12.08 274.468 10.74 274.468 9.12C274.468 7.4 273.208 6.06 271.608 6.06Z" fill="black"/>
                  </svg>  