<svg width="208" height="15" viewBox="0 0 208 15" fill="none" xmlns="http://www.w3.org/2000/svg">
                    <path d="M0.368 14V0.68H5.84C6.692 0.68 7.418 0.836 8.018 1.148C8.63 1.448 9.092 1.85 9.404 2.354C9.728 2.858 9.89 3.41 9.89 4.01C9.89 4.646 9.77 5.168 9.53 5.576C9.302 5.972 9.038 6.278 8.738 6.494C8.438 6.71 8.18 6.86 7.964 6.944V7.052C8.264 7.136 8.606 7.298 8.99 7.538C9.374 7.766 9.704 8.102 9.98 8.546C10.268 8.978 10.412 9.542 10.412 10.238C10.412 10.862 10.262 11.462 9.962 12.038C9.662 12.614 9.182 13.088 8.522 13.46C7.874 13.82 7.022 14 5.966 14H0.368ZM5.642 2.48H2.474V6.332H5.642C6.41 6.332 6.968 6.134 7.316 5.738C7.664 5.342 7.838 4.898 7.838 4.406C7.838 3.914 7.664 3.47 7.316 3.074C6.968 2.678 6.41 2.48 5.642 2.48ZM5.804 7.988H2.474V12.2H5.804C6.392 12.2 6.872 12.104 7.244 11.912C7.616 11.708 7.886 11.444 8.054 11.12C8.222 10.796 8.306 10.454 8.306 10.094C8.306 9.734 8.222 9.398 8.054 9.086C7.886 8.762 7.616 8.498 7.244 8.294C6.872 8.09 6.392 7.988 5.804 7.988ZM17.0098 14.18C16.2058 14.18 15.5098 14.042 14.9218 13.766C14.3458 13.478 13.8658 13.1 13.4818 12.632C13.1098 12.152 12.8278 11.618 12.6358 11.03C12.4558 10.442 12.3658 9.842 12.3658 9.23C12.3658 8.63 12.4558 8.036 12.6358 7.448C12.8158 6.86 13.0918 6.326 13.4638 5.846C13.8358 5.366 14.3098 4.988 14.8858 4.712C15.4618 4.424 16.1398 4.28 16.9198 4.28C17.7598 4.28 18.4978 4.472 19.1338 4.856C19.7818 5.228 20.2858 5.786 20.6458 6.53C21.0178 7.262 21.2038 8.174 21.2038 9.266V9.824H14.4358C14.4838 10.556 14.7298 11.186 15.1738 11.714C15.6178 12.242 16.2298 12.506 17.0098 12.506C17.4538 12.506 17.8198 12.434 18.1078 12.29C18.3958 12.134 18.6178 11.96 18.7738 11.768C18.9298 11.576 19.0378 11.408 19.0978 11.264C19.1698 11.12 19.2058 11.048 19.2058 11.048H21.1138C21.1138 11.048 21.0838 11.156 21.0238 11.372C20.9638 11.576 20.8498 11.834 20.6818 12.146C20.5258 12.458 20.2978 12.77 19.9978 13.082C19.6978 13.394 19.3018 13.658 18.8098 13.874C18.3178 14.078 17.7178 14.18 17.0098 14.18ZM14.4538 8.384H19.2238C19.1758 7.544 18.9238 6.926 18.4678 6.53C18.0238 6.134 17.5018 5.936 16.9018 5.936C16.2298 5.936 15.6718 6.158 15.2278 6.602C14.7838 7.034 14.5258 7.628 14.4538 8.384ZM31.4987 14L26.8547 0.68H29.0687L32.8667 11.75L36.6467 0.68H38.8607L34.1987 14H31.4987ZM41.7902 2.822C41.4182 2.822 41.1122 2.696 40.8722 2.444C40.6322 2.192 40.5122 1.898 40.5122 1.562C40.5122 1.214 40.6322 0.92 40.8722 0.68C41.1122 0.427999 41.4182 0.301999 41.7902 0.301999C42.1622 0.301999 42.4682 0.427999 42.7082 0.68C42.9602 0.92 43.0862 1.214 43.0862 1.562C43.0862 1.91 42.9602 2.21 42.7082 2.462C42.4682 2.702 42.1622 2.822 41.7902 2.822ZM40.7822 14V4.46H42.8342V14H40.7822ZM49.9513 14.18C49.1473 14.18 48.4513 14.042 47.8633 13.766C47.2873 13.478 46.8073 13.1 46.4233 12.632C46.0513 12.152 45.7693 11.618 45.5773 11.03C45.3973 10.442 45.3073 9.842 45.3073 9.23C45.3073 8.63 45.3973 8.036 45.5773 7.448C45.7573 6.86 46.0333 6.326 46.4053 5.846C46.7773 5.366 47.2513 4.988 47.8273 4.712C48.4033 4.424 49.0813 4.28 49.8613 4.28C50.7013 4.28 51.4393 4.472 52.0753 4.856C52.7233 5.228 53.2273 5.786 53.5873 6.53C53.9593 7.262 54.1453 8.174 54.1453 9.266V9.824H47.3773C47.4253 10.556 47.6713 11.186 48.1153 11.714C48.5593 12.242 49.1713 12.506 49.9513 12.506C50.3953 12.506 50.7613 12.434 51.0493 12.29C51.3373 12.134 51.5593 11.96 51.7153 11.768C51.8713 11.576 51.9793 11.408 52.0393 11.264C52.1113 11.12 52.1473 11.048 52.1473 11.048H54.0553C54.0553 11.048 54.0253 11.156 53.9653 11.372C53.9053 11.576 53.7913 11.834 53.6233 12.146C53.4673 12.458 53.2393 12.77 52.9393 13.082C52.6393 13.394 52.2433 13.658 51.7513 13.874C51.2593 14.078 50.6593 14.18 49.9513 14.18ZM47.3953 8.384H52.1653C52.1173 7.544 51.8653 6.926 51.4093 6.53C50.9653 6.134 50.4433 5.936 49.8433 5.936C49.1713 5.936 48.6133 6.158 48.1693 6.602C47.7253 7.034 47.4673 7.628 47.3953 8.384ZM60.3679 14.18C59.6119 14.18 59.0059 14.042 58.5499 13.766C58.0939 13.49 57.7639 13.124 57.5599 12.668C57.3679 12.2 57.2719 11.696 57.2719 11.156V6.116H55.5979V4.46H57.2719V2.084H59.3239V4.46H61.5559V6.116H59.3239V11.12C59.3239 12.02 59.8219 12.47 60.8179 12.47C61.0699 12.47 61.3039 12.452 61.5199 12.416C61.7359 12.38 61.8439 12.362 61.8439 12.362V14.036C61.8439 14.036 61.6939 14.06 61.3939 14.108C61.1059 14.156 60.7639 14.18 60.3679 14.18ZM63.9439 14V4.46H65.9959V5.846H66.1039C66.1879 5.678 66.3319 5.474 66.5359 5.234C66.7399 4.982 67.0219 4.76 67.3819 4.568C67.7539 4.376 68.2219 4.28 68.7859 4.28C69.4939 4.28 70.0879 4.442 70.5679 4.766C71.0479 5.09 71.4079 5.522 71.6479 6.062C71.8999 6.602 72.0259 7.196 72.0259 7.844V14H69.9739V8.06C69.9739 7.484 69.8119 6.998 69.4879 6.602C69.1759 6.206 68.7079 6.008 68.0839 6.008C67.5919 6.008 67.1899 6.134 66.8779 6.386C66.5779 6.626 66.3559 6.944 66.2119 7.34C66.0679 7.724 65.9959 8.138 65.9959 8.582V14H63.9439ZM78.4897 4.28C79.0897 4.28 79.5877 4.376 79.9837 4.568C80.3917 4.76 80.7157 4.982 80.9557 5.234C81.1957 5.486 81.3697 5.702 81.4777 5.882H81.5857V4.46H83.6377V14H81.5857V12.578H81.4777C81.3697 12.758 81.1957 12.974 80.9557 13.226C80.7157 13.478 80.3917 13.7 79.9837 13.892C79.5877 14.084 79.0897 14.18 78.4897 14.18C77.7697 14.18 77.1397 14.042 76.5997 13.766C76.0717 13.478 75.6277 13.1 75.2677 12.632C74.9077 12.152 74.6377 11.618 74.4577 11.03C74.2897 10.442 74.2057 9.842 74.2057 9.23C74.2057 8.618 74.2897 8.018 74.4577 7.43C74.6377 6.842 74.9077 6.314 75.2677 5.846C75.6277 5.366 76.0717 4.988 76.5997 4.712C77.1397 4.424 77.7697 4.28 78.4897 4.28ZM78.9397 5.99C78.3517 5.99 77.8597 6.152 77.4637 6.476C77.0677 6.788 76.7677 7.19 76.5637 7.682C76.3717 8.174 76.2757 8.69 76.2757 9.23C76.2757 9.77 76.3717 10.286 76.5637 10.778C76.7677 11.27 77.0677 11.678 77.4637 12.002C77.8597 12.314 78.3517 12.47 78.9397 12.47C79.5277 12.47 80.0137 12.314 80.3977 12.002C80.7937 11.678 81.0877 11.27 81.2797 10.778C81.4837 10.286 81.5857 9.77 81.5857 9.23C81.5857 8.69 81.4837 8.174 81.2797 7.682C81.0877 7.19 80.7937 6.788 80.3977 6.476C80.0137 6.152 79.5277 5.99 78.9397 5.99ZM86.0396 14V4.46H88.0916V5.81H88.1636C88.2716 5.618 88.4276 5.402 88.6316 5.162C88.8476 4.922 89.1296 4.718 89.4776 4.55C89.8256 4.37 90.2636 4.28 90.7916 4.28C91.4996 4.28 92.0876 4.448 92.5556 4.784C93.0236 5.12 93.3716 5.564 93.5996 6.116H93.6356C93.8876 5.636 94.2536 5.21 94.7336 4.838C95.2136 4.466 95.8496 4.28 96.6416 4.28C97.3136 4.28 97.8836 4.442 98.3516 4.766C98.8196 5.078 99.1676 5.504 99.3956 6.044C99.6356 6.572 99.7556 7.172 99.7556 7.844V14H97.7036V8.132C97.7036 7.508 97.5536 6.998 97.2536 6.602C96.9536 6.206 96.5096 6.008 95.9216 6.008C95.4416 6.008 95.0516 6.14 94.7516 6.404C94.4636 6.668 94.2536 6.998 94.1216 7.394C93.9896 7.778 93.9236 8.168 93.9236 8.564V14H91.8716V8.132C91.8716 7.508 91.7216 6.998 91.4216 6.602C91.1216 6.206 90.6776 6.008 90.0896 6.008C89.6096 6.008 89.2196 6.14 88.9196 6.404C88.6316 6.668 88.4216 6.998 88.2896 7.394C88.1576 7.778 88.0916 8.168 88.0916 8.564V14H86.0396ZM106.452 14V0.68H111.456C112.5 0.68 113.37 0.896 114.066 1.328C114.762 1.748 115.284 2.294 115.632 2.966C115.98 3.626 116.154 4.322 116.154 5.054C116.154 5.786 115.98 6.488 115.632 7.16C115.284 7.832 114.762 8.384 114.066 8.816C113.37 9.236 112.5 9.446 111.456 9.446H108.558V14H106.452ZM111.456 2.516H108.558V7.61H111.456C112.032 7.61 112.512 7.49 112.896 7.25C113.28 6.998 113.568 6.68 113.76 6.296C113.952 5.9 114.048 5.492 114.048 5.072C114.048 4.64 113.952 4.232 113.76 3.848C113.568 3.452 113.28 3.134 112.896 2.894C112.512 2.642 112.032 2.516 111.456 2.516ZM118.084 14V4.46H120.136V5.72H120.208C120.388 5.348 120.67 5.018 121.054 4.73C121.45 4.43 122.02 4.28 122.764 4.28C122.992 4.28 123.184 4.292 123.34 4.316C123.508 4.34 123.592 4.352 123.592 4.352V6.332C123.592 6.332 123.502 6.32 123.322 6.296C123.142 6.272 122.938 6.26 122.71 6.26C121.87 6.26 121.228 6.5 120.784 6.98C120.352 7.448 120.136 8.21 120.136 9.266V14H118.084ZM129.391 14.18C128.347 14.18 127.465 13.946 126.745 13.478C126.037 13.01 125.497 12.398 125.125 11.642C124.765 10.886 124.585 10.082 124.585 9.23C124.585 8.378 124.765 7.574 125.125 6.818C125.497 6.062 126.037 5.45 126.745 4.982C127.465 4.514 128.347 4.28 129.391 4.28C130.423 4.28 131.293 4.514 132.001 4.982C132.721 5.45 133.261 6.062 133.621 6.818C133.993 7.574 134.179 8.378 134.179 9.23C134.179 10.082 133.993 10.886 133.621 11.642C133.261 12.398 132.721 13.01 132.001 13.478C131.293 13.946 130.423 14.18 129.391 14.18ZM129.391 12.434C129.979 12.434 130.471 12.284 130.867 11.984C131.275 11.684 131.581 11.288 131.785 10.796C132.001 10.304 132.109 9.782 132.109 9.23C132.109 8.666 132.001 8.144 131.785 7.664C131.581 7.172 131.275 6.776 130.867 6.476C130.471 6.176 129.979 6.026 129.391 6.026C128.803 6.026 128.305 6.176 127.897 6.476C127.489 6.776 127.183 7.172 126.979 7.664C126.775 8.144 126.673 8.666 126.673 9.23C126.673 9.782 126.775 10.304 126.979 10.796C127.183 11.288 127.489 11.684 127.897 11.984C128.305 12.284 128.803 12.434 129.391 12.434ZM140.729 14V0.68H143.519L147.137 8.258L150.809 0.68H153.563V14H151.493V3.812L148.127 10.688H146.165L142.799 3.776V14H140.729ZM160.57 14.18C159.766 14.18 159.07 14.042 158.482 13.766C157.906 13.478 157.426 13.1 157.042 12.632C156.67 12.152 156.388 11.618 156.196 11.03C156.016 10.442 155.926 9.842 155.926 9.23C155.926 8.63 156.016 8.036 156.196 7.448C156.376 6.86 156.652 6.326 157.024 5.846C157.396 5.366 157.87 4.988 158.446 4.712C159.022 4.424 159.7 4.28 160.48 4.28C161.32 4.28 162.058 4.472 162.694 4.856C163.342 5.228 163.846 5.786 164.206 6.53C164.578 7.262 164.764 8.174 164.764 9.266V9.824H157.996C158.044 10.556 158.29 11.186 158.734 11.714C159.178 12.242 159.79 12.506 160.57 12.506C161.014 12.506 161.38 12.434 161.668 12.29C161.956 12.134 162.178 11.96 162.334 11.768C162.49 11.576 162.598 11.408 162.658 11.264C162.73 11.12 162.766 11.048 162.766 11.048H164.674C164.674 11.048 164.644 11.156 164.584 11.372C164.524 11.576 164.41 11.834 164.242 12.146C164.086 12.458 163.858 12.77 163.558 13.082C163.258 13.394 162.862 13.658 162.37 13.874C161.878 14.078 161.278 14.18 160.57 14.18ZM158.014 8.384H162.784C162.736 7.544 162.484 6.926 162.028 6.53C161.584 6.134 161.062 5.936 160.462 5.936C159.79 5.936 159.232 6.158 158.788 6.602C158.344 7.034 158.086 7.628 158.014 8.384ZM171.021 14.18C170.301 14.18 169.671 14.042 169.131 13.766C168.603 13.478 168.159 13.1 167.799 12.632C167.439 12.152 167.169 11.618 166.989 11.03C166.821 10.442 166.737 9.842 166.737 9.23C166.737 8.618 166.821 8.018 166.989 7.43C167.169 6.842 167.439 6.314 167.799 5.846C168.159 5.366 168.603 4.988 169.131 4.712C169.671 4.424 170.301 4.28 171.021 4.28C171.621 4.28 172.119 4.376 172.515 4.568C172.923 4.76 173.247 4.982 173.487 5.234C173.727 5.486 173.901 5.702 174.009 5.882H174.117V0.319999H176.169V14H174.117V12.578H174.009C173.901 12.758 173.727 12.974 173.487 13.226C173.247 13.478 172.923 13.7 172.515 13.892C172.119 14.084 171.621 14.18 171.021 14.18ZM171.471 12.47C172.059 12.47 172.545 12.314 172.929 12.002C173.325 11.678 173.619 11.27 173.811 10.778C174.015 10.286 174.117 9.77 174.117 9.23C174.117 8.69 174.015 8.174 173.811 7.682C173.619 7.19 173.325 6.788 172.929 6.476C172.545 6.152 172.059 5.99 171.471 5.99C170.883 5.99 170.391 6.152 169.995 6.476C169.599 6.788 169.299 7.19 169.095 7.682C168.903 8.174 168.807 8.69 168.807 9.23C168.807 9.77 168.903 10.286 169.095 10.778C169.299 11.27 169.599 11.678 169.995 12.002C170.391 12.314 170.883 12.47 171.471 12.47ZM180.007 2.822C179.635 2.822 179.329 2.696 179.089 2.444C178.849 2.192 178.729 1.898 178.729 1.562C178.729 1.214 178.849 0.92 179.089 0.68C179.329 0.427999 179.635 0.301999 180.007 0.301999C180.379 0.301999 180.685 0.427999 180.925 0.68C181.177 0.92 181.303 1.214 181.303 1.562C181.303 1.91 181.177 2.21 180.925 2.462C180.685 2.702 180.379 2.822 180.007 2.822ZM178.999 14V4.46H181.051V14H178.999ZM186.746 14.18C185.786 14.18 185.036 13.88 184.496 13.28C183.956 12.68 183.686 11.882 183.686 10.886V4.46H185.738V10.634C185.738 11.21 185.888 11.66 186.188 11.984C186.5 12.296 186.92 12.452 187.448 12.452C187.964 12.452 188.378 12.32 188.69 12.056C189.002 11.792 189.224 11.456 189.356 11.048C189.5 10.628 189.572 10.196 189.572 9.752V4.46H191.624V14H189.572V12.632H189.464C189.368 12.812 189.212 13.028 188.996 13.28C188.792 13.52 188.504 13.73 188.132 13.91C187.772 14.09 187.31 14.18 186.746 14.18ZM194.004 14V4.46H196.056V5.81H196.128C196.236 5.618 196.392 5.402 196.596 5.162C196.812 4.922 197.094 4.718 197.442 4.55C197.79 4.37 198.228 4.28 198.756 4.28C199.464 4.28 200.052 4.448 200.52 4.784C200.988 5.12 201.336 5.564 201.564 6.116H201.6C201.852 5.636 202.218 5.21 202.698 4.838C203.178 4.466 203.814 4.28 204.606 4.28C205.278 4.28 205.848 4.442 206.316 4.766C206.784 5.078 207.132 5.504 207.36 6.044C207.6 6.572 207.72 7.172 207.72 7.844V14H205.668V8.132C205.668 7.508 205.518 6.998 205.218 6.602C204.918 6.206 204.474 6.008 203.886 6.008C203.406 6.008 203.016 6.14 202.716 6.404C202.428 6.668 202.218 6.998 202.086 7.394C201.954 7.778 201.888 8.168 201.888 8.564V14H199.836V8.132C199.836 7.508 199.686 6.998 199.386 6.602C199.086 6.206 198.642 6.008 198.054 6.008C197.574 6.008 197.184 6.14 196.884 6.404C196.596 6.668 196.386 6.998 196.254 7.394C196.122 7.778 196.056 8.168 196.056 8.564V14H194.004Z" fill="black"/>
                  </svg>   