<svg width="137" height="13" viewBox="0 0 137 13" fill="none" xmlns="http://www.w3.org/2000/svg">
                    <path d="M0.870156 10V1.12H4.29016C4.85816 1.12 5.34216 1.224 5.74216 1.432C6.15016 1.632 6.46216 1.904 6.67816 2.248C6.89416 2.584 7.00216 2.952 7.00216 3.352C7.00216 3.792 6.92216 4.148 6.76216 4.42C6.60216 4.692 6.42216 4.9 6.22216 5.044C6.02216 5.18 5.86216 5.272 5.74216 5.32V5.392C5.93416 5.448 6.15416 5.556 6.40216 5.716C6.65816 5.868 6.87816 6.088 7.06216 6.376C7.24616 6.664 7.33816 7.04 7.33816 7.504C7.33816 7.912 7.23816 8.308 7.03816 8.692C6.83816 9.076 6.52216 9.392 6.09016 9.64C5.65816 9.88 5.08616 10 4.37416 10H0.870156ZM4.24216 2.14H2.04616V4.972H4.24216C4.62616 4.972 4.93416 4.904 5.16616 4.768C5.40616 4.632 5.57816 4.456 5.68216 4.24C5.79416 4.016 5.85016 3.788 5.85016 3.556C5.85016 3.316 5.79416 3.088 5.68216 2.872C5.57816 2.656 5.40616 2.48 5.16616 2.344C4.93416 2.208 4.62616 2.14 4.24216 2.14ZM4.33816 5.92H2.04616V8.98H4.33816C4.77816 8.98 5.13016 8.908 5.39416 8.764C5.65816 8.612 5.85016 8.42 5.97016 8.188C6.09816 7.948 6.16216 7.7 6.16216 7.444C6.16216 7.188 6.09816 6.944 5.97016 6.712C5.85016 6.48 5.65816 6.292 5.39416 6.148C5.13016 5.996 4.77816 5.92 4.33816 5.92ZM11.7281 10.12C11.2081 10.12 10.7561 10.028 10.3721 9.844C9.99609 9.652 9.68409 9.396 9.43609 9.076C9.19609 8.756 9.01609 8.404 8.89609 8.02C8.77609 7.628 8.71609 7.228 8.71609 6.82C8.71609 6.42 8.77209 6.024 8.88409 5.632C9.00409 5.24 9.18409 4.884 9.42409 4.564C9.67209 4.244 9.98009 3.992 10.3481 3.808C10.7241 3.616 11.1681 3.52 11.6801 3.52C12.2241 3.52 12.7041 3.644 13.1201 3.892C13.5361 4.14 13.8641 4.508 14.1041 4.996C14.3441 5.484 14.4641 6.096 14.4641 6.832V7.168H9.86809C9.89209 7.528 9.97609 7.86 10.1201 8.164C10.2721 8.46 10.4841 8.7 10.7561 8.884C11.0281 9.06 11.3521 9.148 11.7281 9.148C12.0561 9.148 12.3201 9.096 12.5201 8.992C12.7281 8.88 12.8921 8.752 13.0121 8.608C13.1321 8.464 13.2121 8.34 13.2521 8.236C13.3001 8.124 13.3241 8.068 13.3241 8.068H14.3921C14.3921 8.068 14.3721 8.14 14.3321 8.284C14.2921 8.42 14.2201 8.588 14.1161 8.788C14.0121 8.988 13.8601 9.192 13.6601 9.4C13.4601 9.6 13.2041 9.772 12.8921 9.916C12.5801 10.052 12.1921 10.12 11.7281 10.12ZM9.88009 6.28H13.3481C13.3321 5.864 13.2441 5.528 13.0841 5.272C12.9241 5.008 12.7201 4.812 12.4721 4.684C12.2241 4.556 11.9601 4.492 11.6801 4.492C11.1761 4.492 10.7641 4.656 10.4441 4.984C10.1241 5.304 9.93609 5.736 9.88009 6.28ZM21.4373 10L18.3053 1.12H19.5533L22.1813 8.656L24.8093 1.12H26.0573L22.9133 10H21.4373ZM28.002 2.428C27.786 2.428 27.606 2.356 27.462 2.212C27.326 2.068 27.258 1.896 27.258 1.696C27.258 1.488 27.326 1.312 27.462 1.168C27.606 1.024 27.786 0.952 28.002 0.952C28.21 0.952 28.386 1.024 28.53 1.168C28.674 1.312 28.746 1.488 28.746 1.696C28.746 1.896 28.674 2.068 28.53 2.212C28.386 2.356 28.21 2.428 28.002 2.428ZM27.438 10V3.64H28.578V10H27.438ZM33.314 10.12C32.794 10.12 32.342 10.028 31.958 9.844C31.582 9.652 31.27 9.396 31.022 9.076C30.782 8.756 30.602 8.404 30.482 8.02C30.362 7.628 30.302 7.228 30.302 6.82C30.302 6.42 30.358 6.024 30.47 5.632C30.59 5.24 30.77 4.884 31.01 4.564C31.258 4.244 31.566 3.992 31.934 3.808C32.31 3.616 32.754 3.52 33.266 3.52C33.81 3.52 34.29 3.644 34.706 3.892C35.122 4.14 35.45 4.508 35.69 4.996C35.93 5.484 36.05 6.096 36.05 6.832V7.168H31.454C31.478 7.528 31.562 7.86 31.706 8.164C31.858 8.46 32.07 8.7 32.342 8.884C32.614 9.06 32.938 9.148 33.314 9.148C33.642 9.148 33.906 9.096 34.106 8.992C34.314 8.88 34.478 8.752 34.598 8.608C34.718 8.464 34.798 8.34 34.838 8.236C34.886 8.124 34.91 8.068 34.91 8.068H35.978C35.978 8.068 35.958 8.14 35.918 8.284C35.878 8.42 35.806 8.588 35.702 8.788C35.598 8.988 35.446 9.192 35.246 9.4C35.046 9.6 34.79 9.772 34.478 9.916C34.166 10.052 33.778 10.12 33.314 10.12ZM31.466 6.28H34.934C34.918 5.864 34.83 5.528 34.67 5.272C34.51 5.008 34.306 4.812 34.058 4.684C33.81 4.556 33.546 4.492 33.266 4.492C32.762 4.492 32.35 4.656 32.03 4.984C31.71 5.304 31.522 5.736 31.466 6.28ZM40.1884 10.12C39.5324 10.12 39.0364 9.952 38.7004 9.616C38.3724 9.28 38.2084 8.808 38.2084 8.2V4.576H37.0684V3.64H38.2084V2.044H39.3484V3.64H40.8964V4.576H39.3484V8.2C39.3484 8.52 39.4364 8.756 39.6124 8.908C39.7884 9.052 40.0444 9.124 40.3804 9.124C40.5564 9.124 40.7244 9.112 40.8844 9.088C41.0444 9.064 41.1244 9.052 41.1244 9.052V10.024C41.1244 10.024 41.0324 10.04 40.8484 10.072C40.6644 10.104 40.4444 10.12 40.1884 10.12ZM42.6213 10V3.64H43.7613V4.564H43.8333C43.8893 4.468 43.9813 4.336 44.1093 4.168C44.2453 4 44.4373 3.852 44.6853 3.724C44.9333 3.588 45.2453 3.52 45.6213 3.52C46.0853 3.52 46.4813 3.628 46.8093 3.844C47.1373 4.052 47.3853 4.336 47.5533 4.696C47.7293 5.056 47.8173 5.46 47.8173 5.908V10H46.6773V5.98C46.6773 5.556 46.5573 5.204 46.3173 4.924C46.0853 4.644 45.7453 4.504 45.2973 4.504C44.9373 4.504 44.6453 4.596 44.4213 4.78C44.1973 4.956 44.0293 5.192 43.9173 5.488C43.8133 5.776 43.7613 6.084 43.7613 6.412V10H42.6213ZM52.2602 3.52C52.6602 3.52 52.9962 3.584 53.2682 3.712C53.5402 3.84 53.7602 3.992 53.9282 4.168C54.0962 4.336 54.2242 4.496 54.3122 4.648H54.3842V3.64H55.5242V10H54.3842V8.992H54.3122C54.2242 9.144 54.0962 9.308 53.9282 9.484C53.7602 9.66 53.5402 9.812 53.2682 9.94C52.9962 10.06 52.6602 10.12 52.2602 10.12C51.7802 10.12 51.3602 10.028 51.0002 9.844C50.6402 9.652 50.3402 9.4 50.1002 9.088C49.8602 8.768 49.6802 8.412 49.5602 8.02C49.4402 7.628 49.3802 7.228 49.3802 6.82C49.3802 6.412 49.4402 6.012 49.5602 5.62C49.6802 5.228 49.8602 4.876 50.1002 4.564C50.3402 4.244 50.6402 3.992 51.0002 3.808C51.3602 3.616 51.7802 3.52 52.2602 3.52ZM52.4522 4.492C52.0282 4.492 51.6722 4.608 51.3842 4.84C51.0962 5.064 50.8802 5.352 50.7362 5.704C50.6002 6.056 50.5322 6.428 50.5322 6.82C50.5322 7.204 50.6002 7.576 50.7362 7.936C50.8802 8.288 51.0962 8.58 51.3842 8.812C51.6722 9.036 52.0282 9.148 52.4522 9.148C52.8762 9.148 53.2282 9.036 53.5082 8.812C53.7962 8.58 54.0082 8.288 54.1442 7.936C54.2882 7.576 54.3602 7.204 54.3602 6.82C54.3602 6.428 54.2882 6.056 54.1442 5.704C54.0082 5.352 53.7962 5.064 53.5082 4.84C53.2282 4.608 52.8762 4.492 52.4522 4.492ZM57.1994 10V3.64H58.3394V4.564H58.3874C58.4514 4.444 58.5514 4.304 58.6874 4.144C58.8234 3.976 59.0074 3.832 59.2394 3.712C59.4794 3.584 59.7794 3.52 60.1394 3.52C60.6114 3.52 61.0074 3.636 61.3274 3.868C61.6554 4.092 61.8994 4.396 62.0594 4.78H62.0714C62.2474 4.428 62.4954 4.132 62.8154 3.892C63.1434 3.644 63.5674 3.52 64.0874 3.52C64.7754 3.52 65.3034 3.756 65.6714 4.228C66.0474 4.692 66.2354 5.292 66.2354 6.028V10H65.0954V6.088C65.0954 5.616 64.9834 5.236 64.7594 4.948C64.5354 4.652 64.2114 4.504 63.7874 4.504C63.4194 4.504 63.1234 4.604 62.8994 4.804C62.6834 5.004 62.5274 5.252 62.4314 5.548C62.3354 5.844 62.2874 6.14 62.2874 6.436V10H61.1474V6.088C61.1474 5.616 61.0354 5.236 60.8114 4.948C60.5954 4.652 60.2714 4.504 59.8394 4.504C59.4714 4.504 59.1754 4.604 58.9514 4.804C58.7354 5.004 58.5794 5.256 58.4834 5.56C58.3874 5.856 58.3394 6.148 58.3394 6.436V10H57.1994ZM70.7959 10V1.12H73.9639C74.6439 1.12 75.2079 1.26 75.6559 1.54C76.1119 1.82 76.4519 2.184 76.6759 2.632C76.9079 3.072 77.0239 3.532 77.0239 4.012C77.0239 4.5 76.9079 4.968 76.6759 5.416C76.4519 5.856 76.1119 6.22 75.6559 6.508C75.2079 6.788 74.6439 6.928 73.9639 6.928H71.9719V10H70.7959ZM73.9639 2.152H71.9719V5.896H73.9639C74.3879 5.896 74.7399 5.804 75.0199 5.62C75.2999 5.436 75.5079 5.204 75.6439 4.924C75.7879 4.636 75.8599 4.336 75.8599 4.024C75.8599 3.712 75.7879 3.412 75.6439 3.124C75.5079 2.836 75.2999 2.604 75.0199 2.428C74.7399 2.244 74.3879 2.152 73.9639 2.152ZM78.3986 10V3.64H79.5386V4.432H79.5866C79.7226 4.192 79.9226 3.98 80.1866 3.796C80.4506 3.612 80.8226 3.52 81.3026 3.52C81.4386 3.52 81.5626 3.528 81.6746 3.544C81.7866 3.552 81.8426 3.556 81.8426 3.556V4.648C81.8426 4.648 81.7786 4.644 81.6506 4.636C81.5306 4.62 81.4026 4.612 81.2666 4.612C80.7146 4.612 80.2866 4.772 79.9826 5.092C79.6866 5.404 79.5386 5.916 79.5386 6.628V10H78.3986ZM85.6293 10.12C84.9493 10.12 84.3773 9.964 83.9133 9.652C83.4493 9.332 83.0973 8.92 82.8573 8.416C82.6173 7.912 82.4973 7.38 82.4973 6.82C82.4973 6.252 82.6173 5.72 82.8573 5.224C83.0973 4.72 83.4493 4.312 83.9133 4C84.3773 3.68 84.9493 3.52 85.6293 3.52C86.3093 3.52 86.8813 3.68 87.3453 4C87.8093 4.312 88.1613 4.72 88.4013 5.224C88.6413 5.72 88.7613 6.252 88.7613 6.82C88.7613 7.38 88.6413 7.912 88.4013 8.416C88.1613 8.92 87.8093 9.332 87.3453 9.652C86.8813 9.964 86.3093 10.12 85.6293 10.12ZM85.6293 9.124C86.0613 9.124 86.4213 9.016 86.7093 8.8C87.0053 8.576 87.2253 8.288 87.3693 7.936C87.5213 7.584 87.5973 7.212 87.5973 6.82C87.5973 6.42 87.5213 6.048 87.3693 5.704C87.2253 5.352 87.0053 5.068 86.7093 4.852C86.4213 4.628 86.0613 4.516 85.6293 4.516C85.2053 4.516 84.8453 4.628 84.5493 4.852C84.2533 5.068 84.0293 5.352 83.8773 5.704C83.7333 6.048 83.6613 6.42 83.6613 6.82C83.6613 7.212 83.7333 7.584 83.8773 7.936C84.0293 8.288 84.2533 8.576 84.5493 8.8C84.8453 9.016 85.2053 9.124 85.6293 9.124ZM93.2022 10V1.12H96.3462C96.9782 1.12 97.5022 1.244 97.9182 1.492C98.3342 1.74 98.6462 2.06 98.8542 2.452C99.0622 2.844 99.1662 3.256 99.1662 3.688C99.1662 4.048 99.0942 4.396 98.9502 4.732C98.8062 5.068 98.5902 5.364 98.3022 5.62C98.0222 5.868 97.6662 6.048 97.2342 6.16L99.4782 10H98.1462L95.9982 6.268H94.3782V10H93.2022ZM96.3342 2.152H94.3782V5.26H96.3342C96.7022 5.26 97.0062 5.184 97.2462 5.032C97.4862 4.88 97.6662 4.688 97.7862 4.456C97.9062 4.216 97.9662 3.968 97.9662 3.712C97.9662 3.448 97.9062 3.2 97.7862 2.968C97.6662 2.728 97.4862 2.532 97.2462 2.38C97.0062 2.228 96.7022 2.152 96.3342 2.152ZM103.392 10.12C102.872 10.12 102.42 10.028 102.036 9.844C101.66 9.652 101.348 9.396 101.1 9.076C100.86 8.756 100.68 8.404 100.56 8.02C100.44 7.628 100.38 7.228 100.38 6.82C100.38 6.42 100.436 6.024 100.548 5.632C100.668 5.24 100.848 4.884 101.088 4.564C101.336 4.244 101.644 3.992 102.012 3.808C102.388 3.616 102.832 3.52 103.344 3.52C103.888 3.52 104.368 3.644 104.784 3.892C105.2 4.14 105.528 4.508 105.768 4.996C106.008 5.484 106.128 6.096 106.128 6.832V7.168H101.532C101.556 7.528 101.64 7.86 101.784 8.164C101.936 8.46 102.148 8.7 102.42 8.884C102.692 9.06 103.016 9.148 103.392 9.148C103.72 9.148 103.984 9.096 104.184 8.992C104.392 8.88 104.556 8.752 104.676 8.608C104.796 8.464 104.876 8.34 104.916 8.236C104.964 8.124 104.988 8.068 104.988 8.068H106.056C106.056 8.068 106.036 8.14 105.996 8.284C105.956 8.42 105.884 8.588 105.78 8.788C105.676 8.988 105.524 9.192 105.324 9.4C105.124 9.6 104.868 9.772 104.556 9.916C104.244 10.052 103.856 10.12 103.392 10.12ZM101.544 6.28H105.012C104.996 5.864 104.908 5.528 104.748 5.272C104.588 5.008 104.384 4.812 104.136 4.684C103.888 4.556 103.624 4.492 103.344 4.492C102.84 4.492 102.428 4.656 102.108 4.984C101.788 5.304 101.6 5.736 101.544 6.28ZM110.685 12.52C110.157 12.52 109.717 12.448 109.365 12.304C109.013 12.168 108.729 11.992 108.513 11.776C108.305 11.568 108.149 11.36 108.045 11.152C107.941 10.944 107.873 10.768 107.841 10.624C107.809 10.488 107.793 10.42 107.793 10.42H108.933C108.933 10.42 108.953 10.476 108.993 10.588C109.033 10.7 109.109 10.828 109.221 10.972C109.341 11.116 109.517 11.244 109.749 11.356C109.981 11.468 110.293 11.524 110.685 11.524C111.149 11.524 111.513 11.432 111.777 11.248C112.041 11.072 112.229 10.84 112.341 10.552C112.461 10.264 112.521 9.96 112.521 9.64V8.908H112.461C112.381 9.044 112.253 9.2 112.077 9.376C111.909 9.544 111.685 9.692 111.405 9.82C111.125 9.94 110.781 10 110.373 10C109.893 10 109.473 9.908 109.113 9.724C108.753 9.54 108.453 9.292 108.213 8.98C107.981 8.668 107.805 8.32 107.685 7.936C107.565 7.552 107.505 7.16 107.505 6.76C107.505 6.36 107.565 5.968 107.685 5.584C107.805 5.2 107.981 4.852 108.213 4.54C108.453 4.228 108.753 3.98 109.113 3.796C109.473 3.612 109.893 3.52 110.373 3.52C110.781 3.52 111.125 3.584 111.405 3.712C111.685 3.832 111.909 3.976 112.077 4.144C112.253 4.312 112.381 4.468 112.461 4.612H112.521V3.64H113.661V9.628C113.661 10.516 113.401 11.22 112.881 11.74C112.369 12.26 111.637 12.52 110.685 12.52ZM110.589 9.028C111.013 9.028 111.365 8.92 111.645 8.704C111.933 8.48 112.145 8.196 112.281 7.852C112.425 7.508 112.497 7.144 112.497 6.76C112.497 6.376 112.425 6.012 112.281 5.668C112.145 5.316 111.933 5.032 111.645 4.816C111.365 4.6 111.013 4.492 110.589 4.492C110.165 4.492 109.809 4.6 109.521 4.816C109.233 5.032 109.017 5.316 108.873 5.668C108.737 6.012 108.669 6.376 108.669 6.76C108.669 7.144 108.737 7.508 108.873 7.852C109.017 8.196 109.233 8.48 109.521 8.704C109.809 8.92 110.165 9.028 110.589 9.028ZM117.412 10.12C116.78 10.12 116.276 9.924 115.9 9.532C115.524 9.14 115.336 8.596 115.336 7.9V3.64H116.476V7.84C116.476 8.256 116.588 8.576 116.812 8.8C117.044 9.024 117.348 9.136 117.724 9.136C118.108 9.136 118.416 9.036 118.648 8.836C118.88 8.636 119.048 8.38 119.152 8.068C119.256 7.756 119.308 7.436 119.308 7.108V3.64H120.448V10H119.308V9.088H119.236C119.188 9.184 119.096 9.316 118.96 9.484C118.824 9.644 118.632 9.792 118.384 9.928C118.136 10.056 117.812 10.12 117.412 10.12ZM122.253 10L122.265 0.879999H123.393V10H122.253ZM127.952 3.52C128.352 3.52 128.688 3.584 128.96 3.712C129.232 3.84 129.452 3.992 129.62 4.168C129.788 4.336 129.916 4.496 130.004 4.648H130.076V3.64H131.216V10H130.076V8.992H130.004C129.916 9.144 129.788 9.308 129.62 9.484C129.452 9.66 129.232 9.812 128.96 9.94C128.688 10.06 128.352 10.12 127.952 10.12C127.472 10.12 127.052 10.028 126.692 9.844C126.332 9.652 126.032 9.4 125.792 9.088C125.552 8.768 125.372 8.412 125.252 8.02C125.132 7.628 125.072 7.228 125.072 6.82C125.072 6.412 125.132 6.012 125.252 5.62C125.372 5.228 125.552 4.876 125.792 4.564C126.032 4.244 126.332 3.992 126.692 3.808C127.052 3.616 127.472 3.52 127.952 3.52ZM128.144 4.492C127.72 4.492 127.364 4.608 127.076 4.84C126.788 5.064 126.572 5.352 126.428 5.704C126.292 6.056 126.224 6.428 126.224 6.82C126.224 7.204 126.292 7.576 126.428 7.936C126.572 8.288 126.788 8.58 127.076 8.812C127.364 9.036 127.72 9.148 128.144 9.148C128.568 9.148 128.92 9.036 129.2 8.812C129.488 8.58 129.7 8.288 129.836 7.936C129.98 7.576 130.052 7.204 130.052 6.82C130.052 6.428 129.98 6.056 129.836 5.704C129.7 5.352 129.488 5.064 129.2 4.84C128.92 4.608 128.568 4.492 128.144 4.492ZM132.891 10V3.64H134.031V4.432H134.079C134.215 4.192 134.415 3.98 134.679 3.796C134.943 3.612 135.315 3.52 135.795 3.52C135.931 3.52 136.055 3.528 136.167 3.544C136.279 3.552 136.335 3.556 136.335 3.556V4.648C136.335 4.648 136.271 4.644 136.143 4.636C136.023 4.62 135.895 4.612 135.759 4.612C135.207 4.612 134.779 4.772 134.475 5.092C134.179 5.404 134.031 5.916 134.031 6.628V10H132.891Z" fill="black"/>
                  </svg>  