<svg width="300" height="20" viewBox="0 0 300 20" fill="none" xmlns="http://www.w3.org/2000/svg">
                    <path d="M0.728 19V1.24H8.48C9.616 1.24 10.584 1.44 11.384 1.84C12.184 2.24 12.792 2.776 13.208 3.448C13.64 4.12 13.856 4.856 13.856 5.656C13.856 6.472 13.704 7.144 13.4 7.672C13.112 8.2 12.76 8.616 12.344 8.92C11.944 9.208 11.576 9.408 11.24 9.52V9.688C11.656 9.8 12.12 10.016 12.632 10.336C13.16 10.656 13.616 11.112 14 11.704C14.384 12.28 14.576 13.032 14.576 13.96C14.576 14.792 14.376 15.6 13.976 16.384C13.576 17.152 12.944 17.784 12.08 18.28C11.216 18.76 10.072 19 8.648 19H0.728ZM8.048 4H3.992V8.632H8.048C8.976 8.632 9.648 8.4 10.064 7.936C10.48 7.472 10.688 6.928 10.688 6.304C10.688 5.696 10.48 5.16 10.064 4.696C9.648 4.232 8.976 4 8.048 4ZM8.288 11.128H3.992V16.24H8.288C9.344 16.24 10.112 15.984 10.592 15.472C11.072 14.96 11.312 14.36 11.312 13.672C11.312 13 11.072 12.408 10.592 11.896C10.112 11.384 9.344 11.128 8.288 11.128ZM23.3898 19.24C22.3018 19.24 21.3578 19.056 20.5578 18.688C19.7738 18.304 19.1178 17.8 18.5898 17.176C18.0778 16.536 17.6938 15.824 17.4378 15.04C17.1818 14.256 17.0538 13.456 17.0538 12.64C17.0538 11.824 17.1738 11.032 17.4138 10.264C17.6698 9.48 18.0458 8.768 18.5418 8.128C19.0538 7.488 19.7018 6.984 20.4858 6.616C21.2698 6.232 22.1978 6.04 23.2698 6.04C24.4218 6.04 25.4378 6.296 26.3178 6.808C27.1978 7.32 27.8858 8.072 28.3818 9.064C28.8778 10.04 29.1258 11.256 29.1258 12.712V13.528H20.2698C20.3178 14.392 20.6138 15.144 21.1578 15.784C21.7018 16.408 22.4458 16.72 23.3898 16.72C23.9338 16.72 24.3818 16.632 24.7338 16.456C25.0858 16.28 25.3578 16.08 25.5498 15.856C25.7418 15.616 25.8778 15.416 25.9578 15.256C26.0378 15.08 26.0778 14.992 26.0778 14.992H29.0298C29.0298 14.992 28.9898 15.136 28.9098 15.424C28.8298 15.696 28.6778 16.048 28.4538 16.48C28.2458 16.896 27.9338 17.32 27.5178 17.752C27.1018 18.168 26.5578 18.52 25.8858 18.808C25.2138 19.096 24.3818 19.24 23.3898 19.24ZM20.2698 11.44H26.0538C26.0058 10.448 25.7098 9.712 25.1658 9.232C24.6218 8.752 23.9818 8.512 23.2458 8.512C22.4298 8.512 21.7498 8.776 21.2058 9.304C20.6618 9.816 20.3498 10.528 20.2698 11.44ZM42.6089 19L36.4889 1.24H39.8969L44.7449 15.688L49.5929 1.24H53.0009L46.8569 19H42.6089ZM56.9471 4.312C56.3871 4.312 55.9231 4.128 55.5551 3.76C55.2031 3.392 55.0271 2.952 55.0271 2.44C55.0271 1.928 55.2031 1.488 55.5551 1.12C55.9231 0.751999 56.3871 0.568 56.9471 0.568C57.5071 0.568 57.9711 0.751999 58.3391 1.12C58.7071 1.488 58.8911 1.928 58.8911 2.44C58.8911 2.952 58.7071 3.392 58.3391 3.76C57.9711 4.128 57.5071 4.312 56.9471 4.312ZM55.3631 19V6.28H58.5551V19H55.3631ZM68.0148 19.24C66.9268 19.24 65.9828 19.056 65.1828 18.688C64.3988 18.304 63.7428 17.8 63.2148 17.176C62.7028 16.536 62.3188 15.824 62.0628 15.04C61.8068 14.256 61.6788 13.456 61.6788 12.64C61.6788 11.824 61.7988 11.032 62.0388 10.264C62.2948 9.48 62.6708 8.768 63.1668 8.128C63.6788 7.488 64.3268 6.984 65.1108 6.616C65.8948 6.232 66.8228 6.04 67.8948 6.04C69.0468 6.04 70.0628 6.296 70.9428 6.808C71.8228 7.32 72.5108 8.072 73.0068 9.064C73.5028 10.04 73.7508 11.256 73.7508 12.712V13.528H64.8948C64.9428 14.392 65.2388 15.144 65.7828 15.784C66.3268 16.408 67.0708 16.72 68.0148 16.72C68.5588 16.72 69.0068 16.632 69.3588 16.456C69.7108 16.28 69.9828 16.08 70.1748 15.856C70.3668 15.616 70.5028 15.416 70.5828 15.256C70.6628 15.08 70.7028 14.992 70.7028 14.992H73.6548C73.6548 14.992 73.6148 15.136 73.5348 15.424C73.4548 15.696 73.3028 16.048 73.0788 16.48C72.8708 16.896 72.5588 17.32 72.1428 17.752C71.7268 18.168 71.1828 18.52 70.5108 18.808C69.8388 19.096 69.0068 19.24 68.0148 19.24ZM64.8948 11.44H70.6788C70.6308 10.448 70.3348 9.712 69.7908 9.232C69.2468 8.752 68.6068 8.512 67.8708 8.512C67.0548 8.512 66.3748 8.776 65.8308 9.304C65.2868 9.816 64.9748 10.528 64.8948 11.44ZM82.0443 19.24C81.1803 19.24 80.4683 19.112 79.9083 18.856C79.3483 18.6 78.9083 18.264 78.5883 17.848C78.2843 17.432 78.0683 16.976 77.9403 16.48C77.8123 15.984 77.7483 15.496 77.7483 15.016V8.848H75.5643V6.28H77.7483V3.112H80.9403V6.28H83.7963V8.848H80.9403V14.944C80.9403 16.08 81.5803 16.648 82.8603 16.648C83.1643 16.648 83.4443 16.632 83.7003 16.6C83.9723 16.552 84.1083 16.528 84.1083 16.528V19.024C84.1083 19.024 83.9003 19.056 83.4843 19.12C83.0843 19.2 82.6043 19.24 82.0443 19.24ZM86.7146 19V6.28H89.9066V8.104H90.0506C90.1786 7.88 90.3786 7.608 90.6506 7.288C90.9226 6.952 91.2986 6.664 91.7786 6.424C92.2586 6.168 92.8666 6.04 93.6026 6.04C94.5786 6.04 95.3786 6.264 96.0026 6.712C96.6426 7.144 97.1146 7.72 97.4186 8.44C97.7386 9.16 97.8986 9.936 97.8986 10.768V19H94.7066V11.2C94.7066 10.512 94.5146 9.92 94.1306 9.424C93.7466 8.928 93.1706 8.68 92.4026 8.68C91.8106 8.68 91.3306 8.832 90.9626 9.136C90.5946 9.424 90.3226 9.8 90.1466 10.264C89.9866 10.728 89.9066 11.216 89.9066 11.728V19H86.7146ZM106.225 6.04C107.041 6.04 107.713 6.176 108.241 6.448C108.769 6.704 109.185 6.992 109.489 7.312C109.793 7.616 110.001 7.864 110.113 8.056H110.257V6.28H113.449V19H110.257V17.224H110.113C110.001 17.416 109.793 17.672 109.489 17.992C109.185 18.312 108.769 18.6 108.241 18.856C107.713 19.112 107.041 19.24 106.225 19.24C105.281 19.24 104.457 19.056 103.753 18.688C103.049 18.304 102.457 17.8 101.977 17.176C101.513 16.536 101.161 15.824 100.921 15.04C100.697 14.256 100.585 13.456 100.585 12.64C100.585 11.824 100.697 11.024 100.921 10.24C101.161 9.456 101.513 8.752 101.977 8.128C102.457 7.488 103.049 6.984 103.753 6.616C104.457 6.232 105.281 6.04 106.225 6.04ZM107.065 8.656C106.345 8.656 105.737 8.856 105.241 9.256C104.761 9.64 104.401 10.136 104.161 10.744C103.921 11.352 103.801 11.984 103.801 12.64C103.801 13.296 103.921 13.928 104.161 14.536C104.401 15.144 104.761 15.648 105.241 16.048C105.737 16.432 106.345 16.624 107.065 16.624C107.785 16.624 108.385 16.432 108.865 16.048C109.345 15.648 109.705 15.144 109.945 14.536C110.185 13.928 110.305 13.296 110.305 12.64C110.305 11.984 110.185 11.352 109.945 10.744C109.705 10.136 109.345 9.64 108.865 9.256C108.385 8.856 107.785 8.656 107.065 8.656ZM116.48 19V6.28H119.672V8.056H119.792C119.952 7.768 120.176 7.472 120.464 7.168C120.752 6.848 121.12 6.584 121.568 6.376C122.032 6.152 122.6 6.04 123.272 6.04C124.216 6.04 124.992 6.264 125.6 6.712C126.208 7.16 126.656 7.736 126.944 8.44H126.992C127.312 7.832 127.784 7.28 128.408 6.784C129.048 6.288 129.896 6.04 130.952 6.04C131.848 6.04 132.592 6.248 133.184 6.664C133.792 7.064 134.24 7.608 134.528 8.296C134.832 8.984 134.984 9.728 134.984 10.528V19H131.792V11.2C131.792 10.464 131.608 9.864 131.24 9.4C130.888 8.92 130.36 8.68 129.656 8.68C129.096 8.68 128.64 8.832 128.288 9.136C127.952 9.424 127.704 9.792 127.544 10.24C127.4 10.688 127.328 11.144 127.328 11.608V19H124.136V11.2C124.136 10.464 123.96 9.864 123.608 9.4C123.256 8.92 122.72 8.68 122 8.68C121.44 8.68 120.984 8.832 120.632 9.136C120.296 9.424 120.048 9.8 119.888 10.264C119.744 10.712 119.672 11.16 119.672 11.608V19H116.48ZM143.72 19V1.24H150.728C152.152 1.24 153.336 1.528 154.28 2.104C155.224 2.664 155.928 3.4 156.392 4.312C156.872 5.208 157.112 6.144 157.112 7.12C157.112 8.096 156.872 9.04 156.392 9.952C155.928 10.848 155.224 11.584 154.28 12.16C153.336 12.736 152.152 13.024 150.728 13.024H146.984V19H143.72ZM150.704 4.072H146.984V10.192H150.704C151.408 10.192 151.992 10.048 152.456 9.76C152.92 9.456 153.264 9.072 153.488 8.608C153.728 8.128 153.848 7.64 153.848 7.144C153.848 6.632 153.728 6.144 153.488 5.68C153.264 5.216 152.92 4.832 152.456 4.528C151.992 4.224 151.408 4.072 150.704 4.072ZM159.488 19V6.28H162.656V8.032H162.776C163 7.536 163.368 7.08 163.88 6.664C164.392 6.248 165.16 6.04 166.184 6.04C166.504 6.04 166.768 6.064 166.976 6.112C167.184 6.144 167.288 6.16 167.288 6.16V9.256C167.288 9.256 167.168 9.24 166.928 9.208C166.704 9.176 166.424 9.16 166.088 9.16C164.968 9.16 164.12 9.472 163.544 10.096C162.968 10.72 162.68 11.728 162.68 13.12V19H159.488ZM175.129 19.24C173.737 19.24 172.553 18.928 171.577 18.304C170.601 17.68 169.857 16.872 169.345 15.88C168.849 14.872 168.601 13.792 168.601 12.64C168.601 11.488 168.849 10.416 169.345 9.424C169.857 8.416 170.601 7.6 171.577 6.976C172.553 6.352 173.737 6.04 175.129 6.04C176.537 6.04 177.721 6.352 178.681 6.976C179.657 7.6 180.393 8.416 180.889 9.424C181.401 10.416 181.657 11.488 181.657 12.64C181.657 13.792 181.401 14.872 180.889 15.88C180.393 16.872 179.657 17.68 178.681 18.304C177.721 18.928 176.537 19.24 175.129 19.24ZM175.129 16.576C175.849 16.576 176.449 16.392 176.929 16.024C177.425 15.656 177.801 15.176 178.057 14.584C178.313 13.976 178.441 13.328 178.441 12.64C178.441 11.936 178.313 11.288 178.057 10.696C177.801 10.104 177.425 9.624 176.929 9.256C176.449 8.888 175.849 8.704 175.129 8.704C174.425 8.704 173.825 8.888 173.329 9.256C172.833 9.624 172.457 10.104 172.201 10.696C171.945 11.288 171.817 11.936 171.817 12.64C171.817 13.328 171.945 13.976 172.201 14.584C172.457 15.176 172.833 15.656 173.329 16.024C173.825 16.392 174.425 16.576 175.129 16.576ZM196.628 19.24C195.524 19.24 194.58 19.104 193.796 18.832C193.012 18.56 192.356 18.208 191.828 17.776C191.316 17.344 190.908 16.888 190.604 16.408C190.3 15.912 190.068 15.448 189.908 15.016C189.764 14.584 189.668 14.232 189.62 13.96C189.572 13.688 189.548 13.552 189.548 13.552H192.86C192.86 13.552 192.876 13.648 192.908 13.84C192.956 14.032 193.052 14.28 193.196 14.584C193.34 14.872 193.548 15.16 193.82 15.448C194.108 15.736 194.484 15.984 194.948 16.192C195.428 16.384 196.02 16.48 196.724 16.48C197.812 16.48 198.636 16.24 199.196 15.76C199.772 15.264 200.06 14.656 200.06 13.936C200.06 13.328 199.844 12.848 199.412 12.496C198.98 12.128 198.34 11.856 197.492 11.68L195.14 11.176C194.228 10.984 193.372 10.696 192.572 10.312C191.788 9.928 191.156 9.408 190.676 8.752C190.196 8.096 189.956 7.256 189.956 6.232C189.956 5.16 190.22 4.232 190.748 3.448C191.292 2.664 192.036 2.064 192.98 1.648C193.924 1.216 195.028 0.999999 196.292 0.999999C197.492 0.999999 198.484 1.176 199.268 1.528C200.052 1.88 200.676 2.312 201.14 2.824C201.62 3.336 201.972 3.848 202.196 4.36C202.42 4.872 202.564 5.304 202.628 5.656C202.708 6.008 202.748 6.184 202.748 6.184H199.556C199.556 6.184 199.524 6.064 199.46 5.824C199.396 5.568 199.252 5.28 199.028 4.96C198.804 4.64 198.468 4.36 198.02 4.12C197.572 3.864 196.972 3.736 196.22 3.736C195.148 3.736 194.364 3.976 193.868 4.456C193.388 4.936 193.148 5.456 193.148 6.016C193.148 6.592 193.372 7.04 193.82 7.36C194.268 7.68 194.868 7.928 195.62 8.104L198.14 8.632C199.084 8.84 199.948 9.152 200.732 9.568C201.516 9.984 202.14 10.536 202.604 11.224C203.068 11.896 203.3 12.736 203.3 13.744C203.3 14.768 203.044 15.696 202.532 16.528C202.02 17.36 201.268 18.024 200.276 18.52C199.284 19 198.068 19.24 196.628 19.24ZM211.874 19.24C210.786 19.24 209.842 19.056 209.042 18.688C208.258 18.304 207.602 17.8 207.074 17.176C206.562 16.536 206.178 15.824 205.922 15.04C205.666 14.256 205.538 13.456 205.538 12.64C205.538 11.824 205.658 11.032 205.898 10.264C206.154 9.48 206.53 8.768 207.026 8.128C207.538 7.488 208.186 6.984 208.97 6.616C209.754 6.232 210.682 6.04 211.754 6.04C212.906 6.04 213.922 6.296 214.802 6.808C215.682 7.32 216.37 8.072 216.866 9.064C217.362 10.04 217.61 11.256 217.61 12.712V13.528H208.754C208.802 14.392 209.098 15.144 209.642 15.784C210.186 16.408 210.93 16.72 211.874 16.72C212.418 16.72 212.866 16.632 213.218 16.456C213.57 16.28 213.842 16.08 214.034 15.856C214.226 15.616 214.362 15.416 214.442 15.256C214.522 15.08 214.562 14.992 214.562 14.992H217.514C217.514 14.992 217.474 15.136 217.394 15.424C217.314 15.696 217.162 16.048 216.938 16.48C216.73 16.896 216.418 17.32 216.002 17.752C215.586 18.168 215.042 18.52 214.37 18.808C213.698 19.096 212.866 19.24 211.874 19.24ZM208.754 11.44H214.538C214.49 10.448 214.194 9.712 213.65 9.232C213.106 8.752 212.466 8.512 211.73 8.512C210.914 8.512 210.234 8.776 209.69 9.304C209.146 9.816 208.834 10.528 208.754 11.44ZM220.308 19V6.28H223.5V8.056H223.62C223.78 7.768 224.004 7.472 224.292 7.168C224.58 6.848 224.948 6.584 225.396 6.376C225.86 6.152 226.428 6.04 227.1 6.04C228.044 6.04 228.82 6.264 229.428 6.712C230.036 7.16 230.484 7.736 230.772 8.44H230.82C231.14 7.832 231.612 7.28 232.236 6.784C232.876 6.288 233.724 6.04 234.78 6.04C235.676 6.04 236.42 6.248 237.012 6.664C237.62 7.064 238.068 7.608 238.356 8.296C238.66 8.984 238.812 9.728 238.812 10.528V19H235.62V11.2C235.62 10.464 235.436 9.864 235.068 9.4C234.716 8.92 234.188 8.68 233.484 8.68C232.924 8.68 232.468 8.832 232.116 9.136C231.78 9.424 231.532 9.792 231.372 10.24C231.228 10.688 231.156 11.144 231.156 11.608V19H227.964V11.2C227.964 10.464 227.788 9.864 227.436 9.4C227.084 8.92 226.548 8.68 225.828 8.68C225.268 8.68 224.812 8.832 224.46 9.136C224.124 9.424 223.876 9.8 223.716 10.264C223.572 10.712 223.5 11.16 223.5 11.608V19H220.308ZM243.697 4.312C243.137 4.312 242.673 4.128 242.305 3.76C241.953 3.392 241.777 2.952 241.777 2.44C241.777 1.928 241.953 1.488 242.305 1.12C242.673 0.751999 243.137 0.568 243.697 0.568C244.257 0.568 244.721 0.751999 245.089 1.12C245.457 1.488 245.641 1.928 245.641 2.44C245.641 2.952 245.457 3.392 245.089 3.76C244.721 4.128 244.257 4.312 243.697 4.312ZM242.113 19V6.28H245.305V19H242.113ZM256.085 19.24C255.269 19.24 254.597 19.112 254.069 18.856C253.541 18.584 253.125 18.288 252.821 17.968C252.533 17.648 252.333 17.4 252.221 17.224H252.053V19H248.861V0.759999H252.053V8.056H252.221C252.333 7.864 252.533 7.608 252.821 7.288C253.125 6.968 253.541 6.68 254.069 6.424C254.597 6.168 255.269 6.04 256.085 6.04C257.045 6.04 257.877 6.232 258.581 6.616C259.285 6.984 259.869 7.488 260.333 8.128C260.797 8.752 261.141 9.456 261.365 10.24C261.605 11.024 261.725 11.824 261.725 12.64C261.725 13.456 261.605 14.256 261.365 15.04C261.141 15.824 260.797 16.536 260.333 17.176C259.869 17.8 259.285 18.304 258.581 18.688C257.877 19.056 257.045 19.24 256.085 19.24ZM255.245 16.624C255.981 16.624 256.589 16.432 257.069 16.048C257.549 15.648 257.909 15.144 258.149 14.536C258.389 13.928 258.509 13.296 258.509 12.64C258.509 11.984 258.389 11.352 258.149 10.744C257.909 10.136 257.549 9.64 257.069 9.256C256.589 8.856 255.981 8.656 255.245 8.656C254.525 8.656 253.925 8.856 253.445 9.256C252.965 9.64 252.605 10.136 252.365 10.744C252.125 11.352 252.005 11.984 252.005 12.64C252.005 13.296 252.125 13.928 252.365 14.536C252.605 15.144 252.965 15.648 253.445 16.048C253.925 16.432 254.525 16.624 255.245 16.624ZM270.73 19.24C269.338 19.24 268.154 18.928 267.178 18.304C266.202 17.68 265.458 16.872 264.946 15.88C264.45 14.872 264.202 13.792 264.202 12.64C264.202 11.488 264.45 10.416 264.946 9.424C265.458 8.416 266.202 7.6 267.178 6.976C268.154 6.352 269.338 6.04 270.73 6.04C272.138 6.04 273.322 6.352 274.282 6.976C275.258 7.6 275.994 8.416 276.49 9.424C277.002 10.416 277.258 11.488 277.258 12.64C277.258 13.792 277.002 14.872 276.49 15.88C275.994 16.872 275.258 17.68 274.282 18.304C273.322 18.928 272.138 19.24 270.73 19.24ZM270.73 16.576C271.45 16.576 272.05 16.392 272.53 16.024C273.026 15.656 273.402 15.176 273.658 14.584C273.914 13.976 274.042 13.328 274.042 12.64C274.042 11.936 273.914 11.288 273.658 10.696C273.402 10.104 273.026 9.624 272.53 9.256C272.05 8.888 271.45 8.704 270.73 8.704C270.026 8.704 269.426 8.888 268.93 9.256C268.434 9.624 268.058 10.104 267.802 10.696C267.546 11.288 267.418 11.936 267.418 12.64C267.418 13.328 267.546 13.976 267.802 14.584C268.058 15.176 268.434 15.656 268.93 16.024C269.426 16.392 270.026 16.576 270.73 16.576ZM280.197 19L280.221 0.759999H283.389V19H280.197ZM291.967 19.24C291.023 19.24 290.199 19.056 289.495 18.688C288.791 18.304 288.199 17.8 287.719 17.176C287.255 16.536 286.903 15.824 286.663 15.04C286.439 14.256 286.327 13.456 286.327 12.64C286.327 11.824 286.439 11.024 286.663 10.24C286.903 9.456 287.255 8.752 287.719 8.128C288.199 7.488 288.791 6.984 289.495 6.616C290.199 6.232 291.023 6.04 291.967 6.04C292.783 6.04 293.455 6.176 293.983 6.448C294.511 6.704 294.927 6.992 295.231 7.312C295.535 7.616 295.743 7.864 295.855 8.056H295.999V0.759999H299.191V19H295.999V17.224H295.855C295.743 17.416 295.535 17.672 295.231 17.992C294.927 18.312 294.511 18.6 293.983 18.856C293.455 19.112 292.783 19.24 291.967 19.24ZM292.807 16.624C293.527 16.624 294.127 16.432 294.607 16.048C295.087 15.648 295.447 15.144 295.687 14.536C295.927 13.928 296.047 13.296 296.047 12.64C296.047 11.984 295.927 11.352 295.687 10.744C295.447 10.136 295.087 9.64 294.607 9.256C294.127 8.856 293.527 8.656 292.807 8.656C292.087 8.656 291.479 8.856 290.983 9.256C290.503 9.64 290.143 10.136 289.903 10.744C289.663 11.352 289.543 11.984 289.543 12.64C289.543 13.296 289.663 13.928 289.903 14.536C290.143 15.144 290.503 15.648 290.983 16.048C291.479 16.432 292.087 16.624 292.807 16.624Z" fill="black"/>
                  </svg>