<svg width="159" height="14" viewBox="0 0 159 14" fill="none" xmlns="http://www.w3.org/2000/svg">
                    <path d="M0.12 11V0.64H4.11C4.77267 0.64 5.33733 0.761333 5.804 1.004C6.28 1.23733 6.644 1.55467 6.896 1.956C7.148 2.348 7.274 2.77733 7.274 3.244C7.274 3.75733 7.18067 4.17267 6.994 4.49C6.80733 4.80733 6.59733 5.05 6.364 5.218C6.13067 5.37667 5.944 5.484 5.804 5.54V5.624C6.028 5.68933 6.28467 5.81533 6.574 6.002C6.87267 6.17933 7.12933 6.436 7.344 6.772C7.55867 7.108 7.666 7.54667 7.666 8.088C7.666 8.564 7.54933 9.026 7.316 9.474C7.08267 9.922 6.714 10.2907 6.21 10.58C5.706 10.86 5.03867 11 4.208 11H0.12ZM4.054 1.83H1.492V5.134H4.054C4.502 5.134 4.86133 5.05467 5.132 4.896C5.412 4.73733 5.61267 4.532 5.734 4.28C5.86467 4.01867 5.93 3.75267 5.93 3.482C5.93 3.202 5.86467 2.936 5.734 2.684C5.61267 2.432 5.412 2.22667 5.132 2.068C4.86133 1.90933 4.502 1.83 4.054 1.83ZM4.166 6.24H1.492V9.81H4.166C4.67933 9.81 5.09 9.726 5.398 9.558C5.706 9.38067 5.93 9.15667 6.07 8.886C6.21933 8.606 6.294 8.31667 6.294 8.018C6.294 7.71933 6.21933 7.43467 6.07 7.164C5.93 6.89333 5.706 6.674 5.398 6.506C5.09 6.32867 4.67933 6.24 4.166 6.24ZM12.7876 11.14C12.1809 11.14 11.6536 11.0327 11.2056 10.818C10.7669 10.594 10.4029 10.2953 10.1136 9.922C9.83359 9.54867 9.62359 9.138 9.48359 8.69C9.34359 8.23267 9.27359 7.766 9.27359 7.29C9.27359 6.82333 9.33893 6.36133 9.46959 5.904C9.60959 5.44667 9.81959 5.03133 10.0996 4.658C10.3889 4.28467 10.7483 3.99067 11.1776 3.776C11.6163 3.552 12.1343 3.44 12.7316 3.44C13.3663 3.44 13.9263 3.58467 14.4116 3.874C14.8969 4.16333 15.2796 4.59267 15.5596 5.162C15.8396 5.73133 15.9796 6.44533 15.9796 7.304V7.696H10.6176C10.6456 8.116 10.7436 8.50333 10.9116 8.858C11.0889 9.20333 11.3363 9.48333 11.6536 9.698C11.9709 9.90333 12.3489 10.006 12.7876 10.006C13.1703 10.006 13.4783 9.94533 13.7116 9.824C13.9543 9.69333 14.1456 9.544 14.2856 9.376C14.4256 9.208 14.5189 9.06333 14.5656 8.942C14.6216 8.81133 14.6496 8.746 14.6496 8.746H15.8956C15.8956 8.746 15.8723 8.83 15.8256 8.998C15.7789 9.15667 15.6949 9.35267 15.5736 9.586C15.4523 9.81933 15.2749 10.0573 15.0416 10.3C14.8083 10.5333 14.5096 10.734 14.1456 10.902C13.7816 11.0607 13.3289 11.14 12.7876 11.14ZM10.6316 6.66H14.6776C14.6589 6.17467 14.5563 5.78267 14.3696 5.484C14.1829 5.176 13.9449 4.94733 13.6556 4.798C13.3663 4.64867 13.0583 4.574 12.7316 4.574C12.1436 4.574 11.6629 4.76533 11.2896 5.148C10.9163 5.52133 10.6969 6.02533 10.6316 6.66ZM24.115 11L20.461 0.64H21.917L24.983 9.432L28.049 0.64H29.505L25.837 11H24.115ZM31.7738 2.166C31.5218 2.166 31.3118 2.082 31.1438 1.914C30.9851 1.746 30.9058 1.54533 30.9058 1.312C30.9058 1.06933 30.9851 0.863999 31.1438 0.695999C31.3118 0.528 31.5218 0.444 31.7738 0.444C32.0164 0.444 32.2218 0.528 32.3898 0.695999C32.5578 0.863999 32.6418 1.06933 32.6418 1.312C32.6418 1.54533 32.5578 1.746 32.3898 1.914C32.2218 2.082 32.0164 2.166 31.7738 2.166ZM31.1158 11V3.58H32.4458V11H31.1158ZM37.9712 11.14C37.3645 11.14 36.8372 11.0327 36.3892 10.818C35.9505 10.594 35.5865 10.2953 35.2972 9.922C35.0172 9.54867 34.8072 9.138 34.6672 8.69C34.5272 8.23267 34.4572 7.766 34.4572 7.29C34.4572 6.82333 34.5225 6.36133 34.6532 5.904C34.7932 5.44667 35.0032 5.03133 35.2832 4.658C35.5725 4.28467 35.9319 3.99067 36.3612 3.776C36.7999 3.552 37.3179 3.44 37.9152 3.44C38.5499 3.44 39.1099 3.58467 39.5952 3.874C40.0805 4.16333 40.4632 4.59267 40.7432 5.162C41.0232 5.73133 41.1632 6.44533 41.1632 7.304V7.696H35.8012C35.8292 8.116 35.9272 8.50333 36.0952 8.858C36.2725 9.20333 36.5199 9.48333 36.8372 9.698C37.1545 9.90333 37.5325 10.006 37.9712 10.006C38.3539 10.006 38.6619 9.94533 38.8952 9.824C39.1379 9.69333 39.3292 9.544 39.4692 9.376C39.6092 9.208 39.7025 9.06333 39.7492 8.942C39.8052 8.81133 39.8332 8.746 39.8332 8.746H41.0792C41.0792 8.746 41.0559 8.83 41.0092 8.998C40.9625 9.15667 40.8785 9.35267 40.7572 9.586C40.6359 9.81933 40.4585 10.0573 40.2252 10.3C39.9919 10.5333 39.6932 10.734 39.3292 10.902C38.9652 11.0607 38.5125 11.14 37.9712 11.14ZM35.8152 6.66H39.8612C39.8425 6.17467 39.7399 5.78267 39.5532 5.484C39.3665 5.176 39.1285 4.94733 38.8392 4.798C38.5499 4.64867 38.2419 4.574 37.9152 4.574C37.3272 4.574 36.8465 4.76533 36.4732 5.148C36.0999 5.52133 35.8805 6.02533 35.8152 6.66ZM45.9913 11.14C45.226 11.14 44.6473 10.944 44.2553 10.552C43.8727 10.16 43.6813 9.60933 43.6813 8.9V4.672H42.3513V3.58H43.6813V1.718H45.0113V3.58H46.8173V4.672H45.0113V8.9C45.0113 9.27333 45.114 9.54867 45.3193 9.726C45.5247 9.894 45.8233 9.978 46.2153 9.978C46.4207 9.978 46.6167 9.964 46.8033 9.936C46.99 9.908 47.0833 9.894 47.0833 9.894V11.028C47.0833 11.028 46.976 11.0467 46.7613 11.084C46.5467 11.1213 46.29 11.14 45.9913 11.14ZM48.8296 11V3.58H50.1596V4.658H50.2436C50.3089 4.546 50.4163 4.392 50.5656 4.196C50.7243 4 50.9483 3.82733 51.2376 3.678C51.5269 3.51933 51.8909 3.44 52.3296 3.44C52.8709 3.44 53.3329 3.566 53.7156 3.818C54.0983 4.06067 54.3876 4.392 54.5836 4.812C54.7889 5.232 54.8916 5.70333 54.8916 6.226V11H53.5616V6.31C53.5616 5.81533 53.4216 5.40467 53.1416 5.078C52.8709 4.75133 52.4743 4.588 51.9516 4.588C51.5316 4.588 51.1909 4.69533 50.9296 4.91C50.6683 5.11533 50.4723 5.39067 50.3416 5.736C50.2203 6.072 50.1596 6.43133 50.1596 6.814V11H48.8296ZM60.075 3.44C60.5417 3.44 60.9337 3.51467 61.251 3.664C61.5683 3.81333 61.825 3.99067 62.021 4.196C62.217 4.392 62.3663 4.57867 62.469 4.756H62.553V3.58H63.883V11H62.553V9.824H62.469C62.3663 10.0013 62.217 10.1927 62.021 10.398C61.825 10.6033 61.5683 10.7807 61.251 10.93C60.9337 11.07 60.5417 11.14 60.075 11.14C59.515 11.14 59.025 11.0327 58.605 10.818C58.185 10.594 57.835 10.3 57.555 9.936C57.275 9.56267 57.065 9.14733 56.925 8.69C56.785 8.23267 56.715 7.766 56.715 7.29C56.715 6.814 56.785 6.34733 56.925 5.89C57.065 5.43267 57.275 5.022 57.555 4.658C57.835 4.28467 58.185 3.99067 58.605 3.776C59.025 3.552 59.515 3.44 60.075 3.44ZM60.299 4.574C59.8043 4.574 59.389 4.70933 59.053 4.98C58.717 5.24133 58.465 5.57733 58.297 5.988C58.1383 6.39867 58.059 6.83267 58.059 7.29C58.059 7.738 58.1383 8.172 58.297 8.592C58.465 9.00267 58.717 9.34333 59.053 9.614C59.389 9.87533 59.8043 10.006 60.299 10.006C60.7937 10.006 61.2043 9.87533 61.531 9.614C61.867 9.34333 62.1143 9.00267 62.273 8.592C62.441 8.172 62.525 7.738 62.525 7.29C62.525 6.83267 62.441 6.39867 62.273 5.988C62.1143 5.57733 61.867 5.24133 61.531 4.98C61.2043 4.70933 60.7937 4.574 60.299 4.574ZM65.8374 11V3.58H67.1674V4.658H67.2234C67.2981 4.518 67.4148 4.35467 67.5734 4.168C67.7321 3.972 67.9468 3.804 68.2174 3.664C68.4974 3.51467 68.8474 3.44 69.2674 3.44C69.8181 3.44 70.2801 3.57533 70.6534 3.846C71.0361 4.10733 71.3208 4.462 71.5074 4.91H71.5214C71.7268 4.49933 72.0161 4.154 72.3894 3.874C72.7721 3.58467 73.2668 3.44 73.8734 3.44C74.6761 3.44 75.2921 3.71533 75.7214 4.266C76.1601 4.80733 76.3794 5.50733 76.3794 6.366V11H75.0494V6.436C75.0494 5.88533 74.9188 5.442 74.6574 5.106C74.3961 4.76067 74.0181 4.588 73.5234 4.588C73.0941 4.588 72.7488 4.70467 72.4874 4.938C72.2354 5.17133 72.0534 5.46067 71.9414 5.806C71.8294 6.15133 71.7734 6.49667 71.7734 6.842V11H70.4434V6.436C70.4434 5.88533 70.3128 5.442 70.0514 5.106C69.7994 4.76067 69.4214 4.588 68.9174 4.588C68.4881 4.588 68.1428 4.70467 67.8814 4.938C67.6294 5.17133 67.4474 5.46533 67.3354 5.82C67.2234 6.16533 67.1674 6.506 67.1674 6.842V11H65.8374ZM81.7001 11V0.64H85.3961C86.1894 0.64 86.8474 0.803333 87.3701 1.13C87.9021 1.45667 88.2987 1.88133 88.5601 2.404C88.8307 2.91733 88.9661 3.454 88.9661 4.014C88.9661 4.58333 88.8307 5.12933 88.5601 5.652C88.2987 6.16533 87.9021 6.59 87.3701 6.926C86.8474 7.25267 86.1894 7.416 85.3961 7.416H83.0721V11H81.7001ZM85.3961 1.844H83.0721V6.212H85.3961C85.8907 6.212 86.3014 6.10467 86.6281 5.89C86.9547 5.67533 87.1974 5.40467 87.3561 5.078C87.5241 4.742 87.6081 4.392 87.6081 4.028C87.6081 3.664 87.5241 3.314 87.3561 2.978C87.1974 2.642 86.9547 2.37133 86.6281 2.166C86.3014 1.95133 85.8907 1.844 85.3961 1.844ZM90.5698 11V3.58H91.8998V4.504H91.9558C92.1145 4.224 92.3478 3.97667 92.6558 3.762C92.9638 3.54733 93.3978 3.44 93.9578 3.44C94.1165 3.44 94.2612 3.44933 94.3918 3.468C94.5225 3.47733 94.5878 3.482 94.5878 3.482V4.756C94.5878 4.756 94.5132 4.75133 94.3638 4.742C94.2238 4.72333 94.0745 4.714 93.9158 4.714C93.2718 4.714 92.7725 4.90067 92.4178 5.274C92.0725 5.638 91.8998 6.23533 91.8998 7.066V11H90.5698ZM99.0057 11.14C98.2124 11.14 97.5451 10.958 97.0037 10.594C96.4624 10.2207 96.0517 9.74 95.7717 9.152C95.4917 8.564 95.3517 7.94333 95.3517 7.29C95.3517 6.62733 95.4917 6.00667 95.7717 5.428C96.0517 4.84 96.4624 4.364 97.0037 4C97.5451 3.62667 98.2124 3.44 99.0057 3.44C99.7991 3.44 100.466 3.62667 101.008 4C101.549 4.364 101.96 4.84 102.24 5.428C102.52 6.00667 102.66 6.62733 102.66 7.29C102.66 7.94333 102.52 8.564 102.24 9.152C101.96 9.74 101.549 10.2207 101.008 10.594C100.466 10.958 99.7991 11.14 99.0057 11.14ZM99.0057 9.978C99.5097 9.978 99.9297 9.852 100.266 9.6C100.611 9.33867 100.868 9.00267 101.036 8.592C101.213 8.18133 101.302 7.74733 101.302 7.29C101.302 6.82333 101.213 6.38933 101.036 5.988C100.868 5.57733 100.611 5.246 100.266 4.994C99.9297 4.73267 99.5097 4.602 99.0057 4.602C98.5111 4.602 98.0911 4.73267 97.7457 4.994C97.4004 5.246 97.1391 5.57733 96.9617 5.988C96.7937 6.38933 96.7097 6.82333 96.7097 7.29C96.7097 7.74733 96.7937 8.18133 96.9617 8.592C97.1391 9.00267 97.4004 9.33867 97.7457 9.6C98.0911 9.852 98.5111 9.978 99.0057 9.978ZM107.841 11V0.64H111.509C112.246 0.64 112.857 0.784666 113.343 1.074C113.828 1.36333 114.192 1.73667 114.435 2.194C114.677 2.65133 114.799 3.132 114.799 3.636C114.799 4.056 114.715 4.462 114.547 4.854C114.379 5.246 114.127 5.59133 113.791 5.89C113.464 6.17933 113.049 6.38933 112.545 6.52L115.163 11H113.609L111.103 6.646H109.213V11H107.841ZM111.495 1.844H109.213V5.47H111.495C111.924 5.47 112.279 5.38133 112.559 5.204C112.839 5.02667 113.049 4.80267 113.189 4.532C113.329 4.252 113.399 3.96267 113.399 3.664C113.399 3.356 113.329 3.06667 113.189 2.796C113.049 2.516 112.839 2.28733 112.559 2.11C112.279 1.93267 111.924 1.844 111.495 1.844ZM119.729 11.14C119.122 11.14 118.595 11.0327 118.147 10.818C117.708 10.594 117.344 10.2953 117.055 9.922C116.775 9.54867 116.565 9.138 116.425 8.69C116.285 8.23267 116.215 7.766 116.215 7.29C116.215 6.82333 116.28 6.36133 116.411 5.904C116.551 5.44667 116.761 5.03133 117.041 4.658C117.33 4.28467 117.69 3.99067 118.119 3.776C118.558 3.552 119.076 3.44 119.673 3.44C120.308 3.44 120.868 3.58467 121.353 3.874C121.838 4.16333 122.221 4.59267 122.501 5.162C122.781 5.73133 122.921 6.44533 122.921 7.304V7.696H117.559C117.587 8.116 117.685 8.50333 117.853 8.858C118.03 9.20333 118.278 9.48333 118.595 9.698C118.912 9.90333 119.29 10.006 119.729 10.006C120.112 10.006 120.42 9.94533 120.653 9.824C120.896 9.69333 121.087 9.544 121.227 9.376C121.367 9.208 121.46 9.06333 121.507 8.942C121.563 8.81133 121.591 8.746 121.591 8.746H122.837C122.837 8.746 122.814 8.83 122.767 8.998C122.72 9.15667 122.636 9.35267 122.515 9.586C122.394 9.81933 122.216 10.0573 121.983 10.3C121.75 10.5333 121.451 10.734 121.087 10.902C120.723 11.0607 120.27 11.14 119.729 11.14ZM117.573 6.66H121.619C121.6 6.17467 121.498 5.78267 121.311 5.484C121.124 5.176 120.886 4.94733 120.597 4.798C120.308 4.64867 120 4.574 119.673 4.574C119.085 4.574 118.604 4.76533 118.231 5.148C117.858 5.52133 117.638 6.02533 117.573 6.66ZM128.238 13.94C127.622 13.94 127.108 13.856 126.698 13.688C126.287 13.5293 125.956 13.324 125.704 13.072C125.461 12.8293 125.279 12.5867 125.158 12.344C125.036 12.1013 124.957 11.896 124.92 11.728C124.882 11.5693 124.864 11.49 124.864 11.49H126.194C126.194 11.49 126.217 11.5553 126.264 11.686C126.31 11.8167 126.399 11.966 126.53 12.134C126.67 12.302 126.875 12.4513 127.146 12.582C127.416 12.7127 127.78 12.778 128.238 12.778C128.779 12.778 129.204 12.6707 129.512 12.456C129.82 12.2507 130.039 11.98 130.17 11.644C130.31 11.308 130.38 10.9533 130.38 10.58V9.726H130.31C130.216 9.88467 130.067 10.0667 129.862 10.272C129.666 10.468 129.404 10.6407 129.078 10.79C128.751 10.93 128.35 11 127.874 11C127.314 11 126.824 10.8927 126.404 10.678C125.984 10.4633 125.634 10.174 125.354 9.81C125.083 9.446 124.878 9.04 124.738 8.592C124.598 8.144 124.528 7.68667 124.528 7.22C124.528 6.75333 124.598 6.296 124.738 5.848C124.878 5.4 125.083 4.994 125.354 4.63C125.634 4.266 125.984 3.97667 126.404 3.762C126.824 3.54733 127.314 3.44 127.874 3.44C128.35 3.44 128.751 3.51467 129.078 3.664C129.404 3.804 129.666 3.972 129.862 4.168C130.067 4.364 130.216 4.546 130.31 4.714H130.38V3.58H131.71V10.566C131.71 11.602 131.406 12.4233 130.8 13.03C130.202 13.6367 129.348 13.94 128.238 13.94ZM128.126 9.866C128.62 9.866 129.031 9.74 129.358 9.488C129.694 9.22667 129.941 8.89533 130.1 8.494C130.268 8.09267 130.352 7.668 130.352 7.22C130.352 6.772 130.268 6.34733 130.1 5.946C129.941 5.53533 129.694 5.204 129.358 4.952C129.031 4.7 128.62 4.574 128.126 4.574C127.631 4.574 127.216 4.7 126.88 4.952C126.544 5.204 126.292 5.53533 126.124 5.946C125.965 6.34733 125.886 6.772 125.886 7.22C125.886 7.668 125.965 8.09267 126.124 8.494C126.292 8.89533 126.544 9.22667 126.88 9.488C127.216 9.74 127.631 9.866 128.126 9.866ZM136.086 11.14C135.348 11.14 134.76 10.9113 134.322 10.454C133.883 9.99667 133.664 9.362 133.664 8.55V3.58H134.994V8.48C134.994 8.96533 135.124 9.33867 135.386 9.6C135.656 9.86133 136.011 9.992 136.45 9.992C136.898 9.992 137.257 9.87533 137.528 9.642C137.798 9.40867 137.994 9.11 138.116 8.746C138.237 8.382 138.298 8.00867 138.298 7.626V3.58H139.628V11H138.298V9.936H138.214C138.158 10.048 138.05 10.202 137.892 10.398C137.733 10.5847 137.509 10.7573 137.22 10.916C136.93 11.0653 136.552 11.14 136.086 11.14ZM141.733 11L141.747 0.359999H143.063V11H141.733ZM148.382 3.44C148.848 3.44 149.24 3.51467 149.558 3.664C149.875 3.81333 150.132 3.99067 150.328 4.196C150.524 4.392 150.673 4.57867 150.776 4.756H150.86V3.58H152.19V11H150.86V9.824H150.776C150.673 10.0013 150.524 10.1927 150.328 10.398C150.132 10.6033 149.875 10.7807 149.558 10.93C149.24 11.07 148.848 11.14 148.382 11.14C147.822 11.14 147.332 11.0327 146.912 10.818C146.492 10.594 146.142 10.3 145.862 9.936C145.582 9.56267 145.372 9.14733 145.232 8.69C145.092 8.23267 145.022 7.766 145.022 7.29C145.022 6.814 145.092 6.34733 145.232 5.89C145.372 5.43267 145.582 5.022 145.862 4.658C146.142 4.28467 146.492 3.99067 146.912 3.776C147.332 3.552 147.822 3.44 148.382 3.44ZM148.606 4.574C148.111 4.574 147.696 4.70933 147.36 4.98C147.024 5.24133 146.772 5.57733 146.604 5.988C146.445 6.39867 146.366 6.83267 146.366 7.29C146.366 7.738 146.445 8.172 146.604 8.592C146.772 9.00267 147.024 9.34333 147.36 9.614C147.696 9.87533 148.111 10.006 148.606 10.006C149.1 10.006 149.511 9.87533 149.838 9.614C150.174 9.34333 150.421 9.00267 150.58 8.592C150.748 8.172 150.832 7.738 150.832 7.29C150.832 6.83267 150.748 6.39867 150.58 5.988C150.421 5.57733 150.174 5.24133 149.838 4.98C149.511 4.70933 149.1 4.574 148.606 4.574ZM154.144 11V3.58H155.474V4.504H155.53C155.689 4.224 155.922 3.97667 156.23 3.762C156.538 3.54733 156.972 3.44 157.532 3.44C157.691 3.44 157.835 3.44933 157.966 3.468C158.097 3.47733 158.162 3.482 158.162 3.482V4.756C158.162 4.756 158.087 4.75133 157.938 4.742C157.798 4.72333 157.649 4.714 157.49 4.714C156.846 4.714 156.347 4.90067 155.992 5.274C155.647 5.638 155.474 6.23533 155.474 7.066V11H154.144Z" fill="black"/>
                  </svg> 