<svg width="185" height="14" viewBox="0 0 185 14" fill="none" xmlns="http://www.w3.org/2000/svg">
                    <path d="M0.126156 13V1.16H4.99016C5.74749 1.16 6.39282 1.29867 6.92616 1.576C7.47016 1.84267 7.88082 2.2 8.15816 2.648C8.44616 3.096 8.59016 3.58667 8.59016 4.12C8.59016 4.68533 8.48349 5.14933 8.27016 5.512C8.06749 5.864 7.83282 6.136 7.56616 6.328C7.29949 6.52 7.07016 6.65333 6.87816 6.728V6.824C7.14482 6.89867 7.44882 7.04267 7.79016 7.256C8.13149 7.45867 8.42482 7.75733 8.67016 8.152C8.92616 8.536 9.05416 9.03733 9.05416 9.656C9.05416 10.2107 8.92082 10.744 8.65416 11.256C8.38749 11.768 7.96082 12.1893 7.37416 12.52C6.79816 12.84 6.04082 13 5.10216 13H0.126156ZM4.81416 2.76H1.99816V6.184H4.81416C5.49682 6.184 5.99282 6.008 6.30216 5.656C6.61149 5.304 6.76616 4.90933 6.76616 4.472C6.76616 4.03467 6.61149 3.64 6.30216 3.288C5.99282 2.936 5.49682 2.76 4.81416 2.76ZM4.95816 7.656H1.99816V11.4H4.95816C5.48082 11.4 5.90749 11.3147 6.23816 11.144C6.56882 10.9627 6.80882 10.728 6.95816 10.44C7.10749 10.152 7.18216 9.848 7.18216 9.528C7.18216 9.208 7.10749 8.90933 6.95816 8.632C6.80882 8.344 6.56882 8.10933 6.23816 7.928C5.90749 7.74667 5.48082 7.656 4.95816 7.656ZM14.9189 13.16C14.2042 13.16 13.5856 13.0373 13.0629 12.792C12.5509 12.536 12.1242 12.2 11.7829 11.784C11.4522 11.3573 11.2016 10.8827 11.0309 10.36C10.8709 9.83733 10.7909 9.304 10.7909 8.76C10.7909 8.22667 10.8709 7.69867 11.0309 7.176C11.1909 6.65333 11.4362 6.17867 11.7669 5.752C12.0976 5.32533 12.5189 4.98933 13.0309 4.744C13.5429 4.488 14.1456 4.36 14.8389 4.36C15.5856 4.36 16.2416 4.53067 16.8069 4.872C17.3829 5.20267 17.8309 5.69867 18.1509 6.36C18.4816 7.01067 18.6469 7.82133 18.6469 8.792V9.288H12.6309C12.6736 9.93867 12.8922 10.4987 13.2869 10.968C13.6816 11.4373 14.2256 11.672 14.9189 11.672C15.3136 11.672 15.6389 11.608 15.8949 11.48C16.1509 11.3413 16.3482 11.1867 16.4869 11.016C16.6256 10.8453 16.7216 10.696 16.7749 10.568C16.8389 10.44 16.8709 10.376 16.8709 10.376H18.5669C18.5669 10.376 18.5402 10.472 18.4869 10.664C18.4336 10.8453 18.3322 11.0747 18.1829 11.352C18.0442 11.6293 17.8416 11.9067 17.5749 12.184C17.3082 12.4613 16.9562 12.696 16.5189 12.888C16.0816 13.0693 15.5482 13.16 14.9189 13.16ZM12.6469 8.008H16.8869C16.8442 7.26133 16.6202 6.712 16.2149 6.36C15.8202 6.008 15.3562 5.832 14.8229 5.832C14.2256 5.832 13.7296 6.02933 13.3349 6.424C12.9402 6.808 12.7109 7.336 12.6469 8.008ZM27.7979 13L23.6699 1.16H25.6379L29.0139 11L32.3739 1.16H34.3419L30.1979 13H27.7979ZM36.9459 3.064C36.6152 3.064 36.3432 2.952 36.1299 2.728C35.9166 2.504 35.8099 2.24267 35.8099 1.944C35.8099 1.63467 35.9166 1.37333 36.1299 1.16C36.3432 0.936 36.6152 0.823999 36.9459 0.823999C37.2766 0.823999 37.5486 0.936 37.7619 1.16C37.9859 1.37333 38.0979 1.63467 38.0979 1.944C38.0979 2.25333 37.9859 2.52 37.7619 2.744C37.5486 2.95733 37.2766 3.064 36.9459 3.064ZM36.0499 13V4.52H37.8739V13H36.0499ZM44.2002 13.16C43.4855 13.16 42.8668 13.0373 42.3442 12.792C41.8322 12.536 41.4055 12.2 41.0642 11.784C40.7335 11.3573 40.4828 10.8827 40.3122 10.36C40.1522 9.83733 40.0722 9.304 40.0722 8.76C40.0722 8.22667 40.1522 7.69867 40.3122 7.176C40.4722 6.65333 40.7175 6.17867 41.0482 5.752C41.3788 5.32533 41.8002 4.98933 42.3122 4.744C42.8242 4.488 43.4268 4.36 44.1202 4.36C44.8668 4.36 45.5228 4.53067 46.0882 4.872C46.6642 5.20267 47.1122 5.69867 47.4322 6.36C47.7628 7.01067 47.9282 7.82133 47.9282 8.792V9.288H41.9122C41.9548 9.93867 42.1735 10.4987 42.5682 10.968C42.9628 11.4373 43.5068 11.672 44.2002 11.672C44.5948 11.672 44.9202 11.608 45.1762 11.48C45.4322 11.3413 45.6295 11.1867 45.7682 11.016C45.9068 10.8453 46.0028 10.696 46.0562 10.568C46.1202 10.44 46.1522 10.376 46.1522 10.376H47.8482C47.8482 10.376 47.8215 10.472 47.7682 10.664C47.7148 10.8453 47.6135 11.0747 47.4642 11.352C47.3255 11.6293 47.1228 11.9067 46.8562 12.184C46.5895 12.4613 46.2375 12.696 45.8002 12.888C45.3628 13.0693 44.8295 13.16 44.2002 13.16ZM41.9282 8.008H46.1682C46.1255 7.26133 45.9015 6.712 45.4962 6.36C45.1015 6.008 44.6375 5.832 44.1042 5.832C43.5068 5.832 43.0108 6.02933 42.6162 6.424C42.2215 6.808 41.9922 7.336 41.9282 8.008ZM53.4594 13.16C52.7874 13.16 52.2487 13.0373 51.8434 12.792C51.4381 12.5467 51.1447 12.2213 50.9634 11.816C50.7927 11.4 50.7074 10.952 50.7074 10.472V5.992H49.2194V4.52H50.7074V2.408H52.5314V4.52H54.5154V5.992H52.5314V10.44C52.5314 11.24 52.9741 11.64 53.8594 11.64C54.0834 11.64 54.2914 11.624 54.4834 11.592C54.6754 11.56 54.7714 11.544 54.7714 11.544V13.032C54.7714 13.032 54.6381 13.0533 54.3714 13.096C54.1154 13.1387 53.8114 13.16 53.4594 13.16ZM56.638 13V4.52H58.462V5.752H58.558C58.6327 5.60267 58.7607 5.42133 58.942 5.208C59.1234 4.984 59.374 4.78667 59.694 4.616C60.0247 4.44533 60.4407 4.36 60.942 4.36C61.5714 4.36 62.0994 4.504 62.526 4.792C62.9527 5.08 63.2727 5.464 63.486 5.944C63.71 6.424 63.822 6.952 63.822 7.528V13H61.998V7.72C61.998 7.208 61.854 6.776 61.566 6.424C61.2887 6.072 60.8727 5.896 60.318 5.896C59.8807 5.896 59.5234 6.008 59.246 6.232C58.9794 6.44533 58.782 6.728 58.654 7.08C58.526 7.42133 58.462 7.78933 58.462 8.184V13H56.638ZM69.5677 4.36C70.101 4.36 70.5437 4.44533 70.8957 4.616C71.2583 4.78667 71.5463 4.984 71.7597 5.208C71.973 5.432 72.1277 5.624 72.2237 5.784H72.3197V4.52H74.1437V13H72.3197V11.736H72.2237C72.1277 11.896 71.973 12.088 71.7597 12.312C71.5463 12.536 71.2583 12.7333 70.8957 12.904C70.5437 13.0747 70.101 13.16 69.5677 13.16C68.9277 13.16 68.3677 13.0373 67.8877 12.792C67.4183 12.536 67.0237 12.2 66.7037 11.784C66.3837 11.3573 66.1437 10.8827 65.9837 10.36C65.8343 9.83733 65.7597 9.304 65.7597 8.76C65.7597 8.216 65.8343 7.68267 65.9837 7.16C66.1437 6.63733 66.3837 6.168 66.7037 5.752C67.0237 5.32533 67.4183 4.98933 67.8877 4.744C68.3677 4.488 68.9277 4.36 69.5677 4.36ZM69.9677 5.88C69.445 5.88 69.0077 6.024 68.6557 6.312C68.3037 6.58933 68.037 6.94667 67.8557 7.384C67.685 7.82133 67.5997 8.28 67.5997 8.76C67.5997 9.24 67.685 9.69867 67.8557 10.136C68.037 10.5733 68.3037 10.936 68.6557 11.224C69.0077 11.5013 69.445 11.64 69.9677 11.64C70.4903 11.64 70.9223 11.5013 71.2637 11.224C71.6157 10.936 71.877 10.5733 72.0477 10.136C72.229 9.69867 72.3197 9.24 72.3197 8.76C72.3197 8.28 72.229 7.82133 72.0477 7.384C71.877 6.94667 71.6157 6.58933 71.2637 6.312C70.9223 6.024 70.4903 5.88 69.9677 5.88ZM76.2787 13V4.52H78.1027V5.72H78.1667C78.2627 5.54933 78.4013 5.35733 78.5827 5.144C78.7747 4.93067 79.0253 4.74933 79.3347 4.6C79.644 4.44 80.0333 4.36 80.5027 4.36C81.132 4.36 81.6547 4.50933 82.0707 4.808C82.4867 5.10667 82.796 5.50133 82.9987 5.992H83.0307C83.2547 5.56533 83.58 5.18667 84.0067 4.856C84.4333 4.52533 84.9987 4.36 85.7027 4.36C86.3 4.36 86.8067 4.504 87.2227 4.792C87.6387 5.06933 87.948 5.448 88.1507 5.928C88.364 6.39733 88.4707 6.93067 88.4707 7.528V13H86.6467V7.784C86.6467 7.22933 86.5133 6.776 86.2467 6.424C85.98 6.072 85.5853 5.896 85.0627 5.896C84.636 5.896 84.2893 6.01333 84.0227 6.248C83.7667 6.48267 83.58 6.776 83.4627 7.128C83.3453 7.46933 83.2867 7.816 83.2867 8.168V13H81.4627V7.784C81.4627 7.22933 81.3293 6.776 81.0627 6.424C80.796 6.072 80.4013 5.896 79.8787 5.896C79.452 5.896 79.1053 6.01333 78.8387 6.248C78.5827 6.48267 78.396 6.776 78.2787 7.128C78.1613 7.46933 78.1027 7.816 78.1027 8.168V13H76.2787ZM94.423 13V1.16H98.871C99.799 1.16 100.572 1.352 101.191 1.736C101.81 2.10933 102.274 2.59467 102.583 3.192C102.892 3.77867 103.047 4.39733 103.047 5.048C103.047 5.69867 102.892 6.32267 102.583 6.92C102.274 7.51733 101.81 8.008 101.191 8.392C100.572 8.76533 99.799 8.952 98.871 8.952H96.295V13H94.423ZM98.871 2.792H96.295V7.32H98.871C99.383 7.32 99.8097 7.21333 100.151 7C100.492 6.776 100.748 6.49333 100.919 6.152C101.09 5.8 101.175 5.43733 101.175 5.064C101.175 4.68 101.09 4.31733 100.919 3.976C100.748 3.624 100.492 3.34133 100.151 3.128C99.8097 2.904 99.383 2.792 98.871 2.792ZM104.763 13V4.52H106.587V5.64H106.651C106.811 5.30933 107.062 5.016 107.403 4.76C107.755 4.49333 108.262 4.36 108.923 4.36C109.126 4.36 109.296 4.37067 109.435 4.392C109.584 4.41333 109.659 4.424 109.659 4.424V6.184C109.659 6.184 109.579 6.17333 109.419 6.152C109.259 6.13067 109.078 6.12 108.875 6.12C108.128 6.12 107.558 6.33333 107.163 6.76C106.779 7.176 106.587 7.85333 106.587 8.792V13H104.763ZM114.813 13.16C113.885 13.16 113.101 12.952 112.461 12.536C111.832 12.12 111.352 11.576 111.021 10.904C110.701 10.232 110.541 9.51733 110.541 8.76C110.541 8.00267 110.701 7.288 111.021 6.616C111.352 5.944 111.832 5.4 112.461 4.984C113.101 4.568 113.885 4.36 114.813 4.36C115.73 4.36 116.504 4.568 117.133 4.984C117.773 5.4 118.253 5.944 118.573 6.616C118.904 7.288 119.069 8.00267 119.069 8.76C119.069 9.51733 118.904 10.232 118.573 10.904C118.253 11.576 117.773 12.12 117.133 12.536C116.504 12.952 115.73 13.16 114.813 13.16ZM114.813 11.608C115.336 11.608 115.773 11.4747 116.125 11.208C116.488 10.9413 116.76 10.5893 116.941 10.152C117.133 9.71467 117.229 9.25067 117.229 8.76C117.229 8.25867 117.133 7.79467 116.941 7.368C116.76 6.93067 116.488 6.57867 116.125 6.312C115.773 6.04533 115.336 5.912 114.813 5.912C114.29 5.912 113.848 6.04533 113.485 6.312C113.122 6.57867 112.85 6.93067 112.669 7.368C112.488 7.79467 112.397 8.25867 112.397 8.76C112.397 9.25067 112.488 9.71467 112.669 10.152C112.85 10.5893 113.122 10.9413 113.485 11.208C113.848 11.4747 114.29 11.608 114.813 11.608ZM124.892 13V1.16H127.372L130.588 7.896L133.852 1.16H136.3V13H134.46V3.944L131.468 10.056H129.724L126.732 3.912V13H124.892ZM142.528 13.16C141.814 13.16 141.195 13.0373 140.672 12.792C140.16 12.536 139.734 12.2 139.392 11.784C139.062 11.3573 138.811 10.8827 138.64 10.36C138.48 9.83733 138.4 9.304 138.4 8.76C138.4 8.22667 138.48 7.69867 138.64 7.176C138.8 6.65333 139.046 6.17867 139.376 5.752C139.707 5.32533 140.128 4.98933 140.64 4.744C141.152 4.488 141.755 4.36 142.448 4.36C143.195 4.36 143.851 4.53067 144.416 4.872C144.992 5.20267 145.44 5.69867 145.76 6.36C146.091 7.01067 146.256 7.82133 146.256 8.792V9.288H140.24C140.283 9.93867 140.502 10.4987 140.896 10.968C141.291 11.4373 141.835 11.672 142.528 11.672C142.923 11.672 143.248 11.608 143.504 11.48C143.76 11.3413 143.958 11.1867 144.096 11.016C144.235 10.8453 144.331 10.696 144.384 10.568C144.448 10.44 144.48 10.376 144.48 10.376H146.176C146.176 10.376 146.15 10.472 146.096 10.664C146.043 10.8453 145.942 11.0747 145.792 11.352C145.654 11.6293 145.451 11.9067 145.184 12.184C144.918 12.4613 144.566 12.696 144.128 12.888C143.691 13.0693 143.158 13.16 142.528 13.16ZM140.256 8.008H144.496C144.454 7.26133 144.23 6.712 143.824 6.36C143.43 6.008 142.966 5.832 142.432 5.832C141.835 5.832 141.339 6.02933 140.944 6.424C140.55 6.808 140.32 7.336 140.256 8.008ZM151.818 13.16C151.178 13.16 150.618 13.0373 150.138 12.792C149.668 12.536 149.274 12.2 148.954 11.784C148.634 11.3573 148.394 10.8827 148.234 10.36C148.084 9.83733 148.01 9.304 148.01 8.76C148.01 8.216 148.084 7.68267 148.234 7.16C148.394 6.63733 148.634 6.168 148.954 5.752C149.274 5.32533 149.668 4.98933 150.138 4.744C150.618 4.488 151.178 4.36 151.818 4.36C152.351 4.36 152.794 4.44533 153.146 4.616C153.508 4.78667 153.796 4.984 154.01 5.208C154.223 5.432 154.378 5.624 154.474 5.784H154.57V0.839999H156.394V13H154.57V11.736H154.474C154.378 11.896 154.223 12.088 154.01 12.312C153.796 12.536 153.508 12.7333 153.146 12.904C152.794 13.0747 152.351 13.16 151.818 13.16ZM152.218 11.64C152.74 11.64 153.172 11.5013 153.514 11.224C153.866 10.936 154.127 10.5733 154.298 10.136C154.479 9.69867 154.57 9.24 154.57 8.76C154.57 8.28 154.479 7.82133 154.298 7.384C154.127 6.94667 153.866 6.58933 153.514 6.312C153.172 6.024 152.74 5.88 152.218 5.88C151.695 5.88 151.258 6.024 150.906 6.312C150.554 6.58933 150.287 6.94667 150.106 7.384C149.935 7.82133 149.85 8.28 149.85 8.76C149.85 9.24 149.935 9.69867 150.106 10.136C150.287 10.5733 150.554 10.936 150.906 11.224C151.258 11.5013 151.695 11.64 152.218 11.64ZM159.805 3.064C159.475 3.064 159.203 2.952 158.989 2.728C158.776 2.504 158.669 2.24267 158.669 1.944C158.669 1.63467 158.776 1.37333 158.989 1.16C159.203 0.936 159.475 0.823999 159.805 0.823999C160.136 0.823999 160.408 0.936 160.621 1.16C160.845 1.37333 160.957 1.63467 160.957 1.944C160.957 2.25333 160.845 2.52 160.621 2.744C160.408 2.95733 160.136 3.064 159.805 3.064ZM158.909 13V4.52H160.733V13H158.909ZM165.796 13.16C164.942 13.16 164.276 12.8933 163.796 12.36C163.316 11.8267 163.076 11.1173 163.076 10.232V4.52H164.9V10.008C164.9 10.52 165.033 10.92 165.3 11.208C165.577 11.4853 165.95 11.624 166.42 11.624C166.878 11.624 167.246 11.5067 167.524 11.272C167.801 11.0373 167.998 10.7387 168.116 10.376C168.244 10.0027 168.308 9.61867 168.308 9.224V4.52H170.132V13H168.308V11.784H168.212C168.126 11.944 167.988 12.136 167.796 12.36C167.614 12.5733 167.358 12.76 167.028 12.92C166.708 13.08 166.297 13.16 165.796 13.16ZM172.247 13V4.52H174.071V5.72H174.135C174.231 5.54933 174.37 5.35733 174.551 5.144C174.743 4.93067 174.994 4.74933 175.303 4.6C175.613 4.44 176.002 4.36 176.471 4.36C177.101 4.36 177.623 4.50933 178.039 4.808C178.455 5.10667 178.765 5.50133 178.967 5.992H178.999C179.223 5.56533 179.549 5.18667 179.975 4.856C180.402 4.52533 180.967 4.36 181.671 4.36C182.269 4.36 182.775 4.504 183.191 4.792C183.607 5.06933 183.917 5.448 184.119 5.928C184.333 6.39733 184.439 6.93067 184.439 7.528V13H182.615V7.784C182.615 7.22933 182.482 6.776 182.215 6.424C181.949 6.072 181.554 5.896 181.031 5.896C180.605 5.896 180.258 6.01333 179.991 6.248C179.735 6.48267 179.549 6.776 179.431 7.128C179.314 7.46933 179.255 7.816 179.255 8.168V13H177.431V7.784C177.431 7.22933 177.298 6.776 177.031 6.424C176.765 6.072 176.37 5.896 175.847 5.896C175.421 5.896 175.074 6.01333 174.807 6.248C174.551 6.48267 174.365 6.776 174.247 7.128C174.13 7.46933 174.071 7.816 174.071 8.168V13H172.247Z" fill="black"/>
                  </svg>  