<svg width="250" height="17" viewBox="0 0 250 17" fill="none" xmlns="http://www.w3.org/2000/svg">
                    <path d="M0.350156 16V1.2H6.81016C7.75682 1.2 8.56349 1.36667 9.23016 1.7C9.89682 2.03333 10.4035 2.48 10.7502 3.04C11.1102 3.6 11.2902 4.21333 11.2902 4.88C11.2902 5.56 11.1635 6.12 10.9102 6.56C10.6702 7 10.3768 7.34667 10.0302 7.6C9.69682 7.84 9.39016 8.00667 9.11016 8.1V8.24C9.45682 8.33333 9.84349 8.51333 10.2702 8.78C10.7102 9.04667 11.0902 9.42667 11.4102 9.92C11.7302 10.4 11.8902 11.0267 11.8902 11.8C11.8902 12.4933 11.7235 13.1667 11.3902 13.82C11.0568 14.46 10.5302 14.9867 9.81016 15.4C9.09016 15.8 8.13682 16 6.95016 16H0.350156ZM6.45016 3.5H3.07016V7.36H6.45016C7.22349 7.36 7.78349 7.16667 8.13016 6.78C8.47682 6.39333 8.65016 5.94 8.65016 5.42C8.65016 4.91333 8.47682 4.46667 8.13016 4.08C7.78349 3.69333 7.22349 3.5 6.45016 3.5ZM6.65016 9.44H3.07016V13.7H6.65016C7.53016 13.7 8.17016 13.4867 8.57016 13.06C8.97016 12.6333 9.17016 12.1333 9.17016 11.56C9.17016 11 8.97016 10.5067 8.57016 10.08C8.17016 9.65333 7.53016 9.44 6.65016 9.44ZM19.235 16.2C18.3283 16.2 17.5417 16.0467 16.875 15.74C16.2217 15.42 15.675 15 15.235 14.48C14.8083 13.9467 14.4883 13.3533 14.275 12.7C14.0617 12.0467 13.955 11.38 13.955 10.7C13.955 10.02 14.055 9.36 14.255 8.72C14.4683 8.06667 14.7817 7.47333 15.195 6.94C15.6217 6.40667 16.1617 5.98667 16.815 5.68C17.4683 5.36 18.2417 5.2 19.135 5.2C20.095 5.2 20.9417 5.41333 21.675 5.84C22.4083 6.26667 22.9817 6.89333 23.395 7.72C23.8083 8.53333 24.015 9.54667 24.015 10.76V11.44H16.635C16.675 12.16 16.9217 12.7867 17.375 13.32C17.8283 13.84 18.4483 14.1 19.235 14.1C19.6883 14.1 20.0617 14.0267 20.355 13.88C20.6483 13.7333 20.875 13.5667 21.035 13.38C21.195 13.18 21.3083 13.0133 21.375 12.88C21.4417 12.7333 21.475 12.66 21.475 12.66H23.935C23.935 12.66 23.9017 12.78 23.835 13.02C23.7683 13.2467 23.6417 13.54 23.455 13.9C23.2817 14.2467 23.0217 14.6 22.675 14.96C22.3283 15.3067 21.875 15.6 21.315 15.84C20.755 16.08 20.0617 16.2 19.235 16.2ZM16.635 9.7H21.455C21.415 8.87333 21.1683 8.26 20.715 7.86C20.2617 7.46 19.7283 7.26 19.115 7.26C18.435 7.26 17.8683 7.48 17.415 7.92C16.9617 8.34667 16.7017 8.94 16.635 9.7ZM35.2509 16L30.1509 1.2H32.9909L37.0309 13.24L41.0709 1.2H43.9109L38.7909 16H35.2509ZM47.1994 3.76C46.7327 3.76 46.346 3.60667 46.0394 3.3C45.746 2.99333 45.5994 2.62667 45.5994 2.2C45.5994 1.77333 45.746 1.40667 46.0394 1.1C46.346 0.793333 46.7327 0.64 47.1994 0.64C47.666 0.64 48.0527 0.793333 48.3594 1.1C48.666 1.40667 48.8194 1.77333 48.8194 2.2C48.8194 2.62667 48.666 2.99333 48.3594 3.3C48.0527 3.60667 47.666 3.76 47.1994 3.76ZM45.8794 16V5.4H48.5394V16H45.8794ZM56.4225 16.2C55.5158 16.2 54.7292 16.0467 54.0625 15.74C53.4092 15.42 52.8625 15 52.4225 14.48C51.9958 13.9467 51.6758 13.3533 51.4625 12.7C51.2492 12.0467 51.1425 11.38 51.1425 10.7C51.1425 10.02 51.2425 9.36 51.4425 8.72C51.6558 8.06667 51.9692 7.47333 52.3825 6.94C52.8092 6.40667 53.3492 5.98667 54.0025 5.68C54.6558 5.36 55.4292 5.2 56.3225 5.2C57.2825 5.2 58.1292 5.41333 58.8625 5.84C59.5958 6.26667 60.1692 6.89333 60.5825 7.72C60.9958 8.53333 61.2025 9.54667 61.2025 10.76V11.44H53.8225C53.8625 12.16 54.1092 12.7867 54.5625 13.32C55.0158 13.84 55.6358 14.1 56.4225 14.1C56.8758 14.1 57.2492 14.0267 57.5425 13.88C57.8358 13.7333 58.0625 13.5667 58.2225 13.38C58.3825 13.18 58.4958 13.0133 58.5625 12.88C58.6292 12.7333 58.6625 12.66 58.6625 12.66H61.1225C61.1225 12.66 61.0892 12.78 61.0225 13.02C60.9558 13.2467 60.8292 13.54 60.6425 13.9C60.4692 14.2467 60.2092 14.6 59.8625 14.96C59.5158 15.3067 59.0625 15.6 58.5025 15.84C57.9425 16.08 57.2492 16.2 56.4225 16.2ZM53.8225 9.7H58.6425C58.6025 8.87333 58.3558 8.26 57.9025 7.86C57.4492 7.46 56.9158 7.26 56.3025 7.26C55.6225 7.26 55.0558 7.48 54.6025 7.92C54.1492 8.34667 53.8892 8.94 53.8225 9.7ZM68.1138 16.2C67.3938 16.2 66.8004 16.0933 66.3338 15.88C65.8671 15.6667 65.5004 15.3867 65.2338 15.04C64.9804 14.6933 64.8004 14.3133 64.6938 13.9C64.5871 13.4867 64.5338 13.08 64.5338 12.68V7.54H62.7138V5.4H64.5338V2.76H67.1938V5.4H69.5738V7.54H67.1938V12.62C67.1938 13.5667 67.7271 14.04 68.7938 14.04C69.0471 14.04 69.2804 14.0267 69.4938 14C69.7204 13.96 69.8338 13.94 69.8338 13.94V16.02C69.8338 16.02 69.6604 16.0467 69.3138 16.1C68.9804 16.1667 68.5804 16.2 68.1138 16.2ZM72.0056 16V5.4H74.6656V6.92H74.7856C74.8923 6.73333 75.059 6.50667 75.2856 6.24C75.5123 5.96 75.8256 5.72 76.2256 5.52C76.6256 5.30667 77.1323 5.2 77.7456 5.2C78.559 5.2 79.2256 5.38667 79.7456 5.76C80.279 6.12 80.6723 6.6 80.9256 7.2C81.1923 7.8 81.3256 8.44667 81.3256 9.14V16H78.6656V9.5C78.6656 8.92667 78.5056 8.43333 78.1856 8.02C77.8656 7.60667 77.3856 7.4 76.7456 7.4C76.2523 7.4 75.8523 7.52667 75.5456 7.78C75.239 8.02 75.0123 8.33333 74.8656 8.72C74.7323 9.10667 74.6656 9.51333 74.6656 9.94V16H72.0056ZM88.2644 5.2C88.9444 5.2 89.5044 5.31333 89.9444 5.54C90.3844 5.75333 90.731 5.99333 90.9844 6.26C91.2377 6.51333 91.411 6.72 91.5044 6.88H91.6244V5.4H94.2844V16H91.6244V14.52H91.5044C91.411 14.68 91.2377 14.8933 90.9844 15.16C90.731 15.4267 90.3844 15.6667 89.9444 15.88C89.5044 16.0933 88.9444 16.2 88.2644 16.2C87.4777 16.2 86.791 16.0467 86.2044 15.74C85.6177 15.42 85.1244 15 84.7244 14.48C84.3377 13.9467 84.0444 13.3533 83.8444 12.7C83.6577 12.0467 83.5644 11.38 83.5644 10.7C83.5644 10.02 83.6577 9.35333 83.8444 8.7C84.0444 8.04667 84.3377 7.46 84.7244 6.94C85.1244 6.40667 85.6177 5.98667 86.2044 5.68C86.791 5.36 87.4777 5.2 88.2644 5.2ZM88.9644 7.38C88.3644 7.38 87.8577 7.54667 87.4444 7.88C87.0444 8.2 86.7444 8.61333 86.5444 9.12C86.3444 9.62667 86.2444 10.1533 86.2444 10.7C86.2444 11.2467 86.3444 11.7733 86.5444 12.28C86.7444 12.7867 87.0444 13.2067 87.4444 13.54C87.8577 13.86 88.3644 14.02 88.9644 14.02C89.5644 14.02 90.0644 13.86 90.4644 13.54C90.8644 13.2067 91.1644 12.7867 91.3644 12.28C91.5644 11.7733 91.6644 11.2467 91.6644 10.7C91.6644 10.1533 91.5644 9.62667 91.3644 9.12C91.1644 8.61333 90.8644 8.2 90.4644 7.88C90.0644 7.54667 89.5644 7.38 88.9644 7.38ZM96.8103 16V5.4H99.4703V6.88H99.5703C99.7036 6.64 99.8903 6.39333 100.13 6.14C100.37 5.87333 100.677 5.65333 101.05 5.48C101.437 5.29333 101.91 5.2 102.47 5.2C103.257 5.2 103.904 5.38667 104.41 5.76C104.917 6.13333 105.29 6.61333 105.53 7.2H105.57C105.837 6.69333 106.23 6.23333 106.75 5.82C107.284 5.40667 107.99 5.2 108.87 5.2C109.617 5.2 110.237 5.37333 110.73 5.72C111.237 6.05333 111.61 6.50667 111.85 7.08C112.104 7.65333 112.23 8.27333 112.23 8.94V16H109.57V9.5C109.57 8.88667 109.417 8.38667 109.11 8C108.817 7.6 108.377 7.4 107.79 7.4C107.324 7.4 106.944 7.52667 106.65 7.78C106.37 8.02 106.164 8.32667 106.03 8.7C105.91 9.07333 105.85 9.45333 105.85 9.84V16H103.19V9.5C103.19 8.88667 103.044 8.38667 102.75 8C102.457 7.6 102.01 7.4 101.41 7.4C100.944 7.4 100.564 7.52667 100.27 7.78C99.9903 8.02 99.7836 8.33333 99.6503 8.72C99.5303 9.09333 99.4703 9.46667 99.4703 9.84V16H96.8103ZM119.51 16V1.2H125.35C126.537 1.2 127.524 1.44 128.31 1.92C129.097 2.38667 129.684 3 130.07 3.76C130.47 4.50667 130.67 5.28667 130.67 6.1C130.67 6.91333 130.47 7.7 130.07 8.46C129.684 9.20667 129.097 9.82 128.31 10.3C127.524 10.78 126.537 11.02 125.35 11.02H122.23V16H119.51ZM125.33 3.56H122.23V8.66H125.33C125.917 8.66 126.404 8.54 126.79 8.3C127.177 8.04667 127.464 7.72667 127.65 7.34C127.85 6.94 127.95 6.53333 127.95 6.12C127.95 5.69333 127.85 5.28667 127.65 4.9C127.464 4.51333 127.177 4.19333 126.79 3.94C126.404 3.68667 125.917 3.56 125.33 3.56ZM132.65 16V5.4H135.29V6.86H135.39C135.577 6.44667 135.883 6.06667 136.31 5.72C136.737 5.37333 137.377 5.2 138.23 5.2C138.497 5.2 138.717 5.22 138.89 5.26C139.063 5.28667 139.15 5.3 139.15 5.3V7.88C139.15 7.88 139.05 7.86667 138.85 7.84C138.663 7.81333 138.43 7.8 138.15 7.8C137.217 7.8 136.51 8.06 136.03 8.58C135.55 9.1 135.31 9.94 135.31 11.1V16H132.65ZM145.684 16.2C144.524 16.2 143.537 15.94 142.724 15.42C141.911 14.9 141.291 14.2267 140.864 13.4C140.451 12.56 140.244 11.66 140.244 10.7C140.244 9.74 140.451 8.84667 140.864 8.02C141.291 7.18 141.911 6.5 142.724 5.98C143.537 5.46 144.524 5.2 145.684 5.2C146.857 5.2 147.844 5.46 148.644 5.98C149.457 6.5 150.071 7.18 150.484 8.02C150.911 8.84667 151.124 9.74 151.124 10.7C151.124 11.66 150.911 12.56 150.484 13.4C150.071 14.2267 149.457 14.9 148.644 15.42C147.844 15.94 146.857 16.2 145.684 16.2ZM145.684 13.98C146.284 13.98 146.784 13.8267 147.184 13.52C147.597 13.2133 147.911 12.8133 148.124 12.32C148.337 11.8133 148.444 11.2733 148.444 10.7C148.444 10.1133 148.337 9.57333 148.124 9.08C147.911 8.58667 147.597 8.18667 147.184 7.88C146.784 7.57333 146.284 7.42 145.684 7.42C145.097 7.42 144.597 7.57333 144.184 7.88C143.771 8.18667 143.457 8.58667 143.244 9.08C143.031 9.57333 142.924 10.1133 142.924 10.7C142.924 11.2733 143.031 11.8133 143.244 12.32C143.457 12.8133 143.771 13.2133 144.184 13.52C144.597 13.8267 145.097 13.98 145.684 13.98ZM163.6 16.2C162.68 16.2 161.894 16.0867 161.24 15.86C160.587 15.6333 160.04 15.34 159.6 14.98C159.174 14.62 158.834 14.24 158.58 13.84C158.327 13.4267 158.134 13.04 158 12.68C157.88 12.32 157.8 12.0267 157.76 11.8C157.72 11.5733 157.7 11.46 157.7 11.46H160.46C160.46 11.46 160.474 11.54 160.5 11.7C160.54 11.86 160.62 12.0667 160.74 12.32C160.86 12.56 161.034 12.8 161.26 13.04C161.5 13.28 161.814 13.4867 162.2 13.66C162.6 13.82 163.094 13.9 163.68 13.9C164.587 13.9 165.274 13.7 165.74 13.3C166.22 12.8867 166.46 12.38 166.46 11.78C166.46 11.2733 166.28 10.8733 165.92 10.58C165.56 10.2733 165.027 10.0467 164.32 9.9L162.36 9.48C161.6 9.32 160.887 9.08 160.22 8.76C159.567 8.44 159.04 8.00667 158.64 7.46C158.24 6.91333 158.04 6.21333 158.04 5.36C158.04 4.46667 158.26 3.69333 158.7 3.04C159.154 2.38667 159.774 1.88667 160.56 1.54C161.347 1.18 162.267 0.999999 163.32 0.999999C164.32 0.999999 165.147 1.14667 165.8 1.44C166.454 1.73333 166.974 2.09333 167.36 2.52C167.76 2.94667 168.054 3.37333 168.24 3.8C168.427 4.22667 168.547 4.58667 168.6 4.88C168.667 5.17333 168.7 5.32 168.7 5.32H166.04C166.04 5.32 166.014 5.22 165.96 5.02C165.907 4.80667 165.787 4.56667 165.6 4.3C165.414 4.03333 165.134 3.8 164.76 3.6C164.387 3.38667 163.887 3.28 163.26 3.28C162.367 3.28 161.714 3.48 161.3 3.88C160.9 4.28 160.7 4.71333 160.7 5.18C160.7 5.66 160.887 6.03333 161.26 6.3C161.634 6.56667 162.134 6.77333 162.76 6.92L164.86 7.36C165.647 7.53333 166.367 7.79333 167.02 8.14C167.674 8.48667 168.194 8.94667 168.58 9.52C168.967 10.08 169.16 10.78 169.16 11.62C169.16 12.4733 168.947 13.2467 168.52 13.94C168.094 14.6333 167.467 15.1867 166.64 15.6C165.814 16 164.8 16.2 163.6 16.2ZM176.305 16.2C175.399 16.2 174.612 16.0467 173.945 15.74C173.292 15.42 172.745 15 172.305 14.48C171.879 13.9467 171.559 13.3533 171.345 12.7C171.132 12.0467 171.025 11.38 171.025 10.7C171.025 10.02 171.125 9.36 171.325 8.72C171.539 8.06667 171.852 7.47333 172.265 6.94C172.692 6.40667 173.232 5.98667 173.885 5.68C174.539 5.36 175.312 5.2 176.205 5.2C177.165 5.2 178.012 5.41333 178.745 5.84C179.479 6.26667 180.052 6.89333 180.465 7.72C180.879 8.53333 181.085 9.54667 181.085 10.76V11.44H173.705C173.745 12.16 173.992 12.7867 174.445 13.32C174.899 13.84 175.519 14.1 176.305 14.1C176.759 14.1 177.132 14.0267 177.425 13.88C177.719 13.7333 177.945 13.5667 178.105 13.38C178.265 13.18 178.379 13.0133 178.445 12.88C178.512 12.7333 178.545 12.66 178.545 12.66H181.005C181.005 12.66 180.972 12.78 180.905 13.02C180.839 13.2467 180.712 13.54 180.525 13.9C180.352 14.2467 180.092 14.6 179.745 14.96C179.399 15.3067 178.945 15.6 178.385 15.84C177.825 16.08 177.132 16.2 176.305 16.2ZM173.705 9.7H178.525C178.485 8.87333 178.239 8.26 177.785 7.86C177.332 7.46 176.799 7.26 176.185 7.26C175.505 7.26 174.939 7.48 174.485 7.92C174.032 8.34667 173.772 8.94 173.705 9.7ZM183.334 16V5.4H185.994V6.88H186.094C186.227 6.64 186.414 6.39333 186.654 6.14C186.894 5.87333 187.2 5.65333 187.574 5.48C187.96 5.29333 188.434 5.2 188.994 5.2C189.78 5.2 190.427 5.38667 190.934 5.76C191.44 6.13333 191.814 6.61333 192.054 7.2H192.094C192.36 6.69333 192.754 6.23333 193.274 5.82C193.807 5.40667 194.514 5.2 195.394 5.2C196.14 5.2 196.76 5.37333 197.254 5.72C197.76 6.05333 198.134 6.50667 198.374 7.08C198.627 7.65333 198.754 8.27333 198.754 8.94V16H196.094V9.5C196.094 8.88667 195.94 8.38667 195.634 8C195.34 7.6 194.9 7.4 194.314 7.4C193.847 7.4 193.467 7.52667 193.174 7.78C192.894 8.02 192.687 8.32667 192.554 8.7C192.434 9.07333 192.374 9.45333 192.374 9.84V16H189.714V9.5C189.714 8.88667 189.567 8.38667 189.274 8C188.98 7.6 188.534 7.4 187.934 7.4C187.467 7.4 187.087 7.52667 186.794 7.78C186.514 8.02 186.307 8.33333 186.174 8.72C186.054 9.09333 185.994 9.46667 185.994 9.84V16H183.334ZM202.824 3.76C202.358 3.76 201.971 3.60667 201.664 3.3C201.371 2.99333 201.224 2.62667 201.224 2.2C201.224 1.77333 201.371 1.40667 201.664 1.1C201.971 0.793333 202.358 0.64 202.824 0.64C203.291 0.64 203.678 0.793333 203.984 1.1C204.291 1.40667 204.444 1.77333 204.444 2.2C204.444 2.62667 204.291 2.99333 203.984 3.3C203.678 3.60667 203.291 3.76 202.824 3.76ZM201.504 16V5.4H204.164V16H201.504ZM213.148 16.2C212.468 16.2 211.908 16.0933 211.468 15.88C211.028 15.6533 210.681 15.4067 210.428 15.14C210.188 14.8733 210.021 14.6667 209.928 14.52H209.788V16H207.128V0.799999H209.788V6.88H209.928C210.021 6.72 210.188 6.50667 210.428 6.24C210.681 5.97333 211.028 5.73333 211.468 5.52C211.908 5.30667 212.468 5.2 213.148 5.2C213.948 5.2 214.641 5.36 215.228 5.68C215.814 5.98667 216.301 6.40667 216.688 6.94C217.074 7.46 217.361 8.04667 217.548 8.7C217.748 9.35333 217.848 10.02 217.848 10.7C217.848 11.38 217.748 12.0467 217.548 12.7C217.361 13.3533 217.074 13.9467 216.688 14.48C216.301 15 215.814 15.42 215.228 15.74C214.641 16.0467 213.948 16.2 213.148 16.2ZM212.448 14.02C213.061 14.02 213.568 13.86 213.968 13.54C214.368 13.2067 214.668 12.7867 214.868 12.28C215.068 11.7733 215.168 11.2467 215.168 10.7C215.168 10.1533 215.068 9.62667 214.868 9.12C214.668 8.61333 214.368 8.2 213.968 7.88C213.568 7.54667 213.061 7.38 212.448 7.38C211.848 7.38 211.348 7.54667 210.948 7.88C210.548 8.2 210.248 8.61333 210.048 9.12C209.848 9.62667 209.748 10.1533 209.748 10.7C209.748 11.2467 209.848 11.7733 210.048 12.28C210.248 12.7867 210.548 13.2067 210.948 13.54C211.348 13.86 211.848 14.02 212.448 14.02ZM225.352 16.2C224.192 16.2 223.205 15.94 222.392 15.42C221.579 14.9 220.959 14.2267 220.532 13.4C220.119 12.56 219.912 11.66 219.912 10.7C219.912 9.74 220.119 8.84667 220.532 8.02C220.959 7.18 221.579 6.5 222.392 5.98C223.205 5.46 224.192 5.2 225.352 5.2C226.525 5.2 227.512 5.46 228.312 5.98C229.125 6.5 229.739 7.18 230.152 8.02C230.579 8.84667 230.792 9.74 230.792 10.7C230.792 11.66 230.579 12.56 230.152 13.4C229.739 14.2267 229.125 14.9 228.312 15.42C227.512 15.94 226.525 16.2 225.352 16.2ZM225.352 13.98C225.952 13.98 226.452 13.8267 226.852 13.52C227.265 13.2133 227.579 12.8133 227.792 12.32C228.005 11.8133 228.112 11.2733 228.112 10.7C228.112 10.1133 228.005 9.57333 227.792 9.08C227.579 8.58667 227.265 8.18667 226.852 7.88C226.452 7.57333 225.952 7.42 225.352 7.42C224.765 7.42 224.265 7.57333 223.852 7.88C223.439 8.18667 223.125 8.58667 222.912 9.08C222.699 9.57333 222.592 10.1133 222.592 10.7C222.592 11.2733 222.699 11.8133 222.912 12.32C223.125 12.8133 223.439 13.2133 223.852 13.52C224.265 13.8267 224.765 13.98 225.352 13.98ZM233.241 16L233.261 0.799999H235.901V16H233.241ZM243.05 16.2C242.263 16.2 241.576 16.0467 240.99 15.74C240.403 15.42 239.91 15 239.51 14.48C239.123 13.9467 238.83 13.3533 238.63 12.7C238.443 12.0467 238.35 11.38 238.35 10.7C238.35 10.02 238.443 9.35333 238.63 8.7C238.83 8.04667 239.123 7.46 239.51 6.94C239.91 6.40667 240.403 5.98667 240.99 5.68C241.576 5.36 242.263 5.2 243.05 5.2C243.73 5.2 244.29 5.31333 244.73 5.54C245.17 5.75333 245.516 5.99333 245.77 6.26C246.023 6.51333 246.196 6.72 246.29 6.88H246.41V0.799999H249.07V16H246.41V14.52H246.29C246.196 14.68 246.023 14.8933 245.77 15.16C245.516 15.4267 245.17 15.6667 244.73 15.88C244.29 16.0933 243.73 16.2 243.05 16.2ZM243.75 14.02C244.35 14.02 244.85 13.86 245.25 13.54C245.65 13.2067 245.95 12.7867 246.15 12.28C246.35 11.7733 246.45 11.2467 246.45 10.7C246.45 10.1533 246.35 9.62667 246.15 9.12C245.95 8.61333 245.65 8.2 245.25 7.88C244.85 7.54667 244.35 7.38 243.75 7.38C243.15 7.38 242.643 7.54667 242.23 7.88C241.83 8.2 241.53 8.61333 241.33 9.12C241.13 9.62667 241.03 10.1533 241.03 10.7C241.03 11.2467 241.13 11.7733 241.33 12.28C241.53 12.7867 241.83 13.2067 242.23 13.54C242.643 13.86 243.15 14.02 243.75 14.02Z" fill="black"/>
                  </svg> 