<svg width="1316" height="171" viewBox="0 0 1316 171" fill="none" xmlns="http://www.w3.org/2000/svg">
<g clip-path="url(#clip0_2315_12365)">
<path d="M942.954 147.449H882.513V89.9505H942.954V69.2132H882.513V22.9289H942.954V1.95117H859.859V168.427H942.954V147.449Z" fill="#0B0B0B"/>
<path d="M971.348 22.9289H1001.57V168.427H1024.22V22.9289H1054.44V1.95117H971.348V22.9289Z" fill="#0B0B0B"/>
<path d="M1293.57 1.95117V68.9727H1234.6V1.95117H1211.95V168.427H1234.6V89.9505H1293.57V168.427H1315.98V1.95117H1293.57Z" fill="#0B0B0B"/>
<path d="M1183.56 135.449C1175.6 142.527 1164.05 149.397 1145.05 149.397C1135.09 149.397 1126.02 146.963 1118.12 142.157C1110.18 137.34 1103.8 129.996 1099.15 120.335C1094.54 110.753 1092.2 98.9248 1092.2 85.1875C1092.2 71.4539 1094.54 59.6294 1099.15 50.047C1103.8 40.3794 1110.18 33.0354 1118.12 28.2182C1126.02 23.4159 1135.09 20.9778 1145.05 20.9778C1166.36 20.9778 1176.14 27.7299 1183.56 34.7854V9.99681C1172.93 3.3668 1159.98 0 1145.05 0C1131.49 0 1118.78 3.27431 1107.26 9.73413C1095.78 16.1754 1086.45 25.9059 1079.53 38.6553C1072.59 51.4418 1069.07 67.0956 1069.07 85.1838C1069.07 103.279 1072.59 118.93 1079.53 131.716C1086.45 144.477 1095.78 154.203 1107.26 160.641C1118.77 167.101 1131.49 170.375 1145.05 170.375C1159.98 170.375 1172.93 167.012 1183.56 160.382V135.449H1183.56Z" fill="#0B0B0B"/>
<path d="M786.747 153.534C783.862 154.751 780.496 155.362 776.646 155.362C771.74 155.362 767.752 153.808 764.674 150.689C761.596 147.574 760.057 143.633 760.057 138.864C760.057 134.484 761.161 130.569 763.377 127.11C765.585 123.658 768.714 120.758 772.753 118.423L794.829 147.914C792.325 150.445 789.631 152.317 786.747 153.534ZM773.4 80.8222C775.082 79.1203 777.319 78.2656 780.108 78.2656C782.897 78.2656 785.083 79.0944 786.67 80.7482C788.26 82.4057 789.05 84.5442 789.05 87.1747C789.05 90.1937 787.946 92.7947 785.734 94.985C783.519 97.1752 780.492 99.1953 776.646 101.045C774.818 98.7069 773.4 96.4464 772.391 94.2561C771.382 92.0658 770.878 89.8053 770.878 87.467C770.874 84.7403 771.719 82.5241 773.4 80.8222ZM812.712 147.766C815.98 142.024 818.532 135.601 820.359 128.494L811.272 117.687C808.961 124.89 806.461 131.025 803.771 136.086L785.164 111.556C790.355 108.733 794.635 105.13 798.002 100.753C801.369 96.3724 803.05 91.3111 803.05 85.5653C803.05 81.8692 802.136 78.4617 800.309 75.3428C798.481 72.2276 795.834 69.7488 792.372 67.8989C788.911 66.0527 784.824 65.124 780.112 65.124C773.378 65.124 767.847 67.1663 763.523 71.2546C759.195 75.3428 757.031 80.5521 757.031 86.8787C757.031 93.2054 759.63 100.068 764.821 107.464C759.337 110.483 754.72 114.668 750.97 120.021C747.223 125.375 745.344 131.702 745.344 139.001C745.344 145.328 746.689 150.804 749.383 155.428C752.074 160.049 755.777 163.583 760.492 166.013C765.204 168.448 770.541 169.661 776.504 169.661C786.988 169.661 795.981 166.258 803.482 159.443L810.409 168.496H828.442L812.712 147.766Z" fill="#0B0B0B"/>
<path d="M97.6837 147.51C101.891 140.225 104.03 131.635 104.03 121.986C104.03 109.913 100.806 100.257 94.4559 93.2863C87.9307 86.1346 78.5871 79.6933 66.6883 74.1436C58.9422 70.7139 52.7241 67.6468 48.2277 65.0422C43.534 62.3339 39.5385 58.9745 36.3508 55.0639C33.006 50.9682 31.3098 46.177 31.3098 40.8345C31.3098 35.3847 33.3898 30.6638 37.4914 26.779C41.5563 22.935 46.6412 20.9815 52.6071 20.9815C64.1221 20.9815 72.5299 26.7901 77.633 38.2595L95.5489 26.6495C87.3568 8.72039 73.2975 0 52.6034 0C44.3346 0 36.848 1.83879 30.3521 5.46828C23.8927 9.08667 18.764 14.1184 15.1121 20.4265C11.4638 26.7383 9.61411 33.9307 9.61411 41.8038C9.61411 52.7848 12.491 61.8123 18.1608 68.6236C23.9768 75.6088 31.9824 81.706 41.9585 86.7562L46.2903 88.9465C54.1753 92.8571 60.4227 96.2054 64.8459 98.8952C69.4482 101.689 73.3158 105.048 76.3499 108.877C79.5229 112.895 81.1314 117.712 81.1314 123.203C81.1314 131.738 78.6346 138.32 73.7106 142.778C68.8487 147.166 62.4771 149.394 54.7712 149.394C44.8866 149.394 36.7968 145.834 30.7249 138.82C25.3293 132.593 21.1803 124.487 18.3728 114.704L0 126.144C1.78026 134.051 5.04467 141.339 9.7055 147.829C14.6295 154.684 20.9975 160.215 28.634 164.274C36.2448 168.322 44.7988 170.375 54.0547 170.375C63.6396 170.375 72.3581 168.362 79.9726 164.392C87.525 160.445 93.4872 154.766 97.6837 147.51Z" fill="#0B0B0B"/>
<path d="M340.907 147.449H280.466V89.9505H340.907V69.2132H280.466V22.9289H340.907V1.95117H257.812V168.427H340.907V147.449Z" fill="#0B0B0B"/>
<path d="M369.344 22.9289H399.564V168.427H422.218V22.9289H452.442V1.95117H369.344V22.9289Z" fill="#0B0B0B"/>
<path d="M632.599 1.95117H609.945V168.427H632.599V89.9505H691.559V168.427H713.975V1.95117H691.559V68.9727H632.599V1.95117Z" fill="#0B0B0B"/>
<path d="M581.508 135.449C573.55 142.527 561.994 149.397 542.996 149.397C533.031 149.397 523.966 146.963 516.062 142.157C508.122 137.34 501.743 129.996 497.097 120.335C492.488 110.753 490.148 98.9248 490.148 85.1875C490.148 71.4539 492.488 59.6294 497.097 50.047C501.743 40.3794 508.126 33.0391 516.062 28.2182C523.966 23.4159 533.031 20.9778 542.996 20.9778C564.308 20.9778 574.083 27.7299 581.508 34.7854V9.99681C570.874 3.3668 557.929 0 542.996 0C529.442 0 516.728 3.27431 505.213 9.73413C493.73 16.1755 484.398 25.9059 477.478 38.6553C470.536 51.4418 467.016 67.0956 467.016 85.1838C467.016 103.276 470.536 118.93 477.478 131.716C484.398 144.477 493.734 154.203 505.213 160.637C516.72 167.101 529.434 170.371 542.996 170.371C557.937 170.371 570.881 167.008 581.508 160.375V135.449Z" fill="#0B0B0B"/>
<path d="M168.197 76.0763L234.886 1.95117H207.399L153.97 61.0182V59.1239V1.95117H131.316V168.427H153.97V94.9526V92.7179L212.079 168.427H240.577L168.197 76.0763Z" fill="#0B0B0B"/>
</g>
<defs>
<clipPath id="clip0_2315_12365">
<rect width="1316" height="170.375" fill="white"/>
</clipPath>
</defs>
</svg>
