<svg width="1196" height="288" viewBox="0 0 1196 288" fill="none" xmlns="http://www.w3.org/2000/svg">
<path fill-rule="evenodd" clip-rule="evenodd" d="M155.47 189.825C104.17 189.825 62.5633 149.712 62.5633 100.311C62.57 96.4093 62.8321 92.5126 63.3479 88.6455C44.8011 95.2941 28.7626 107.498 17.4243 123.59C6.08595 139.682 0.000640056 158.877 0 178.552V273.997H95.6241C120.191 273.996 143.815 264.552 161.594 247.624C179.373 230.697 189.942 207.584 191.108 183.084C179.769 187.583 167.671 189.872 155.47 189.825Z" fill="#FF8643"/>
<path fill-rule="evenodd" clip-rule="evenodd" d="M155.333 191.875C103.631 191.875 61.7267 151.383 61.7267 101.516C61.724 97.5783 61.6591 92.9661 62.1696 89.0619C76.2789 84.0235 91.6873 83.0197 106.56 84.8263C121.433 86.633 135.68 91.8793 148.173 100.149C160.665 108.419 171.06 119.486 178.532 132.471C186.005 145.457 190.977 159.688 191.85 174.644C191.85 176.451 191.91 178.332 191.91 180.308C191.91 182.285 191.91 183.35 191.91 184.846C180.489 189.368 167.616 191.958 155.333 191.875Z" fill="white"/>
<path fill-rule="evenodd" clip-rule="evenodd" d="M62.1671 102.382C62.1595 98.4761 61.6351 92.9405 62.1669 89.0708C76.4184 84.0007 92.4589 83.9922 107.469 85.9112C122.479 87.8302 136.821 93.2564 149.325 101.747C161.829 110.238 172.141 121.553 179.419 134.768C186.698 147.984 190.612 162.769 191.081 177.835C191.081 178.815 191.081 179.767 191.081 180.635C191.081 182.148 190.982 183.716 190.982 185.2C208.681 179.199 220.585 169.173 231.543 154.085C242.501 138.996 248.485 120.891 248.67 102.27C248.67 52.7337 206.922 12.6621 155.447 12.6621C108.076 12.6621 68.0988 45.0509 62.1669 89.0708C61.615 92.9484 62.1769 98.4654 62.1671 102.382Z" fill="#99E8D3"/>
<path d="M461.788 54.0199V11.6641H346.241C340.563 11.6604 334.939 12.776 329.693 14.9473C324.446 17.1185 319.679 20.3026 315.664 24.3177C311.648 28.3329 308.464 33.1 306.293 38.3467C304.122 43.5934 303.006 49.2168 303.01 54.8951V282.769H347.54V172.644H457.919V130.034H347.54V53.7938L461.788 54.0199Z" fill="white"/>
<path d="M524.927 52.2664C522.523 54.7583 519.634 56.7326 516.439 58.0679C513.244 59.4032 509.81 60.0714 506.347 60.0316C502.832 60.0653 499.345 59.4 496.09 58.0737C492.834 56.7475 489.875 54.7872 487.384 52.3067C484.893 49.8262 482.92 46.8749 481.58 43.6249C480.24 40.375 479.56 36.8911 479.579 33.3758C479.804 26.4379 482.719 19.8594 487.706 15.0313C492.694 10.2032 499.363 7.50391 506.305 7.50391C513.247 7.50391 519.916 10.2032 524.904 15.0313C529.891 19.8594 532.806 26.4379 533.032 33.3758C533.035 36.91 532.318 40.408 530.925 43.6559C529.532 46.9039 527.491 49.8335 524.927 52.2664ZM485.395 282.711V89.0595H527.215V282.711H485.395Z" fill="white"/>
<path d="M674.193 129.381H626.19V222.31C626.19 230.329 627.997 236.146 631.612 239.76C636.101 243.437 641.707 245.478 647.509 245.549C654.738 245.831 663.632 245.549 674.221 245.182V282.737C642.219 286.615 619.244 283.905 605.295 274.605C591.345 265.306 584.371 247.874 584.371 222.31V129.381H548.707V89.0864H584.342V47.2673L626.162 34.8711V89.0864H674.165L674.193 129.381Z" fill="white"/>
<path d="M737.272 203.702C739.705 217.385 747.334 229.597 758.563 237.785C770.574 245.802 784.789 249.869 799.224 249.418C821.437 249.418 838.088 241.408 849.176 225.388L883.653 245.522C864.565 273.759 836.328 287.83 798.942 287.736C767.466 287.736 742.053 278.183 722.701 259.076C703.349 239.968 693.617 215.562 693.504 185.856C693.504 156.941 703.057 132.799 722.165 113.428C741.272 94.0571 765.8 84.2496 795.751 84.0049C824.157 84.0049 847.397 93.9442 865.469 113.823C883.54 133.702 892.699 157.845 892.943 186.252C892.825 192.088 892.306 197.909 891.39 203.674L737.272 203.702ZM736.876 169.62H850.728C847.905 153.864 841.316 141.985 830.962 133.985C820.837 125.969 808.238 121.726 795.327 121.984C781.301 121.489 767.56 126.026 756.586 134.775C746.059 143.659 739.067 156.021 736.876 169.62Z" fill="white"/>
<path d="M920.084 282.711V0H961.903V282.711H920.084Z" fill="white"/>
<path d="M1092.33 287.736C1078.89 287.991 1065.54 285.514 1053.09 280.456C1040.64 275.399 1029.35 267.866 1019.9 258.313C1000.8 239.048 990.078 213.016 990.078 185.885C990.078 158.754 1000.8 132.722 1019.9 113.456C1039.29 94.5896 1065.27 84.0332 1092.33 84.0332C1119.38 84.0332 1145.37 94.5896 1164.76 113.456C1179.17 127.703 1189 145.924 1193 165.79C1197 185.656 1194.98 206.263 1187.2 224.976C1179.43 243.688 1166.24 259.655 1149.34 270.835C1132.44 282.016 1112.59 287.9 1092.33 287.736ZM1049.35 229.653C1060.87 240.826 1076.29 247.074 1092.34 247.074C1108.39 247.074 1123.81 240.826 1135.33 229.653C1146.52 217.828 1152.76 202.166 1152.76 185.885C1152.76 169.604 1146.52 153.942 1135.33 142.117C1123.81 130.944 1108.39 124.696 1092.34 124.696C1076.29 124.696 1060.87 130.944 1049.35 142.117C1038.15 153.936 1031.9 169.6 1031.9 185.885C1031.9 202.17 1038.15 217.834 1049.35 229.653Z" fill="white"/>
</svg>
