<svg width="323" height="111" viewBox="0 0 323 111" fill="none" xmlns="http://www.w3.org/2000/svg">
<path opacity="0.4" d="M205.649 13.914C242.718 17.9784 283.564 28.9487 307.202 45.8063C329.713 61.8144 329.081 82.9832 299.389 96.5571C270.642 109.674 227.643 111.09 192.882 110.996C156.313 110.88 119.138 108.307 84.6405 101.786C54.6054 96.1196 20.1241 87.1058 5.36468 70.2248C-4.80589 58.5278 0.384572 45.4057 13.3838 34.861C47.0263 7.59142 116.772 -3.50569 171.681 0.958836C209.204 3.99811 241.756 15.5656 264.349 32.3903C266.491 33.9871 261.766 35.6665 259.75 34.0927C215.548 1.21763 137.334 -4.26331 71.8923 12.6157C46.8436 19.088 21.987 29.5969 10.315 44.1296C-1.50455 58.8512 10.1574 72.9464 30.2989 82.512C59.7631 96.4977 100.722 102.595 138.383 105.587C177.687 108.736 219.822 109.658 258.877 103.903C276.446 101.316 293.696 96.7836 305.844 88.8599C320.414 79.3111 321.311 66.3244 311.912 55.5485C293.669 34.5186 245.002 21.7551 206.134 17.1589L204.318 16.9533C200.843 16.5819 202.174 13.5338 205.649 13.914Z" fill="white"/>
</svg>
