<svg width="244" height="84" viewBox="0 0 244 84" fill="none" xmlns="http://www.w3.org/2000/svg">
<path opacity="0.4" d="M155.084 10.4929C183.039 13.5579 213.841 21.8308 231.668 34.5435C248.643 46.6155 248.167 62.5794 225.775 72.8157C204.097 82.7071 171.671 83.7756 145.456 83.7042C117.879 83.6172 89.844 81.6766 63.8292 76.7588C41.1791 72.4858 15.176 65.6883 4.04561 52.958C-3.62422 44.137 0.290013 34.2414 10.093 26.2894C35.4635 5.72485 88.0601 -2.64371 129.468 0.723078C157.765 3.01505 182.313 11.7384 199.351 24.4262C200.966 25.6303 197.403 26.8968 195.883 25.71C162.549 0.918236 103.567 -3.21505 54.2154 9.51373C35.3257 14.3947 16.5809 22.3196 7.77876 33.279C-1.13461 44.3809 7.65993 55.0104 22.849 62.224C45.0686 72.7709 75.9569 77.3691 104.358 79.6251C133.998 81.9997 165.773 82.6955 195.224 78.3551C208.474 76.4046 221.483 72.9865 230.644 67.0111C241.631 59.8101 242.307 50.0166 235.22 41.8902C221.462 26.0312 184.761 16.406 155.45 12.9399L154.08 12.7849C151.46 12.5048 152.464 10.2061 155.084 10.4929Z" fill="white"/>
</svg>
