<svg width="148" height="145" viewBox="0 0 148 145" fill="none" xmlns="http://www.w3.org/2000/svg">
<path d="M95.9375 3.21875H41.2188V99.7812H115.25V22.5312H95.9375V3.21875Z" fill="#E95027"/>
<path d="M102.375 3.21875H99.1562V19.3125H115.25V16.0938H112.031V12.875H108.812V9.65625H105.594V6.4375H102.375V3.21875Z" fill="#E95027"/>
<rect x="52.8867" y="44.2578" width="49.8906" height="4.82812" fill="black"/>
<rect x="52.8867" y="54.7188" width="49.8906" height="4.82812" fill="black"/>
<rect x="52.8867" y="65.1797" width="30.5781" height="4.82812" fill="black"/>
<path fill-rule="evenodd" clip-rule="evenodd" d="M38 0H102.375V3.21875H99.1562V19.3125H115.25V16.0938H118.469V83.6875H128.125V86.9062H134.562V90.125H141V103H38V0ZM115.25 22.5312H95.9375V3.21875H41.2188V99.7812H115.25V22.5312Z" fill="black"/>
<path d="M112.031 12.875H115.25V16.0938H112.031V12.875Z" fill="black"/>
<path d="M108.812 9.65625H112.031V12.875H108.812V9.65625Z" fill="black"/>
<path d="M105.594 6.4375H108.812V9.65625H105.594V6.4375Z" fill="black"/>
<path d="M105.594 6.4375V3.21875H102.375V6.4375H105.594Z" fill="black"/>
<path d="M9.48213 124.136H8.82613L13.9301 114.616H15.4661V125H13.9301V117.032L14.2661 117.112L9.96213 125H8.34613L4.04213 117.128L4.37813 117.048V125H2.84213V114.616H4.37813L9.48213 124.136ZM19.5344 120.504V123.624H26.2224V125H17.9984V114.616H26.2064V115.992H19.5344V119.16H24.9904V120.504H19.5344ZM27.7475 121.592H29.2195C29.2515 122.008 29.3902 122.387 29.6355 122.728C29.8915 123.059 30.2328 123.32 30.6595 123.512C31.0968 123.704 31.6035 123.8 32.1795 123.8C32.6808 123.8 33.0968 123.731 33.4275 123.592C33.7582 123.453 34.0035 123.267 34.1635 123.032C34.3342 122.787 34.4195 122.499 34.4195 122.168C34.4195 121.837 34.3288 121.576 34.1475 121.384C33.9662 121.181 33.6942 121.016 33.3315 120.888C32.9688 120.749 32.5208 120.616 31.9875 120.488C31.5182 120.371 31.0542 120.232 30.5955 120.072C30.1475 119.901 29.7315 119.693 29.3475 119.448C28.9742 119.203 28.6702 118.909 28.4355 118.568C28.2115 118.216 28.0995 117.795 28.0995 117.304C28.0995 116.781 28.2435 116.307 28.5315 115.88C28.8195 115.443 29.2408 115.096 29.7955 114.84C30.3608 114.573 31.0435 114.44 31.8435 114.44C33.0808 114.44 34.0142 114.749 34.6435 115.368C35.2835 115.987 35.5928 116.813 35.5715 117.848H34.1315C34.0995 117.123 33.8702 116.605 33.4435 116.296C33.0168 115.976 32.4622 115.816 31.7795 115.816C31.1928 115.816 30.6915 115.939 30.2755 116.184C29.8595 116.419 29.6515 116.792 29.6515 117.304C29.6515 117.528 29.6995 117.725 29.7955 117.896C29.8915 118.056 30.0515 118.205 30.2755 118.344C30.4995 118.483 30.7982 118.616 31.1715 118.744C31.5555 118.872 32.0302 119.011 32.5955 119.16C33.0222 119.256 33.4328 119.379 33.8275 119.528C34.2328 119.677 34.5955 119.864 34.9155 120.088C35.2355 120.312 35.4862 120.6 35.6675 120.952C35.8595 121.304 35.9555 121.736 35.9555 122.248C35.9555 122.792 35.8222 123.288 35.5555 123.736C35.2888 124.173 34.8728 124.525 34.3075 124.792C33.7528 125.048 33.0328 125.176 32.1475 125.176C31.4435 125.176 30.8302 125.085 30.3075 124.904C29.7955 124.723 29.3635 124.488 29.0115 124.2C28.6702 123.912 28.3982 123.603 28.1955 123.272C28.0035 122.941 27.8702 122.627 27.7955 122.328C27.7315 122.029 27.7155 121.784 27.7475 121.592ZM37.1538 121.592H38.6258C38.6578 122.008 38.7964 122.387 39.0418 122.728C39.2978 123.059 39.6391 123.32 40.0658 123.512C40.5031 123.704 41.0098 123.8 41.5858 123.8C42.0871 123.8 42.5031 123.731 42.8338 123.592C43.1644 123.453 43.4098 123.267 43.5698 123.032C43.7404 122.787 43.8258 122.499 43.8258 122.168C43.8258 121.837 43.7351 121.576 43.5538 121.384C43.3724 121.181 43.1004 121.016 42.7378 120.888C42.3751 120.749 41.9271 120.616 41.3938 120.488C40.9244 120.371 40.4604 120.232 40.0018 120.072C39.5538 119.901 39.1378 119.693 38.7538 119.448C38.3804 119.203 38.0764 118.909 37.8418 118.568C37.6178 118.216 37.5058 117.795 37.5058 117.304C37.5058 116.781 37.6498 116.307 37.9378 115.88C38.2258 115.443 38.6471 115.096 39.2018 114.84C39.7671 114.573 40.4498 114.44 41.2498 114.44C42.4871 114.44 43.4204 114.749 44.0498 115.368C44.6898 115.987 44.9991 116.813 44.9778 117.848H43.5378C43.5058 117.123 43.2764 116.605 42.8498 116.296C42.4231 115.976 41.8684 115.816 41.1858 115.816C40.5991 115.816 40.0978 115.939 39.6818 116.184C39.2658 116.419 39.0578 116.792 39.0578 117.304C39.0578 117.528 39.1058 117.725 39.2018 117.896C39.2978 118.056 39.4578 118.205 39.6818 118.344C39.9058 118.483 40.2044 118.616 40.5778 118.744C40.9618 118.872 41.4364 119.011 42.0018 119.16C42.4284 119.256 42.8391 119.379 43.2338 119.528C43.6391 119.677 44.0018 119.864 44.3218 120.088C44.6418 120.312 44.8924 120.6 45.0738 120.952C45.2658 121.304 45.3618 121.736 45.3618 122.248C45.3618 122.792 45.2284 123.288 44.9618 123.736C44.6951 124.173 44.2791 124.525 43.7138 124.792C43.1591 125.048 42.4391 125.176 41.5538 125.176C40.8498 125.176 40.2364 125.085 39.7138 124.904C39.2018 124.723 38.7698 124.488 38.4178 124.2C38.0764 123.912 37.8044 123.603 37.6018 123.272C37.4098 122.941 37.2764 122.627 37.2018 122.328C37.1378 122.029 37.1218 121.784 37.1538 121.592ZM55.7768 114.616L51.8248 121.528V125H50.2888V121.528L46.3368 114.616H48.0968L51.4568 120.68H50.7208L54.0168 114.616H55.7768ZM56.2008 126.856H66.6648V128.2H56.2008V126.856ZM75.7946 124.136H75.1386L80.2426 114.616H81.7786V125H80.2426V117.032L80.5786 117.112L76.2746 125H74.6586L70.3546 117.128L70.6906 117.048V125H69.1546V114.616H70.6906L75.7946 124.136ZM89.4149 125.176C88.3375 125.176 87.3775 124.957 86.5349 124.52C85.7029 124.083 85.0469 123.464 84.5669 122.664C84.0975 121.864 83.8629 120.915 83.8629 119.816C83.8629 118.707 84.0975 117.752 84.5669 116.952C85.0469 116.152 85.7029 115.533 86.5349 115.096C87.3775 114.659 88.3375 114.44 89.4149 114.44C90.5029 114.44 91.4629 114.659 92.2949 115.096C93.1269 115.533 93.7829 116.152 94.2629 116.952C94.7429 117.752 94.9829 118.707 94.9829 119.816C94.9829 120.915 94.7429 121.864 94.2629 122.664C93.7829 123.464 93.1269 124.083 92.2949 124.52C91.4629 124.957 90.5029 125.176 89.4149 125.176ZM89.4149 123.784C90.1829 123.784 90.8655 123.635 91.4629 123.336C92.0602 123.037 92.5349 122.595 92.8869 122.008C93.2389 121.421 93.4149 120.691 93.4149 119.816C93.4149 118.941 93.2389 118.211 92.8869 117.624C92.5349 117.037 92.0602 116.595 91.4629 116.296C90.8655 115.987 90.1829 115.832 89.4149 115.832C88.6682 115.832 87.9909 115.987 87.3829 116.296C86.7749 116.595 86.2949 117.037 85.9429 117.624C85.5909 118.211 85.4149 118.941 85.4149 119.816C85.4149 120.691 85.5909 121.421 85.9429 122.008C86.2949 122.595 86.7749 123.037 87.3829 123.336C87.9909 123.635 88.6682 123.784 89.4149 123.784ZM102.165 125.176C101.088 125.176 100.128 124.957 99.2849 124.52C98.4529 124.083 97.7969 123.464 97.3169 122.664C96.8475 121.864 96.6129 120.915 96.6129 119.816C96.6129 118.707 96.8475 117.752 97.3169 116.952C97.7969 116.152 98.4529 115.533 99.2849 115.096C100.128 114.659 101.088 114.44 102.165 114.44C103.253 114.44 104.213 114.659 105.045 115.096C105.877 115.533 106.533 116.152 107.013 116.952C107.493 117.752 107.733 118.707 107.733 119.816C107.733 120.915 107.493 121.864 107.013 122.664C106.533 123.464 105.877 124.083 105.045 124.52C104.213 124.957 103.253 125.176 102.165 125.176ZM102.165 123.784C102.933 123.784 103.616 123.635 104.213 123.336C104.81 123.037 105.285 122.595 105.637 122.008C105.989 121.421 106.165 120.691 106.165 119.816C106.165 118.941 105.989 118.211 105.637 117.624C105.285 117.037 104.81 116.595 104.213 116.296C103.616 115.987 102.933 115.832 102.165 115.832C101.418 115.832 100.741 115.987 100.133 116.296C99.5249 116.595 99.0449 117.037 98.6929 117.624C98.3409 118.211 98.1649 118.941 98.1649 119.816C98.1649 120.691 98.3409 121.421 98.6929 122.008C99.0449 122.595 99.5249 123.037 100.133 123.336C100.741 123.635 101.418 123.784 102.165 123.784ZM113.971 114.616C115.048 114.616 115.95 114.755 116.675 115.032C117.411 115.299 117.998 115.672 118.435 116.152C118.883 116.632 119.203 117.181 119.395 117.8C119.587 118.419 119.683 119.075 119.683 119.768C119.683 120.451 119.576 121.107 119.363 121.736C119.16 122.365 118.83 122.925 118.371 123.416C117.923 123.907 117.336 124.296 116.611 124.584C115.886 124.861 115.006 125 113.971 125H109.811V114.616H113.971ZM111.347 123.608H113.955C114.776 123.608 115.454 123.501 115.987 123.288C116.52 123.064 116.942 122.771 117.251 122.408C117.571 122.035 117.795 121.619 117.923 121.16C118.062 120.701 118.131 120.237 118.131 119.768C118.131 119.288 118.062 118.824 117.923 118.376C117.795 117.928 117.571 117.528 117.251 117.176C116.942 116.813 116.52 116.531 115.987 116.328C115.454 116.115 114.776 116.008 113.955 116.008H111.347V123.608ZM121.764 125V114.616H126.436C127.609 114.616 128.516 114.856 129.156 115.336C129.796 115.816 130.116 116.504 130.116 117.4C130.116 117.955 129.993 118.403 129.748 118.744C129.513 119.085 129.177 119.341 128.74 119.512C128.303 119.672 127.791 119.779 127.204 119.832L127.236 119.72C127.673 119.741 128.084 119.789 128.468 119.864C128.863 119.939 129.204 120.061 129.492 120.232C129.791 120.403 130.025 120.637 130.196 120.936C130.377 121.235 130.468 121.624 130.468 122.104C130.468 122.733 130.319 123.261 130.02 123.688C129.721 124.104 129.305 124.419 128.772 124.632C128.249 124.845 127.641 124.968 126.948 125H121.764ZM123.3 123.624H126.66C127.364 123.624 127.913 123.496 128.308 123.24C128.703 122.984 128.9 122.579 128.9 122.024C128.9 121.597 128.777 121.277 128.532 121.064C128.287 120.851 127.967 120.712 127.572 120.648C127.188 120.584 126.788 120.552 126.372 120.552H123.3V123.624ZM123.3 119.192H126.308C127.012 119.192 127.561 119.053 127.956 118.776C128.351 118.488 128.548 118.072 128.548 117.528C128.548 116.973 128.351 116.579 127.956 116.344C127.561 116.109 127.06 115.992 126.452 115.992H123.3V119.192ZM137.524 125.176C136.447 125.176 135.487 124.957 134.644 124.52C133.812 124.083 133.156 123.464 132.676 122.664C132.207 121.864 131.972 120.915 131.972 119.816C131.972 118.707 132.207 117.752 132.676 116.952C133.156 116.152 133.812 115.533 134.644 115.096C135.487 114.659 136.447 114.44 137.524 114.44C138.612 114.44 139.572 114.659 140.404 115.096C141.236 115.533 141.892 116.152 142.372 116.952C142.852 117.752 143.092 118.707 143.092 119.816C143.092 120.915 142.852 121.864 142.372 122.664C141.892 123.464 141.236 124.083 140.404 124.52C139.572 124.957 138.612 125.176 137.524 125.176ZM137.524 123.784C138.292 123.784 138.975 123.635 139.572 123.336C140.17 123.037 140.644 122.595 140.996 122.008C141.348 121.421 141.524 120.691 141.524 119.816C141.524 118.941 141.348 118.211 140.996 117.624C140.644 117.037 140.17 116.595 139.572 116.296C138.975 115.987 138.292 115.832 137.524 115.832C136.778 115.832 136.1 115.987 135.492 116.296C134.884 116.595 134.404 117.037 134.052 117.624C133.7 118.211 133.524 118.941 133.524 119.816C133.524 120.691 133.7 121.421 134.052 122.008C134.404 122.595 134.884 123.037 135.492 123.336C136.1 123.635 136.778 123.784 137.524 123.784ZM146.091 122.424V121.048H151.659V122.424H146.091ZM143.835 125L148.075 114.616H149.707L153.979 125H152.315L148.603 115.624H149.179L145.483 125H143.835ZM155.545 125V114.616H160.889C161.636 114.616 162.276 114.728 162.809 114.952C163.353 115.165 163.769 115.496 164.057 115.944C164.345 116.381 164.489 116.941 164.489 117.624C164.489 118.093 164.409 118.493 164.249 118.824C164.1 119.144 163.892 119.411 163.625 119.624C163.359 119.837 163.044 120.003 162.681 120.12C162.319 120.237 161.929 120.312 161.513 120.344L161.401 120.248C162.031 120.269 162.559 120.339 162.985 120.456C163.412 120.573 163.737 120.787 163.961 121.096C164.196 121.395 164.313 121.843 164.313 122.44V125H162.761V122.488C162.761 122.072 162.692 121.747 162.553 121.512C162.415 121.277 162.175 121.112 161.833 121.016C161.492 120.92 161.012 120.872 160.393 120.872H157.081V125H155.545ZM157.081 119.528H160.889C161.572 119.528 162.084 119.357 162.425 119.016C162.777 118.675 162.953 118.227 162.953 117.672C162.953 117.139 162.777 116.728 162.425 116.44C162.084 116.152 161.572 116.008 160.889 116.008H157.081V119.528ZM170.893 114.616C171.97 114.616 172.871 114.755 173.597 115.032C174.333 115.299 174.919 115.672 175.357 116.152C175.805 116.632 176.125 117.181 176.317 117.8C176.509 118.419 176.605 119.075 176.605 119.768C176.605 120.451 176.498 121.107 176.285 121.736C176.082 122.365 175.751 122.925 175.293 123.416C174.845 123.907 174.258 124.296 173.533 124.584C172.807 124.861 171.927 125 170.893 125H166.733V114.616H170.893ZM168.269 123.608H170.877C171.698 123.608 172.375 123.501 172.909 123.288C173.442 123.064 173.863 122.771 174.173 122.408C174.493 122.035 174.717 121.619 174.845 121.16C174.983 120.701 175.053 120.237 175.053 119.768C175.053 119.288 174.983 118.824 174.845 118.376C174.717 117.928 174.493 117.528 174.173 117.176C173.863 116.813 173.442 116.531 172.909 116.328C172.375 116.115 171.698 116.008 170.877 116.008H168.269V123.608ZM65.3278 136.592L65.3438 136.512C65.8131 136.544 66.2451 136.608 66.6398 136.704C67.0451 136.8 67.3971 136.949 67.6958 137.152C67.9945 137.355 68.2238 137.621 68.3838 137.952C68.5438 138.272 68.6238 138.672 68.6238 139.152C68.6238 139.717 68.4745 140.229 68.1758 140.688C67.8878 141.147 67.4771 141.509 66.9438 141.776C66.4105 142.043 65.7865 142.176 65.0718 142.176C64.3785 142.176 63.7598 142.037 63.2158 141.76C62.6825 141.483 62.2665 141.115 61.9678 140.656C61.6798 140.187 61.5625 139.659 61.6158 139.072H63.0078C63.0078 139.403 63.0985 139.701 63.2798 139.968C63.4718 140.235 63.7225 140.443 64.0318 140.592C64.3518 140.731 64.6985 140.8 65.0718 140.8C65.6905 140.8 66.1758 140.645 66.5278 140.336C66.8798 140.016 67.0558 139.579 67.0558 139.024C67.0558 138.469 66.8585 138.032 66.4638 137.712C66.0691 137.381 65.5251 137.216 64.8318 137.216H63.7758V136.048H64.8318C65.3011 136.048 65.6851 135.979 65.9838 135.84C66.2931 135.701 66.5225 135.509 66.6718 135.264C66.8211 135.008 66.8958 134.709 66.8958 134.368C66.8958 133.899 66.7251 133.525 66.3838 133.248C66.0425 132.96 65.5945 132.816 65.0398 132.816C64.5065 132.816 64.0585 132.96 63.6958 133.248C63.3331 133.536 63.1465 133.915 63.1358 134.384H61.7438C61.7011 133.957 61.7598 133.568 61.9198 133.216C62.0798 132.853 62.3145 132.539 62.6238 132.272C62.9438 132.005 63.3065 131.803 63.7118 131.664C64.1278 131.515 64.5705 131.44 65.0398 131.44C65.7331 131.44 66.3358 131.563 66.8478 131.808C67.3705 132.053 67.7705 132.389 68.0478 132.816C68.3251 133.232 68.4638 133.712 68.4638 134.256C68.4638 134.704 68.3838 135.077 68.2238 135.376C68.0745 135.675 67.8558 135.909 67.5678 136.08C67.2905 136.251 66.9598 136.373 66.5758 136.448C66.1918 136.523 65.7758 136.571 65.3278 136.592ZM73.1309 139.136L71.0829 141.088L70.9069 140.624H76.7949V142H69.9149V140.624C70.6829 139.856 71.3443 139.195 71.8989 138.64C72.4536 138.075 72.9176 137.595 73.2909 137.2C73.6749 136.795 73.9789 136.453 74.2029 136.176C74.4269 135.888 74.5976 135.643 74.7149 135.44C74.8323 135.237 74.9123 135.051 74.9549 134.88C74.9976 134.709 75.0189 134.539 75.0189 134.368C75.0189 134.059 74.9443 133.787 74.7949 133.552C74.6563 133.317 74.4483 133.136 74.1709 133.008C73.9043 132.88 73.5843 132.816 73.2109 132.816C72.6776 132.816 72.2243 132.96 71.8509 133.248C71.4776 133.536 71.2856 133.915 71.2749 134.384H69.8829C69.8296 133.829 69.9469 133.333 70.2349 132.896C70.5229 132.448 70.9229 132.096 71.4349 131.84C71.9576 131.573 72.5443 131.44 73.1949 131.44C73.6963 131.44 74.1549 131.509 74.5709 131.648C74.9869 131.787 75.3443 131.984 75.6429 132.24C75.9416 132.496 76.1656 132.8 76.3149 133.152C76.4749 133.504 76.5549 133.893 76.5549 134.32C76.5549 134.736 76.4536 135.157 76.2509 135.584C76.0589 136 75.7923 136.411 75.4509 136.816C75.1203 137.221 74.7523 137.621 74.3469 138.016C73.9416 138.4 73.5363 138.773 73.1309 139.136ZM78.4562 132.976V131.616H81.9762V142H80.4562V132.976H78.4562ZM86.3729 140.352V142H84.4689V140.352H86.3729ZM100.37 131.616V132.992H93.6984V136.224H99.1544V137.568H93.6984V142H92.1624V131.616H100.37ZM102.389 131.616H103.925V142H102.389V131.616ZM111.668 142.176C110.846 142.176 110.105 142.053 109.444 141.808C108.793 141.563 108.233 141.211 107.764 140.752C107.294 140.293 106.937 139.739 106.692 139.088C106.446 138.427 106.324 137.696 106.324 136.896C106.324 136.075 106.457 135.333 106.724 134.672C106.99 134 107.369 133.424 107.86 132.944C108.35 132.453 108.932 132.08 109.604 131.824C110.276 131.568 111.017 131.44 111.828 131.44C112.734 131.44 113.529 131.595 114.212 131.904C114.905 132.213 115.46 132.651 115.876 133.216C116.292 133.771 116.537 134.432 116.612 135.2H115.22C115.081 134.709 114.857 134.288 114.548 133.936C114.238 133.584 113.854 133.312 113.396 133.12C112.937 132.928 112.414 132.832 111.828 132.832C111.028 132.832 110.334 133.008 109.748 133.36C109.161 133.701 108.702 134.181 108.372 134.8C108.041 135.408 107.876 136.107 107.876 136.896C107.876 137.675 108.02 138.357 108.308 138.944C108.606 139.52 109.038 139.973 109.604 140.304C110.18 140.624 110.873 140.784 111.684 140.784C112.313 140.784 112.862 140.677 113.332 140.464C113.812 140.24 114.201 139.931 114.5 139.536C114.809 139.131 115.022 138.645 115.14 138.08L115.94 137.984C115.78 139.36 115.321 140.405 114.564 141.12C113.806 141.824 112.841 142.176 111.668 142.176ZM115.588 142C115.588 141.659 115.598 141.269 115.62 140.832C115.652 140.384 115.684 139.936 115.716 139.488C115.758 139.029 115.796 138.619 115.828 138.256H111.94V137.008H117.012V142H115.588Z" fill="black" fill-opacity="0.5"/>
</svg>
