<svg width="255" height="145" viewBox="0 0 255 145" fill="none" xmlns="http://www.w3.org/2000/svg">
<path d="M133.938 3.21875H79.2188V99.7812H153.25V22.5312H133.938V3.21875Z" fill="#E95027"/>
<path d="M140.375 3.21875H137.156V19.3125H153.25V16.0938H150.031V12.875H146.812V9.65625H143.594V6.4375H140.375V3.21875Z" fill="#E95027"/>
<rect x="90.8867" y="44.2578" width="49.8906" height="4.82812" fill="black"/>
<rect x="90.8867" y="54.7188" width="49.8906" height="4.82812" fill="black"/>
<rect x="90.8867" y="65.1797" width="30.5781" height="4.82812" fill="black"/>
<path fill-rule="evenodd" clip-rule="evenodd" d="M76 0H140.375V3.21875H137.156V19.3125H153.25V16.0938H156.469V83.6875H166.125V86.9062H172.562V90.125H179V103H76V0ZM153.25 22.5312H133.938V3.21875H79.2188V99.7812H153.25V22.5312Z" fill="black"/>
<path d="M150.031 12.875H153.25V16.0938H150.031V12.875Z" fill="black"/>
<path d="M146.812 9.65625H150.031V12.875H146.812V9.65625Z" fill="black"/>
<path d="M143.594 6.4375H146.812V9.65625H143.594V6.4375Z" fill="black"/>
<path d="M143.594 6.4375V3.21875H140.375V6.4375H143.594Z" fill="black"/>
<path d="M41.2009 124.136H40.5449L45.6489 114.616H47.1849V125H45.6489V117.032L45.9849 117.112L41.6809 125H40.0649L35.7609 117.128L36.0969 117.048V125H34.5609V114.616H36.0969L41.2009 124.136ZM51.0131 122.424V121.048H56.5811V122.424H51.0131ZM48.7571 125L52.9971 114.616H54.6291L58.9011 125H57.2371L53.5251 115.624H54.1011L50.4051 125H48.7571ZM67.8861 114.616L63.9341 121.528V125H62.3981V121.528L58.4461 114.616H60.2061L63.5661 120.68H62.8301L66.1261 114.616H67.8861ZM68.3101 126.856H78.7741V128.2H68.3101V126.856ZM85.5711 125.176C84.4938 125.176 83.5338 124.957 82.6911 124.52C81.8591 124.083 81.2031 123.464 80.7231 122.664C80.2538 121.864 80.0191 120.915 80.0191 119.816C80.0191 118.707 80.2538 117.752 80.7231 116.952C81.2031 116.152 81.8591 115.533 82.6911 115.096C83.5338 114.659 84.4938 114.44 85.5711 114.44C86.6591 114.44 87.6191 114.659 88.4511 115.096C89.2831 115.533 89.9391 116.152 90.4191 116.952C90.8991 117.752 91.1391 118.707 91.1391 119.816C91.1391 120.915 90.8991 121.864 90.4191 122.664C89.9391 123.464 89.2831 124.083 88.4511 124.52C87.6191 124.957 86.6591 125.176 85.5711 125.176ZM85.5711 123.784C86.3391 123.784 87.0218 123.635 87.6191 123.336C88.2165 123.037 88.6911 122.595 89.0431 122.008C89.3951 121.421 89.5711 120.691 89.5711 119.816C89.5711 118.941 89.3951 118.211 89.0431 117.624C88.6911 117.037 88.2165 116.595 87.6191 116.296C87.0218 115.987 86.3391 115.832 85.5711 115.832C84.8245 115.832 84.1471 115.987 83.5391 116.296C82.9311 116.595 82.4511 117.037 82.0991 117.624C81.7471 118.211 81.5711 118.941 81.5711 119.816C81.5711 120.691 81.7471 121.421 82.0991 122.008C82.4511 122.595 82.9311 123.037 83.5391 123.336C84.1471 123.635 84.8245 123.784 85.5711 123.784ZM93.2171 125V114.616H98.5611C99.3078 114.616 99.9478 114.728 100.481 114.952C101.025 115.165 101.441 115.496 101.729 115.944C102.017 116.381 102.161 116.941 102.161 117.624C102.161 118.093 102.081 118.493 101.921 118.824C101.772 119.144 101.564 119.411 101.297 119.624C101.03 119.837 100.716 120.003 100.353 120.12C99.9905 120.237 99.6011 120.312 99.1851 120.344L99.0731 120.248C99.7025 120.269 100.23 120.339 100.657 120.456C101.084 120.573 101.409 120.787 101.633 121.096C101.868 121.395 101.985 121.843 101.985 122.44V125H100.433V122.488C100.433 122.072 100.364 121.747 100.225 121.512C100.086 121.277 99.8465 121.112 99.5051 121.016C99.1638 120.92 98.6838 120.872 98.0651 120.872H94.7531V125H93.2171ZM94.7531 119.528H98.5611C99.2438 119.528 99.7558 119.357 100.097 119.016C100.449 118.675 100.625 118.227 100.625 117.672C100.625 117.139 100.449 116.728 100.097 116.44C99.7558 116.152 99.2438 116.008 98.5611 116.008H94.7531V119.528ZM104.373 126.856H114.837V128.2H104.373V126.856ZM123.967 124.136H123.311L128.415 114.616H129.951V125H128.415V117.032L128.751 117.112L124.447 125H122.831L118.527 117.128L118.863 117.048V125H117.327V114.616H118.863L123.967 124.136ZM133.779 122.424V121.048H139.347V122.424H133.779ZM131.523 125L135.763 114.616H137.395L141.667 125H140.003L136.291 115.624H136.867L133.171 125H131.523ZM150.652 114.616L146.7 121.528V125H145.164V121.528L141.212 114.616H142.972L146.332 120.68H145.596L148.892 114.616H150.652ZM164.579 123.304L164.131 123.464V114.616H165.683V125H164.131L156.883 116.344L157.331 116.184V125H155.795V114.616H157.331L164.579 123.304ZM173.321 125.176C172.244 125.176 171.284 124.957 170.441 124.52C169.609 124.083 168.953 123.464 168.473 122.664C168.004 121.864 167.769 120.915 167.769 119.816C167.769 118.707 168.004 117.752 168.473 116.952C168.953 116.152 169.609 115.533 170.441 115.096C171.284 114.659 172.244 114.44 173.321 114.44C174.409 114.44 175.369 114.659 176.201 115.096C177.033 115.533 177.689 116.152 178.169 116.952C178.649 117.752 178.889 118.707 178.889 119.816C178.889 120.915 178.649 121.864 178.169 122.664C177.689 123.464 177.033 124.083 176.201 124.52C175.369 124.957 174.409 125.176 173.321 125.176ZM173.321 123.784C174.089 123.784 174.772 123.635 175.369 123.336C175.966 123.037 176.441 122.595 176.793 122.008C177.145 121.421 177.321 120.691 177.321 119.816C177.321 118.941 177.145 118.211 176.793 117.624C176.441 117.037 175.966 116.595 175.369 116.296C174.772 115.987 174.089 115.832 173.321 115.832C172.574 115.832 171.897 115.987 171.289 116.296C170.681 116.595 170.201 117.037 169.849 117.624C169.497 118.211 169.321 118.941 169.321 119.816C169.321 120.691 169.497 121.421 169.849 122.008C170.201 122.595 170.681 123.037 171.289 123.336C171.897 123.635 172.574 123.784 173.321 123.784ZM179.663 114.616H188.767V115.992H179.663V114.616ZM183.439 115.832H184.991V125H183.439V115.832ZM188.904 126.856H199.368V128.2H188.904V126.856ZM201.858 125V114.616H206.53C207.703 114.616 208.61 114.856 209.25 115.336C209.89 115.816 210.21 116.504 210.21 117.4C210.21 117.955 210.087 118.403 209.842 118.744C209.607 119.085 209.271 119.341 208.834 119.512C208.396 119.672 207.884 119.779 207.298 119.832L207.33 119.72C207.767 119.741 208.178 119.789 208.562 119.864C208.956 119.939 209.298 120.061 209.586 120.232C209.884 120.403 210.119 120.637 210.29 120.936C210.471 121.235 210.562 121.624 210.562 122.104C210.562 122.733 210.412 123.261 210.114 123.688C209.815 124.104 209.399 124.419 208.866 124.632C208.343 124.845 207.735 124.968 207.042 125H201.858ZM203.394 123.624H206.754C207.458 123.624 208.007 123.496 208.402 123.24C208.796 122.984 208.994 122.579 208.994 122.024C208.994 121.597 208.871 121.277 208.626 121.064C208.38 120.851 208.06 120.712 207.666 120.648C207.282 120.584 206.882 120.552 206.466 120.552H203.394V123.624ZM203.394 119.192H206.402C207.106 119.192 207.655 119.053 208.05 118.776C208.444 118.488 208.642 118.072 208.642 117.528C208.642 116.973 208.444 116.579 208.05 116.344C207.655 116.109 207.154 115.992 206.546 115.992H203.394V119.192ZM214.05 120.504V123.624H220.738V125H212.514V114.616H220.722V115.992H214.05V119.16H219.506V120.504H214.05ZM78.5814 131.616V132.992H71.9094V136.224H77.3654V137.568H71.9094V142H70.3734V131.616H78.5814ZM80.5996 131.616H82.1356V142H80.5996V131.616ZM93.7668 140.304L93.3188 140.464V131.616H94.8708V142H93.3188L86.0707 133.344L86.5188 133.184V142H84.9828V131.616H86.5188L93.7668 140.304ZM98.7006 139.424V138.048H104.269V139.424H98.7006ZM96.4446 142L100.685 131.616H102.317L106.589 142H104.925L101.213 132.624H101.789L98.0926 142H96.4446ZM109.691 131.616V140.624H115.803V142H108.155V131.616H109.691ZM126.066 131.616V132.992H119.394V136.224H124.85V137.568H119.394V142H117.858V131.616H126.066ZM128.084 131.616H129.62V142H128.084V131.616ZM134.003 131.616V140.624H140.115V142H132.467V131.616H134.003ZM143.706 137.504V140.624H150.394V142H142.17V131.616H150.378V132.992H143.706V136.16H149.162V137.504H143.706ZM154.271 140.352V142H152.367V140.352H154.271ZM168.269 131.616V132.992H161.597V136.224H167.053V137.568H161.597V142H160.061V131.616H168.269ZM170.287 131.616H171.823V142H170.287V131.616ZM179.566 142.176C178.745 142.176 178.004 142.053 177.342 141.808C176.692 141.563 176.132 141.211 175.662 140.752C175.193 140.293 174.836 139.739 174.59 139.088C174.345 138.427 174.222 137.696 174.222 136.896C174.222 136.075 174.356 135.333 174.622 134.672C174.889 134 175.268 133.424 175.758 132.944C176.249 132.453 176.83 132.08 177.502 131.824C178.174 131.568 178.916 131.44 179.726 131.44C180.633 131.44 181.428 131.595 182.11 131.904C182.804 132.213 183.358 132.651 183.774 133.216C184.19 133.771 184.436 134.432 184.51 135.2H183.118C182.98 134.709 182.756 134.288 182.446 133.936C182.137 133.584 181.753 133.312 181.294 133.12C180.836 132.928 180.313 132.832 179.726 132.832C178.926 132.832 178.233 133.008 177.646 133.36C177.06 133.701 176.601 134.181 176.27 134.8C175.94 135.408 175.774 136.107 175.774 136.896C175.774 137.675 175.918 138.357 176.206 138.944C176.505 139.52 176.937 139.973 177.502 140.304C178.078 140.624 178.772 140.784 179.582 140.784C180.212 140.784 180.761 140.677 181.23 140.464C181.71 140.24 182.1 139.931 182.398 139.536C182.708 139.131 182.921 138.645 183.038 138.08L183.838 137.984C183.678 139.36 183.22 140.405 182.462 141.12C181.705 141.824 180.74 142.176 179.566 142.176ZM183.486 142C183.486 141.659 183.497 141.269 183.518 140.832C183.55 140.384 183.582 139.936 183.614 139.488C183.657 139.029 183.694 138.619 183.726 138.256H179.838V137.008H184.91V142H183.486Z" fill="black" fill-opacity="0.5"/>
</svg>
